<?xml version="1.0" encoding="UTF-8" standalone="no"?>
<!-- Created with Inkscape (http://www.inkscape.org/) -->
<svg
   xmlns:dc="http://purl.org/dc/elements/1.1/"
   xmlns:cc="http://web.resource.org/cc/"
   xmlns:rdf="http://www.w3.org/1999/02/22-rdf-syntax-ns#"
   xmlns:svg="http://www.w3.org/2000/svg"
   xmlns="http://www.w3.org/2000/svg"
   xmlns:sodipodi="http://sodipodi.sourceforge.net/DTD/sodipodi-0.dtd"
   xmlns:inkscape="http://www.inkscape.org/namespaces/inkscape"
   width="194.60905"
   height="184.78824"
   id="svg2134"
   sodipodi:version="0.32"
   inkscape:version="0.44+devel"
   version="1.0"
   sodipodi:docbase="C:\Documents and Settings\Molumen\Desktop"
   sodipodi:docname="cloud08.svg"
   inkscape:output_extension="org.inkscape.output.svg.inkscape">
  <defs
     id="defs2136">
    <linearGradient
       id="linearGradient11067">
      <stop
         style="stop-color:#e9fffb;stop-opacity:0.91774893;"
         offset="0"
         id="stop11069" />
      <stop
         style="stop-color:#72dac5;stop-opacity:0;"
         offset="1"
         id="stop11071" />
    </linearGradient>
  </defs>
  <sodipodi:namedview
     id="base"
     pagecolor="#ffffff"
     bordercolor="#666666"
     borderopacity="1.0"
     gridtolerance="10000"
     guidetolerance="10"
     objecttolerance="10"
     inkscape:pageopacity="0.0"
     inkscape:pageshadow="2"
     inkscape:zoom="0.35"
     inkscape:cx="149.28571"
     inkscape:cy="105.71429"
     inkscape:document-units="px"
     inkscape:current-layer="layer1"
     inkscape:window-width="673"
     inkscape:window-height="603"
     inkscape:window-x="44"
     inkscape:window-y="58" />
  <metadata
     id="metadata2139">
    <rdf:RDF>
      <cc:Work
         rdf:about="">
        <dc:format>image/svg+xml</dc:format>
        <dc:type
           rdf:resource="http://purl.org/dc/dcmitype/StillImage" />
      </cc:Work>
    </rdf:RDF>
  </metadata>
  <g
     inkscape:label="Layer 1"
     inkscape:groupmode="layer"
     id="layer1"
     transform="translate(-1831.6592,-1228.5502)">
    <path
       style="fill:#ffffff;fill-opacity:1;fill-rule:evenodd;stroke:#000000;stroke-width:4.27332497;stroke-linecap:butt;stroke-linejoin:miter;stroke-miterlimit:4;stroke-dasharray:none;stroke-opacity:1"
       d="M 1904.8375,1230.7041 C 1896.1726,1231.0761 1887.041,1237.4458 1883.3375,1248.6728 C 1875.0279,1237.1534 1855.5832,1248.1556 1862.4,1262.2353 C 1833.078,1253.7526 1813.4304,1309.8191 1869.7438,1306.9228 C 1833.8257,1337.5049 1894.3176,1364.6576 1919.525,1335.2041 C 1921.1072,1354.4659 1945.8515,1356.9021 1953.9938,1339.7041 C 1962.0487,1355.3237 1986.9057,1353.414 1989.6188,1328.9541 C 2000.3429,1341.667 2019.4507,1325.5475 2010.5563,1313.1416 C 2024.5898,1314.5116 2031.364,1294.1708 2012.8063,1289.9541 C 2026.2727,1274.9855 2003.9338,1257.3465 1989.6188,1269.6103 C 1997.4415,1249.0959 1977.4071,1234.0069 1958.525,1248.6728 C 1962.6756,1231.1262 1935.7421,1221.3231 1922.3375,1243.5791 C 1919.2985,1234.4525 1912.2467,1230.386 1904.8375,1230.7041 z M 1899.4938,1355.1103 C 1897.5221,1355.1505 1895.5401,1355.4554 1893.6188,1356.0166 L 1893.5563,1356.0166 C 1885.3966,1358.4286 1881.6382,1364.8956 1885.15,1370.4541 C 1888.6716,1376.028 1898.171,1378.5986 1906.3688,1376.2041 C 1914.5665,1373.8096 1918.3591,1367.3405 1914.8375,1361.7666 C 1912.1413,1357.499 1905.9345,1354.9792 1899.4938,1355.1103 z M 1914.9938,1385.0166 C 1913.7435,1385.085 1912.4908,1385.3128 1911.275,1385.6728 L 1911.2125,1385.6728 C 1905.2549,1387.4585 1902.5234,1392.2454 1905.0875,1396.3603 C 1907.6588,1400.4868 1914.6021,1402.383 1920.5875,1400.6103 C 1926.573,1398.8377 1929.3463,1394.0493 1926.775,1389.9228 C 1924.7261,1386.6346 1919.8986,1384.7481 1914.9938,1385.0166 z M 1936.3375,1404.3603 C 1935.6497,1404.3679 1934.9458,1404.4615 1934.275,1404.6416 L 1934.2438,1404.6728 C 1931.487,1405.4219 1930.2135,1407.4153 1931.4,1409.1416 C 1932.5898,1410.8726 1935.8178,1411.6665 1938.5875,1410.9228 C 1941.3572,1410.1792 1942.6211,1408.1852 1941.4313,1406.4541 C 1940.5296,1405.1423 1938.4896,1404.3366 1936.3375,1404.3603 z"
       id="path4847" />
  </g>
</svg>
