<?xml version="1.0" encoding="UTF-8" standalone="no"?>
<!-- Created with Inkscape (http://www.inkscape.org/) -->
<svg
   xmlns:dc="http://purl.org/dc/elements/1.1/"
   xmlns:cc="http://web.resource.org/cc/"
   xmlns:rdf="http://www.w3.org/1999/02/22-rdf-syntax-ns#"
   xmlns:svg="http://www.w3.org/2000/svg"
   xmlns="http://www.w3.org/2000/svg"
   xmlns:sodipodi="http://sodipodi.sourceforge.net/DTD/sodipodi-0.dtd"
   xmlns:inkscape="http://www.inkscape.org/namespaces/inkscape"
   width="283.4115"
   height="198.13579"
   id="svg2134"
   sodipodi:version="0.32"
   inkscape:version="0.44+devel"
   version="1.0"
   sodipodi:docbase="C:\Documents and Settings\Molumen\Desktop"
   sodipodi:docname="cloud12.svg"
   inkscape:output_extension="org.inkscape.output.svg.inkscape">
  <defs
     id="defs2136">
    <linearGradient
       id="linearGradient11067">
      <stop
         style="stop-color:#e9fffb;stop-opacity:0.91774893;"
         offset="0"
         id="stop11069" />
      <stop
         style="stop-color:#72dac5;stop-opacity:0;"
         offset="1"
         id="stop11071" />
    </linearGradient>
  </defs>
  <sodipodi:namedview
     id="base"
     pagecolor="#ffffff"
     bordercolor="#666666"
     borderopacity="1.0"
     gridtolerance="10000"
     guidetolerance="10"
     objecttolerance="10"
     inkscape:pageopacity="0.0"
     inkscape:pageshadow="2"
     inkscape:zoom="0.35"
     inkscape:cx="149.28571"
     inkscape:cy="105.71429"
     inkscape:document-units="px"
     inkscape:current-layer="layer1"
     inkscape:window-width="673"
     inkscape:window-height="603"
     inkscape:window-x="44"
     inkscape:window-y="58" />
  <metadata
     id="metadata2139">
    <rdf:RDF>
      <cc:Work
         rdf:about="">
        <dc:format>image/svg+xml</dc:format>
        <dc:type
           rdf:resource="http://purl.org/dc/dcmitype/StillImage" />
      </cc:Work>
    </rdf:RDF>
  </metadata>
  <g
     inkscape:label="Layer 1"
     inkscape:groupmode="layer"
     id="layer1"
     transform="translate(-2170.8254,-1628.1823)">
    <path
       style="fill:#ffffff;fill-opacity:1;fill-rule:evenodd;stroke:#000000;stroke-width:4.27332497;stroke-linecap:butt;stroke-linejoin:miter;stroke-miterlimit:4;stroke-dasharray:none;stroke-opacity:1"
       d="M 2388.0378,1630.3192 C 2380.0039,1630.3523 2371.5729,1634.1792 2365.4441,1643.288 C 2351.9929,1635.4661 2332.6459,1637.8892 2332.4128,1652.1005 C 2311.1171,1636.664 2299.9809,1652.8909 2299.3816,1663.1005 C 2290.5267,1653.1868 2268.0151,1651.7656 2267.8503,1668.2567 C 2258.586,1659.8828 2250.9616,1661.3373 2243.6316,1664.5692 C 2240.0844,1648.6283 2213.3423,1648.8577 2212.7878,1663.8505 C 2191.8473,1649.0371 2181.6305,1667.6699 2184.1628,1679.2567 C 2156.3881,1692.8423 2187.7391,1719.424 2198.1316,1698.3192 C 2204.2054,1711.0756 2221.9085,1713.6194 2232.6003,1699.0692 C 2236.134,1710.6024 2248.218,1714.0471 2259.0378,1709.3505 C 2266.946,1719.5991 2282.2202,1713.5314 2282.5378,1702.6317 C 2290.0213,1712.2542 2304.7081,1716.1588 2311.1316,1698.3192 C 2317.5466,1714.6932 2341.8562,1712.9703 2346.1628,1698.1942 C 2351.4324,1709.3231 2368.2783,1715.7729 2374.9753,1702.0067 C 2380.6614,1718.9144 2411.1864,1720.8561 2413.1316,1702.7255 C 2486.0308,1702.9699 2439.2398,1640.4689 2412.4128,1652.1005 C 2412.1307,1639.4422 2400.5708,1630.2675 2388.0378,1630.3192 z M 2392.2253,1726.2567 C 2388.4292,1726.5145 2384.9231,1728.8664 2383.3191,1732.6005 C 2381.0377,1737.9111 2383.4772,1744.0691 2388.7878,1746.3505 C 2394.0985,1748.6318 2400.2565,1746.1611 2402.5378,1740.8505 C 2404.8128,1735.5546 2402.3863,1729.4298 2397.1003,1727.1317 L 2397.0691,1727.1005 C 2395.4925,1726.4232 2393.8281,1726.1479 2392.2253,1726.2567 z M 2387.3191,1759.5067 C 2384.2886,1759.6015 2381.4379,1761.4136 2380.1628,1764.3817 C 2378.4079,1768.4668 2380.2965,1773.2206 2384.3816,1774.9755 C 2388.4667,1776.7303 2393.2204,1774.8418 2394.9753,1770.7567 C 2396.7253,1766.6829 2394.8539,1761.962 2390.7878,1760.1942 L 2390.7566,1760.163 C 2389.6396,1759.6831 2388.4596,1759.471 2387.3191,1759.5067 z M 2380.6316,1788.163 C 2377.839,1788.1821 2375.1788,1789.8405 2374.0066,1792.5692 C 2372.4272,1796.2458 2374.1112,1800.5211 2377.7878,1802.1005 C 2381.4644,1803.6799 2385.7397,1801.9646 2387.3191,1798.288 C 2388.8941,1794.6216 2387.2286,1790.3789 2383.5691,1788.788 L 2383.5378,1788.7567 C 2382.5899,1788.3495 2381.6016,1788.1563 2380.6316,1788.163 z M 2371.9753,1814.5067 C 2370.2233,1814.6257 2368.6219,1815.7208 2367.8816,1817.4442 C 2366.8286,1819.8953 2367.9618,1822.735 2370.4128,1823.788 C 2372.8639,1824.8409 2375.7036,1823.7078 2376.7566,1821.2567 C 2377.8066,1818.8124 2376.665,1815.9736 2374.2253,1814.913 C 2373.4977,1814.6004 2372.7151,1814.4565 2371.9753,1814.5067 z"
       id="path7502" />
  </g>
</svg>
