<?xml version="1.0" encoding="UTF-8" standalone="no"?>
<!-- Created with Inkscape (http://www.inkscape.org/) -->

<svg
   xmlns:dc="http://purl.org/dc/elements/1.1/"
   xmlns:cc="http://creativecommons.org/ns#"
   xmlns:rdf="http://www.w3.org/1999/02/22-rdf-syntax-ns#"
   xmlns:svg="http://www.w3.org/2000/svg"
   xmlns="http://www.w3.org/2000/svg"
   xmlns:sodipodi="http://sodipodi.sourceforge.net/DTD/sodipodi-0.dtd"
   xmlns:inkscape="http://www.inkscape.org/namespaces/inkscape"
   width="390.99899"
   height="295.22101"
   id="svg3111"
   version="1.1"
   inkscape:version="0.48.3.1 r9886"
   sodipodi:docname="030c.svg">
  <defs
     id="defs3113" />
  <sodipodi:namedview
     id="base"
     pagecolor="#ffffff"
     bordercolor="#666666"
     borderopacity="1.0"
     inkscape:pageopacity="0.0"
     inkscape:pageshadow="2"
     inkscape:zoom="1.2325395"
     inkscape:cx="205.6051"
     inkscape:cy="147.61051"
     inkscape:document-units="px"
     inkscape:current-layer="layer1"
     showgrid="false"
     fit-margin-top="0"
     fit-margin-left="0"
     fit-margin-right="0"
     fit-margin-bottom="0"
     inkscape:window-width="1480"
     inkscape:window-height="823"
     inkscape:window-x="189"
     inkscape:window-y="131"
     inkscape:window-maximized="0" />
  <metadata
     id="metadata3116">
    <rdf:RDF>
      <cc:Work
         rdf:about="">
        <dc:format>image/svg+xml</dc:format>
        <dc:type
           rdf:resource="http://purl.org/dc/dcmitype/StillImage" />
        <dc:title />
      </cc:Work>
    </rdf:RDF>
  </metadata>
  <g
     inkscape:label="Calque 1"
     inkscape:groupmode="layer"
     id="layer1"
     transform="translate(-179.5005,-384.75167)">
    <path
       d="m 517.23449,660.38169 c -0.019,-0.023 -0.051,-0.063 -0.096,-0.123 l 0,0 c -0.109,-0.141 -0.299,-0.385 -0.556,-0.734 l 0,0 c -0.513,-0.698 -1.305,-1.812 -2.303,-3.346 l 0,0 c -1.995,-3.065 -4.824,-7.808 -7.933,-14.246 l 0,0 c -5.29,-10.953 -11.397,-26.81 -15.635,-47.742 l 0,0 h 55.506 c 6.719,0.008 12.896,-2.798 17.243,-7.25 l 0,0 c 4.37,-4.439 7.045,-10.623 7.039,-17.312 l 0,0 v -160.313 c 0.006,-6.691 -2.669,-12.875 -7.039,-17.315 l 0,0 c -4.346,-4.452 -10.524,-7.257 -17.243,-7.249 l 0,0 v 10 10 c 2.263,0.004 4.248,1.84 4.284,4.563 l 0,0 -0.002,160.313 c -0.034,2.723 -2.019,4.558 -4.282,4.562 l 0,0 h -79.09 l 1.77,11.521 c 4.159,27.061 11.466,47.736 18.14,62.166 l 0,0 c -1.566,-0.881 -3.167,-1.842 -4.789,-2.894 l 0,0 c -15.691,-10.272 -33.465,-28.415 -42,-63.156 l 0,0 -1.858,-7.637 H 203.7825 c -2.261,-0.004 -4.245,-1.839 -4.281,-4.562 l 0,0 v -160.312 c 0.036,-2.724 2.021,-4.559 4.281,-4.563 l 0,0 h 342.43499 v -10.001 -10 H 203.7815 c -6.719,-0.008 -12.895,2.797 -17.243,7.249 l 0,0 c -4.367,4.439 -7.042,10.624 -7.038,17.315 l 0,0 v 160.312 c -0.004,6.689 2.671,12.873 7.038,17.312 l 0,0 c 4.347,4.452 10.524,7.258 17.243,7.25 l 0,0 h 219.08099 c 10.384,35.07 30.513,56.008 48.508,67.574 l 0,0 c 19.274,12.461 35.869,14.726 36.812,14.869 l 0,0 25.151,3.34 -16.099,-19.591 0,0 z"
       id="path240"
       inkscape:connector-curvature="0"
       style="fill:#010101;fill-opacity:1" />
    <path
       style="fill:#ffffff"
       inkscape:connector-curvature="0"
       d="m 547.86236,395.41675 c 7.906,0 14.281,6.488 14.281,14.562 v 160.312 c 0,8.074 -6.376,14.562 -14.281,14.562 h -67.438 c 8.539,55.539 30.719,82.533 30.719,82.533 0,0 -60.853,-8.084 -78.969,-82.531 h -226.75 c -7.905,0 -14.281,-6.488 -14.281,-14.562 v -160.314 c 0,-8.074 6.376,-14.562 14.281,-14.562 h 342.438 z"
       id="path238" />
  </g>
</svg>
