<?xml version="1.0" encoding="UTF-8" standalone="no"?>
<!-- Created with Inkscape (http://www.inkscape.org/) -->

<svg
   xmlns:dc="http://purl.org/dc/elements/1.1/"
   xmlns:cc="http://creativecommons.org/ns#"
   xmlns:rdf="http://www.w3.org/1999/02/22-rdf-syntax-ns#"
   xmlns:svg="http://www.w3.org/2000/svg"
   xmlns="http://www.w3.org/2000/svg"
   xmlns:sodipodi="http://sodipodi.sourceforge.net/DTD/sodipodi-0.dtd"
   xmlns:inkscape="http://www.inkscape.org/namespaces/inkscape"
   width="505.79401"
   height="507.06299"
   id="svg3236"
   version="1.1"
   inkscape:version="0.48.3.1 r9886"
   sodipodi:docname="Nouveau document 2">
  <defs
     id="defs3238" />
  <sodipodi:namedview
     id="base"
     pagecolor="#ffffff"
     bordercolor="#666666"
     borderopacity="1.0"
     inkscape:pageopacity="0.0"
     inkscape:pageshadow="2"
     inkscape:zoom="0.35"
     inkscape:cx="252.897"
     inkscape:cy="253.5315"
     inkscape:document-units="px"
     inkscape:current-layer="layer1"
     showgrid="false"
     fit-margin-top="0"
     fit-margin-left="0"
     fit-margin-right="0"
     fit-margin-bottom="0"
     inkscape:window-width="563"
     inkscape:window-height="420"
     inkscape:window-x="1355"
     inkscape:window-y="24"
     inkscape:window-maximized="0" />
  <metadata
     id="metadata3241">
    <rdf:RDF>
      <cc:Work
         rdf:about="">
        <dc:format>image/svg+xml</dc:format>
        <dc:type
           rdf:resource="http://purl.org/dc/dcmitype/StillImage" />
        <dc:title></dc:title>
      </cc:Work>
    </rdf:RDF>
  </metadata>
  <g
     inkscape:label="Calque 1"
     inkscape:groupmode="layer"
     id="layer1"
     transform="translate(-122.103,-278.83068)">
    <path
       style="fill:#ffffff"
       inkscape:connector-curvature="0"
       d="m 388.311,292.94668 c -10.235,8.942 -20.483,17.87 -30.719,26.812 -12.958,-7.594 -25.917,-15.188 -38.875,-22.781 -5.084,10.384 -10.166,20.772 -15.25,31.156 -16.272,-4.843 -32.541,-9.688 -48.812,-14.531 0.564,10.81 1.124,21.628 1.688,32.438 -17.994,-1.618 -35.975,-3.227 -53.969,-4.844 6.158,10.177 12.311,20.354 18.469,30.531 -17.955,1.766 -35.92,3.515 -53.875,5.281 11.148,8.548 22.289,17.108 33.438,25.656 -16.157,4.977 -32.312,9.961 -48.469,14.938 15.047,6.082 30.109,12.167 45.156,18.25 -12.779,7.7 -25.565,15.394 -38.344,23.094 17.474,3.021 34.963,6.041 52.438,9.062 -8.149,9.67 -16.319,19.33 -24.469,29 18.19,-0.335 36.404,-0.665 54.594,-1 -2.722,10.693 -5.465,21.4 -8.188,32.094 17.125,-3.659 34.25,-7.341 51.375,-11 2.972,10.669 5.935,21.361 8.906,32.031 8.5,-3.915 17,-7.835 25.5,-11.75 l -13.719,51.281 55.531,32.062 -25.281,94.438 66.094,-114.469 -57,-32.906 10.219,-17.688 c 2.311,2.649 4.627,5.288 6.938,7.938 10.235,-8.942 20.483,-17.87 30.719,-26.812 12.957,7.594 25.918,15.188 38.875,22.781 5.084,-10.384 10.166,-20.772 15.25,-31.156 16.272,4.843 32.54,9.688 48.812,14.531 -0.564,-10.81 -1.123,-21.628 -1.688,-32.438 17.994,1.617 35.975,3.226 53.969,4.844 -6.157,-10.177 -12.312,-20.354 -18.469,-30.531 17.954,-1.766 35.921,-3.516 53.875,-5.281 -11.148,-8.548 -22.289,-17.108 -33.438,-25.656 16.157,-4.977 32.312,-9.93 48.469,-14.906 -15.048,-6.083 -30.108,-12.168 -45.156,-18.25 12.779,-7.7 25.565,-15.425 38.344,-23.125 -17.474,-3.021 -34.964,-6.041 -52.438,-9.062 8.149,-9.67 16.319,-19.33 24.469,-29 -18.189,0.335 -36.404,0.665 -54.594,1 2.722,-10.693 5.466,-21.369 8.188,-32.062 -17.125,3.659 -34.25,7.31 -51.375,10.969 -2.972,-10.67 -5.935,-21.33 -8.906,-32 -14.385,6.625 -28.771,13.25 -43.156,19.875 -8.376,-9.603 -16.751,-19.212 -25.126,-28.814 z"
       id="path238" />
    <g
       id="g240"
       transform="translate(122.103,278.83068)">
      <path
         style="fill:#010101"
         inkscape:connector-curvature="0"
         d="m 448.948,173.352 c 9.98,-3.067 19.965,-6.134 29.951,-9.211 l 26.895,-8.284 -26.09,-10.543 c -8.864,-3.584 -17.733,-7.168 -26.601,-10.752 7.07,-4.266 14.139,-8.53 21.202,-12.787 l 22.981,-13.851 -26.438,-4.569 c -11.748,-2.031 -23.501,-4.061 -35.251,-6.091 4.408,-5.221 8.818,-10.443 13.227,-15.672 L 463.02,64.74 440.991,65.147 c -13.817,0.255 -27.648,0.507 -41.476,0.76 1.648,-6.445 3.301,-12.895 4.945,-19.356 l 3.971,-15.613 -15.752,3.367 c -14.055,3.004 -28.115,6.002 -42.175,9.004 -2.127,-7.645 -4.253,-15.288 -6.384,-22.938 L 340.97,9.059 330.306,13.97 C 318.187,19.551 306.067,25.132 293.949,30.713 287.215,22.99 280.479,15.264 273.743,7.542 L 267.162,0 259.628,6.584 C 251.206,13.943 242.77,21.297 234.334,28.66 223.446,22.28 212.557,15.9 201.671,9.518 l -9.298,-5.448 -4.739,9.679 c -3.846,7.852 -7.688,15.705 -11.529,23.555 -13.566,-4.039 -27.132,-8.078 -40.7,-12.116 l -13.577,-4.041 0.738,14.146 c 0.364,6.972 0.726,13.949 1.088,20.926 C 109.488,54.948 95.33,53.68 81.166,52.407 l -19.679,-1.77 10.226,16.907 c 3.42,5.65 6.837,11.3 10.255,16.95 -12.691,1.243 -25.388,2.483 -38.083,3.732 l -25.202,2.479 20.097,15.408 c 6.024,4.62 12.046,9.243 18.071,13.867 -9.989,3.079 -19.975,6.158 -29.962,9.235 L 0,137.495 26.086,148.043 c 8.859,3.581 17.724,7.163 26.588,10.745 -7.062,4.253 -14.127,8.507 -21.19,12.763 L 8.5,185.397 l 26.441,4.571 c 11.746,2.031 23.499,4.062 35.25,6.092 -4.408,5.221 -8.818,10.444 -13.225,15.674 l -14.199,16.847 22.032,-0.405 c 13.817,-0.255 27.65,-0.507 41.478,-0.76 -1.649,6.46 -3.302,12.925 -4.948,19.389 l -3.975,15.611 15.756,-3.366 c 14.064,-3.005 28.12,-6.023 42.173,-9.031 2.126,7.651 4.253,15.313 6.385,22.967 l 3.149,11.312 10.667,-4.913 c 2.05,-0.944 4.101,-1.89 6.151,-2.834 l -10.195,38.105 55.53,32.063 -42.933,160.344 109.05,-188.86 -49.941,-28.829 3.016,-2.635 c 8.422,-7.359 16.858,-14.711 25.294,-22.075 10.888,6.381 21.777,12.761 32.663,19.141 l 9.298,5.451 4.74,-9.682 c 3.844,-7.851 7.686,-15.703 11.527,-23.554 13.565,4.038 27.132,8.08 40.701,12.118 l 13.577,4.041 -0.738,-14.148 c -0.364,-6.972 -0.726,-13.948 -1.089,-20.926 14.166,1.271 28.323,2.539 42.488,3.812 l 19.683,1.771 -10.23,-16.906 c -3.418,-5.65 -6.837,-11.302 -10.255,-16.953 12.69,-1.243 25.389,-2.483 38.084,-3.732 l 25.207,-2.479 -20.102,-15.408 c -6.021,-4.615 -12.039,-9.235 -18.062,-13.858 z m -27.546,4.076 c 4.449,3.409 8.897,6.823 13.346,10.236 -9.558,0.936 -19.118,1.871 -28.677,2.812 l -15.789,1.554 8.212,13.575 c 2.748,4.542 5.495,9.084 8.243,13.627 -11.431,-1.025 -22.859,-2.049 -34.291,-3.075 l -11.482,-1.031 0.6,11.511 c 0.318,6.095 0.635,12.192 0.951,18.292 -11.744,-3.497 -23.488,-6.994 -35.236,-10.49 l -8.112,-2.415 -3.722,7.602 c -3.505,7.159 -7.008,14.319 -10.511,21.476 -9.859,-5.777 -19.721,-11.554 -29.577,-17.331 l -6.214,-3.642 -5.42,4.739 c -7.722,6.747 -15.455,13.487 -23.188,20.237 -0.118,-0.135 -0.235,-0.271 -0.353,-0.404 l -9.197,-10.544 -22.221,38.463 57.001,32.907 -23.15,40.095 7.644,-28.549 -55.534,-32.063 17.242,-64.449 -19.348,8.913 c -4.945,2.276 -9.888,4.555 -14.83,6.833 -1.918,-6.904 -3.836,-13.813 -5.758,-20.717 l -2.525,-9.061 -9.199,1.966 c -11.874,2.536 -23.744,5.083 -35.608,7.625 1.402,-5.49 2.804,-10.982 4.202,-16.474 l 3.234,-12.71 -13.11,0.245 c -10.843,0.199 -21.694,0.397 -32.546,0.596 3.417,-4.049 6.836,-8.1 10.252,-12.154 l 11.233,-13.329 -17.176,-2.968 c -8.66,-1.498 -17.323,-2.995 -25.985,-4.491 5.117,-3.081 10.234,-6.163 15.35,-9.247 l 17.149,-10.333 -18.563,-7.503 c -6.355,-2.569 -12.712,-5.139 -19.07,-7.709 7.193,-2.218 14.387,-4.436 21.58,-6.65 l 18.52,-5.704 -15.379,-11.788 c -4.449,-3.411 -8.897,-6.824 -13.347,-10.239 9.559,-0.936 19.12,-1.871 28.68,-2.812 l 15.792,-1.554 -8.214,-13.575 c -2.75,-4.542 -5.497,-9.084 -8.245,-13.627 11.43,1.025 22.859,2.05 34.291,3.077 l 11.484,1.031 -0.602,-11.513 c -0.318,-6.094 -0.634,-12.19 -0.951,-18.29 11.744,3.497 23.49,6.994 35.237,10.49 l 8.111,2.413 3.724,-7.6 c 3.505,-7.159 7.008,-14.319 10.511,-21.478 9.859,5.777 19.718,11.554 29.575,17.331 l 6.213,3.642 5.423,-4.737 c 7.718,-6.744 15.449,-13.484 23.179,-20.23 6.183,7.09 12.365,14.182 18.55,21.272 l 4.918,5.641 6.8,-3.131 c 10.83,-4.987 21.659,-9.974 32.489,-14.962 1.918,6.894 3.836,13.787 5.757,20.687 l 2.523,9.061 9.199,-1.964 c 11.867,-2.536 23.737,-5.068 35.608,-7.602 -1.401,5.478 -2.805,10.959 -4.202,16.451 l -3.232,12.704 13.108,-0.24 c 10.843,-0.199 21.695,-0.397 32.546,-0.596 -3.417,4.049 -6.836,8.099 -10.252,12.152 l -11.23,13.328 17.175,2.971 c 8.669,1.498 17.341,2.997 26.014,4.495 -5.128,3.094 -10.254,6.186 -15.378,9.273 l -17.146,10.33 18.559,7.504 c 6.349,2.566 12.699,5.134 19.05,7.7 -7.184,2.207 -14.369,4.416 -21.557,6.629 l -18.516,5.704 15.368,11.791 z"
         id="path242" />
    </g>
  </g>
</svg>
