<?xml version="1.0" encoding="UTF-8" standalone="no"?>
<svg
   xmlns:dc="http://purl.org/dc/elements/1.1/"
   xmlns:cc="http://web.resource.org/cc/"
   xmlns:rdf="http://www.w3.org/1999/02/22-rdf-syntax-ns#"
   xmlns:svg="http://www.w3.org/2000/svg"
   xmlns="http://www.w3.org/2000/svg"
   xmlns:sodipodi="http://inkscape.sourceforge.net/DTD/sodipodi-0.dtd"
   xmlns:inkscape="http://www.inkscape.org/namespaces/inkscape"
   width="264px"
   height="193px"
   id="svg2"
   sodipodi:version="0.32"
   inkscape:version="0.43"
   sodipodi:docname="Bulle_droite_question.svg"
   sodipodi:docbase="/home/f5soh/Swf/Svg_perso">
  <metadata
     id="metadata50">
    <rdf:RDF>
      <cc:Work
         rdf:about="">
        <dc:format>image/svg+xml</dc:format>
        <dc:type
           rdf:resource="http://purl.org/dc/dcmitype/StillImage" />
        <dc:creator>
          <cc:Agent>
            <dc:title>Lalanne Laurent</dc:title>
          </cc:Agent>
        </dc:creator>
        <dc:title>Bulle gauche</dc:title>
        <cc:license
           rdf:resource="http://web.resource.org/cc/PublicDomain" />
        <dc:subject>
          <rdf:Bag>
            <rdf:li>callouts</rdf:li>
            <rdf:li>cartoon</rdf:li>
          </rdf:Bag>
        </dc:subject>
      </cc:Work>
      <cc:License
         rdf:about="http://web.resource.org/cc/PublicDomain">
        <cc:permits
           rdf:resource="http://web.resource.org/cc/Reproduction" />
        <cc:permits
           rdf:resource="http://web.resource.org/cc/Distribution" />
        <cc:permits
           rdf:resource="http://web.resource.org/cc/DerivativeWorks" />
      </cc:License>
    </rdf:RDF>
  </metadata>
  <defs
     id="defs48" />
  <sodipodi:namedview
     inkscape:cy="96.5"
     inkscape:cx="132"
     inkscape:zoom="4.3678756"
     inkscape:window-height="996"
     inkscape:window-width="1272"
     inkscape:pageshadow="2"
     inkscape:pageopacity="0.0"
     borderopacity="1.0"
     bordercolor="#666666"
     pagecolor="#ffffff"
     id="base"
     inkscape:window-x="0"
     inkscape:window-y="0"
     inkscape:current-layer="svg2" />
  <path
     d="M103 10.031 C149,11.031 196,34.031 197,79.031 C197,101.031 184,116.031 165,125.031 C174,127.031 181,132.031 181,138.031 C181,142.031 179,144.031 176,146.031 C180,146.031 183,148.031 183,151.031 C183,156.031 168,156.031 168,150.031 C168,150.031 168,149.031 168,149.031 C154,153.031 133,148.031 132,137.031 C132,136.031 132,136.031 132,136.031 C79,144.031 12,121.031 10,72.031 C10,30.031 56,9.031 103,10.031"
     style="stroke:none;stroke-opacity:0;fill-opacity:0.63157892;fill:#000000;opacity:0.34918478"
     id="path4" />
  <path
     d="M12 67.031 C16,150.031 195,159.031 197,75.031 C195,-0.967 12,-3.967 12,67.031 Z"
     style="stroke-width:3;stroke:rgb(0,0,0);fill:rgb(255,255,255);"
     id="path6" />
  <path
     d="M131 135.031 C132,152.031 178,154.031 179,137.031 C178,118.031 131,118.031 131,135.031 Z"
     style="stroke-width:3;stroke:rgb(0,0,0);fill:rgb(255,255,255);"
     id="path8" />
  <path
     d="M169 149.031 C169,154.031 183,155.031 183,149.031 C183,143.031 169,143.031 169,149.031 Z"
     style="stroke-width:3;stroke:rgb(0,0,0);fill:rgb(255,255,255);"
     id="path10" />
  <path
     d="M 222,166.031 C 239.6324,147.22438 255.1028,151.76009 238.15505,129.07629"
     style="stroke-width:5;stroke:rgb(0,0,0);fill:none;stroke-linecap:round;stroke-linejoin:round"
     id="path12"
     sodipodi:nodetypes="cc" />
  <path
     d="M196 141.031 C191,142.031 187,151.031 189,158.031 C190,166.031 197,172.031 201,171.031 C206,170.031 210,162.031 208,154.031 C207,147.031 200,140.031 196,141.031 Z"
     style="stroke-width:3;stroke:rgb(0,0,0);fill:rgb(249,225,225);"
     id="path14" />
  <path
     d="M223 142.031 C218,141.031 211,147.031 209,154.031 C207,161.031 210,170.031 214,171.031 C219,172.031 226,167.031 228,159.031 C231,152.031 228,144.031 223,142.031 Z"
     style="stroke-width:3;stroke:rgb(0,0,0);fill:rgb(247,223,223);"
     id="path16" />
  <path
     d="M 199.23868,159.41166 C 197.23868,159.41166 197.23868,162.41166 197.23868,164.41166 C 198.23868,166.41166 201.23868,168.41166 202.23868,167.41166 C 204.23868,166.41166 204.23868,164.41166 204.23868,162.41166 C 203.23868,160.41166 200.23868,158.41166 199.23868,159.41166 z "
     style="fill:#1a1a1a;stroke:#000000"
     id="path18" />
  <path
     d="M 217.58711,158.6181 C 216.58711,158.6181 213.58711,159.6181 212.58711,161.6181 C 212.58711,163.6181 212.58711,166.6181 214.58711,167.6181 C 215.58711,167.6181 218.58711,166.6181 219.58711,164.6181 C 219.58711,162.6181 219.58711,159.6181 217.58711,158.6181 z "
     style="fill:#1a1a1a;stroke:#000000"
     id="path20" />
  <path
     d="M 231.96918,142.69955 C 227.53923,135.32559 215.53037,122.33377 211.27271,138.04594"
     style="fill:none;stroke:#000000;stroke-width:3;stroke-linecap:round;stroke-linejoin:round"
     id="path22" />
  <path
     d="M 187.27895,140.53944 C 193.7895,134.01159 209.42518,126.16778 207.22206,142.04689"
     style="fill:none;stroke:#000000;stroke-width:3;stroke-linecap:round;stroke-linejoin:round"
     id="path24" />
  <path
     d="M227 176.031 C224,176.031 222,177.031 222,179.031 C222,180.031 224,181.031 227,181.031 C229,181.031 231,180.031 231,179.031 C231,177.031 229,176.031 227,176.031 Z"
     style="stroke-width:3;stroke:rgb(0,0,0);fill:rgb(229,229,229);"
     id="path26" />
  <path
     d="M191 174.031 C189,174.031 187,176.031 187,178.031 C187,180.031 189,181.031 191,181.031 C193,181.031 195,180.031 195,178.031 C195,176.031 193,174.031 191,174.031 Z"
     style="stroke-width:3;stroke:rgb(0,0,0);fill:rgb(229,229,229);"
     id="path28" />
  <path
     d="M218 174.031 C216,174.031 214,176.031 214,178.031 C214,180.031 216,182.031 218,182.031 C220,182.031 222,180.031 222,178.031 C222,176.031 220,174.031 218,174.031 Z"
     style="stroke-width:3;stroke:rgb(0,0,0);fill:rgb(229,229,229);"
     id="path30" />
  <path
     d="M184 177.031 C182,177.031 180,178.031 180,179.031 C180,181.031 182,182.031 184,182.031 C186,182.031 188,181.031 188,179.031 C188,178.031 186,177.031 184,177.031 Z"
     style="stroke-width:3;stroke:rgb(0,0,0);fill:rgb(229,229,229);"
     id="path32" />
  <path
     d="M199 175.031 C197,175.031 196,177.031 196,178.031 C196,180.031 197,181.031 199,181.031 C200,181.031 202,180.031 202,178.031 C202,177.031 200,175.031 199,175.031 Z"
     style="stroke-width:3;stroke:rgb(0,0,0);fill:rgb(229,229,229);"
     id="path34" />
  <path
     d="M 237.4228,127.39504 C 224.78448,119.16697 226.97477,122.85841 223.33936,123.91523"
     style="fill:none;stroke:#000000;stroke-width:3;stroke-linecap:round;stroke-linejoin:round"
     id="path36"
     sodipodi:nodetypes="cc" />
  <path
     d="M 239.47145,128.94582 C 239.47145,128.94582 239.54693,118.87541 235.9937,117.23898"
     style="fill:none;stroke:#000000;stroke-width:3;stroke-linecap:round;stroke-linejoin:round"
     id="path38"
     sodipodi:nodetypes="cz" />
  <path
     d="M 227.69076,128.98406 C 226.52299,127.50515 234.43728,126.07031 236.51654,128.70357"
     style="fill:none;stroke:#000000;stroke-width:2.75656486;stroke-linecap:round;stroke-linejoin:round"
     id="path40"
     sodipodi:nodetypes="cc" />
  <path
     d="M 238.15505,127.48918 C 233.15505,119.48918 236.15505,121.48918 231.15505,119.48918"
     style="fill:none;stroke:#000000;stroke-width:3;stroke-linecap:round;stroke-linejoin:round"
     id="path42" />
  <g
     id="appdata_0_0_0_0_0" />
  <path
     style="opacity:1;color:#000000;fill:none;fill-opacity:1;fill-rule:nonzero;stroke:#000000;stroke-width:5.422;stroke-linecap:round;stroke-linejoin:round;marker:none;marker-start:none;marker-mid:none;marker-end:none;stroke-miterlimit:4;stroke-dasharray:none;stroke-dashoffset:0;stroke-opacity:1;visibility:visible;display:inline;overflow:visible"
     d="M 216.4416,82.502351 C 212.59058,76.053561 222.58507,70.252836 230.16099,72.862914 C 237.7369,75.472991 241.48816,82.430284 232.45836,90.396268 C 228.67549,93.733473 220.52087,93.475415 218.93762,102.60214 M 216.25382,112.09867 C 214.05123,113.79333 216.14912,108.35708 216.35557,112.07311"
     id="path2222"
     sodipodi:nodetypes="czsscc" />
  <path
     sodipodi:nodetypes="czss"
     id="path4845"
     d="M 217.35738,82.96024 C 213.50636,76.51145 223.50085,70.710725 231.07677,73.320803 C 238.65268,75.93088 242.40394,82.888173 233.37414,90.854157 C 229.59127,94.191362 221.43665,93.933304 219.8534,103.06002"
     style="opacity:1;color:#000000;fill:none;fill-opacity:1;fill-rule:nonzero;stroke:#000000;stroke-width:5.42199993;stroke-linecap:round;stroke-linejoin:round;marker:none;marker-start:none;marker-mid:none;marker-end:none;stroke-miterlimit:4;stroke-dasharray:none;stroke-dashoffset:0;stroke-opacity:0.34903044;visibility:visible;display:inline;overflow:visible" />
  <path
     sodipodi:type="arc"
     style="opacity:1;fill:#000000;fill-opacity:0.63157893;fill-rule:nonzero;stroke:#000000;stroke-width:5.42199993;stroke-linecap:round;stroke-linejoin:round;stroke-miterlimit:4;stroke-dasharray:none;stroke-dashoffset:2.45069995;stroke-opacity:0.34903044"
     id="path7466"
     sodipodi:cx="215.66548"
     sodipodi:cy="109.89324"
     sodipodi:rx="1.1447213"
     sodipodi:ry="1.3736655"
     d="M 216.8102 109.89324 A 1.1447213 1.3736655 0 1 1  214.52076,109.89324 A 1.1447213 1.3736655 0 1 1  216.8102 109.89324 z"
     transform="translate(0.686833,2.518387)" />
</svg>
