<?xml version="1.0" encoding="UTF-8" standalone="no"?>
<svg
   xmlns:dc="http://purl.org/dc/elements/1.1/"
   xmlns:cc="http://web.resource.org/cc/"
   xmlns:rdf="http://www.w3.org/1999/02/22-rdf-syntax-ns#"
   xmlns:svg="http://www.w3.org/2000/svg"
   xmlns="http://www.w3.org/2000/svg"
   xmlns:sodipodi="http://inkscape.sourceforge.net/DTD/sodipodi-0.dtd"
   xmlns:inkscape="http://www.inkscape.org/namespaces/inkscape"
   width="268px"
   height="216px"
   id="svg2"
   sodipodi:version="0.32"
   inkscape:version="0.43"
   sodipodi:docname="Bulle_gauche_montre_bas.svg"
   sodipodi:docbase="/home/f5soh/Swf/Svg_perso">
  <metadata
     id="metadata50">
    <rdf:RDF>
      <cc:Work
         rdf:about="">
        <dc:format>image/svg+xml</dc:format>
        <dc:type
           rdf:resource="http://purl.org/dc/dcmitype/StillImage" />
        <dc:title>bulle gauche montre bas</dc:title>
        <dc:date>avril 2006</dc:date>
        <dc:creator>
          <cc:Agent>
            <dc:title>Lalanne Laurent</dc:title>
          </cc:Agent>
        </dc:creator>
        <cc:license
           rdf:resource="http://web.resource.org/cc/PublicDomain" />
        <dc:subject>
          <rdf:Bag>
            <rdf:li>callouts</rdf:li>
            <rdf:li>cartoon</rdf:li>
          </rdf:Bag>
        </dc:subject>
      </cc:Work>
      <cc:License
         rdf:about="http://web.resource.org/cc/PublicDomain">
        <cc:permits
           rdf:resource="http://web.resource.org/cc/Reproduction" />
        <cc:permits
           rdf:resource="http://web.resource.org/cc/Distribution" />
        <cc:permits
           rdf:resource="http://web.resource.org/cc/DerivativeWorks" />
      </cc:License>
    </rdf:RDF>
  </metadata>
  <defs
     id="defs48" />
  <sodipodi:namedview
     inkscape:cy="108"
     inkscape:cx="134"
     inkscape:zoom="3.9027778"
     inkscape:window-height="996"
     inkscape:window-width="1272"
     inkscape:pageshadow="2"
     inkscape:pageopacity="0.0"
     borderopacity="1.0"
     bordercolor="#666666"
     pagecolor="#ffffff"
     id="base"
     inkscape:window-x="0"
     inkscape:window-y="0"
     inkscape:current-layer="svg2" />
  <path
     d="M 164,12.031 C 118,13.031 71,36.031 70,81.031 C 70,103.031 83,118.031 102,127.031 C 93,129.031 86,134.031 86,140.031 C 86,144.031 88,146.031 91,148.031 C 87,148.031 84,150.031 84,153.031 C 84,158.031 99,158.031 99,152.031 C 99,152.031 99,151.031 99,151.031 C 113,155.031 134,150.031 135,139.031 C 135,138.031 135,138.031 135,138.031 C 188,146.031 255,123.031 257,74.031 C 257,32.031 211,11.031 164,12.031"
     style="fill-opacity:0.49800002;stroke:#000000;stroke-opacity:0"
     id="path4" />
  <path
     d="M255 67.031 C251,150.031 72,159.031 70,75.031 C72,0.031 255,0.031 255,67.031 Z"
     style="stroke-width:3;stroke:rgb(0,0,0);fill:rgb(255,255,255);"
     id="path6" />
  <path
     d="M136 135.031 C135,152.031 89,154.031 88,137.031 C89,118.031 136,118.031 136,135.031 Z"
     style="stroke-width:3;stroke:rgb(0,0,0);fill:rgb(255,255,255);"
     id="path8" />
  <path
     d="M98 149.031 C98,154.031 84,155.031 84,149.031 C84,143.031 98,143.031 98,149.031 Z"
     style="stroke-width:3;stroke:rgb(0,0,0);fill:rgb(255,255,255);"
     id="path10" />
  <path
     d="M42 161.031 C19,186.031 25,173.031 18,193.031"
     style="stroke-width:5;stroke:rgb(0,0,0);fill:none;"
     id="path12" />
  <path
     d="M71 141.031 C76,142.031 80,151.031 78,158.031 C77,166.031 70,172.031 66,171.031 C61,170.031 57,162.031 59,154.031 C60,147.031 67,140.031 71,141.031 Z"
     style="stroke-width:3;stroke:rgb(0,0,0);fill:rgb(249,225,225);"
     id="path14" />
  <path
     d="M44 142.031 C49,141.031 56,147.031 58,154.031 C60,161.031 57,170.031 53,171.031 C48,172.031 41,167.031 39,159.031 C36,152.031 39,144.031 44,142.031 Z"
     style="stroke-width:3;stroke:rgb(0,0,0);fill:rgb(247,223,223);"
     id="path16" />
  <path
     d="M69 160.031 C71,160.031 71,163.031 71,165.031 C70,167.031 67,169.031 66,168.031 C64,167.031 64,165.031 64,163.031 C65,161.031 68,159.031 69,160.031 Z"
     style="stroke:rgb(0,0,0);fill:rgb(26,26,26);"
     id="path18" />
  <path
     d="M49 159.031 C50,159.031 53,160.031 54,162.031 C54,164.031 54,167.031 52,168.031 C51,168.031 48,167.031 47,165.031 C47,163.031 47,160.031 49,159.031 Z"
     style="stroke:rgb(0,0,0);fill:rgb(26,26,26);"
     id="path20" />
  <path
     d="M38 142.031 C43,135.031 56,123.031 59,139.031"
     style="stroke-width:3;stroke:rgb(0,0,0);fill:none;"
     id="path22" />
  <path
     d="M79 138.031 C73,131.031 58,122.031 59,138.031"
     style="stroke-width:3;stroke:rgb(0,0,0);fill:none;"
     id="path24" />
  <path
     d="M40 176.031 C43,176.031 45,177.031 45,179.031 C45,180.031 43,181.031 40,181.031 C38,181.031 36,180.031 36,179.031 C36,177.031 38,176.031 40,176.031 Z"
     style="stroke-width:3;stroke:rgb(0,0,0);fill:rgb(229,229,229);"
     id="path26" />
  <path
     d="M76 174.031 C78,174.031 80,176.031 80,178.031 C80,180.031 78,181.031 76,181.031 C74,181.031 72,180.031 72,178.031 C72,176.031 74,174.031 76,174.031 Z"
     style="stroke-width:3;stroke:rgb(0,0,0);fill:rgb(229,229,229);"
     id="path28" />
  <path
     d="M49 174.031 C51,174.031 53,176.031 53,178.031 C53,180.031 51,182.031 49,182.031 C47,182.031 45,180.031 45,178.031 C45,176.031 47,174.031 49,174.031 Z"
     style="stroke-width:3;stroke:rgb(0,0,0);fill:rgb(229,229,229);"
     id="path30" />
  <path
     d="M83 177.031 C85,177.031 87,178.031 87,179.031 C87,181.031 85,182.031 83,182.031 C81,182.031 79,181.031 79,179.031 C79,178.031 81,177.031 83,177.031 Z"
     style="stroke-width:3;stroke:rgb(0,0,0);fill:rgb(229,229,229);"
     id="path32" />
  <path
     d="M68 175.031 C70,175.031 71,177.031 71,178.031 C71,180.031 70,181.031 68,181.031 C67,181.031 65,180.031 65,178.031 C65,177.031 67,175.031 68,175.031 Z"
     style="stroke-width:3;stroke:rgb(0,0,0);fill:rgb(229,229,229);"
     id="path34" />
  <path
     d="M20 191.031 C16,205.031 16,201.031 16,205.031"
     style="stroke-width:3;stroke:rgb(0,0,0);fill:none;stroke-linecap:round;stroke-linejoin:round"
     id="path36" />
  <path
     d="M19 192.031 C19,192.031 12,199.031 12,199.031"
     style="stroke-width:3;stroke:rgb(0,0,0);fill:none;stroke-linecap:round;stroke-linejoin:round"
     id="path38" />
  <path
     d="M18 190.031 C18,190.031 10,194.031 10,194.031"
     style="stroke-width:3;stroke:rgb(0,0,0);fill:none;stroke-linecap:round;stroke-linejoin:round"
     id="path40" />
  <path
     d="M20 191.031 C25,199.031 22,197.031 27,199.031"
     style="stroke-width:3;stroke:rgb(0,0,0);fill:none;stroke-linecap:round;stroke-linejoin:round"
     id="path42" />
  <g
     id="appdata_0_0_0_0_0" />
</svg>
