<?xml version="1.0" encoding="UTF-8" standalone="no"?>
<svg
   xmlns:dc="http://purl.org/dc/elements/1.1/"
   xmlns:cc="http://web.resource.org/cc/"
   xmlns:rdf="http://www.w3.org/1999/02/22-rdf-syntax-ns#"
   xmlns:svg="http://www.w3.org/2000/svg"
   xmlns="http://www.w3.org/2000/svg"
   xmlns:sodipodi="http://inkscape.sourceforge.net/DTD/sodipodi-0.dtd"
   xmlns:inkscape="http://www.inkscape.org/namespaces/inkscape"
   width="265px"
   height="193px"
   id="svg2"
   sodipodi:version="0.32"
   inkscape:version="0.43"
   sodipodi:docname="Bulle_gauche_montre_haut.svg"
   sodipodi:docbase="/home/f5soh/Swf/Svg_perso">
  <metadata
     id="metadata50">
    <rdf:RDF>
      <cc:Work
         rdf:about="">
        <dc:format>image/svg+xml</dc:format>
        <dc:type
           rdf:resource="http://purl.org/dc/dcmitype/StillImage" />
        <dc:subject>
          <rdf:Bag>
            <rdf:li>callouts</rdf:li>
            <rdf:li>cartoon</rdf:li>
          </rdf:Bag>
        </dc:subject>
        <dc:title>bulle gauche montre haut</dc:title>
        <dc:date>avril 2006</dc:date>
        <dc:creator>
          <cc:Agent>
            <dc:title>Lalanne Laurent</dc:title>
          </cc:Agent>
        </dc:creator>
        <cc:license
           rdf:resource="http://web.resource.org/cc/PublicDomain" />
      </cc:Work>
      <cc:License
         rdf:about="http://web.resource.org/cc/PublicDomain">
        <cc:permits
           rdf:resource="http://web.resource.org/cc/Reproduction" />
        <cc:permits
           rdf:resource="http://web.resource.org/cc/Distribution" />
        <cc:permits
           rdf:resource="http://web.resource.org/cc/DerivativeWorks" />
      </cc:License>
    </rdf:RDF>
  </metadata>
  <defs
     id="defs48" />
  <sodipodi:namedview
     inkscape:cy="96.5"
     inkscape:cx="132.5"
     inkscape:zoom="4.3678756"
     inkscape:window-height="996"
     inkscape:window-width="1272"
     inkscape:pageshadow="2"
     inkscape:pageopacity="0.0"
     borderopacity="1.0"
     bordercolor="#666666"
     pagecolor="#ffffff"
     id="base"
     inkscape:window-x="0"
     inkscape:window-y="0"
     inkscape:current-layer="svg2" />
  <path
     d="M 161,12.031 C 115,13.031 68,36.031 67,81.031 C 67,103.031 80,118.031 99,127.031 C 90,129.031 83,134.031 83,140.031 C 83,144.031 85,146.031 88,148.031 C 84,148.031 81,150.031 81,153.031 C 81,158.031 96,158.031 96,152.031 C 96,152.031 96,151.031 96,151.031 C 110,155.031 131,150.031 132,139.031 C 132,138.031 132,138.031 132,138.031 C 185,146.031 252,123.031 254,74.031 C 254,32.031 208,11.031 161,12.031"
     style="fill-opacity:0.49800002;stroke:#000000;stroke-opacity:0"
     id="path4" />
  <path
     d="M252 67.031 C248,150.031 69,159.031 67,75.031 C69,0.031 252,-1.967 252,67.031 Z"
     style="stroke-width:3;stroke:rgb(0,0,0);fill:rgb(255,255,255);"
     id="path6" />
  <path
     d="M133 135.031 C132,152.031 86,154.031 85,137.031 C86,118.031 133,118.031 133,135.031 Z"
     style="stroke-width:3;stroke:rgb(0,0,0);fill:rgb(255,255,255);"
     id="path8" />
  <path
     d="M95 149.031 C95,154.031 81,155.031 81,149.031 C81,143.031 95,143.031 95,149.031 Z"
     style="stroke-width:3;stroke:rgb(0,0,0);fill:rgb(255,255,255);"
     id="path10" />
  <path
     d="M42 166.031 C19,141.031 25,154.031 18,134.031"
     style="stroke-width:5;stroke:rgb(0,0,0);fill:none;"
     id="path12" />
  <path
     d="M68 141.031 C73,142.031 77,151.031 75,158.031 C74,166.031 67,172.031 63,171.031 C58,170.031 54,162.031 56,154.031 C57,147.031 64,140.031 68,141.031 Z"
     style="stroke-width:3;stroke:rgb(0,0,0);fill:rgb(249,225,225);"
     id="path14" />
  <path
     d="M41 142.031 C46,141.031 53,147.031 55,154.031 C57,161.031 54,170.031 50,171.031 C45,172.031 38,167.031 36,159.031 C33,152.031 36,144.031 41,142.031 Z"
     style="stroke-width:3;stroke:rgb(0,0,0);fill:rgb(247,223,223);"
     id="path16" />
  <path
     d="M66 160.031 C68,160.031 68,163.031 68,165.031 C67,167.031 64,169.031 63,168.031 C61,167.031 61,165.031 61,163.031 C62,161.031 65,159.031 66,160.031 Z"
     style="stroke:rgb(0,0,0);fill:rgb(26,26,26);"
     id="path18" />
  <path
     d="M46 159.031 C47,159.031 50,160.031 51,162.031 C51,164.031 51,167.031 49,168.031 C48,168.031 45,167.031 44,165.031 C44,163.031 44,160.031 46,159.031 Z"
     style="stroke:rgb(0,0,0);fill:rgb(26,26,26);"
     id="path20" />
  <path
     d="M35 142.031 C40,135.031 53,123.031 56,139.031"
     style="stroke-width:3;stroke:rgb(0,0,0);fill:none;"
     id="path22" />
  <path
     d="M76 138.031 C70,131.031 55,122.031 56,138.031"
     style="stroke-width:3;stroke:rgb(0,0,0);fill:none;"
     id="path24" />
  <path
     d="M37 176.031 C40,176.031 42,177.031 42,179.031 C42,180.031 40,181.031 37,181.031 C35,181.031 33,180.031 33,179.031 C33,177.031 35,176.031 37,176.031 Z"
     style="stroke-width:3;stroke:rgb(0,0,0);fill:rgb(229,229,229);"
     id="path26" />
  <path
     d="M73 174.031 C75,174.031 77,176.031 77,178.031 C77,180.031 75,181.031 73,181.031 C71,181.031 69,180.031 69,178.031 C69,176.031 71,174.031 73,174.031 Z"
     style="stroke-width:3;stroke:rgb(0,0,0);fill:rgb(229,229,229);"
     id="path28" />
  <path
     d="M46 174.031 C48,174.031 50,176.031 50,178.031 C50,180.031 48,182.031 46,182.031 C44,182.031 42,180.031 42,178.031 C42,176.031 44,174.031 46,174.031 Z"
     style="stroke-width:3;stroke:rgb(0,0,0);fill:rgb(229,229,229);"
     id="path30" />
  <path
     d="M80 177.031 C82,177.031 84,178.031 84,179.031 C84,181.031 82,182.031 80,182.031 C78,182.031 76,181.031 76,179.031 C76,178.031 78,177.031 80,177.031 Z"
     style="stroke-width:3;stroke:rgb(0,0,0);fill:rgb(229,229,229);"
     id="path32" />
  <path
     d="M65 175.031 C67,175.031 68,177.031 68,178.031 C68,180.031 67,181.031 65,181.031 C64,181.031 62,180.031 62,178.031 C62,177.031 64,175.031 65,175.031 Z"
     style="stroke-width:3;stroke:rgb(0,0,0);fill:rgb(229,229,229);"
     id="path34" />
  <path
     d="M19 134.031 C15,112.031 15,119.031 15,112.031"
     style="stroke-width:3;stroke:rgb(0,0,0);fill:none;stroke-linejoin:round;stroke-linecap:round"
     id="path36" />
  <path
     d="M18 131.031 C18,131.031 11,124.031 11,124.031"
     style="stroke-width:3;stroke:rgb(0,0,0);fill:none;stroke-linejoin:round;stroke-linecap:round"
     id="path38" />
  <path
     d="M18 134.031 C18,134.031 10,130.031 10,130.031"
     style="stroke-width:3;stroke:rgb(0,0,0);fill:none;stroke-linejoin:round;stroke-linecap:round"
     id="path40" />
  <path
     d="M18 132.031 C23,124.031 20,126.031 25,124.031"
     style="stroke-width:3;stroke:rgb(0,0,0);fill:none;stroke-linejoin:round;stroke-linecap:round"
     id="path42" />
  <g
     id="appdata_0_0_0_0_0" />
</svg>
