<?xml version="1.0" encoding="UTF-8" standalone="no"?>
<svg
   xmlns:dc="http://purl.org/dc/elements/1.1/"
   xmlns:cc="http://web.resource.org/cc/"
   xmlns:rdf="http://www.w3.org/1999/02/22-rdf-syntax-ns#"
   xmlns:svg="http://www.w3.org/2000/svg"
   xmlns="http://www.w3.org/2000/svg"
   xmlns:sodipodi="http://inkscape.sourceforge.net/DTD/sodipodi-0.dtd"
   xmlns:inkscape="http://www.inkscape.org/namespaces/inkscape"
   width="244px"
   height="198px"
   id="svg17331"
   sodipodi:version="0.32"
   inkscape:version="0.43"
   sodipodi:docname="Bulle_gauche_simple.svg"
   sodipodi:docbase="/home/f5soh/Swf/Svg_perso">
  <metadata
     id="metadata17369">
    <rdf:RDF>
      <cc:Work
         rdf:about="">
        <dc:format>image/svg+xml</dc:format>
        <dc:type
           rdf:resource="http://purl.org/dc/dcmitype/StillImage" />
        <dc:title>bulle gauche</dc:title>
        <dc:subject>
          <rdf:Bag>
            <rdf:li>callouts</rdf:li>
            <rdf:li>cartoon</rdf:li>
          </rdf:Bag>
        </dc:subject>
        <dc:date>avril 2006</dc:date>
        <dc:creator>
          <cc:Agent>
            <dc:title>Lalanne Laurent</dc:title>
          </cc:Agent>
        </dc:creator>
        <cc:license
           rdf:resource="http://web.resource.org/cc/PublicDomain" />
      </cc:Work>
      <cc:License
         rdf:about="http://web.resource.org/cc/PublicDomain">
        <cc:permits
           rdf:resource="http://web.resource.org/cc/Reproduction" />
        <cc:permits
           rdf:resource="http://web.resource.org/cc/Distribution" />
        <cc:permits
           rdf:resource="http://web.resource.org/cc/DerivativeWorks" />
      </cc:License>
    </rdf:RDF>
  </metadata>
  <defs
     id="defs17367" />
  <sodipodi:namedview
     inkscape:cy="99.000001"
     inkscape:cx="122"
     inkscape:zoom="4.2575758"
     inkscape:window-height="996"
     inkscape:window-width="1272"
     inkscape:pageshadow="2"
     inkscape:pageopacity="0.0"
     borderopacity="1.0"
     bordercolor="#666666"
     pagecolor="#ffffff"
     id="base"
     inkscape:window-x="0"
     inkscape:window-y="0"
     inkscape:current-layer="svg17331" />
  <path
     d="M 140,8.3929002 C 94,9.4041871 47,32.663785 46,78.171693 C 46,100.42 59,115.58931 78,124.69089 C 69,126.71346 62,131.7699 62,137.83762 C 62,141.88276 64,143.90534 67,145.92791 C 63,145.92791 60,147.95048 60,150.98435 C 60,156.04078 75,156.04078 75,149.97306 C 75,149.97306 75,148.96177 75,148.96177 C 89,153.00692 110,147.95048 111,136.82633 C 111,135.81504 111,135.81504 111,135.81504 C 164,143.90534 231,120.64574 233,71.092685 C 233,28.618637 187,7.3816134 140,8.3929002"
     style="fill-opacity:0.49800002;stroke:#000000;stroke-opacity:0"
     id="path17333" />
  <path
     d="M231 67.031 C227,150.031 48,159.031 46,75.031 C48,-5.967 231,-8.967 231,67.031 Z"
     style="stroke-width:3;stroke:rgb(0,0,0);fill:rgb(255,255,255);"
     id="path17335" />
  <path
     d="M110 133.031 C109,150.031 63,152.031 62,135.031 C63,116.031 110,116.031 110,133.031 Z"
     style="stroke-width:3;stroke:rgb(0,0,0);fill:rgb(255,255,255);"
     id="path17337" />
  <path
     d="M74 147.031 C74,152.031 60,153.031 60,147.031 C60,141.031 74,141.031 74,147.031 Z"
     style="stroke-width:3;stroke:rgb(0,0,0);fill:rgb(255,255,255);stroke-linejoin:round;stroke-linecap:round"
     id="path17339" />
  <path
     d="M 22.000000,146.03100 C 17.000000,147.03100 13.000000,156.03100 15.000000,163.03100 C 16.000000,171.03100 23.000000,177.03100 27.000000,176.03100 C 32.000000,175.03100 36.000000,167.03100 34.000000,159.03100 C 33.000000,152.03100 26.000000,145.03100 22.000000,146.03100 z "
     style="fill:#f9e1e1;stroke:#000000;stroke-width:3.0000000;stroke-linecap:round;stroke-linejoin:round"
     id="path17341" />
  <path
     d="M 49.000000,147.03100 C 44.000000,146.03100 37.000000,152.03100 35.000000,159.03100 C 33.000000,166.03100 36.000000,175.03100 40.000000,176.03100 C 45.000000,177.03100 52.000000,172.03100 54.000000,164.03100 C 57.000000,157.03100 54.000000,149.03100 49.000000,147.03100 z "
     style="fill:#f7dfdf;stroke:#000000;stroke-width:3.0000000;stroke-linecap:round;stroke-linejoin:round"
     id="path17343" />
  <path
     d="M 24.000000,165.03100 C 22.000000,165.03100 22.000000,168.03100 22.000000,170.03100 C 23.000000,172.03100 26.000000,174.03100 27.000000,173.03100 C 29.000000,172.03100 29.000000,170.03100 29.000000,168.03100 C 28.000000,166.03100 25.000000,164.03100 24.000000,165.03100 z "
     style="fill:#1a1a1a;stroke:#000000;stroke-linecap:round;stroke-linejoin:round"
     id="path17345" />
  <path
     d="M 44.000000,164.03100 C 43.000000,164.03100 40.000000,165.03100 39.000000,167.03100 C 39.000000,169.03100 39.000000,172.03100 41.000000,173.03100 C 42.000000,173.03100 45.000000,172.03100 46.000000,170.03100 C 46.000000,168.03100 46.000000,165.03100 44.000000,164.03100 z "
     style="fill:#1a1a1a;stroke:#000000;stroke-linecap:round;stroke-linejoin:round"
     id="path17347" />
  <path
     d="M 57.057281,148.59643 C 52.203013,142.57807 39.454166,132.15258 36.125378,145.55596"
     style="fill:none;stroke:#000000;stroke-width:2.7537138;stroke-linecap:butt;stroke-linejoin:round"
     id="path17349" />
  <path
     d="M 12.548476,146.32186 C 18.548476,139.32186 33.548476,130.32186 32.548476,146.32186"
     style="fill:none;stroke:#000000;stroke-width:3.0000000;stroke-linecap:butt;stroke-linejoin:round"
     id="path17351" />
  <path
     d="M 53.000000,181.03100 C 50.000000,181.03100 48.000000,182.03100 48.000000,184.03100 C 48.000000,185.03100 50.000000,186.03100 53.000000,186.03100 C 55.000000,186.03100 57.000000,185.03100 57.000000,184.03100 C 57.000000,182.03100 55.000000,181.03100 53.000000,181.03100 z "
     style="fill:#e5e5e5;stroke:#000000;stroke-width:3.0000000;stroke-linecap:round;stroke-linejoin:round"
     id="path17353" />
  <path
     d="M 17.000000,179.03100 C 15.000000,179.03100 13.000000,181.03100 13.000000,183.03100 C 13.000000,185.03100 15.000000,186.03100 17.000000,186.03100 C 19.000000,186.03100 21.000000,185.03100 21.000000,183.03100 C 21.000000,181.03100 19.000000,179.03100 17.000000,179.03100 z "
     style="fill:#e5e5e5;stroke:#000000;stroke-width:3.0000000;stroke-linecap:round;stroke-linejoin:round"
     id="path17355" />
  <path
     d="M 44.000000,179.03100 C 42.000000,179.03100 40.000000,181.03100 40.000000,183.03100 C 40.000000,185.03100 42.000000,187.03100 44.000000,187.03100 C 46.000000,187.03100 48.000000,185.03100 48.000000,183.03100 C 48.000000,181.03100 46.000000,179.03100 44.000000,179.03100 z "
     style="fill:#e5e5e5;stroke:#000000;stroke-width:3.0000000;stroke-linecap:round;stroke-linejoin:round"
     id="path17357" />
  <path
     d="M 10.000000,182.03100 C 8.0000000,182.03100 6.0000000,183.03100 6.0000000,184.03100 C 6.0000000,186.03100 8.0000000,187.03100 10.000000,187.03100 C 12.000000,187.03100 14.000000,186.03100 14.000000,184.03100 C 14.000000,183.03100 12.000000,182.03100 10.000000,182.03100 z "
     style="fill:#e5e5e5;stroke:#000000;stroke-width:3.0000000;stroke-linecap:round;stroke-linejoin:round"
     id="path17359" />
  <path
     d="M 25.000000,180.03100 C 23.000000,180.03100 22.000000,182.03100 22.000000,183.03100 C 22.000000,185.03100 23.000000,186.03100 25.000000,186.03100 C 26.000000,186.03100 28.000000,185.03100 28.000000,183.03100 C 28.000000,182.03100 26.000000,180.03100 25.000000,180.03100 z "
     style="fill:#e5e5e5;stroke:#000000;stroke-width:3.0000000;stroke-linecap:round;stroke-linejoin:round"
     id="path17361" />
  <g
     id="appdata_0_0_0_0_0" />
</svg>
