<?xml version="1.0" encoding="UTF-8" standalone="no"?>
<!-- Created with Inkscape (http://www.inkscape.org/) -->

<svg
   xmlns:dc="http://purl.org/dc/elements/1.1/"
   xmlns:cc="http://creativecommons.org/ns#"
   xmlns:rdf="http://www.w3.org/1999/02/22-rdf-syntax-ns#"
   xmlns:svg="http://www.w3.org/2000/svg"
   xmlns="http://www.w3.org/2000/svg"
   xmlns:xlink="http://www.w3.org/1999/xlink"
   xmlns:sodipodi="http://sodipodi.sourceforge.net/DTD/sodipodi-0.dtd"
   xmlns:inkscape="http://www.inkscape.org/namespaces/inkscape"
   width="160.00000pt"
   height="160.00000pt"
   id="svg1"
   sodipodi:version="0.32"
   inkscape:version="0.48.3.1 r9886"
   sodipodi:docname="108.svg"
   version="1.1">
  <defs
     id="defs3">
    <linearGradient
       id="linearGradient9837">
      <stop
         style="stop-color:#f8f5da;stop-opacity:1.0000000;"
         offset="0.0000000"
         id="stop9838" />
      <stop
         style="stop-color:#ffffff;stop-opacity:1.0000000;"
         offset="1.0000000"
         id="stop9839" />
    </linearGradient>
    <linearGradient
       id="linearGradient4810">
      <stop
         style="stop-color:#ffffff;stop-opacity:0.0000000;"
         offset="0.0000000"
         id="stop4811" />
      <stop
         style="stop-color:#ffffff;stop-opacity:0.68041235;"
         offset="1.0000000"
         id="stop4812" />
    </linearGradient>
    <linearGradient
       id="linearGradient2931">
      <stop
         style="stop-color:#ffffff;stop-opacity:1.0000000;"
         offset="0.0000000"
         id="stop2932" />
      <stop
         style="stop-color:#ffffff;stop-opacity:0.0000000;"
         offset="1.0000000"
         id="stop2933" />
    </linearGradient>
    <linearGradient
       inkscape:collect="always"
       xlink:href="#linearGradient9837"
       id="linearGradient9840"
       gradientTransform="matrix(1.047270,0.000000,0.000000,0.954864,46.25000,53.75000)"
       x1="111.99757"
       y1="125.16961"
       x2="-29.110085"
       y2="-21.865551"
       gradientUnits="userSpaceOnUse" />
  </defs>
  <sodipodi:namedview
     id="base"
     pagecolor="#ffffff"
     bordercolor="#666666"
     borderopacity="1.0"
     inkscape:pageopacity="0.0"
     inkscape:pageshadow="2"
     inkscape:zoom="1"
     inkscape:cx="48.165405"
     inkscape:cy="126.19214"
     inkscape:current-layer="svg1"
     inkscape:window-width="958"
     inkscape:window-height="753"
     inkscape:window-x="49"
     inkscape:window-y="25"
     showborder="true"
     showgrid="false"
     inkscape:window-maximized="0" />
  <metadata
     id="metadata4">
    <rdf:RDF>
      <cc:Work
         rdf:about="">
        <dc:format>image/svg+xml</dc:format>
        <dc:type
           rdf:resource="http://purl.org/dc/dcmitype/StillImage" />
      </cc:Work>
    </rdf:RDF>
  </metadata>
  <g
     inkscape:label="Layer 1"
     inkscape:groupmode="layer"
     id="layer1">
    <path
       style="fill:url(#linearGradient9840);fill-opacity:1.0000000;stroke:#000000;stroke-width:2.5000000;stroke-linecap:round;stroke-linejoin:bevel;stroke-miterlimit:4.0000000;stroke-opacity:1.0000000"
       d="M 17.500000,31.250000 L 186.25000,31.250000 L 186.25000,185.00000 L 17.500000,185.00000 L 17.500000,31.250000 z "
       id="rect9215" />
  </g>
  <g
     id="g1078"
     transform="matrix(0.2804229,0,0,0.72619299,17.929931,3.3105951)">
    <path
       style="fill:#939292;fill-rule:evenodd;stroke:none"
       d="m 319.43485,427.1819 c 1e-5,18.64477 -3.60083,24.4253 -7.57029,31.08956 -15.48124,8.11894 -24.72347,12.95656 -58.71335,16.25558 -23.73233,-0.45383 -41.51405,-1.37701 -51.14307,-3.80121 -4.88224,-1.22914 -7.35014,-2.69501 -8.37267,-3.7394 -1.02252,-1.04439 -1.59745,-1.96674 -1.43033,-5.2228 l 0.0349,-0.58718 -0.0349,-0.58718 c -1.3457,-14.69911 -2.00127,-86.01179 -2.12805,-151.92472 -0.12617,-65.59389 0.13711,-126.48408 0.13954,-127.0778 1.81384,-14.03502 4.92663,-17.46015 13.3265,-26.54665 8.26613,-6.56829 9.0425,-8.05803 26.44369,-8.86949 l 0.2442,-0.0309 0.2442,0 c 19.6068,-1.73631 26.29483,-2.55906 43.92164,1.94696 11.93333,8.29498 17.2556,18.78696 16.64068,25.86676 -0.23865,2.74764 -0.23726,6.96669 -0.27909,14.46313 -0.0418,7.49645 -0.0238,17.53353 0,29.23531 0.0476,23.40357 0.19344,53.50461 0.38375,83.22484 0.38062,59.44046 2.20988,96.00114 0.87215,105.36524 l 20.93168,-0.15452 c 0,-12.03955 -0.4917,-45.91898 -0.87215,-105.33434 -0.19023,-29.70768 -0.33623,-59.77415 -0.38375,-83.13212 -0.0238,-11.67898 -0.0414,-21.6915 0,-29.11169 0.0414,-7.4202 0.19428,-12.96109 0.20931,-13.13426 1.38951,-15.99769 -9.10312,-31.90205 -26.54834,-43.23488 l -1.46522,-0.95803 -1.70942,-0.46356 c -21.23744,-5.64422 -33.33293,-4.82096 -53.27111,-3.05951 -0.1762,0.0156 -0.31097,0.0152 -0.48841,0.0309 -20.29333,1.03411 -30.19046,6.72771 -39.38644,13.96867 l -0.62795,0.49446 -0.52329,0.55628 c -9.30556,10.07472 -16.35246,19.60776 -18.55942,37.20858 l -0.0349,0.49446 0,0.49447 c 0,0 -0.26646,61.81381 -0.13955,127.78859 0.12691,65.97479 0.49924,134.85439 2.19783,153.40813 -0.048,6.23892 1.99322,12.46738 6.48882,17.05908 4.77924,4.88142 11.28956,7.62185 18.45476,9.42576 14.3304,3.60781 32.82585,4.02962 57.28302,4.4811 l 0.69772,0.0309 0.66284,-0.0618 c 38.61421,-3.69788 53.01319,-11.20246 70.12111,-20.11859 l 2.65135,-1.39068 1.39545,-2.44143 c 3.59139,-6.36119 11.26823,-17.95428 11.26821,-41.90601 1.33773,-3.74034 -22.2694,-2.26549 -20.93167,0 z"
       id="path830"
       sodipodi:nodetypes="cccccccccccccccccccccccccccccccccccccccccccccccc"
       transform="matrix(-0.26092,0,0,-0.26092,115.089,142.0061)"
       inkscape:connector-curvature="0" />
    <g
       id="g830"
       transform="matrix(-0.26092,0,0,-0.26092,114.9567,142.1384)">
      <path
         style="fill:#ffffff;fill-opacity:0.4;fill-rule:evenodd;stroke:none"
         d="M 180.80971,459.42164 177.0699,173.27959 c 5.06904,-11.1519 13.65014,-22.48156 24.87057,-26.41385 -11.78275,10.26203 -18.70105,22.07947 -17.79205,30.25847 0,4.544 2.11429,282.29743 2.11429,282.29743 l -5.453,0 z"
         id="path616"
         sodipodi:nodetypes="cccccc"
         inkscape:connector-curvature="0" />
      <path
         style="fill:#ffffff;fill-opacity:0.4;fill-rule:evenodd;stroke:none"
         d="m 295.98607,168.295 1.4149,231.2677 4.75362,-0.61171 -4.05423,-230.65599 -2.11429,0 z"
         id="path617"
         sodipodi:nodetypes="ccccc"
         inkscape:connector-curvature="0" />
      <path
         style="fill:#ffffff;fill-opacity:0.4;fill-rule:evenodd;stroke:none"
         d="m 320.28031,432.458 c -1.64694,-5.76428 5.50741,11.73616 -4.12377,28.464 9.63118,-10.13809 12.63847,-21.95122 13.54647,-31.03922 l -9.4227,2.57522 z"
         id="path618"
         sodipodi:nodetypes="cccc"
         inkscape:connector-curvature="0" />
    </g>
    <path
       style="fill:#000000;fill-opacity:1;fill-rule:evenodd;stroke:none"
       d="m 48.632788,12.09098 c -6.966518,0.569974 -15.707471,0.967084 -19.973589,6.424881 -3.899619,4.871126 -4.043303,8.742886 -3.526411,13.192338 1.984612,0.09876 7.05509,0.649854 7.768046,-0.71875 0.21058,-2.545477 -0.04536,-6.356939 2.703163,-7.694952 4.62154,-2.478144 9.974411,-3.380313 15.168771,-3.391704 4.1571,0.255322 8.699379,-1.080531 12.47062,1.576166 1.619588,1.285418 0.706719,14.396513 1.035169,16.249586 0.48703,22.561212 0.560259,35.24683 0.530059,57.811732 -0.10586,3.485109 -3.304148,5.970953 -6.472628,7.180623 -4.75634,0.45446 -9.66757,1.74317 -14.35945,0.32327 -3.020914,-1.82454 -3.464799,-3.775009 -3.565368,-9.048863 0.05065,-18.148842 -0.115168,-36.29744 -0.438651,-54.442938 0.431939,-2.21192 0.110089,-5.052705 -2.720866,-4.335155 -1.572895,0.164765 -3.324593,-0.341712 -4.752712,0.388388 -0.815178,2.884399 -0.126116,6.141281 -0.301771,9.179202 0.15375,17.858036 0.30726,35.723892 0.221252,53.578738 0.522998,4.853688 4.192781,8.926028 8.381955,11.111288 5.979651,1.82384 12.331441,1.29851 18.420601,0.43677 4.70313,-0.86995 8.81739,-3.98691 10.98862,-8.24651 1.82689,-3.111026 2.09801,-6.775113 1.90473,-10.29582 -0.01183,-22.059083 0.19524,-44.124298 -0.3549,-66.178317 -0.16417,-3.183679 0.04012,-6.984877 -2.79625,-9.17346 -4.25313,-3.244518 -9.95128,-3.049926 -15.03337,-3.355415 -1.764,-0.06992 -3.53899,-0.476689 -5.29702,-0.571098 z m 0.523469,2.285141 c 5.72091,0.338879 11.313671,0.42848 16.738071,2.640569 4.648006,2.528339 4.179688,5.739703 4.210118,8.699759 0.57252,23.425403 0.36495,44.49866 0.35653,67.929125 -0.56346,8.875076 -5.901859,13.943046 -12.076319,14.611486 -5.53182,0.63188 -11.983938,0.98382 -17.341728,-0.90039 -3.629971,-2.30103 -6.749223,-6.66117 -6.12942,-11.239702 0.107174,-19.459212 -0.122361,-38.91898 -0.280721,-58.377519 0.886039,0.289962 3.34257,-0.710728 3.14529,0.610624 -0.129944,10.46851 0.132714,20.938275 0.07606,31.409418 0.07548,9.557716 0.03812,19.133793 0.07499,28.679708 0.745575,2.979741 3.064157,5.893371 6.048696,6.788641 4.928964,1.25498 10.040174,0.41539 14.968764,-0.10104 4.63166,-1.46539 7.92256,-6.36823 7.72173,-11.209384 0.0074,-23.185091 0.2085,-46.377149 -0.40468,-69.556332 0.33371,-2.877828 -0.134552,-3.666477 -3.316422,-5.231745 -3.986922,-2.071516 -10.236198,-1.743621 -14.918148,-1.650556 -5.297536,0.489632 -10.669224,1.635025 -15.224792,4.494654 -1.671709,2.375889 -1.529162,4.494673 -1.62066,7.344074 -2.640956,0.932022 -3.812396,0.682042 -3.786324,-0.05476 0.403134,-2.4343 -0.196317,-5.982396 2.556431,-9.013016 4.876642,-5.426968 12.870011,-5.317099 19.202534,-5.873616 z"
       id="path1816"
       sodipodi:nodetypes="ccccccccccccccccccccccccccccccccccccccccccccccc"
       inkscape:connector-curvature="0" />
  </g>
</svg>
