<?xml version="1.0" encoding="UTF-8" standalone="no"?>
<!-- Created with Inkscape (http://www.inkscape.org/) -->

<svg
   xmlns:dc="http://purl.org/dc/elements/1.1/"
   xmlns:cc="http://creativecommons.org/ns#"
   xmlns:rdf="http://www.w3.org/1999/02/22-rdf-syntax-ns#"
   xmlns:svg="http://www.w3.org/2000/svg"
   xmlns="http://www.w3.org/2000/svg"
   xmlns:sodipodi="http://sodipodi.sourceforge.net/DTD/sodipodi-0.dtd"
   xmlns:inkscape="http://www.inkscape.org/namespaces/inkscape"
   version="1.0"
   width="278.3121"
   height="407.39142"
   id="svg2980"
   sodipodi:version="0.32"
   inkscape:version="0.48.3.1 r9886"
   sodipodi:docname="110.svg"
   inkscape:output_extension="org.inkscape.output.svg.inkscape"
   sodipodi:modified="true">
  <metadata
     id="metadata14">
    <rdf:RDF>
      <cc:Work
         rdf:about="">
        <dc:format>image/svg+xml</dc:format>
        <dc:type
           rdf:resource="http://purl.org/dc/dcmitype/StillImage" />
      </cc:Work>
    </rdf:RDF>
  </metadata>
  <sodipodi:namedview
     inkscape:window-height="576"
     inkscape:window-width="744"
     inkscape:pageshadow="2"
     inkscape:pageopacity="0.0"
     guidetolerance="10.0"
     gridtolerance="10.0"
     objecttolerance="10.0"
     borderopacity="1.0"
     bordercolor="#666666"
     pagecolor="#ffffff"
     id="base"
     inkscape:zoom="0.87301075"
     inkscape:cx="212.23161"
     inkscape:cy="210.31424"
     inkscape:window-x="110"
     inkscape:window-y="165"
     inkscape:current-layer="svg2980"
     showgrid="false"
     inkscape:window-maximized="0" />
  <defs
     id="defs2982" />
  <rect
     style="fill:#ffffff;fill-opacity:1"
     id="rect2998"
     width="249.71056"
     height="334.4747"
     x="11.454613"
     y="48.862041" />
  <g
     id="g3058"
     transform="matrix(0.4054189,0,0,0.4054189,-21.50972,19.287449)">
    <path
       inkscape:connector-curvature="0"
       id="path3046"
       style="fill:#d7d7d7"
       d="m 108.8664,955.33893 c -14.541472,-3.8114 -26.715796,-11.9231 -33.387804,-22.2459 -3.918994,-6.0635 -6.923052,-14.04025 -6.923052,-18.38301 0,-1.28422 -2.161721,-4.73063 -5.005838,-7.98076 -2.753211,-3.14625 -6.240711,-8.23493 -7.75,-11.30819 l -2.744162,-5.58774 0,-419 0,-419 2.928227,-6 c 5.431862,-11.13 17.766315,-20.68666 32.579335,-25.242265 4.988082,-1.534037 15.708234,-1.717927 116.742434,-2.00256 l 111.25,-0.313412 10e-4,-4.720881 c 0.001,-4.811747 2.16577,-18.275238 3.81792,-23.749354 1.27017,-4.208464 4.99699,-11.351201 7.93852,-15.214763 6.3856,-8.38718 26.53096,-19.243673 39.54089,-21.308894 10.92782,-1.734704 33.79499,-0.709473 44.2013,1.981729 28.37797,7.3389 46.5,29.065998 46.5,55.75038 l 0,7.259782 107.25,0.280119 107.25,0.280119 7.82783,2.76906 c 14.61904,5.17142 24.3499,13.16946 30.23088,24.84753 2.23467,4.43745 4.48291,7.36405 6.7186,8.74578 5.46773,3.37924 14.62171,13.67538 17.23678,19.38743 1.33761,2.92174 2.88523,8.44829 3.43916,12.28123 1.30565,9.03463 1.39827,819.25993 0.0947,828.27501 -2.79934,19.35906 -18.02569,34.43376 -40.61593,40.21136 -7.64338,1.9548 -11.7715,1.9818 -294.84195,1.9275 -277.90854,-0.0533 -287.31996,-0.1153 -294.27918,-1.9393 z M 683.05803,893.3293 c 0.71095,-1.15035 9.65008,-761.6509 9.25644,-787.49597 l -0.25893,-17 -90.5,-1.04786 c -49.775,-0.57632 -90.80435,-0.90775 -91.17633,-0.73652 -0.37198,0.17124 -0.26158,1.75746 0.24532,3.52494 1.30759,4.5593 0.34498,6.60834 -3.37535,7.18486 -1.7565,0.27219 -55.06047,0.66622 -118.45326,0.87561 -95.3592,0.31499 -115.45127,0.14979 -116.36964,-0.95678 -1.04368,-1.25755 -0.17342,-5.17925 2.54533,-11.47016 0.62904,-1.45554 -1.21587,-1.69039 -17.6067,-2.24121 -10.07015,-0.33841 -50.99529,-0.90249 -90.94474,-1.25351 l -72.635366,-0.63821 -0.608291,20.37942 c -1.030765,34.53353 -9.106059,783.72766 -8.45454,784.37918 0.336894,0.3369 126.324767,2.10296 279.973047,3.92458 334.9867,3.97154 317.58469,3.83098 318.36301,2.57163 z M 405.55554,12.447522 c 0,-7.526598 -3.81832,-15.229782 -9.81705,-19.80516 -8.22688,-6.274849 -16.31031,-5.391576 -24.13008,2.636684 -6.23469,6.400922 -8.51333,14.082786 -6.07762,20.489184 l 0.97525,2.5651 19.52475,0 19.52475,0 0,-5.885808 z" />
    <path
       inkscape:connector-curvature="0"
       id="path3044"
       style="fill:#c7c7c7"
       d="m 120.05554,951.69553 c -21.835584,-2.5723 -38.87915,-14.1909 -44.225391,-30.14865 -1.105069,-3.29846 -3.81298,-7.06615 -9.01981,-12.54985 -4.909453,-5.17052 -8.514635,-10.1032 -10.597721,-14.5 l -3.157074,-6.6637 0,-417 0,-417 3.227899,-6.81505 C 61.718183,35.54395 72.698656,26.64945 87.555544,21.686992 92.72451,19.960467 99.826693,19.819303 205.55554,19.341613 l 112.5,-0.508283 0.6394,-8 c 1.25407,-15.690681 4.80817,-27.631503 10.41053,-34.97657 3.24206,-4.250568 12.70118,-11.120627 21.2254,-15.415792 10.55324,-5.317546 16.83214,-6.492741 34.22467,-6.405687 21.83333,0.109281 34.65225,3.211373 46.80459,11.326395 16.23451,10.840992 24.77534,25.551143 26.11087,44.971654 l 0.58454,8.5 108,0.509412 c 101.6756,0.479581 108.32208,0.617799 113.5,2.360311 17.15393,5.772757 26.92633,14.714587 33.42082,30.580297 2.47475,6.04569 4.74339,9.58971 8.9859,14.03753 3.12144,3.27251 6.89438,8.55156 8.38431,11.73123 l 2.70897,5.78122 0,417.5 0,417.5 -2.93296,6 c -5.57505,11.405 -17.34827,20.5265 -32.61238,25.2671 -5.06823,1.5741 -25.60991,1.7031 -289.95466,1.8213 -156.475,0.07 -285.85,-0.0318 -287.5,-0.2262 z m 564.27045,-76.8622 c 0.85601,-60.13605 9.06362,-785.99927 8.88956,-786.17332 -0.40897,-0.40898 -183.7999,-2.52012 -184.19957,-2.12045 -0.22343,0.22342 0.0676,2.12238 0.64677,4.21989 0.76303,2.76345 0.74189,4.12488 -0.0767,4.94377 -0.8237,0.82396 -32.94758,1.20934 -118.58011,1.42258 l -117.45036,0.29246 0,-2.80727 c 0,-1.544 0.907,-4.49955 2.01556,-6.56788 1.50301,-2.80429 1.69373,-3.86393 0.75,-4.16691 -2.33193,-0.74865 -182.235987,-2.47307 -182.908026,-1.75321 -0.934234,1.0007 -10.020157,804.46568 -9.106446,805.27977 0.93508,0.83313 501.630162,6.70472 558.248912,6.54653 l 41.5,-0.11596 0.27045,-19 z M 407.12469,15.816434 c 0.74725,-3.983187 -0.76202,-10.980672 -3.54497,-16.435712 -3.62331,-7.102275 -12.38377,-13.020152 -19.3063,-13.041815 -3.28589,-0.01028 -9.18405,3.059421 -13.05261,6.79325 -5.47212,5.281524 -7.66527,10.0674 -7.66527,16.727076 0,9.879052 -0.96129,9.474097 22.48987,9.474097 l 20.4195,0 0.65978,-3.516896 z" />
    <path
       inkscape:connector-curvature="0"
       id="path3042"
       style="fill:#b6b6b6"
       d="m 117.53331,950.36583 c -17.33069,-2.2612 -32.867689,-12.4019 -39.11946,-25.5325 -1.571201,-3.3 -2.857083,-6.5524 -2.857517,-7.22755 -4.34e-4,-0.67515 -3.322689,-4.40565 -7.382789,-8.29001 -4.482502,-4.28847 -8.70488,-9.50162 -10.75,-13.27245 l -3.368,-6.20999 0,-418.52102 0,-418.52101 3.274113,-6.65068 c 5.506347,-11.185 16.933461,-19.9673 31.788838,-24.431303 5.510427,-1.655868 13.841375,-1.808318 115.937045,-2.121561 60.5,-0.185622 110.97155,-0.09551 112.15901,0.200255 1.81982,0.453266 2.33581,1.677352 3.28439,7.791539 0.61895,3.98958 1.34585,8.66598 1.61533,10.39201 0.47991,3.07389 0.56837,3.12062 4.31414,2.279 5.97926,-1.34345 40.35851,-10.81528 40.77797,-11.23474 0.20648,-0.20647 -0.30502,-2.00392 -1.13667,-3.99433 -1.43817,-3.442038 -1.40947,-3.673828 0.58734,-4.742486 1.41693,-0.758319 8.56509,-1.013387 21.98868,-0.784624 14.36611,0.244825 20.01184,0.01894 20.33069,-0.81342 0.24278,-0.633804 2.6099,-1.649904 5.26027,-2.257999 2.65037,-0.608095 7.29385,-1.800121 10.31885,-2.648946 7.6126,-2.13612 19.4977,-5.307632 25.65564,-6.846151 l 5.15565,-1.288101 0.59435,2.971783 c 0.3269,1.634481 0.59436,4.698425 0.59436,6.808764 l 0,3.83698 107.75,0.332072 c 119.15557,0.367223 111.0259,-0.07997 125.20466,6.887148 11.87413,5.83468 21.87011,18.37385 24.54503,30.78983 0.50453,2.34186 2.44203,4.98892 6.09585,8.3283 3.46481,3.16665 6.5124,7.2438 8.63035,11.54592 l 3.27411,6.65063 0.25476,414.9988 c 0.22978,374.32797 0.10116,415.52714 -1.31249,420.38993 -4.04663,13.91991 -15.81021,24.43041 -33.48761,29.92051 -5.06762,1.5739 -25.64169,1.7044 -289.95466,1.84 -156.475,0.0803 -286.985,-0.1783 -290.02223,-0.5746 z m 566.55341,-56.08296 c 0.75505,-1.22168 9.59276,-754.15543 9.21938,-785.44954 l -0.25056,-21 -50,-0.59852 c -27.5,-0.32919 -68.9,-0.77919 -92,-1 l -42,-0.40148 0.2912,4.66552 c 0.16016,2.56603 -0.0648,4.88035 -0.5,5.14291 -0.43516,0.26257 -53.2162,0.63809 -117.2912,0.83448 l -116.5,0.35709 -0.32586,-2.29816 c -0.17923,-1.26399 0.62922,-4.13054 1.79655,-6.37012 1.16733,-2.23957 1.86748,-4.32688 1.55589,-4.63847 -0.81213,-0.81214 -184.396543,-2.65662 -185.192519,-1.86064 -0.364301,0.3643 -2.584672,167.501 -4.934158,371.41488 -4.521976,392.46628 -4.912773,434.07297 -4.084868,434.90087 0.442142,0.44215 510.552375,6.82399 576.875945,7.21714 14.91678,0.0884 22.91342,-0.2254 23.3402,-0.91596 z" />
    <path
       inkscape:connector-curvature="0"
       id="path3040"
       style="fill:#868686"
       d="m 110.66447,947.75623 c -16.601805,-4.478 -26.887073,-12.9464 -32.501377,-26.76006 -1.698181,-4.17828 -4.086396,-7.23314 -9.896951,-12.65955 -5.623413,-5.25165 -8.529218,-8.9207 -10.934624,-13.80672 L 54.055544,887.87551 53.762213,474.85442 C 53.546159,170.64278 53.76693,60.25264 54.600219,55.83333 57.693814,39.42659 72.533836,25.98666 92.143105,21.832452 102.39777,19.66001 315.6995,19.596935 317.4995,21.765811 c 2.83448,3.415329 4.26311,30.806629 2.00063,38.358109 -1.34524,4.49003 -4.6611,8.50686 -8.72659,10.5714 -1.4949,0.75915 -7.20035,2.8275 -12.67879,4.59635 -5.47843,1.76884 -11.71458,4.1108 -13.85811,5.20435 -4.58303,2.33809 -2.89459,2.32629 -117.64168,0.8217 -40.40332,-0.52978 -73.768638,-0.63049 -74.14516,-0.22381 -0.376521,0.40668 -2.527575,165.21442 -4.780118,366.23942 -2.252543,201.025 -4.388268,382.46298 -4.746055,403.1955 l -0.650521,37.69551 2.391219,0.48681 c 4.937493,1.0052 598.896125,7.01709 599.751075,6.07053 0.6475,-0.71691 7.84104,-596.91442 9.40458,-779.44835 l 0.23556,-27.5 -30,-0.63159 c -16.5,-0.34737 -59.21961,-0.92697 -94.93247,-1.288 -63.19845,-0.63888 -64.96951,-0.7093 -66.31961,-2.63684 -1.99645,-2.85033 -9.1543,-6.21698 -22.27682,-10.47776 -17.72033,-5.75365 -21.18652,-8.00835 -24.56545,-15.97946 -2.79459,-6.5926 -1.6225,-31.11029 1.67733,-35.086337 1.75014,-2.108786 207.19524,-2.048025 217.16274,0.06423 18.81284,3.9867 33.02474,16.36111 37.36706,32.53576 1.45956,5.43671 2.70215,7.51334 7.59612,12.69469 3.21811,3.40708 7.0751,8.80708 8.5711,12 l 2.72,5.80531 0,415.499997 c 0,393.48984 -0.0929,415.76486 -1.7538,420.5 -3.76775,10.7417 -14.5158,20.623 -27.85794,25.6115 l -6.38826,2.3885 -289.5,0.1885 c -250.54939,0.1632 -290.22534,-0.007 -294.89107,-1.2656 z M 481.78925,93.76629 c 0.31187,-0.31187 3.19937,-1.22878 6.41667,-2.03758 3.21729,-0.80879 8.32462,-2.10675 11.34962,-2.88437 4.9643,-1.27613 5.62175,-1.25385 6.75,0.22871 0.6875,0.9034 1.25,2.45653 1.25,3.45141 0,1.65357 -1.13041,1.80887 -13.16667,1.80887 -7.24166,0 -12.91149,-0.25517 -12.59962,-0.56704 z M 380.40774,34.98764 c -6.50769,-2.40549 -12.82999,-8.75667 -12.84561,-12.90431 -0.006,-1.603841 1.53852,-1.75 18.49341,-1.75 18.11474,0 18.5,0.04364 18.5,2.09563 0,5.18466 -8.77423,12.28596 -16.5,13.35404 -2.29513,0.3173 -5.55475,-0.0217 -7.6478,-0.79536 z" />
    <path
       inkscape:connector-curvature="0"
       id="path3038"
       style="fill:#cf691e"
       d="M 95.506148,921.27241 C 88.400341,920.22622 79.161011,916.7943 74.055544,913.30464 67.680375,908.94713 59.675253,899.825 56.751431,893.58597 l -2.695887,-5.75264 -0.293331,-413 c -0.216054,-304.19594 0.0047,-414.58069 0.838006,-419 3.109372,-16.49041 17.995294,-29.90535 37.756744,-34.025734 6.079972,-1.26771 22.910647,-1.446201 115.861197,-1.228715 l 108.74792,0.254449 0.92348,4 c 0.50791,2.2 0.97804,10.75 1.04473,19 0.17761,21.97253 -1.04606,23.79813 -19.87875,29.65716 -5.5,1.7111 -12.25,4.24571 -15,5.63245 l -5,2.52135 -93,-1.05398 c -69.90949,-0.79229 -93.27767,-0.76883 -94.118362,0.09452 -1.499693,1.5401 -10.740186,806.67254 -9.275103,808.148 0.875628,0.88183 491.456885,7.21505 575.598155,7.43076 l 27.20468,0.0697 0.46949,-3.25 c 0.25821,-1.7875 2.30199,-174.025 4.54173,-382.75 2.23974,-208.725 4.31524,-388.95 4.61222,-400.5 0.29698,-11.55 0.18609,-21.51349 -0.24642,-22.1411 -0.56985,-0.82688 -26.53248,-1.45954 -94.28639,-2.29758 l -93.5,-1.15649 -3,-2.84046 C 499.91214,77.4746 496.61933,75.9667 481.86409,71.23537 459.72773,64.13725 456.57774,61.13865 455.885,46.50488 c -0.22578,-4.76937 0.17023,-12.49659 0.88002,-17.17159 l 1.29052,-8.5 104.79186,-0.254613 c 88.35106,-0.214666 105.88193,-0.02733 111.73989,1.194094 18.43735,3.844299 32.9441,16.097379 37.3917,31.582789 1.43852,5.00856 1.56236,44.12747 1.33131,420.52107 l -0.25476,414.9988 -3.27411,6.65063 c -6.19184,12.57733 -20.52421,22.42382 -36.88404,25.33975 -6.60074,1.17649 -52.47334,1.38393 -289.84185,1.31065 -155.1,-0.0479 -284.497224,-0.45472 -287.549392,-0.90409 z M 377.39757,32.31246 c -3.85488,-2.03651 -9.84203,-8.54982 -9.84203,-10.706974 0,-0.983698 4.19483,-1.272156 18.5,-1.272156 14.30517,0 18.5,0.288458 18.5,1.272156 0,2.235184 -6.06149,8.718564 -10.05689,10.756864 -4.93984,2.52012 -12.27685,2.49871 -17.10108,-0.04989 z" />
    <path
       inkscape:connector-curvature="0"
       id="path3036"
       style="fill:#9b4e15"
       d="m 91.27644,916.76659 c -8.085329,-1.95885 -16.181135,-6.14245 -21.985981,-11.3615 -6.063782,-5.45186 -9.126899,-10.17244 -11.177193,-17.22521 -1.413643,-4.86276 -1.542285,-45.9667 -1.312489,-419.36886 L 57.055544,54.83333 59.929709,48.61096 C 63.435511,41.02113 70.806711,33.74973 79.384244,29.4198 91.793956,23.1554 87.393205,23.36434 207.27036,23.34811 l 109.21481,-0.01478 1.21498,2.25 c 0.79433,1.471 1.23929,7.61641 1.28519,17.75 0.10216,22.55594 -1.03679,24.27936 -19.9298,30.15716 -5.5,1.7111 -12.25,4.24571 -15,5.63245 l -5,2.52135 -93,-1.05398 c -69.90949,-0.79229 -93.27767,-0.76883 -94.118362,0.09452 -1.499693,1.5401 -10.740186,806.67254 -9.275103,808.148 0.875628,0.88183 491.456885,7.21505 575.598155,7.43076 l 27.20468,0.0697 0.46949,-3.25 c 0.25821,-1.7875 2.30199,-174.025 4.54173,-382.75 2.23974,-208.725 4.31524,-388.95 4.61222,-400.5 0.29698,-11.55 0.18609,-21.51349 -0.24642,-22.1411 -0.56985,-0.82688 -26.53248,-1.45954 -94.28639,-2.29758 l -93.5,-1.15649 -3,-2.84046 c -4.1434,-3.92306 -7.43621,-5.43096 -22.19145,-10.16229 -15.30141,-4.90647 -20.35312,-7.62764 -23.47152,-12.64323 -2.15525,-3.46647 -2.32858,-4.77004 -2.2284,-16.75885 0.0597,-7.15 0.61554,-14.24915 1.23509,-15.7759 l 1.12647,-2.77589 107.7649,0.27589 c 107.16832,0.27437 107.79562,0.28767 113.31301,2.40258 14.15315,5.42512 22.13484,11.93691 27.17133,22.16747 l 3.28057,6.6638 0,416.04205 0,416.04205 -3.28057,6.6638 c -5.51779,11.20822 -17.33939,19.95951 -31.45916,23.28858 -9.17472,2.16316 -575.10291,2.10388 -584.03937,-0.0612 z M 378.05554,32.67448 c -1.65,-0.86832 -4.2375,-2.7345 -5.75,-4.14705 -5.18908,-4.84619 -4.26809,-5.1941 13.75,-5.1941 18.02005,0 18.93627,0.34641 13.75,5.19875 -6.16262,5.76581 -15.34282,7.51423 -21.75,4.1424 z" />
    <path
       inkscape:connector-curvature="0"
       id="path3034"
       style="fill:#7e3500"
       d="m 99.055544,916.71352 c -1.1,-0.21993 -4.475,-0.89964 -7.5,-1.51047 -12.654926,-2.55537 -25.123269,-11.80761 -30.145469,-22.36972 l -2.852953,-6 0,-416 0,-416 2.852953,-6 C 66.159146,38.84564 75.667407,31.3719 89.555544,26.71027 94.747721,24.96749 101.22667,24.84745 205.31762,24.56541 l 110.26207,-0.29876 1.02883,2.70602 c 0.56585,1.48831 1.24934,8.36582 1.51885,15.28334 0.40551,10.40803 0.18286,13.43571 -1.2909,17.55418 -2.28766,6.39291 -5.36678,8.44352 -19.55614,13.02379 -6.10679,1.97125 -12.79555,4.53522 -14.86392,5.6977 l -3.76067,2.11362 -93.3001,-1.09975 c -72.19454,-0.85097 -93.557367,-0.8297 -94.437399,0.09402 -0.830072,0.87128 -2.381831,110.32992 -5.744296,405.19376 -4.316995,378.56926 -4.5009,404.07868 -2.921568,405.25 1.23537,0.91621 7.976312,1.25269 25.244293,1.26009 12.95738,0.006 138.08387,1.35057 278.05887,2.98893 139.975,1.63836 264.94211,2.98382 277.70469,2.98991 l 23.20468,0.0111 0.48199,-3.25 c 0.26509,-1.7875 2.31068,-172 4.54577,-378.25 2.23509,-206.25 4.31305,-386.925 4.6177,-401.5 0.30464,-14.575 0.19039,-27.02203 -0.2539,-27.66006 -0.59299,-0.85158 -25.66006,-1.47227 -94.26821,-2.33417 L 508.12783,83.16501 504.6453,80.1073 c -4.33689,-3.80783 -10.37057,-6.4698 -25.14331,-11.09286 -12.97763,-4.06128 -17.4041,-6.59756 -20.39238,-11.68448 -1.7864,-3.04095 -2.03043,-4.9952 -1.87269,-14.9966 0.0998,-6.325 0.58224,-12.85 1.07216,-14.5 l 0.89079,-3 105.92783,0 c 99.98833,0 106.26427,0.1031 111.92784,1.83871 14.428,4.42147 25.4065,13.44996 29.4294,24.20214 l 2.0706,5.53418 0,414.42497 0,414.42497 -2.0706,5.53418 c -3.93628,10.52064 -14.49664,19.35294 -28.9294,24.19547 -5.29131,1.77536 -16.33298,1.85069 -291,1.98541 -157.025,0.077 -286.4,-0.0399 -287.499996,-0.25984 z M 379.55554,32.26705 c -2.74286,-1.15025 -8,-5.82963 -8,-7.12081 0,-0.4471 6.5625,-0.81291 14.58333,-0.81291 16.03502,0 16.45688,0.22353 10.11271,5.35829 -2.82776,2.2887 -4.89047,3.05035 -8.9362,3.29968 -2.89291,0.17828 -6.38484,-0.14764 -7.75984,-0.72425 z" />
  </g>
</svg>
