<?xml version="1.0" encoding="UTF-8" standalone="no"?>
<!-- Created with Inkscape (http://www.inkscape.org/) -->
<svg
   xmlns:dc="http://purl.org/dc/elements/1.1/"
   xmlns:cc="http://web.resource.org/cc/"
   xmlns:rdf="http://www.w3.org/1999/02/22-rdf-syntax-ns#"
   xmlns:svg="http://www.w3.org/2000/svg"
   xmlns="http://www.w3.org/2000/svg"
   xmlns:sodipodi="http://sodipodi.sourceforge.net/DTD/sodipodi-0.dtd"
   xmlns:inkscape="http://www.inkscape.org/namespaces/inkscape"
   version="1.0"
   width="943.56232"
   height="636.68176"
   id="svg2807"
   sodipodi:version="0.32"
   inkscape:version="0.45.1"
   sodipodi:docname="revans2_Landscape_Parchment_Background.svg"
   sodipodi:docbase="/Users/johnolsen/Desktop"
   inkscape:output_extension="org.inkscape.output.svg.inkscape">
  <metadata
     id="metadata10">
    <rdf:RDF>
      <cc:Work
         rdf:about="">
        <dc:format>image/svg+xml</dc:format>
        <dc:type
           rdf:resource="http://purl.org/dc/dcmitype/StillImage" />
      </cc:Work>
    </rdf:RDF>
  </metadata>
  <sodipodi:namedview
     inkscape:window-height="581"
     inkscape:window-width="697"
     inkscape:pageshadow="2"
     inkscape:pageopacity="0.0"
     guidetolerance="10.0"
     gridtolerance="10.0"
     objecttolerance="10.0"
     borderopacity="1.0"
     bordercolor="#666666"
     pagecolor="#ffffff"
     id="base"
     inkscape:zoom="0.51503268"
     inkscape:cx="495"
     inkscape:cy="382.5"
     inkscape:window-x="0"
     inkscape:window-y="22"
     inkscape:current-layer="svg2807" />
  <defs
     id="defs2809" />
  <g
     id="layer1"
     transform="translate(-26.384001,-60.262862)">
    <g
       id="g2873">
      <path
         d="M 812.38404,694.53582 C 805.5823,693.54015 783.90197,688.90877 764.20552,684.24387 C 731.25124,676.43899 726.78621,675.8508 708.24603,676.87242 C 694.92134,677.60666 687.3304,677.21476 685.83083,675.71518 C 684.58374,674.46809 683.47091,668.30006 683.35792,662.00846 C 683.24493,655.71686 682.43324,648.25041 681.55416,645.41636 C 680.67512,642.5823 680.42712,648.62708 681.00306,658.8492 C 682.32612,682.33077 680.8734,684.18294 664.67175,679.67109 C 658.62462,677.98708 649.003,676.02326 643.29033,675.30704 C 629.68594,673.60139 591.01566,677.81984 575.35402,682.71806 C 558.96961,687.84232 550.71867,687.60409 537.90229,681.63677 C 525.94806,676.07085 521.92964,670.53836 523.76657,662.17495 C 524.45174,659.05531 524.19061,654.28146 523.18623,651.5664 C 521.47192,646.93221 521.17566,647.19229 518.34793,655.8135 C 513.71696,669.93249 507.25295,672.36209 475.38919,671.96017 C 457.17386,671.73042 444.35184,672.74709 431.62751,675.43006 L 413.63,679.22491 L 406.99537,674.31973 C 401.82449,670.49673 396.47321,669.07325 382.73973,667.86759 C 343.55311,664.42738 294.37674,666.82194 268.6865,673.4212 C 262.12728,675.10614 255.94539,675.98084 254.94893,675.36499 C 253.95247,674.74915 250.65857,667.75876 247.62913,659.83081 C 244.59968,651.90286 241.81749,645.41636 241.44647,645.41636 C 241.07544,645.41636 239.11623,652.43918 237.09267,661.02266 C 234.51779,671.9448 232.19535,677.2809 229.35495,678.80102 C 223.43662,681.96842 181.28296,679.01344 159.07751,673.87459 C 132.2491,667.66585 126.97674,667.92233 116.38645,675.95149 C 100.99107,687.62367 92.554794,690.66815 75.529862,690.69583 C 63.540343,690.71533 57.758742,689.63037 49.76573,685.86105 C 30.355447,676.70759 24.612635,664.40728 26.834419,636.74532 C 27.589515,627.34412 29.061898,601.10205 30.106382,578.42961 C 31.150865,555.75718 33.17839,525.61314 34.611993,511.44287 C 38.458165,473.42585 37.980007,340.62402 33.777109,279.56568 C 29.255129,213.87181 27.436217,144.06539 29.910285,131.16428 C 31.518658,122.77738 33.630957,119.2758 41.255516,112.35717 C 53.772553,100.99904 79.030673,88.954137 117.21466,76.13433 C 147.23862,66.054153 150.08716,65.489996 178.5864,63.979497 C 195.0239,63.108287 214.35939,61.72743 221.55415,60.910926 C 231.51995,59.779948 235.04152,60.083322 236.34026,62.184705 C 237.6939,64.374956 238.67126,64.423297 241.08577,62.419423 C 243.43865,60.466702 250.81793,60.375506 273.70567,62.016293 C 289.97418,63.182558 310.70486,64.156155 319.77383,64.179842 C 342.17491,64.23835 352.06241,66.067066 353.18484,70.359289 C 353.80509,72.731104 355.60681,73.562808 358.80162,72.952081 C 361.38861,72.457546 372.67962,73.921556 383.89273,76.205437 C 395.10582,78.489318 411.45056,80.998445 420.21431,81.781275 C 435.88034,83.180655 436.18135,83.117976 438.10609,78.055595 C 439.18277,75.223642 442.74227,70.999299 446.01604,68.668166 C 451.65559,64.65246 454.88522,64.42245 507.47779,64.290986 C 538.00798,64.214671 570.40731,63.377048 579.47628,62.429602 C 608.08253,59.441077 621.14599,67.093255 609.18083,79.829603 C 604.19418,85.137628 605.13189,89.155371 610.34719,84.827063 C 612.46259,83.071439 619.73392,82.332716 632.55414,82.570966 C 644.78827,82.798323 660.2346,81.321216 675.67822,78.447079 C 694.57148,74.930945 702.31669,74.356266 711.73254,75.771919 C 722.67867,77.417649 724.0318,78.204028 727.24794,84.788846 C 729.18584,88.756522 730.81593,90.523414 730.87038,88.715275 C 730.92484,86.907133 732.78913,83.780899 735.01325,81.76809 C 738.41556,78.689049 741.19205,78.337065 752.51374,79.549514 L 765.97034,80.990594 L 764.90299,75.160481 C 763.05858,65.086042 766.15914,63.117771 783.42777,63.400755 C 798.76576,63.652101 799.22591,63.822888 831.41328,81.21122 C 875.31672,104.92883 919.07708,130.98945 927.67318,138.53691 C 939.64943,149.05221 938.89322,161.26815 925.37033,175.73811 L 920.31221,181.15046 L 927.15147,182.43667 C 936.56437,184.20688 958.02467,194.66765 961.96504,199.40645 C 968.5895,207.37317 970.65792,219.51493 969.35834,242.80512 C 967.4406,277.17347 965.26401,286.68264 954.968,305.6745 C 944.3727,325.21845 933.36192,355.54569 924.64244,389.20082 C 915.04571,426.24194 913.46039,455.64341 916.30408,543.84355 C 917.64838,585.53833 919.56175,629.39107 920.55602,641.29409 C 923.49814,676.51603 920.60118,690.5008 909.53373,694.50284 C 901.64721,697.35464 831.80223,697.37836 812.38404,694.53582 z M 450.65562,90.972237 C 450.65562,89.838615 449.72812,88.911107 448.59449,88.911107 C 447.46087,88.911107 446.53337,89.838615 446.53337,90.972237 C 446.53337,92.105859 447.46087,93.033368 448.59449,93.033368 C 449.72812,93.033368 450.65562,92.105859 450.65562,90.972237 z "
         style="fill:#e6e2d2"
         id="path2865" />
      <path
         d="M 814.44517,694.43369 C 808.77706,693.36489 786.77781,688.28808 765.55795,683.15188 C 730.56756,674.6826 725.10006,673.88269 706.8184,674.55806 L 686.66041,675.30275 L 685.18297,660.51927 C 684.3704,652.38838 682.28822,642.64953 680.55594,638.8774 C 677.52177,632.27036 677.45843,632.62333 678.82764,648.50805 C 680.65473,669.70451 680.485,676.11389 678.03169,678.56719 C 676.75428,679.84459 671.30646,679.33949 662.7989,677.15482 C 644.47568,672.44957 598.05671,674.15398 577.4217,680.28972 C 560.58817,685.29509 549.99801,685.70428 540.76389,681.70614 C 527.84148,676.11106 525.97875,673.50959 524.86428,659.50095 C 523.69092,644.75197 521.21487,643.84858 516.55324,656.46863 C 511.77083,669.41575 506.94592,670.8857 468.17523,671.20747 C 448.1739,671.37347 432.91397,672.43582 429.39486,673.90724 C 420.7645,677.5158 412.71801,676.85872 406.59927,672.04573 C 394.63207,662.63232 305.54391,662.20888 269.6101,671.39462 C 262.39897,673.23799 255.83483,673.93803 254.95763,672.95724 C 254.08362,671.98002 250.73847,663.8381 247.52393,654.86406 C 244.30939,645.89002 241.2032,639.86122 240.62131,641.46671 C 240.03941,643.07221 237.66923,651.80586 235.35425,660.87483 L 231.14522,677.36388 L 204.17604,677.00683 C 185.08945,676.75413 171.93903,675.39865 159.1837,672.36929 C 131.89825,665.88899 125.37387,666.45425 112.80778,676.38719 C 98.999865,687.3017 94.300075,688.87558 75.391432,688.91713 C 57.950535,688.95545 49.318899,686.24047 38.869389,677.42955 C 28.202668,668.43547 25.474742,659.72431 26.908024,639.23296 C 27.582006,629.59718 29.026128,607.33697 30.117182,589.76583 C 31.208237,572.19469 33.683379,540.19564 35.617498,518.65683 C 40.830712,460.60123 40.36263,351.63548 34.554306,271.15398 C 32.093277,237.05339 29.871519,191.60546 29.617066,170.15859 C 29.096792,126.30671 29.767266,123.5889 44.054626,111.63518 C 63.10663,95.695042 131.16165,69.694891 163.1045,66.152648 C 206.40294,61.351147 235.14104,59.675947 235.88575,61.910086 C 236.85411,64.815177 242.48144,64.884727 242.48144,61.991604 C 242.48144,60.546316 247.19537,60.219704 256.39407,61.027646 C 264.04602,61.699734 285.61059,63.112461 304.31535,64.16704 C 323.02011,65.221619 341.42415,66.715996 345.21321,67.487876 C 351.64923,68.798979 352.01441,69.312482 350.76461,75.294223 C 350.02879,78.815833 349.05469,85.407185 348.59992,89.941672 L 347.77308,98.186194 L 349.80891,89.727702 C 350.92864,85.07553 353.90391,79.373794 356.42061,77.057176 L 360.99644,72.845144 L 383.66888,77.727216 C 396.87955,80.571882 413.43763,82.634 423.34564,82.668501 C 438.95526,82.722859 440.34998,82.392002 440.34998,78.634698 C 440.34998,76.142436 443.57667,72.406349 448.60043,69.081788 C 456.83201,63.634386 456.91447,63.625263 484.64013,65.094565 C 500.94229,65.958488 530.28551,65.542864 555.62653,64.089098 C 579.38496,62.726122 601.16818,62.199391 604.03368,62.918586 C 606.89919,63.637781 610.2811,66.164635 611.54904,68.533816 C 613.48796,72.156723 612.97417,73.760196 608.31655,78.621691 C 604.14492,82.975937 603.14348,85.551274 604.25729,89.060603 L 605.7359,93.719242 L 609.49162,88.740165 C 613.03823,84.038318 614.25813,83.796141 631.40102,84.390631 C 643.63688,84.814954 656.60964,83.640709 671.1966,80.788486 C 693.75573,76.377439 705.28814,75.633394 716.46159,77.868086 C 722.75629,79.127024 724.32592,81.065941 727.78788,91.85907 C 728.88901,95.291901 729.54808,94.867846 732.59312,88.767374 L 736.1222,81.69715 L 751.94247,82.065109 L 767.76274,82.433068 L 766.67421,75.725133 C 764.9252,64.947309 770.14883,61.315616 785.14553,62.883082 C 795.69129,63.98533 803.21215,67.433847 841.94279,88.926139 C 897.1939,119.58592 926.25045,137.74096 931.51384,144.89167 C 937.54052,153.07939 934.89452,163.08176 923.57739,174.89296 C 918.53533,180.15516 914.41,184.73522 914.41,185.07089 C 914.41,185.40655 917.11474,185.14024 920.42052,184.47908 C 934.32353,181.69848 961.35614,196.37212 966.9369,209.72876 C 970.9423,219.31502 970.95044,245.24872 966.95512,267.83872 C 964.70437,280.56486 961.30012,289.97083 953.71087,304.43289 C 942.7201,325.37682 925.07251,376.46141 919.57937,403.23352 C 917.71861,412.30249 915.4357,431.31642 914.50625,445.48669 C 912.59375,474.64491 915.19092,592.7064 918.69282,635.79778 C 921.88537,675.0826 919.46893,689.31536 908.74869,694.36821 C 902.22358,697.44372 830.67147,697.49342 814.44517,694.43369 z M 832.71777,678.90973 C 830.92005,672.97536 830.27535,665.97875 831.08088,661.14538 C 832.32782,653.66331 847.6707,608.17834 859.5418,576.77102 C 872.49252,542.50734 875.4928,487.19794 871.07974,364.07204 C 869.57639,322.12803 868.27621,274.36133 868.19047,257.92381 C 868.042,229.46341 868.30501,227.46005 873.70267,215.93684 C 876.82013,209.28153 879.37078,203.5283 879.37078,203.15189 C 879.37078,202.77548 874.86093,203.00163 869.34888,203.65445 C 863.5888,204.33665 856.0634,203.76432 851.65249,202.30859 C 843.30601,199.554 829.90364,188.88621 829.90364,184.99729 C 829.90364,183.66572 826.68961,175.86968 822.76133,167.67276 C 813.70973,148.78525 783.02531,115.99163 769.5648,110.81959 C 764.22976,108.76967 759.53527,105.14465 757.44722,101.46259 C 755.57252,98.156728 752.23583,94.487079 750.03236,93.307814 C 746.36181,91.343385 745.74059,92.346348 742.61998,105.27551 C 740.74664,113.03701 739.21391,121.19775 739.21391,123.4105 C 739.21391,129.11838 733.20158,133.77694 724.786,134.58977 L 717.57203,135.28654 L 718.27473,126.09499 C 718.98079,116.8592 716.65513,106.23897 711.08283,93.252856 L 708.08153,86.258388 L 691.09817,87.563832 C 681.75733,88.281825 669.64394,90.392658 664.17953,92.25457 C 656.71861,94.796764 649.71159,95.381422 636.04434,94.602152 C 616.52455,93.489183 615.54607,93.957074 615.54607,104.40398 C 615.54607,107.07152 614.62732,111.67053 613.50441,114.624 C 611.72941,119.29265 610.89908,119.69227 607.14653,117.68397 C 599.85554,113.78196 596.39901,102.13152 597.48974,85.135383 C 598.27403,72.914758 597.86186,69.772924 595.34781,68.808195 C 593.63561,68.151162 578.08403,69.276491 560.78873,71.308925 C 530.41861,74.877833 497.29507,74.829402 471.75483,71.178743 C 465.24611,70.248403 461.54187,70.856908 457.46907,73.525517 L 451.97053,77.12831 L 460.86568,80.443295 C 470.66312,84.094529 480.61205,94.968829 471.51295,92.080886 C 467.51027,90.810484 465.15395,92.382898 456.48482,102.10946 C 450.83017,108.45383 444.86361,113.64467 443.22579,113.64467 C 439.91458,113.64467 436.22771,105.60093 436.22771,98.376768 C 436.22771,93.853269 435.23633,93.592858 408.91773,91.203115 C 393.89724,89.839246 378.44996,88.175528 374.59044,87.505964 L 367.57314,86.288572 L 368.92427,96.146126 C 369.78913,102.4559 369.42251,107.03133 367.90569,108.85902 C 366.11741,111.01375 366.14427,113.74467 368.01513,119.98907 C 370.42217,128.02301 370.21155,128.74258 360.77751,144.71888 C 355.43327,153.76919 350.04997,160.87272 348.81462,160.5045 C 344.01299,159.0733 336.61269,139.71279 334.95485,124.24479 C 330.72831,84.810597 329.79983,78.531907 327.91643,76.64851 C 325.72652,74.458594 278.10375,68.34865 262.98985,68.318505 L 253.61185,68.299801 L 251.03062,80.796967 C 248.01925,95.37656 244.43297,96.391166 236.97122,84.774578 C 227.62756,70.228265 226.71784,69.401998 220.59623,69.901772 C 181.53122,73.091077 135.06976,81.997832 124.29262,88.36337 C 123.33841,88.926977 127.97596,91.574895 134.59829,94.247631 C 141.22061,96.920367 148.83811,101.63292 151.52607,104.71997 C 155.82936,109.66218 156.29242,111.82352 155.40168,122.80967 C 154.12328,138.57724 142.80822,172.49676 128.38398,203.80154 C 116.96747,228.57865 102.74276,269.65997 96.971795,294.52073 C 88.561724,330.75044 85.457456,361.65035 84.349107,420.1671 C 82.875527,497.96681 86.001407,522.66511 104.3792,578.42961 C 115.4511,612.0255 118.74719,627.25289 118.78314,644.97358 C 118.81195,659.1763 119.02945,659.87378 122.80036,657.85565 C 128.90994,654.58591 137.60997,655.26703 158.46461,660.6478 C 178.58962,665.8403 213.03705,669.35193 216.99311,666.61428 C 219.83814,664.64547 228.90487,636.42329 231.89822,620.21881 C 233.09708,613.72872 235.505,605.65906 237.24916,602.28627 C 238.99328,598.9135 240.44962,593.55722 240.48544,590.38347 L 240.55058,584.613 L 245.39807,590.1168 C 249.8978,595.22577 254.84822,614.25319 254.84822,626.43944 C 254.84822,628.85307 256.92685,632.76439 259.46738,635.13125 C 262.97957,638.40336 264.09095,641.75674 264.10493,649.12418 C 264.12221,658.23413 264.43151,658.77947 269.27613,658.24127 C 272.11019,657.92643 303.43936,656.79977 338.89648,655.73761 C 403.91485,653.7899 405.77492,653.91528 417.67753,661.04801 C 423.38421,664.4678 435.62781,663.78991 445.64609,659.4995 C 449.13621,658.00483 460.65765,656.87896 472.93671,656.83269 L 494.18723,656.75257 L 502.8231,647.38344 C 507.57283,642.2304 512.5288,636.2016 513.83638,633.98609 C 516.08029,630.18409 516.55304,630.14404 522.25451,633.2729 C 528.20576,636.53882 528.32766,636.50203 530.4839,630.7895 C 534.20268,620.93732 540.29486,621.25914 567.41766,632.74063 C 590.51673,642.5188 613.10948,649.88023 637.84647,655.6886 C 643.87678,657.10453 650.58547,660.16807 652.75469,662.49645 C 656.58118,666.60371 656.82262,666.61774 660.85596,662.96762 C 665.83116,658.46513 666.08014,653.08094 661.86553,641.13543 C 659.49242,634.40934 659.23883,630.71948 660.83497,626.14081 C 661.99937,622.80058 662.95207,617.7369 662.95207,614.88819 C 662.95207,608.75929 671.8428,592.81097 676.18927,591.14306 C 679.36304,589.92518 680.20474,591.65605 682.53565,604.19374 C 683.27332,608.16142 686.56698,618.01517 689.85493,626.09099 C 693.14291,634.16679 696.43081,645.86022 697.16139,652.07638 L 698.48973,663.37849 L 721.42824,664.58056 C 738.8237,665.49214 750.84162,667.59284 771.16143,673.27377 C 814.65052,685.4323 826.55686,688.46659 831.24777,688.58661 C 835.58552,688.69758 835.61803,688.48362 832.71777,678.90973 z M 483.37079,103.8543 C 480.80701,100.58523 480.87991,100.51233 484.149,103.07611 C 487.58232,105.76871 488.67417,107.46128 486.97778,107.46128 C 486.54979,107.46128 484.92664,105.83814 483.37079,103.8543 z M 893.41223,680.5844 C 893.92751,679.03855 893.15459,678.26562 891.60874,678.78091 C 890.12086,679.27688 888.49773,680.9 888.00176,682.38788 C 887.48648,683.93373 888.2594,684.70666 889.80525,684.19137 C 891.29314,683.6954 892.91626,682.07228 893.41223,680.5844 z M 604.20986,665.30375 C 623.18113,663.11318 625.70464,662.43047 619.66833,661.12172 C 607.44009,658.47046 573.98003,647.12514 560.21868,640.96411 C 553.02787,637.74472 546.79985,635.1107 546.37859,635.1107 C 545.95733,635.1107 544.61988,636.96572 543.4065,639.23296 C 541.82358,642.19069 541.85527,644.579 543.5187,647.68716 C 545.47762,651.34742 544.96009,652.93449 540.18106,657.92274 L 534.525,663.82639 L 539.48103,665.66165 C 542.20686,666.67104 545.82832,668.08314 547.52876,668.79968 C 551.11537,670.31096 572.002,669.02275 604.20986,665.30375 z M 59.622301,649.54632 C 65.043415,649.54208 72.695362,650.88256 76.626628,652.52513 C 84.536757,655.8302 84.443068,655.97821 81.778748,644.38579 C 80.736574,639.8513 77.326572,617.59109 74.200966,594.91866 C 68.974794,557.00919 68.553246,549.05766 68.955966,495.98439 C 69.491652,425.38834 72.538862,360.66301 76.621824,333.15508 C 82.451047,293.88217 93.044403,258.10273 116.89812,197.12046 C 127.96161,168.83655 129.92962,161.78562 130.72406,147.58544 C 131.48461,133.9912 131.04618,130.52708 128.27387,128.22627 C 123.55417,124.30927 122.59027,126.20837 125.45115,133.78768 C 127.51361,139.25176 127.26107,141.79051 123.83197,150.06453 C 118.66536,162.53103 106.59107,171.93403 88.623299,177.48371 C 71.485977,182.77689 58.059587,182.819 47.845547,177.61158 L 39.900918,173.56118 L 41.32813,203.89099 C 42.113096,220.57239 44.070792,250.69222 45.678566,270.82393 C 53.112855,363.91234 51.42812,467.49946 40.458346,591.7931 C 38.208865,617.28098 36.368381,642.54194 36.368381,647.92861 L 36.368381,657.72254 L 43.067055,653.63829 C 47.271656,651.07469 53.43556,649.55115 59.622301,649.54632 z M 881.30632,651.59975 C 886.4009,651.59975 894.56277,653.12492 899.44384,654.98901 C 904.32492,656.85312 908.61377,658.0125 908.97465,657.56542 C 909.33554,657.11836 908.82081,647.94124 907.83081,637.17183 C 906.84078,626.40243 905.82922,573.99818 905.58286,520.71796 L 905.13491,423.84482 L 910.753,397.87138 C 917.99121,364.40773 925.79951,342.27793 943.40538,305.32981 C 956.16857,278.54472 963.3854,256.65085 960.39,253.80317 C 959.79284,253.23547 957.78251,255.06783 955.92259,257.87509 C 948.66422,268.83047 939.85301,277.28304 931.94729,280.87454 C 922.8912,284.98864 902.14912,286.02331 895.88938,282.67321 C 887.7775,278.33185 884.58907,255.32667 890.51185,243.87326 C 896.92739,231.467 910.58573,227.05666 911.9925,236.93707 C 912.82517,242.78533 917.25691,241.74934 918.1752,235.49177 C 919.59133,225.84166 908.50537,220.98563 893.98494,224.89557 C 877.08651,229.44585 875.94648,238.85805 880.49776,336.24677 C 883.09604,391.84449 883.6388,426.80834 882.57748,470.22026 C 881.78764,502.52848 881.32816,530.8175 881.55638,533.08474 C 881.78463,535.35198 881.95544,546.01833 881.93596,556.78774 C 881.90648,573.0959 880.31123,582.7529 872.39115,614.56816 C 867.16098,635.57798 862.88173,653.94888 862.88173,655.39235 C 862.88173,657.34245 864.05891,657.19238 867.46262,654.80831 C 869.98208,653.04361 876.21177,651.59975 881.30632,651.59975 z M 922.35987,278.36726 C 926.31721,274.68043 926.87911,272.31221 926.3555,261.52652 C 926.02039,254.62368 924.74778,248.64677 923.52747,248.24449 C 922.30716,247.84221 918.82901,249.81121 915.79823,252.62003 C 911.28512,256.80264 910.28774,259.53546 910.28774,267.71882 C 910.28774,276.58984 912.80881,282.65738 916.49471,282.65738 C 917.18786,282.65738 919.82716,280.72682 922.35987,278.36726 z M 871.55639,172.90499 C 870.71541,157.74459 875.90412,150.0188 891.72421,142.87589 C 898.45833,139.83537 903.99873,136.66368 904.0362,135.82768 C 904.12529,133.84072 894.95321,128.12229 855.42524,105.52065 C 806.35457,77.462581 785.99322,67.56674 780.754,69.229603 C 772.03955,71.995462 775.90829,78.518011 802.61195,106.08123 C 831.76483,136.17248 847.26657,154.15213 854.57441,166.34968 C 860.64574,176.48338 867.04687,183.72225 869.93968,183.72592 C 871.31679,183.72767 871.92933,179.62776 871.55639,172.90499 z M 901.01073,171.35941 C 901.74452,170.17215 900.26985,169.51808 897.5254,169.81357 C 893.46176,170.25108 892.76878,169.3871 892.77247,163.88785 C 892.77536,159.57734 891.92399,157.77718 890.19604,158.44026 C 886.60714,159.81745 886.97031,166.29463 890.85422,170.17854 C 894.53845,173.86277 899.13341,174.39701 901.01073,171.35941 z M 94.335675,161.84989 C 100.12945,156.6066 99.118175,153.71632 89.131695,146.97653 C 77.943794,139.4259 75.529862,141.1302 75.529862,156.57976 L 75.529862,167.77343 L 82.999457,166.56129 C 87.107735,165.8946 92.209033,163.77448 94.335675,161.84989 z M 95.190875,140.30949 C 95.935635,139.10444 95.081825,136.5017 93.293515,134.52564 C 90.328501,131.24934 90.345301,130.62954 93.484195,127.49064 C 98.348735,122.6261 94.919285,120.36814 88.295064,124.0741 C 81.046177,128.12954 80.091976,134.94777 86.176854,139.20979 C 91.695871,143.07546 93.356215,143.27802 95.190875,140.30949 z M 451.80843,89.108895 C 450.11802,86.37376 444.47223,86.091814 444.47223,88.742533 C 444.47223,89.783437 445.06281,92.17413 445.78463,94.055182 C 446.94399,97.076366 447.45324,97.119097 450.1508,94.421545 C 451.83035,92.741994 452.57628,90.351301 451.80843,89.108895 z "
         style="fill:#b7b8a7"
         id="path2863" />
      <path
         d="M 778.37538,684.42309 C 733.0736,672.95541 728.60526,672.19681 709.33343,672.70175 L 688.72801,673.24162 L 687.25166,659.84427 C 685.69242,645.69469 680.61911,629.89864 676.8945,627.59671 C 674.72597,626.25648 675.85161,651.49341 678.5844,665.48408 C 679.21699,668.72261 678.50375,672.78928 676.93142,674.90907 C 674.649,677.98613 673.17697,678.26171 668.50692,676.48617 C 648.59184,668.91446 605.07618,669.91835 577.41515,678.58763 C 556.62102,685.10474 539.49264,682.92112 530.28014,672.57857 C 527.55805,669.52258 526.82944,666.6589 527.79508,662.81149 C 528.54651,659.81762 528.10394,654.16427 526.81161,650.24849 C 523.54311,640.34484 518.47871,641.91301 515.10021,653.87491 C 511.27222,667.4282 507.6175,668.61397 468.17523,669.09957 C 448.91203,669.33674 432.78409,670.49675 429.39486,671.8889 C 420.7856,675.42516 412.70956,674.79095 406.76051,670.11142 C 395.28335,661.08348 318.9253,659.94485 277.55703,668.18476 C 266.80764,670.32588 257.34599,671.411 256.53113,670.59616 C 253.51254,667.57757 244.54257,640.99175 244.54257,635.06365 C 244.54257,622.75837 240.6535,629.41017 236.38088,649.02333 C 233.97308,660.07615 231.2287,670.51062 230.28227,672.21105 C 227.59512,677.03898 180.72585,675.79622 157.97509,670.29379 C 131.47795,663.88526 125.321,664.43492 112.80778,674.32606 C 98.987035,685.25073 93.954375,686.96248 75.529862,687.00544 C 58.55032,687.04499 51.260486,684.93212 40.770126,676.93073 C 30.022792,668.73335 25.250607,655.85547 26.851874,639.37195 C 45.687252,445.4794 46.154664,396.32081 31.055614,197.25665 C 29.244239,173.37569 28.256119,149.49449 28.859792,144.18731 C 31.757755,118.70995 48.393035,104.83181 98.426325,86.150762 C 132.80679,73.314045 152.44554,68.585574 185.26164,65.243198 C 202.56226,63.481102 220.64306,61.490073 225.4412,60.81869 C 233.45327,59.697596 234.33203,60.037091 236.21111,64.979463 C 238.75203,71.66258 242.48144,72.0013 242.48144,65.54896 C 242.48144,60.827685 242.80194,60.752906 259.48577,61.581534 C 281.01427,62.650781 284.62766,63.803702 267.11194,64.014819 C 251.88584,64.19834 248.66482,66.234052 248.66482,75.67361 C 248.66482,84.321997 244.2572,88.147132 239.95116,83.23572 C 238.21536,81.255884 235.20892,76.506938 233.27018,72.682506 C 229.84166,65.919202 229.48248,65.765243 220.13957,67.054221 C 214.85646,67.783098 201.72259,69.324789 190.95317,70.480203 C 165.3926,73.222511 108.46433,87.493393 111.39494,90.424005 C 111.96961,90.998682 116.84052,92.291015 122.21918,93.295859 C 143.16394,97.208763 153.85282,105.91651 153.85282,119.06635 C 153.85282,133.23054 141.40297,169.76612 123.01093,209.57563 C 113.17539,230.86463 99.257305,272.85314 94.003795,297.08529 C 79.182641,365.44889 76.447423,471.74962 88.045147,528.66063 C 90.348879,539.96523 96.763515,563.25437 102.29989,580.41427 C 114.08755,616.9499 117.71429,635.50172 116.10926,651.05303 C 114.98995,661.89806 115.11513,662.27018 119.45645,661.00166 C 131.67164,657.43238 137.55835,657.7057 155.95736,662.69648 C 177.45661,668.5282 220.27839,672.33177 222.57623,668.6138 C 223.29658,667.44823 226.74235,655.09025 230.23347,641.15163 C 233.7246,627.21301 237.96301,613.13617 239.65213,609.86975 C 245.38198,598.78942 249.96618,606.33046 250.4821,627.68513 C 250.61622,633.23685 252.7354,643.29026 255.19139,650.02605 L 259.65683,662.27292 L 268.07346,660.91428 C 272.7026,660.16702 305.65189,659.08559 341.29409,658.51109 C 405.22994,657.48056 406.20631,657.52739 414.17703,662.0072 C 423.50239,667.24832 436.43823,666.74809 449.22188,660.65201 C 455.72163,657.55248 458.20796,657.39113 467.26269,659.48122 C 480.19771,662.46698 499.04647,662.62644 504.33729,659.79488 C 506.61926,658.57362 509.65868,652.94476 511.55094,646.43563 C 513.34948,640.24883 515.75637,634.60882 516.89955,633.90228 C 518.04276,633.19577 521.27704,634.77746 524.08691,637.41717 C 528.40391,641.47277 529.49343,641.74583 531.11672,639.17896 C 532.17327,637.50823 533.05193,634.55076 533.0693,632.6068 C 533.08664,630.66284 534.99739,628.05735 537.3154,626.8168 C 540.7907,624.95687 545.7618,626.41972 565.65595,635.1566 C 578.92524,640.98406 598.12951,648.08628 608.33211,650.93934 C 630.39373,657.10865 637.10153,660.40405 623.7906,658.5338 C 613.86211,657.13879 576.05254,644.82343 558.51458,637.27202 C 543.55261,630.82978 540.31779,631.91865 540.3026,643.40236 C 540.2929,650.76361 539.61361,652.51936 536.94469,652.08187 C 532.92585,651.42309 530.45295,659.01889 533.08508,663.93708 C 535.39841,668.25958 548.36054,672.21625 560.13467,672.19392 C 565.10446,672.18451 579.07946,670.86835 591.19022,669.2691 C 606.00379,667.31294 622.44158,666.74846 641.41956,667.54416 L 669.62933,668.72694 L 668.29033,644.18957 C 667.32066,626.41995 667.71606,616.80978 669.72393,609.34657 C 673.0143,597.1164 677.77081,595.61851 679.54168,606.25487 C 680.20225,610.22255 683.31039,619.85077 686.44863,627.65094 C 689.58686,635.45108 692.60036,645.18992 693.1453,649.29281 C 695.50309,667.0453 694.40234,666.02766 711.24658,666.02766 C 730.19894,666.02766 750.05108,669.76898 787.41913,680.38304 C 817.49168,688.9249 836.10598,693.05393 838.33394,691.67697 C 839.03981,691.24073 837.96302,685.99707 835.94107,680.02441 C 833.84609,673.83599 832.75802,666.49554 833.41146,662.9588 C 834.82268,655.32054 854.42698,597.65213 862.64578,576.96248 C 865.96065,568.61777 870.2546,551.6215 872.18788,539.19298 C 876.0886,514.11649 877.74038,509.39751 877.19476,524.8888 C 876.99607,530.53018 877.80801,539.25894 878.99907,544.28602 C 881.65233,555.48453 879.21461,578.64564 873.23609,599.04092 C 870.90998,606.97627 866.65707,623.89236 863.78517,636.63223 C 858.09997,661.85212 858.485,671.93657 865.39697,678.84855 C 869.80206,683.25364 869.04097,685.80054 863.90814,683.83088 C 862.10761,683.13995 859.19997,679.14138 857.44666,674.94514 C 853.54658,665.61096 854.6857,654.19228 862.88173,620.46194 C 868.40066,597.74917 872.79309,571.05584 870.64612,573.27679 C 870.09821,573.8436 863.27896,591.46626 855.49227,612.43827 C 843.36461,645.10183 841.32785,652.51052 841.28725,664.10858 C 841.24741,675.48992 842.14798,679.02158 846.93722,686.26574 L 852.63458,694.88349 L 871.17797,694.88349 C 894.1524,694.88349 906.62546,690.05937 910.22331,679.78218 C 912.22613,674.0611 911.97566,672.80429 908.22417,669.75111 C 905.86532,667.83134 898.75579,664.32269 892.42524,661.95412 C 881.85238,657.99832 880.51658,657.90879 876.0207,660.85459 C 873.32876,662.61843 871.12626,665.94994 871.12626,668.25795 C 871.12626,670.56596 870.19876,671.88111 869.06513,671.18049 C 867.9315,670.47987 867.004,667.21149 867.004,663.91741 C 867.004,652.94853 879.41099,650.64911 899.01642,657.98445 C 905.37208,660.3624 910.99083,661.88934 911.50253,661.37767 C 912.01422,660.86597 911.4167,647.09463 910.17472,630.77468 C 908.93277,614.45473 907.75448,562.61044 907.55633,515.56513 C 907.21302,434.06032 907.4193,428.86229 911.93246,405.29465 C 918.34047,371.83205 928.10242,343.58941 946.7982,304.42331 C 962.40233,271.73394 962.48577,271.4689 963.44516,251.54508 C 964.67496,226.00598 963.1626,218.37834 955.03334,209.11962 C 938.04502,189.771 915.73739,189.41146 890.38601,208.07767 C 882.63301,213.78619 881.49789,215.80272 878.41998,229.33523 C 874.23955,247.71514 874.20841,267.37906 878.1961,370.69634 C 879.91354,415.19353 880.61723,460.47723 879.81358,474.78344 L 878.39102,500.10665 L 877.02433,482.58704 C 876.27265,472.95126 875.5452,447.44477 875.40776,425.90595 C 875.27032,404.36714 874.26517,367.65348 873.1741,344.32006 C 872.08303,320.98664 870.97775,285.7413 870.7179,265.9971 L 870.24547,230.09855 L 876.74111,216.22836 C 884.32205,200.0407 883.6686,198.97392 866.74896,199.91604 C 858.2317,200.3903 853.0023,199.46187 847.03032,196.41519 C 836.85662,191.22496 835.40816,189.4525 829.91655,175.47344 C 827.46832,169.24135 822.72427,159.50483 819.37427,153.83672 L 813.28332,143.53107 L 821.28877,152.21257 C 825.78167,157.08491 831.26443,166.29759 833.78456,173.20925 C 839.06634,187.69508 846.83979,195.10664 858.88562,197.14177 C 869.9754,199.01538 873.89592,195.56688 865.57056,191.26167 C 862.25443,189.54683 855.98115,182.74346 851.62994,176.14307 C 847.27873,169.54269 839.93383,159.50483 835.30797,153.83672 C 823.84874,139.79568 775.95295,90.213306 772.49178,88.808549 C 770.89933,88.162234 769.40651,83.741727 769.01698,78.519132 C 768.18813,67.405591 772.14392,62.11309 781.27125,62.124114 L 787.65047,62.131819 L 780.95179,66.21608 C 769.03475,73.482049 771.06177,77.817173 800.57994,108.19395 C 831.1087,139.6107 842.11149,152.43613 853.60325,170.00066 C 861.60305,182.22794 873.43513,191.39561 881.74007,191.80148 C 884.71123,191.94668 896.29896,185.23247 911.99767,174.2695 C 917.81087,170.20993 924.69737,159.35168 924.70794,154.22862 C 924.71219,152.17692 919.97526,145.48598 914.18142,139.35987 L 903.64719,128.22147 L 915.19838,134.47786 C 927.36703,141.06869 932.96017,147.0488 932.96017,153.46855 C 932.96017,161.34228 925.83431,171.93436 915.06933,180.06199 C 908.9785,184.66063 904.34456,188.77262 904.77168,189.19976 C 905.19884,189.6269 910.17416,188.9086 915.82797,187.60354 C 928.20453,184.74669 941.73072,188.40438 955.07213,198.21576 C 968.19522,207.86659 970.83943,215.61974 969.41403,240.26813 C 967.97511,265.1509 962.60754,283.80464 950.39614,306.36038 C 941.07583,323.57597 925.81871,367.71822 918.52502,398.57058 C 911.70356,427.42558 910.11633,463.75239 912.37764,539.26813 C 913.49784,576.67765 915.39392,619.34305 916.59111,634.08014 C 919.4455,669.21697 917.8431,683.52297 910.19651,691.16954 L 904.42145,696.94462 L 865.61669,696.81446 L 826.81196,696.68432 L 778.37538,684.42309 z M 96.138785,676.33459 C 102.84799,672.74394 106.86307,660.84833 108.00842,641.1681 C 109.01796,623.82115 108.82065,622.88622 96.350695,585.93108 C 89.374144,565.25579 82.28227,541.19727 80.590976,532.46768 C 75.54405,506.41802 72.87493,454.01367 74.32361,409.41691 C 77.196801,320.96739 84.218393,288.81354 121.64875,192.70186 C 149.55415,121.04783 150.52253,113.42239 132.74155,105.3515 C 115.54839,97.547421 72.795879,102.59993 54.701346,114.57433 C 45.939554,120.37261 38.429511,134.38301 38.429511,144.93033 C 38.429511,151.06326 40.122673,153.82581 48.931683,162.06561 L 59.433854,171.88916 L 72.159565,170.86766 C 86.324512,169.73064 103.84613,162.00813 111.84588,153.37625 C 119.15625,145.48824 118.57072,135.30209 110.56909,131.16428 C 102.79985,127.14666 102.78216,126.01146 110.48879,126.01146 C 117.30644,126.01146 124.99699,132.81642 124.99699,138.849 C 124.99699,144.93849 117.47777,158.01281 110.69161,163.72298 C 102.36695,170.72772 83.396051,177.69601 68.964796,179.04986 C 58.859273,179.99789 55.96999,179.40083 47.966927,174.71073 C 42.862939,171.71959 38.272625,169.97308 37.766229,170.8296 C 36.779528,172.4985 41.025213,247.03067 44.429967,287.8102 C 50.954348,365.95426 48.674116,469.55855 37.635647,596.51581 C 31.923839,662.20931 32.526282,669.64338 42.55887,657.26786 C 45.762014,653.31667 48.251297,652.64573 59.378298,652.73442 C 67.603786,652.79998 74.917819,654.15477 79.13684,656.39433 C 87.268262,660.71067 87.24081,660.86989 82.8063,635.1107 C 76.377596,597.76763 69.007933,518.65128 72.26265,521.92028 C 72.732926,522.39263 74.181214,532.51793 75.481066,544.42096 C 78.000067,567.48798 90.997453,648.3087 93.919375,659.07456 C 96.892295,670.02834 94.137495,670.92474 79.111212,663.89309 C 63.21069,656.45235 51.966961,656.19096 47.369375,663.15519 C 44.865725,666.94763 44.966355,668.06103 48.165051,671.95893 C 54.578335,679.77408 84.596188,682.51201 96.138785,676.33459 z M 345.90955,146.03993 C 340.59924,139.6414 339.26078,131.71181 341.45167,119.62977 C 343.29318,109.4744 343.09905,106.526 340.22258,100.96352 C 337.79787,96.274642 337.14305,91.516279 337.96612,84.566654 L 339.1257,74.775698 L 329.44978,72.72262 C 324.12802,71.593427 313.0288,70.014478 304.78491,69.213845 C 290.2522,67.802456 281.67715,64.085782 293.37277,64.267494 C 304.31201,64.437454 347.74398,69.818771 349.09706,71.171858 C 349.84166,71.916454 349.34547,75.582612 347.99442,79.318876 C 344.84461,88.029559 344.85219,97.70653 348.01132,100.86566 C 352.00505,104.85939 353.00589,103.77733 352.14433,96.397314 C 351.39425,89.972381 355.6159,78.20219 359.54039,75.776734 C 360.4561,75.210788 369.5059,76.625549 379.65105,78.920647 C 389.79621,81.215744 407.82846,84.199294 419.72271,85.550755 C 438.57754,87.6931 441.44234,88.528011 442.07993,92.066512 C 443.30662,98.874379 446.12126,100.2286 450.60692,96.169139 C 456.6193,90.72802 456.07312,84.788846 449.56038,84.788846 C 441.7528,84.788846 440.62761,78.896184 447.33371,73.127829 C 453.96261,67.42589 458.98327,66.636405 454.06677,72.069075 C 448.90991,77.767338 449.72046,82.727715 455.80845,82.727715 C 463.08187,82.727715 462.50345,88.629839 454.15774,99.571812 C 445.54811,110.85979 441.99782,110.95397 439.82209,99.952095 C 437.83447,89.901294 435.70329,88.980227 414.34055,88.939251 C 406.27027,88.923772 391.59893,87.504094 381.73755,85.784413 C 371.87616,84.064731 362.94333,83.191962 361.88681,83.844924 C 360.83029,84.497886 359.97201,90.774319 359.97951,97.792553 C 359.98699,104.81079 358.90769,117.97305 357.58106,127.04202 C 354.60535,147.38426 351.38101,152.63262 345.90955,146.03993 z M 794.74902,126.7474 C 787.44394,119.27882 777.57224,111.39778 772.8119,109.23399 C 768.05155,107.07019 762.18151,102.52587 759.76733,99.135493 C 754.94748,92.366615 744.36718,85.969488 741.2145,87.917951 C 740.11416,88.597992 739.12447,93.041563 739.01514,97.792553 C 738.90584,102.54354 737.74646,111.53201 736.43873,117.76693 C 734.48618,127.07634 733.23192,129.22091 729.42353,129.76179 C 724.28584,130.49146 724.0319,129.69087 724.72686,114.95506 C 725.18751,105.18752 720.22427,89.695427 715.56779,86.366256 C 710.89792,83.027515 677.44596,84.729462 665.54843,88.911107 C 653.21452,93.246126 633.66666,94.335293 625.29858,91.153749 C 618.32742,88.503326 615.40059,91.096575 612.50874,102.48582 C 609.5809,114.01687 606.13031,116.25363 603.19196,108.5252 C 600.42258,101.24116 600.57535,97.155629 603.61715,97.155629 C 604.99157,97.155629 608.00598,94.796428 610.31583,91.912958 C 614.34076,86.888439 615.58758,86.638282 640.27963,85.901141 C 654.4499,85.47811 671.60883,83.696562 678.41055,81.942144 C 691.57384,78.546847 705.7332,77.783536 716.31056,79.899008 C 721.14263,80.865422 723.06326,82.559521 723.90491,86.597681 C 726.07,96.985196 733.03051,103.94693 733.03051,95.724875 C 733.03051,88.508852 738.96665,82.727715 746.37617,82.727715 C 755.56191,82.727715 759.82521,84.532713 759.82521,88.42179 C 759.82521,93.38678 769.91149,105.40015 774.08006,105.40015 C 776.13672,105.40015 780.1583,107.23988 783.01688,109.48845 C 789.80678,114.82938 810.092,138.26562 808.93038,139.42724 C 808.43571,139.92192 802.0541,134.21599 794.74902,126.7474 z M 878.91172,115.22094 C 869.02346,109.37979 861.26376,104.26996 861.66796,103.86576 C 862.54027,102.99344 897.92095,123.67831 897.92095,125.06063 C 897.92095,126.47476 898.25991,126.65021 878.91172,115.22094 z M 603.1575,75.540006 C 608.24043,69.415457 604.08775,66.238671 590.99883,66.238671 C 584.22843,66.238671 578.11577,65.311162 577.41515,64.17754 C 576.61656,62.88541 581.06601,62.11641 589.34086,62.11641 C 599.51072,62.11641 603.32333,62.981562 605.95152,65.885683 C 610.26067,70.647229 610.32757,75.733021 606.1024,77.354371 C 601.06809,79.286222 600.3934,78.870547 603.1575,75.540006 z M 510.42841,70.645381 C 512.12884,69.575837 525.11397,68.186386 539.28423,67.557711 C 555.76591,66.82649 562.07797,67.048894 556.80385,68.175011 C 543.8673,70.937181 506.82757,72.910248 510.42841,70.645381 z "
         style="fill:#64635d"
         id="path2861" />
    </g>
  </g>
</svg>
