<?xml version="1.0" encoding="UTF-8" standalone="no"?>
<!-- Created with Inkscape (http://www.inkscape.org/) -->
<svg
   xmlns:dc="http://purl.org/dc/elements/1.1/"
   xmlns:cc="http://web.resource.org/cc/"
   xmlns:rdf="http://www.w3.org/1999/02/22-rdf-syntax-ns#"
   xmlns:svg="http://www.w3.org/2000/svg"
   xmlns="http://www.w3.org/2000/svg"
   xmlns:sodipodi="http://sodipodi.sourceforge.net/DTD/sodipodi-0.dtd"
   xmlns:inkscape="http://www.inkscape.org/namespaces/inkscape"
   width="432.91275"
   height="485.29944"
   id="svg2"
   sodipodi:version="0.32"
   inkscape:version="0.45pre1"
   sodipodi:modified="true"
   version="1.0">
  <defs
     id="defs4" />
  <sodipodi:namedview
     id="base"
     pagecolor="#ffffff"
     bordercolor="#666666"
     borderopacity="1.0"
     gridtolerance="10000"
     guidetolerance="10"
     objecttolerance="10"
     inkscape:pageopacity="0.0"
     inkscape:pageshadow="2"
     inkscape:zoom="1"
     inkscape:cx="375"
     inkscape:cy="349.32143"
     inkscape:document-units="px"
     inkscape:current-layer="layer1"
     inkscape:window-width="1280"
     inkscape:window-height="964"
     inkscape:window-x="-4"
     inkscape:window-y="-4" />
  <metadata
     id="metadata7">
    <rdf:RDF>
      <cc:Work
         rdf:about="">
        <dc:format>image/svg+xml</dc:format>
        <dc:type
           rdf:resource="http://purl.org/dc/dcmitype/StillImage" />
      </cc:Work>
    </rdf:RDF>
  </metadata>
  <g
     inkscape:label="Layer 1"
     inkscape:groupmode="layer"
     id="layer1"
     transform="translate(-61.352468,-103.78076)">
    <g
       id="g3197">
      <path
         id="path2205"
         d="M 113.57143,530.21932 L 110.71429,467.36218 L 115,360.93361 L 142.14286,283.79075 L 153.57143,223.79075 L 149.28571,164.50504 L 312.14286,141.6479 L 412.14286,150.21932 L 479.28571,140.93361 L 487.85714,147.36218 L 492.14286,185.21932 L 485.71429,230.93361 L 469.28571,336.6479 L 458.57143,415.21932 L 455.71429,491.6479 L 345,548.79075 L 124.28571,547.36218 L 113.57143,530.21932 z "
         style="fill:#e8e4d4;fill-opacity:1;fill-rule:evenodd;stroke:none;stroke-width:1px;stroke-linecap:butt;stroke-linejoin:miter;stroke-opacity:1" />
      <path
         style="fill:#bbbda7;fill-opacity:1"
         d="M 83.158394,587.53858 C 83.798623,586.39455 83.439861,585.26117 81.917547,583.61857 C 80.739738,582.34769 77.392927,577.10939 74.480188,571.97789 C 68.678534,561.75687 68.427769,563.84211 73.928263,576.56741 C 75.811022,580.92314 77.198499,584.63989 77.011545,584.82684 C 76.320757,585.51763 65.46265,563.43253 63.444946,557.23274 C 60.738947,548.91804 60.644694,537.31307 63.236815,531.60653 C 69.592547,517.61442 98.443455,507.68384 144.69097,503.56972 C 160.69559,502.14597 168.56815,502.04727 200.58817,502.86889 C 238.69471,503.8467 278.23115,503.16965 297.85715,501.20319 C 323.06949,498.67701 350.84221,492.80371 376.12099,484.65217 C 383.63769,482.2283 389.95432,480.41173 390.15794,480.61536 C 390.36157,480.81898 387.22719,482.85631 383.19266,485.14275 C 379.15813,487.42919 376.53215,489.06645 377.35715,488.78112 C 378.18215,488.49578 387.40715,485.47227 397.85715,482.0622 C 419.84359,474.88754 425.88474,472.38836 432.24755,467.83517 C 434.78283,466.02093 440.16181,462.76161 444.20084,460.59223 L 451.54453,456.6479 L 455.01448,460.6479 C 456.92295,462.8479 459.6357,466.32802 461.04282,468.3815 C 462.44994,470.43498 463.92652,471.91405 464.32411,471.66832 C 465.29302,471.0695 473.84026,489.2527 475.79885,496.0794 C 477.65298,502.54202 477.74691,507.3951 476.22034,517.85705 C 474.872,527.09755 471.72429,533.87538 466.95581,537.80597 C 465.0472,539.3792 452.76921,546.11691 439.67138,552.77864 C 414.85418,565.401 401.7337,570.42852 384.85715,573.7824 C 373.1426,576.11044 340.37104,576.11744 306.85715,573.79905 C 272.92471,571.45172 214.7166,569.1479 189.34134,569.1479 C 152.12598,569.1479 119.89825,574.79086 92.434739,586.11591 C 83.987837,589.59913 81.819115,589.93173 83.158394,587.53858 z M 360.10312,571.13257 C 374.94572,570.00029 384.10189,568.30987 395.84052,564.5347 C 403.37607,562.11125 411.56571,558.41477 406.85715,559.56223 C 405.75715,559.83029 401.09815,560.99319 396.50382,562.14643 C 379.98351,566.29328 359.18113,569.30656 343.35715,569.84486 C 326.25984,570.42648 309.43491,569.10688 268.94582,564.0087 C 242.00278,560.61616 210.17301,559.32707 194.85715,561.00813 C 187.21898,561.8465 188.65647,561.9196 204.35715,561.49125 C 226.76292,560.87996 243.47091,562.02369 280.59636,566.71015 C 304.41336,569.71664 318.72934,570.92122 343.35715,571.99101 C 345.28215,572.07463 352.81784,571.68833 360.10312,571.13257 z M 103.54465,518.46479 C 102.82278,518.17592 101.96028,518.21144 101.62798,518.54373 C 101.29569,518.87602 101.88632,519.11237 102.94048,519.06895 C 104.10543,519.02097 104.34238,518.78401 103.54465,518.46479 z M 126.35715,515.57369 L 136.85715,514.21647 L 127.85715,514.75712 C 122.90715,515.05448 115.93215,515.91894 112.35715,516.67815 C 105.0307,518.23405 106.94212,518.08326 126.35715,515.57369 z M 145.60715,513.44217 C 144.36965,513.20381 142.34465,513.20381 141.10715,513.44217 C 139.86965,513.68052 140.88215,513.87554 143.35715,513.87554 C 145.83215,513.87554 146.84465,513.68052 145.60715,513.44217 z M 161.10715,512.43165 C 159.59465,512.20252 157.11965,512.20252 155.60715,512.43165 C 154.09465,512.66077 155.33215,512.84824 158.35715,512.84824 C 161.38215,512.84824 162.61965,512.66077 161.10715,512.43165 z M 324.04982,507.64671 C 328.40231,506.82106 335.98952,504.8701 340.91029,503.31125 C 350.73013,500.20042 375.66668,490.12409 375.0562,489.51362 C 374.8457,489.30312 371.45645,490.45748 367.52453,492.07888 C 359.23357,495.49779 337.70721,502.17125 321.8643,506.23415 C 309.98446,509.28073 311.22144,510.08022 324.04982,507.64671 z M 110.49094,476.1479 C 109.73952,464.3229 108.90095,436.64052 108.62745,414.6315 C 107.98313,362.78295 108.04155,362.45801 125.61527,320.1479 C 136.55477,293.8102 139.80027,284.69259 142.85588,271.71371 C 147.65258,251.33948 151.24145,224.12351 151.43586,206.6479 L 151.53598,197.6479 L 153.00314,202.6479 C 155.44495,210.96948 155.91466,237.31715 153.90265,253.10369 C 151.51381,271.8468 148.82607,281.5528 139.34188,305.68561 C 124.57933,343.24937 121.02446,355.5186 117.4775,381.1479 C 113.8575,407.30504 113.09162,419.15966 112.47054,458.6479 L 111.85715,497.6479 L 110.49094,476.1479 z M 457.10715,446.56987 C 455.78795,445.24134 456.3038,412.96068 457.89868,397.038 C 460.31416,372.92279 461.54404,364.65268 478.85114,256.1479 C 482.9305,230.5729 486.96317,203.94948 487.81265,196.98474 C 489.81795,180.54354 489.85892,157.13303 487.89382,150.60349 C 486.05189,144.48323 486.54435,143.7136 488.67949,149.37561 C 492.46014,159.40117 493.53746,165.9658 494.0764,182.26154 C 494.9205,207.78458 493.31511,220.20551 481.36009,280.6479 C 469.50453,340.58741 463.27648,383.14825 459.06796,432.98654 C 458.40201,440.87279 457.51965,446.98529 457.10715,446.56987 z M 136.65345,181.67318 C 135.66548,179.48708 132.73363,175.27055 130.13823,172.3031 C 123.92608,165.20048 121.43845,159.82443 120.69877,151.90331 C 119.87821,143.11616 121.88183,129.85507 125.01579,123.33083 C 128.15654,116.79244 134.83061,110.2473 142.11541,106.56152 L 147.61147,103.78077 L 159.73431,105.50828 C 197.34224,110.86741 228.54554,114.24902 258.85146,116.24993 C 287.74477,118.15757 349.31939,116.04831 393.74725,111.62903 C 418.15068,109.2016 432.19958,109.9428 450.2011,114.60746 C 463.18479,117.97188 482.35715,125.98132 482.35715,128.04098 C 482.35715,128.51633 483.70715,129.46445 485.35715,130.1479 C 487.00715,130.83135 488.35715,131.61046 488.35715,131.87924 C 488.35715,133.54307 481.38796,144.96738 478.08147,148.72375 C 474.82676,152.4213 474.00851,154.21722 473.43164,158.92941 C 472.62992,165.47827 470.74995,169.49904 466.69643,173.33428 C 461.30135,178.43883 456.14507,179.0599 434.85715,177.16931 C 416.36394,175.52692 385.81694,171.82797 387.13062,171.39008 C 387.81232,171.16284 396.57967,171.74949 406.61362,172.69373 C 430.53571,174.94493 451.58393,175.04745 456.45468,172.93651 C 459.92061,171.4344 463.4007,167.05516 464.79789,162.43769 L 465.46667,160.22748 L 461.01342,162.71645 C 452.08659,167.70575 427.92015,170.1223 386.78529,170.13896 C 370.15786,170.1457 363.62115,170.5076 360.28529,171.60612 C 351.7397,174.42025 339.47116,175.27626 294.85715,176.17124 C 249.38227,177.08349 222.47164,178.72515 174.35715,183.52224 C 160.88215,184.86572 147.29048,185.8936 144.15345,185.80641 C 138.52454,185.64998 138.4262,185.59578 136.65345,181.67318 z M 231.08812,173.45491 C 230.11515,173.20137 228.76515,173.21804 228.08812,173.49196 C 227.41109,173.76589 228.20715,173.97333 229.85715,173.95295 C 231.50715,173.93257 232.06109,173.70845 231.08812,173.45491 z M 247.60715,172.48562 C 246.91965,172.20821 245.79465,172.20821 245.10715,172.48562 C 244.41965,172.76303 244.98215,172.99001 246.35715,172.99001 C 247.73215,172.99001 248.29465,172.76303 247.60715,172.48562 z "
         id="path2188" />
      <path
         style="fill:#333333;fill-opacity:1"
         d="M 83.357151,588.44198 C 83.357151,586.43274 89.248536,582.06944 96.361153,578.8109 C 117.85925,568.96187 136.42734,565.71462 186.35715,563.07209 C 218.05854,561.3943 241.06565,562.29751 274.85715,566.54639 C 312.92726,571.33325 322.89963,572.14147 343.85715,572.13859 C 363.78866,572.13584 376.50984,570.6298 391.35715,566.51513 C 400.48307,563.98605 416.68338,556.9792 420.85715,553.75601 C 422.69065,552.34009 422.70732,552.20886 421.05749,552.1797 C 417.18496,552.11127 413.16285,548.96474 411.01951,544.3269 C 407.20438,536.07157 408.41506,512.62953 413.76598,491.1479 C 415.11923,485.7152 415.13743,485.83143 415.25364,500.6479 C 415.46171,527.17509 419.36277,543.03097 426.60236,546.7747 C 431.23731,549.17153 438.52548,548.16857 447.36107,543.91801 C 457.27721,539.14762 463.86264,533.99256 466.61214,528.84828 C 468.72715,524.89113 468.85291,523.51871 468.78386,505.1479 C 468.72859,490.44214 468.3185,484.29601 467.11585,480.14925 C 466.23875,477.12499 465.66003,474.51169 465.8298,474.34191 C 466.31175,473.85997 471.11772,486.98458 472.89928,493.6479 C 474.99401,501.48253 475.92203,519.44197 474.50163,524.65723 C 472.77593,530.99345 468.52571,536.62709 462.96475,539.94927 C 460.15557,541.62751 448.63215,547.6727 437.35715,553.38303 C 416.79245,563.79822 400.87763,569.91609 386.9843,572.74703 C 375.30356,575.12714 345.86622,575.57352 318.35715,573.78769 C 274.26962,570.92561 210.04276,568.13093 188.85715,568.1528 C 150.68204,568.1922 116.10031,575.04638 84.607151,588.81537 C 83.919651,589.11595 83.357151,588.94792 83.357151,588.44198 z M 67.999721,567.19416 C 56.99044,543.10974 59.839689,528.44961 77.225198,519.72665 C 91.256217,512.68677 105.13482,508.95832 130.71115,505.35777 C 141.26036,503.87269 150.40881,503.68706 200.29915,503.94576 C 285.36457,504.38685 309.7957,502.59121 349.23542,492.99924 C 356.04348,491.34348 367.05317,488.24677 373.70142,486.11766 C 380.34967,483.98855 385.9172,482.37462 386.07371,482.53113 C 386.61924,483.07666 368.80169,491.13316 361.35715,493.70714 C 335.65569,502.59351 304.52438,510.34973 286.72227,512.30208 C 277.28626,513.33692 271.18688,513.24267 246.74527,511.68436 C 214.72173,509.64266 182.84951,509.95964 143.5473,512.7107 C 90.718723,516.40858 71.369567,524.32019 67.308159,543.88389 C 65.944112,550.45447 67.20581,561.09636 70.320817,569.2944 C 73.357492,577.28628 72.087774,576.13737 67.999721,567.19416 z M 437.75111,512.59475 C 443.19278,510.72397 447.85181,508.98658 448.1045,508.73389 C 448.95028,507.88811 445.25272,491.86353 443.35218,488.13816 C 442.31972,486.11437 439.79485,482.98337 437.74137,481.18039 C 434.59308,478.41616 434.38788,478.01512 436.43245,478.62229 C 443.12236,480.609 448.93711,486.52759 452.17689,494.6479 C 453.42561,497.77773 456.46102,511.37737 456.01126,511.82713 C 455.59831,512.24007 431.01281,516.15536 429.35715,516.07184 C 428.53215,516.03023 432.30943,514.46554 437.75111,512.59475 z M 109.96698,450.6479 C 109.47739,440.1979 109.02739,418.3729 108.96698,402.1479 C 108.82205,363.22183 109.37867,360.62431 126.85995,318.6479 C 131.67,307.0979 136.93825,293.82477 138.56716,289.15206 C 144.82305,271.20632 150.09657,241.92034 151.03772,219.8979 C 151.38442,211.7854 152.0123,205.1479 152.43302,205.1479 C 155.02969,205.1479 155.35166,238.02997 152.92524,255.41612 C 150.51746,272.6686 147.50092,283.35349 138.88505,305.1479 C 122.20664,347.33702 118.8585,359.99581 114.94863,395.6479 C 113.4825,409.01672 111.55036,441.46804 111.07854,460.6479 C 110.91758,467.19126 110.61417,464.46165 109.96698,450.6479 z M 456.89211,438.81055 C 455.87566,436.52179 456.96257,412.39924 458.94957,393.1479 C 461.01388,373.14755 462.85954,360.67889 475.3802,282.1479 C 488.84859,197.67268 489.27728,194.52207 490.07515,174.1479 C 490.79258,155.828 491.55601,156.40224 493.39325,176.64369 C 495.3792,198.52358 492.8318,219.47617 480.87007,279.6479 C 469.46232,337.03289 462.70376,382.86513 458.52942,431.1479 C 457.98418,437.45447 457.43379,440.03028 456.89211,438.81055 z M 141.8438,181.77715 C 134.62195,176.8955 126.63762,168.00222 123.68339,161.54933 C 121.27272,156.28372 121.14825,155.24234 121.62134,144.29669 C 121.90878,137.64659 122.83699,130.38825 123.78443,127.38207 C 126.23547,119.60504 132.52611,112.48808 140.86794,108.05452 L 147.85715,104.33986 L 160.35715,106.21374 C 215.4745,114.47644 269.5899,118.85983 302.85715,117.75635 C 331.83197,116.79526 372.47642,114.35796 390.35715,112.50929 C 418.48722,109.60097 433.88177,110.59205 454.80129,116.65812 C 463.64941,119.22382 478.7605,125.07789 478.13914,125.69925 C 477.96226,125.87612 472.65146,124.70583 466.33735,123.09859 C 446.6119,118.07754 419.85492,114.19314 404.85715,114.1733 C 398.10817,114.16437 386.95322,115.41898 365.85287,118.56015 C 360.35523,119.37858 347.75715,120.5018 337.85715,121.05619 C 270.35297,124.83638 231.17912,122.74817 160.06361,111.57866 C 149.77893,109.96334 149.08313,109.96772 145.30459,111.6716 C 139.56608,114.25931 132.9961,121.73824 130.78649,128.19825 C 128.20176,135.75499 128.11537,154.55276 130.63277,161.6479 C 132.9455,168.16616 138.35199,175.45434 143.30718,178.73353 L 147.25945,181.34902 L 169.0583,179.23807 C 209.0185,175.36841 267.51168,171.99404 326.35715,170.16377 C 365.99555,168.93089 364.34404,168.92566 362.01993,170.27681 C 356.90764,173.24891 344.04192,174.26271 300.35715,175.13575 C 254.85582,176.04509 223.8616,177.94096 177.35715,182.6595 C 163.88215,184.02674 151.50114,185.14595 149.8438,185.14664 C 148.07327,185.14738 144.77378,183.75768 141.8438,181.77715 z M 440.85715,176.97118 C 424.19879,175.8134 423.59504,175.46197 437.98215,175.29773 C 445.2009,175.21532 452.50701,174.86793 454.21795,174.52574 C 460.85941,173.19745 465.78937,165.14608 466.9605,153.71523 L 467.66454,146.84333 L 463.76085,147.46264 C 461.61381,147.80326 454.90715,148.98265 448.85715,150.0835 C 437.25913,152.19385 430.17351,152.5486 426.85715,151.18495 C 423.86313,149.95384 425.37083,149.61199 449.22326,146.11373 C 465.11466,143.78305 470.87911,143.26986 471.72014,144.11089 C 472.3874,144.77815 472.85219,148.80918 472.85403,153.94478 C 472.85799,165.00381 470.30274,170.95669 464.0111,174.54585 C 458.82304,177.50546 454.72334,177.9349 440.85715,176.97118 z M 416.08812,174.49196 C 416.76515,174.21804 418.11515,174.20137 419.08812,174.45491 C 420.06109,174.70845 419.50715,174.93257 417.85715,174.95295 C 416.20715,174.97333 415.41109,174.76589 416.08812,174.49196 z M 407.10715,173.48562 C 407.79465,173.20821 408.91965,173.20821 409.60715,173.48562 C 410.29465,173.76303 409.73215,173.99001 408.35715,173.99001 C 406.98215,173.99001 406.41965,173.76303 407.10715,173.48562 z M 489.4361,155.73123 C 489.39268,154.67707 489.62903,154.08644 489.96132,154.41873 C 490.29361,154.75103 490.32913,155.61353 490.04026,156.3354 C 489.72104,157.13313 489.48408,156.89618 489.4361,155.73123 z M 405.60715,147.46252 C 402.91292,141.25337 402.72096,135.03347 405.09929,131.00727 C 407.14457,127.54489 414.91228,123.49879 421.35715,122.53875 L 425.85715,121.86843 L 420.85715,125.90524 C 412.39188,132.73977 409.12211,138.17631 408.38161,146.6479 L 407.85715,152.6479 L 405.60715,147.46252 z "
         id="path2182" />
    </g>
  </g>
</svg>
