<?xml version="1.0" encoding="UTF-8" standalone="no"?>
<!-- Created with Inkscape (http://www.inkscape.org/) -->

<svg
   xmlns:dc="http://purl.org/dc/elements/1.1/"
   xmlns:cc="http://creativecommons.org/ns#"
   xmlns:rdf="http://www.w3.org/1999/02/22-rdf-syntax-ns#"
   xmlns:svg="http://www.w3.org/2000/svg"
   xmlns="http://www.w3.org/2000/svg"
   xmlns:xlink="http://www.w3.org/1999/xlink"
   xmlns:sodipodi="http://sodipodi.sourceforge.net/DTD/sodipodi-0.dtd"
   xmlns:inkscape="http://www.inkscape.org/namespaces/inkscape"
   width="620.29327"
   height="245.72754"
   id="svg3059"
   version="1.1"
   inkscape:version="0.48.3.1 r9886"
   sodipodi:docname="Nouveau document 2">
  <defs
     id="defs3061">
    <filter
       color-interpolation-filters="sRGB"
       id="filter3194">
      <feGaussianBlur
         id="feGaussianBlur3196"
         stdDeviation="2.3429776"
         inkscape:collect="always" />
    </filter>
    <linearGradient
       x1="655.94531"
       y1="138.34129"
       x2="683.30658"
       y2="138.34129"
       id="linearGradient3209"
       xlink:href="#XMLID_4_"
       gradientUnits="userSpaceOnUse" />
    <linearGradient
       x1="655.94531"
       y1="138.34129"
       x2="683.30658"
       y2="138.34129"
       id="XMLID_4_"
       gradientUnits="userSpaceOnUse">
      <stop
         style="stop-color:#8d5c34;stop-opacity:1"
         offset="0.0048"
         id="stop18" />
      <stop
         style="stop-color:#93633b;stop-opacity:1"
         offset="0.1429"
         id="stop20" />
      <stop
         style="stop-color:#e8d0a9;stop-opacity:1"
         offset="0.29519999"
         id="stop22" />
      <stop
         style="stop-color:#e3cba4;stop-opacity:1"
         offset="0.63810003"
         id="stop24" />
      <stop
         style="stop-color:#93633a;stop-opacity:1"
         offset="0.93330002"
         id="stop26" />
      <stop
         style="stop-color:#8d5c34;stop-opacity:1"
         offset="1"
         id="stop28" />
    </linearGradient>
    <linearGradient
       x1="32.786098"
       y1="138.31641"
       x2="666.09772"
       y2="138.31641"
       id="linearGradient3211"
       xlink:href="#XMLID_5_"
       gradientUnits="userSpaceOnUse" />
    <linearGradient
       x1="32.786098"
       y1="138.31641"
       x2="666.09772"
       y2="138.31641"
       id="XMLID_5_"
       gradientUnits="userSpaceOnUse">
      <stop
         style="stop-color:#8d5c34;stop-opacity:1"
         offset="0"
         id="stop35" />
      <stop
         style="stop-color:#d1b38b;stop-opacity:1"
         offset="0.0333"
         id="stop37" />
      <stop
         style="stop-color:#e3cba4;stop-opacity:1"
         offset="0.91430002"
         id="stop39" />
      <stop
         style="stop-color:#8d5c34;stop-opacity:1"
         offset="1"
         id="stop41" />
    </linearGradient>
    <linearGradient
       x1="8.7383003"
       y1="136.83299"
       x2="34.118198"
       y2="136.83299"
       id="linearGradient3213"
       xlink:href="#XMLID_6_"
       gradientUnits="userSpaceOnUse" />
    <linearGradient
       x1="8.7383003"
       y1="136.83299"
       x2="34.118198"
       y2="136.83299"
       id="XMLID_6_"
       gradientUnits="userSpaceOnUse">
      <stop
         style="stop-color:#8d5c34;stop-opacity:1"
         offset="0.1286"
         id="stop46" />
      <stop
         style="stop-color:#e8d0a9;stop-opacity:1"
         offset="0.29049999"
         id="stop48" />
      <stop
         style="stop-color:#e3cba4;stop-opacity:1"
         offset="0.5952"
         id="stop50" />
      <stop
         style="stop-color:#8d5c34;stop-opacity:1"
         offset="1"
         id="stop52" />
    </linearGradient>
  </defs>
  <sodipodi:namedview
     id="base"
     pagecolor="#ffffff"
     bordercolor="#666666"
     borderopacity="1.0"
     inkscape:pageopacity="0.0"
     inkscape:pageshadow="2"
     inkscape:zoom="0.35"
     inkscape:cx="310.14592"
     inkscape:cy="122.86623"
     inkscape:document-units="px"
     inkscape:current-layer="layer1"
     showgrid="false"
     fit-margin-top="0"
     fit-margin-left="0"
     fit-margin-right="0"
     fit-margin-bottom="0"
     inkscape:window-width="563"
     inkscape:window-height="420"
     inkscape:window-x="1355"
     inkscape:window-y="632"
     inkscape:window-maximized="0" />
  <metadata
     id="metadata3064">
    <rdf:RDF>
      <cc:Work
         rdf:about="">
        <dc:format>image/svg+xml</dc:format>
        <dc:type
           rdf:resource="http://purl.org/dc/dcmitype/StillImage" />
        <dc:title></dc:title>
      </cc:Work>
    </rdf:RDF>
  </metadata>
  <g
     inkscape:label="Calque 1"
     inkscape:groupmode="layer"
     id="layer1"
     transform="translate(-64.854083,-409.50087)">
    <g
       transform="matrix(0.9024547,0,0,0.9024547,60.763162,405.98562)"
       id="g3198">
      <path
         inkscape:connector-curvature="0"
         d="m 674.75984,10.196323 c -2.268,-0.3590005 -4.752,-0.3590005 -7.633,0 -2.916,0.324 -6.947,1.188 -10.475,2.195 0,1.225 0,2.484 0,3.744 l 0,0 -19.477,-0.144 -11.016,-0.647 -11.016,0.324 -10.117,0.215 0,0 c 0,0 1.117,9.504 1.008,12.564 -0.324,11.7 -3.527,-1.764 -7.703,10.188 -2.16,6.192 -1.477,8.785 -1.477,8.785 0,0 -5.328,-2.341 -7.092,-6.769 -9.072,-22.824 -10.439,10.8 -19.008,1.764 -2.232,-2.34 -1.656,-3.888 -1.836,-8.1 -0.18,-4.212 1.225,-4.104 1.08,-8.748 -0.107,-4.644 -1.584,-9.792 -1.584,-9.792 0,0 -15.625,0.72 -33.877,0.576 -18.252,-0.18 -21.455,-0.324 -39.492,-0.684 -18.035,-0.361 -32.219,-0.217 -32.219,-0.217 -36.072,-0.072 -18.648,-0.107 -22.104,0 -3.529,0.072 -8.281,0.54 -11.557,0.792 -3.24,0.216 -5.76,0.72 -7.848,0.647 -0.289,0.504 -0.289,1.656 0,3.529 0.252,1.871 1.727,5.399 1.584,7.596 -0.18,2.16 -1.008,3.852 -2.557,5.256 0.684,-1.98 1.008,-3.6 0.973,-4.969 -0.072,-1.403 -0.828,-1.332 -1.297,-3.203 -0.432,-1.944 -0.828,-4.608 -1.26,-8.209 -3.096,-0.035 -6.553,-0.252 -10.512,-0.575 -3.924,-0.36 -7.309,-1.62 -13.031,-1.476 -5.725,0.18 -15.301,1.979 -20.988,2.34 -5.652,0.359 -9.828,0.252 -12.744,-0.289 -3.42,-0.828 -7.596,-1.295 -12.709,-1.439 -5.147,-0.145 -12.6,0.288 -17.819,0.576 -5.184,0.288 -7.164,0.828 -13.032,1.152 -5.904,0.359 -15.804,0.936 -21.96,0.899 l 0,0 c -6.12,-0.071 -9.936,-1.296 -14.652,-1.188 -4.68,0.109 -9.072,0.685 -13.356,1.765 -0.252,0.792 -0.684,1.728 -1.26,2.916 -0.576,1.188 -1.908,1.944 -2.232,4.104 -0.288,2.16 0.54,7.199 0.324,8.748 -0.216,1.512 -0.72,1.619 -1.584,0.287 0.504,-2.592 0.432,-4.896 -0.324,-6.984 -0.756,-2.123 -3.168,-3.959 -4.14,-5.58 -0.936,-1.619 0.288,-3.096 -1.584,-4.067 -1.872,-1.008 -3.96,-1.548 -9.54,-1.764 -5.652,-0.181 -17.46,0.396 -23.868,0.575 -6.372,0.217 -8.604,0.181 -14.22,0.576 -5.616,0.396 9.54,1.656 -19.44,1.765 -7.812,0.108 -15.624,0.252 -23.436,0.396 -8.568,-0.216 -17.136,-0.468 -25.704,-0.72 -5.328,0.108 -10.656,0.216 -16.02,0.36 -1.872,1.332 -3.744,2.699 -5.616,4.068 0,0 0.072,-0.613 -0.108,0.647 -0.216,1.296 -0.72,4.5 -0.72,4.5 -1.332,1.584 -2.664,3.168 -3.996,4.788 0,0 0.612,-1.584 0,-3.672 -0.612,-2.125 -1.908,-2.053 -2.412,-4.789 -0.504,-2.771 0.396,-6.264 0.396,-6.264 -8.424,-0.107 -16.847996,-0.252 -25.271996,-0.396 -6.264,-0.108 -12.564,-0.216 -18.864,-0.36 -29.340005,0.108 41.939996,1.152 -32.400005,0.288 0.108,-1.728 0.216,-3.491 0.324,-5.256 -2.988,-2.304 -6.228,-3.3840005 -9.864,-3.2390005 l 0,0 c -3.636,0.18 -7.488,1.5120005 -11.772,4.1040005 -1.473,84.026 -2.949,168.049997 -4.425,252.109997 0.144,0.216 1.296,0.504 3.492,0.899 2.196,0.396 5.328,0.864 9.54,1.44 0.612,0.756 1.26,1.548 1.908,2.34 3.096,0.108 5.58,-0.072 7.632,-0.576 2.052,-0.504 3.492,-1.26 4.464,-2.34 -0.18,-2.304 -0.36,-4.644 -0.576,-6.983 8.136,0.107 16.308,0.216 24.480005,0.359 12.564,0.36 25.128,0.72 37.692,1.116 10.439996,-0.216 20.879996,-0.468 31.319996,-0.72 0,-1.477 0,-2.952 0,-4.429 0.936,-3.563 1.872,-7.128 2.808,-10.691 0.792,2.088 1.584,4.176 2.376,6.264 -0.108,2.7 -0.252,5.4 -0.396,8.101 34.164,-0.181 58.32,-0.072 73.836,0.359 15.336,0.433 11.772,2.196 17.928,2.232 6.156,0.036 13.572,-1.692 18.756,-2.017 5.184,-0.359 7.668,0.108 12.096,0 4.428,-0.18 9.144,-0.432 14.328,-0.899 0,-2.196 0.216,-4.032 0.612,-5.544 0.432,-1.513 1.08,-2.664 1.908,-3.492 -0.612,1.944 -0.72,3.78 -0.324,5.544 0.468,1.764 1.404,3.384 2.88,4.968 5.976,0.612 11.628,1.008 17.172,1.152 5.58,0.144 10.764,0.072 15.912,-0.288 -0.648,-1.656 -0.864,-3.204 -0.648,-4.68 0.252,-1.477 1.548,-2.124 1.908,-4.068 l 0,0 c 0.396,-1.98 0.504,-4.464 0.324,-7.596 0,0.611 0.108,1.476 0.324,2.628 0.216,1.116 0.756,2.664 0.972,4.067 0.18,1.44 -0.324,2.952 0.288,4.393 0.648,1.439 0.792,3.06 3.528,4.104 2.736,1.008 7.992,1.836 12.708,2.017 4.716,0.216 12.168,0.216 15.264,-0.864 3.096,-1.08 1.44,-5.472 3.204,-5.544 1.764,-0.036 3.779,4.392 7.309,5.256 3.527,0.828 8.855,-0.252 13.68,-0.288 4.825,-0.036 9.719,-0.036 14.939,0 0.936,-1.224 1.764,-2.592 2.557,-4.104 0.791,-1.513 1.223,-5.004 2.23,-4.969 1.01,0.072 3.602,4.068 3.816,5.257 0.217,1.188 -3.059,0.792 -2.555,1.764 0.539,0.972 1.332,3.6 5.723,4.104 4.465,0.469 11.232,0.108 20.701,-1.188 0.791,-4.104 1.943,-6.12 3.492,-6.12 1.547,0 3.168,4.968 5.723,6.12 2.484,1.116 -1.08,1.151 39.277,1.368 l 0,0 36.107,-0.721 40.896,-0.359 0,0 c 0,0 -0.686,-3.78 -0.396,-6.265 0.324,-2.483 -1.477,-5.363 -0.396,-5.903 1.117,-0.54 3.924,4.896 6.408,3.672 2.52,-1.188 4.824,-6.624 4.824,-6.624 0,0 2.736,-2.376 4.031,-1.116 1.297,1.296 1.584,3.313 1.98,6.66 0.432,3.312 -1.404,4.032 -0.396,6.624 1.008,2.556 4.428,3.672 4.428,3.672 l 0,0 40.5,1.476 16.453,-0.359 0,0 c 41.039,0.252 48.527,-0.648 48.527,-0.648 0,0 2.305,2.845 5.4,3.204 3.133,0.324 7.381,-0.036 13.031,-1.151 -1.043,-83.16 -2.088,-166.319 -3.168,-249.516997 -1.727,-0.863 -3.168,-1.547 -4.463,-2.051 -1.26,-0.469 -2.305,-0.756 -3.168,-0.865 -0.214,-1.261 -0.429,-2.521 -0.646,-3.78 l 0,0 z m 7.02,7.271 c -3.24,0.648 -6.336,0.828 -9.539,0.612 -3.24,-0.252 -7.309,-1.224 -9.576,-2.052 -2.232,-0.828 -3.457,-1.801 -3.816,-2.916 0.18,7.416 0.684,21.096 1.619,41.76 0.9,20.771 2.305,46.367997 3.816,81.503997 1.477,35.279 3.168,77.184 5.076,127.979 2.053,1.116 4.32,1.692 6.984,1.729 2.699,0.071 5.615,-0.396 8.928,-1.44 -1.152,-82.368 -2.305,-164.771997 -3.492,-247.175997 l 0,0 z m -14.364,245.303997 c -113.904,-0.576 -73.439,0.756 -90.684,0 0,0 -9.324,0.216 -13.248,-1.08 -3.889,-1.296 -1.512,-0.647 -2.412,-4.067 -0.9,-3.42 -0.072,-6.084 -1.189,-9.576 -1.115,-3.492 -3.203,-4.428 -3.203,-4.428 0,0 -4.932,1.476 -7.236,3.708 -2.303,2.195 -2.016,5.147 -2.016,5.147 0,0 -4.68,-5.436 -6.805,-4.788 -2.088,0.648 -1.115,3.96 -1.619,7.38 -0.469,3.385 -0.396,6.265 -0.396,6.265 -17.244,-0.756 -46.908,0 -46.908,0 -12.707,0.216 -25.416,0.468 -38.123,0.72 -39.996,-0.18 -22.896,1.08 -25.74,-0.036 -2.881,-1.152 -5.111,-5.688 -6.984,-6.731 -1.871,-1.009 -3.023,-0.576 -4.141,0.575 -1.115,1.188 -1.943,3.313 -2.555,6.444 -4.537,0.396 -8.389,0.576 -11.771,0.576 -3.35,0 -6.697,-0.036 -8.244,-0.576 -1.549,-0.54 -1.08,-1.908 -0.973,-2.628 0.107,-0.72 1.801,-0.756 1.584,-1.764 -0.217,-1.009 -1.729,-3.24 -2.844,-4.356 -1.152,-1.152 -2.736,-2.736 -3.816,-2.34 -1.08,0.396 -1.764,3.023 -2.557,4.644 -0.828,1.62 -1.547,3.276 -2.23,4.969 -6.084,-0.181 -11.197,-0.288 -15.59,-0.288 -4.391,0 -7.811,0.828 -10.512,0.288 -2.627,-0.54 -3.779,-2.412 -5.398,-3.492 -1.584,-1.08 -2.988,-2.809 -4.141,-2.916 l 0,0 c -1.116,-0.108 -1.908,1.26 -2.52,2.34 -0.648,1.08 1.115,3.204 -1.297,4.068 -2.412,0.899 -8.892,1.332 -13.032,1.188 -4.14,-0.18 -8.82,-1.116 -11.52,-2.052 -2.7,-0.937 -3.564,-1.368 -4.464,-3.492 -0.9,-2.16 -0.216,-6.984 -0.972,-9.36 -0.72,-2.34 -1.872,-3.888 -3.492,-4.68 0.54,3.061 0.648,5.652 0.324,7.884 -0.324,2.269 -1.62,3.744 -2.232,5.544 -0.576,1.836 -1.008,3.564 -1.26,5.292 -0.648,0.036 -3.276,0.036 -7.956,0 -4.716,-0.071 -11.268,-0.144 -20.052,-0.323 -1.44,-1.513 -2.484,-3.24 -3.168,-5.257 -0.684,-2.016 -1.008,-4.212 -0.972,-6.695 -1.332,1.08 -2.376,2.412 -3.168,4.067 -0.792,1.692 -1.332,3.601 -1.584,5.868 -12.024,-0.072 -21.6,0.108 -29.268,0.576 -7.632,0.432 -9.18,1.98 -14.796,1.944 -5.58,-0.072 6.048,-1.548 -25.272,-2.053 -7.164,-0.287 -14.328,-0.575 -21.492,-0.899 -9.468,0 -18.972,0 -28.476,0 -4.284,-0.108 -8.568,-0.252 -12.852,-0.396 -0.504,-2.556 -1.044,-5.147 -1.584,-7.739 -1.476,-2.305 -2.952,-4.645 -4.428,-6.984 0,0 -2.088,4.5 -3.204,8.1 -1.116,3.601 -1.188,7.021 -1.188,7.021 -7.488,0.468 -14.976,0.972 -22.464,1.476 -31.787996,-0.504 14.652,-1.439 -68.364001,-1.332 l 0,0 c -0.396,-79.56 -0.828,-159.118997 -1.26,-238.715997 15.552,0.433 31.140005,0.865 46.728005,1.297 9.36,-0.217 18.719996,-0.469 28.115996,-0.721 0,0 -1.116,3.385 -0.828,5.904 0.324,2.484 1.512,1.26 2.016,4.032 0.504,2.772 -0.9,3.96 0,7.021 0.9,3.023 3.6,5.147 3.6,5.147 0,0 -1.584,-4.608 -0.396,-7.38 1.224,-2.771 3.6,-1.116 5.22,-3.672 1.62,-2.592 -0.792,-4.141 1.188,-6.625 2.016,-2.483 6.84,-3.311 6.84,-3.311 10.836,0 21.672,0 32.508,0 10.512,0.107 19.872,-0.037 28.512,-0.505 8.676,-0.504 16.812,-1.836 22.896,-2.34 6.084,-0.504 7.02,-0.504 13.284,-0.576 6.336,-0.108 19.08,-0.396 24.192,0 5.076,0.396 4.824,1.476 6.048,2.341 1.224,0.827 0.36,0.936 1.26,2.627 0.936,1.656 3.348,4.824 4.14,7.309 0.792,2.447 -0.144,5.832 0.648,7.271 0.828,1.44 3.42,2.16 4.14,1.188 0.684,-1.009 -0.216,-4.572 0,-7.021 0.216,-2.447 0.468,-5.615 1.26,-7.596 0.792,-1.943 1.944,-3.275 3.492,-4.104 4.752,-0.864 8.82,-1.332 12.42,-1.44 3.564,-0.108 3.492,0.756 8.892,0.864 5.508,0.107 15.696,0.144 23.544,-0.288 7.884,-0.433 17.424,-2.052 23.22,-2.341 l 0,0 c 5.76,-0.287 6.516,0.145 11.16,0.576 4.645,0.469 10.98,1.836 16.523,2.053 5.58,0.216 11.197,-0.324 16.561,-0.864 5.328,-0.54 11.447,-2.231 15.264,-2.34 3.779,-0.108 4.176,1.26 7.309,1.764 3.168,0.468 6.912,0.864 11.447,1.152 1.656,3.132 2.592,6.12 2.881,9.071 0.252,2.916 -0.145,5.725 -1.297,8.461 2.953,-2.881 4.932,-5.185 6.049,-7.021 1.115,-1.8 0.9,-1.979 0.648,-3.78 -0.252,-1.836 -1.01,-4.14 -2.232,-7.02 0.971,-0.504 3.492,-0.864 7.631,-1.152 4.141,-0.324 -3.527,-0.9 34.164,-0.9 l 0,0 27.072,-0.107 39.996,0.792 18.684,-0.323 16.885,-0.252 0,0 c 0,0 1.043,5.075 1.008,10.151 -0.072,5.04 -1.691,5.651 -1.225,10.116 0.434,4.428 0.252,5.615 3.061,7.632 12.779,9.071 8.279,-24.624 19.764,-2.124 2.701,5.292 8.676,9.107 8.676,9.107 0,0 -0.719,-4.428 1.225,-11.123 3.348,-11.34 7.848,-1.008 7.381,-12.205 -0.145,-2.987 -1.152,-11.195 -1.152,-11.195 0,0 5.688,-0.288 18.611,-0.792 12.924,-0.468 31.969,1.224 31.969,1.224 3.56,81.647 7.162,163.293997 10.761,244.977997 l 0,0 z m 6.084,-251.135997 c 0.396,1.26 0.828,2.521 1.26,3.816 1.477,0.359 2.951,0.756 4.465,1.152 -3.42,0.18 -6.553,0 -9.541,-0.576 -2.988,-0.611 -5.688,-1.549 -8.279,-2.916 2.664,-0.936 4.967,-1.512 6.984,-1.764 2.051,-0.251 3.707,-0.144 5.111,0.288 l 0,0 z M 11.711839,265.21932 c 1.764,-0.828 3.96,-1.296 6.66,-1.44 2.736,-0.18 6.66,0.072 9.576,0.576 2.88,0.469 5.364,1.26 7.632,2.34 -1.296,0.9 -2.664,1.513 -4.14,1.729 -1.512,0.252 -3.06,0.144 -4.788,-0.288 -1.044,-0.684 -2.088,-1.368 -3.168,-2.052 -3.924,-0.289 -7.848,-0.577 -11.772,-0.865 l 0,0 z m 23.868,-0.864 c -0.432,-24.012 -0.756,-56.16 -0.972,-98.172 -0.216,-42.155 -0.324,-92.014997 -0.324,-152.207997 -0.756,-1.907 -2.628,-2.771 -5.724,-2.627 -3.096,0.144 -7.272,1.295 -12.708,3.492 -1.368,82.655 -2.736,165.346997 -4.14,248.038997 4.176,-0.937 7.812,-1.404 11.124,-1.44 3.312,-0.071 6.444,0.648 8.604,1.152 2.124,0.504 3.492,1.08 4.14,1.764 l 0,0 z"
         style="fill:#808080;fill-rule:evenodd;stroke:#000000;stroke-width:0.036;stroke-miterlimit:10;filter:url(#filter3194)"
         id="path2220" />
      <path
         inkscape:connector-curvature="0"
         d="m 672.578,8.643 c -2.268,-0.359 -4.752,-0.359 -7.633,0 -2.916,0.324 -6.947,1.188 -10.475,2.195 0,1.225 0,2.484 0,3.744 l 0,0 -19.477,-0.144 -11.016,-0.647 -11.016,0.324 -10.117,0.215 0,0 c 0,0 1.117,9.504 1.008,12.564 -0.324,11.7 -3.527,-1.764 -7.703,10.188 -2.16,6.192 -1.477,8.785 -1.477,8.785 0,0 -5.328,-2.341 -7.092,-6.769 -9.072,-22.824 -10.439,10.8 -19.008,1.764 -2.232,-2.34 -1.656,-3.888 -1.836,-8.1 -0.18,-4.212 1.225,-4.104 1.08,-8.748 -0.107,-4.644 -1.584,-9.792 -1.584,-9.792 0,0 -15.625,0.72 -33.877,0.576 -18.252,-0.18 -21.455,-0.324 -39.492,-0.684 -18.035,-0.361 -32.219,-0.217 -32.219,-0.217 -36.072,-0.072 -18.648,-0.107 -22.104,0 -3.529,0.072 -8.281,0.54 -11.557,0.792 -3.24,0.216 -5.76,0.72 -7.848,0.647 -0.289,0.504 -0.289,1.656 0,3.529 0.252,1.871 1.727,5.399 1.584,7.596 -0.18,2.16 -1.008,3.852 -2.557,5.256 0.684,-1.98 1.008,-3.6 0.973,-4.969 -0.072,-1.403 -0.828,-1.332 -1.297,-3.203 -0.432,-1.944 -0.828,-4.608 -1.26,-8.209 -3.096,-0.035 -6.553,-0.252 -10.512,-0.575 -3.924,-0.36 -7.309,-1.62 -13.031,-1.476 -5.725,0.18 -15.301,1.979 -20.988,2.34 -5.652,0.359 -9.828,0.252 -12.744,-0.289 -3.42,-0.828 -7.596,-1.295 -12.709,-1.439 -5.147,-0.145 -12.6,0.288 -17.819,0.576 -5.184,0.288 -7.164,0.828 -13.032,1.152 -5.904,0.359 -15.804,0.936 -21.96,0.899 l 0,0 c -6.12,-0.071 -9.936,-1.296 -14.652,-1.188 -4.68,0.109 -9.072,0.685 -13.356,1.765 -0.252,0.792 -0.684,1.728 -1.26,2.916 -0.576,1.188 -1.908,1.944 -2.232,4.104 -0.288,2.16 0.54,7.199 0.324,8.748 -0.216,1.512 -0.72,1.619 -1.584,0.287 0.504,-2.592 0.432,-4.896 -0.324,-6.984 -0.756,-2.123 -3.168,-3.959 -4.14,-5.58 -0.936,-1.619 0.288,-3.096 -1.584,-4.067 -1.872,-1.008 -3.96,-1.548 -9.54,-1.764 -5.652,-0.181 -17.46,0.396 -23.868,0.575 -6.372,0.217 -8.604,0.181 -14.22,0.576 -5.616,0.396 9.54,1.656 -19.44,1.765 -7.812,0.108 -15.624,0.252 -23.436,0.396 -8.568,-0.216 -17.136,-0.468 -25.704,-0.72 -5.328,0.108 -10.656,0.216 -16.02,0.36 -1.872,1.332 -3.744,2.699 -5.616,4.068 0,0 0.072,-0.613 -0.108,0.647 -0.216,1.296 -0.72,4.5 -0.72,4.5 -1.332,1.584 -2.664,3.168 -3.996,4.788 0,0 0.612,-1.584 0,-3.672 -0.612,-2.125 -1.908,-2.053 -2.412,-4.789 -0.504,-2.771 0.396,-6.264 0.396,-6.264 -8.424,-0.107 -16.848,-0.252 -25.272,-0.396 -6.264,-0.108 -12.564,-0.216 -18.864,-0.36 -29.34,0.108 41.94,1.152 -32.4,0.288 0.108,-1.728 0.216,-3.491 0.324,-5.256 C 31.091,8.963 27.851,7.883 24.215,8.028 l 0,0 c -3.636,0.18 -7.488,1.512 -11.772,4.104 -1.473,84.026 -2.949,168.05 -4.425,252.11 0.144,0.216 1.296,0.504 3.492,0.899 2.196,0.396 5.328,0.864 9.54,1.44 0.612,0.756 1.26,1.548 1.908,2.34 3.096,0.108 5.58,-0.072 7.632,-0.576 2.052,-0.504 3.492,-1.26 4.464,-2.34 -0.18,-2.304 -0.36,-4.644 -0.576,-6.983 8.136,0.107 16.308,0.216 24.48,0.359 12.564,0.36 25.128,0.72 37.692,1.116 10.44,-0.216 20.88,-0.468 31.32,-0.72 0,-1.477 0,-2.952 0,-4.429 0.936,-3.563 1.872,-7.128 2.808,-10.691 0.792,2.088 1.584,4.176 2.376,6.264 -0.108,2.7 -0.252,5.4 -0.396,8.101 34.164,-0.181 58.32,-0.072 73.836,0.359 15.336,0.433 11.772,2.196 17.928,2.232 6.156,0.036 13.572,-1.692 18.756,-2.017 5.184,-0.359 7.668,0.108 12.096,0 4.428,-0.18 9.144,-0.432 14.328,-0.899 0,-2.196 0.216,-4.032 0.612,-5.544 0.432,-1.513 1.08,-2.664 1.908,-3.492 -0.612,1.944 -0.72,3.78 -0.324,5.544 0.468,1.764 1.404,3.384 2.88,4.968 5.976,0.612 11.628,1.008 17.172,1.152 5.58,0.144 10.764,0.072 15.912,-0.288 -0.648,-1.656 -0.864,-3.204 -0.648,-4.68 0.252,-1.477 1.548,-2.124 1.908,-4.068 l 0,0 c 0.396,-1.98 0.504,-4.464 0.324,-7.596 0,0.611 0.108,1.476 0.324,2.628 0.216,1.116 0.756,2.664 0.972,4.067 0.18,1.44 -0.324,2.952 0.288,4.393 0.648,1.439 0.792,3.06 3.528,4.104 2.736,1.008 7.992,1.836 12.708,2.017 4.716,0.216 12.168,0.216 15.264,-0.864 3.096,-1.08 1.44,-5.472 3.204,-5.544 1.764,-0.036 3.779,4.392 7.309,5.256 3.527,0.828 8.855,-0.252 13.68,-0.288 4.825,-0.036 9.719,-0.036 14.939,0 0.936,-1.224 1.764,-2.592 2.557,-4.104 0.791,-1.513 1.223,-5.004 2.23,-4.969 1.01,0.072 3.602,4.068 3.816,5.257 0.217,1.188 -3.059,0.792 -2.555,1.764 0.539,0.972 1.332,3.6 5.723,4.104 4.465,0.469 11.232,0.108 20.701,-1.188 0.791,-4.104 1.943,-6.12 3.492,-6.12 1.547,0 3.168,4.968 5.723,6.12 2.484,1.116 -1.08,1.151 39.277,1.368 l 0,0 36.107,-0.721 40.896,-0.359 0,0 c 0,0 -0.686,-3.78 -0.396,-6.265 0.324,-2.483 -1.477,-5.363 -0.396,-5.903 1.117,-0.54 3.924,4.896 6.408,3.672 2.52,-1.188 4.824,-6.624 4.824,-6.624 0,0 2.736,-2.376 4.031,-1.116 1.297,1.296 1.584,3.313 1.98,6.66 0.432,3.312 -1.404,4.032 -0.396,6.624 1.008,2.556 4.428,3.672 4.428,3.672 l 0,0 40.5,1.476 16.453,-0.359 0,0 c 41.039,0.252 48.527,-0.648 48.527,-0.648 0,0 2.305,2.845 5.4,3.204 3.133,0.324 7.381,-0.036 13.031,-1.151 -1.043,-83.16 -2.088,-166.319 -3.168,-249.517 -1.727,-0.863 -3.168,-1.547 -4.463,-2.051 -1.26,-0.469 -2.305,-0.756 -3.168,-0.865 -0.214,-1.261 -0.429,-2.521 -0.646,-3.78 l 0,0 z"
         style="fill-rule:evenodd"
         id="path13" />
      <path
         inkscape:connector-curvature="0"
         d="m 672.578,8.643 c -2.268,-0.359 -4.752,-0.359 -7.633,0 -2.916,0.324 -6.947,1.188 -10.475,2.195 0,1.225 0,2.484 0,3.744 l 0,0 -19.477,-0.144 -11.016,-0.647 -11.016,0.324 -10.117,0.215 0,0 c 0,0 1.117,9.504 1.008,12.564 -0.324,11.7 -3.527,-1.764 -7.703,10.188 -2.16,6.192 -1.477,8.785 -1.477,8.785 0,0 -5.328,-2.341 -7.092,-6.769 -9.072,-22.824 -10.439,10.8 -19.008,1.764 -2.232,-2.34 -1.656,-3.888 -1.836,-8.1 -0.18,-4.212 1.225,-4.104 1.08,-8.748 -0.107,-4.644 -1.584,-9.792 -1.584,-9.792 0,0 -15.625,0.72 -33.877,0.576 -18.252,-0.18 -21.455,-0.324 -39.492,-0.684 -18.035,-0.361 -32.219,-0.217 -32.219,-0.217 -36.072,-0.072 -18.648,-0.107 -22.104,0 -3.529,0.072 -8.281,0.54 -11.557,0.792 -3.24,0.216 -5.76,0.72 -7.848,0.647 -0.289,0.504 -0.289,1.656 0,3.529 0.252,1.871 1.727,5.399 1.584,7.596 -0.18,2.16 -1.008,3.852 -2.557,5.256 0.684,-1.98 1.008,-3.6 0.973,-4.969 -0.072,-1.403 -0.828,-1.332 -1.297,-3.203 -0.432,-1.944 -0.828,-4.608 -1.26,-8.209 -3.096,-0.035 -6.553,-0.252 -10.512,-0.575 -3.924,-0.36 -7.309,-1.62 -13.031,-1.476 -5.725,0.18 -15.301,1.979 -20.988,2.34 -5.652,0.359 -9.828,0.252 -12.744,-0.289 -3.42,-0.828 -7.596,-1.295 -12.709,-1.439 -5.147,-0.145 -12.6,0.288 -17.819,0.576 -5.184,0.288 -7.164,0.828 -13.032,1.152 -5.904,0.359 -15.804,0.936 -21.96,0.899 l 0,0 c -6.12,-0.071 -9.936,-1.296 -14.652,-1.188 -4.68,0.109 -9.072,0.685 -13.356,1.765 -0.252,0.792 -0.684,1.728 -1.26,2.916 -0.576,1.188 -1.908,1.944 -2.232,4.104 -0.288,2.16 0.54,7.199 0.324,8.748 -0.216,1.512 -0.72,1.619 -1.584,0.287 0.504,-2.592 0.432,-4.896 -0.324,-6.984 -0.756,-2.123 -3.168,-3.959 -4.14,-5.58 -0.936,-1.619 0.288,-3.096 -1.584,-4.067 -1.872,-1.008 -3.96,-1.548 -9.54,-1.764 -5.652,-0.181 -17.46,0.396 -23.868,0.575 -6.372,0.217 -8.604,0.181 -14.22,0.576 -5.616,0.396 9.54,1.656 -19.44,1.765 -7.812,0.108 -15.624,0.252 -23.436,0.396 -8.568,-0.216 -17.136,-0.468 -25.704,-0.72 -5.328,0.108 -10.656,0.216 -16.02,0.36 -1.872,1.332 -3.744,2.699 -5.616,4.068 0,0 0.072,-0.613 -0.108,0.647 -0.216,1.296 -0.72,4.5 -0.72,4.5 -1.332,1.584 -2.664,3.168 -3.996,4.788 0,0 0.612,-1.584 0,-3.672 -0.612,-2.125 -1.908,-2.053 -2.412,-4.789 -0.504,-2.771 0.396,-6.264 0.396,-6.264 -8.424,-0.107 -16.848,-0.252 -25.272,-0.396 -6.264,-0.108 -12.564,-0.216 -18.864,-0.36 -29.34,0.108 41.94,1.152 -32.4,0.288 0.108,-1.728 0.216,-3.491 0.324,-5.256 C 31.091,8.963 27.851,7.883 24.215,8.028 l 0,0 c -3.636,0.18 -7.488,1.512 -11.772,4.104 -1.473,84.026 -2.949,168.05 -4.425,252.11 0.144,0.216 1.296,0.504 3.492,0.899 2.196,0.396 5.328,0.864 9.54,1.44 0.612,0.756 1.26,1.548 1.908,2.34 3.096,0.108 5.58,-0.072 7.632,-0.576 2.052,-0.504 3.492,-1.26 4.464,-2.34 -0.18,-2.304 -0.36,-4.644 -0.576,-6.983 8.136,0.107 16.308,0.216 24.48,0.359 12.564,0.36 25.128,0.72 37.692,1.116 10.44,-0.216 20.88,-0.468 31.32,-0.72 0,-1.477 0,-2.952 0,-4.429 0.936,-3.563 1.872,-7.128 2.808,-10.691 0.792,2.088 1.584,4.176 2.376,6.264 -0.108,2.7 -0.252,5.4 -0.396,8.101 34.164,-0.181 58.32,-0.072 73.836,0.359 15.336,0.433 11.772,2.196 17.928,2.232 6.156,0.036 13.572,-1.692 18.756,-2.017 5.184,-0.359 7.668,0.108 12.096,0 4.428,-0.18 9.144,-0.432 14.328,-0.899 0,-2.196 0.216,-4.032 0.612,-5.544 0.432,-1.513 1.08,-2.664 1.908,-3.492 -0.612,1.944 -0.72,3.78 -0.324,5.544 0.468,1.764 1.404,3.384 2.88,4.968 5.976,0.612 11.628,1.008 17.172,1.152 5.58,0.144 10.764,0.072 15.912,-0.288 -0.648,-1.656 -0.864,-3.204 -0.648,-4.68 0.252,-1.477 1.548,-2.124 1.908,-4.068 l 0,0 c 0.396,-1.98 0.504,-4.464 0.324,-7.596 0,0.611 0.108,1.476 0.324,2.628 0.216,1.116 0.756,2.664 0.972,4.067 0.18,1.44 -0.324,2.952 0.288,4.393 0.648,1.439 0.792,3.06 3.528,4.104 2.736,1.008 7.992,1.836 12.708,2.017 4.716,0.216 12.168,0.216 15.264,-0.864 3.096,-1.08 1.44,-5.472 3.204,-5.544 1.764,-0.036 3.779,4.392 7.309,5.256 3.527,0.828 8.855,-0.252 13.68,-0.288 4.825,-0.036 9.719,-0.036 14.939,0 0.936,-1.224 1.764,-2.592 2.557,-4.104 0.791,-1.513 1.223,-5.004 2.23,-4.969 1.01,0.072 3.602,4.068 3.816,5.257 0.217,1.188 -3.059,0.792 -2.555,1.764 0.539,0.972 1.332,3.6 5.723,4.104 4.465,0.469 11.232,0.108 20.701,-1.188 0.791,-4.104 1.943,-6.12 3.492,-6.12 1.547,0 3.168,4.968 5.723,6.12 2.484,1.116 -1.08,1.151 39.277,1.368 l 0,0 36.107,-0.721 40.896,-0.359 0,0 c 0,0 -0.686,-3.78 -0.396,-6.265 0.324,-2.483 -1.477,-5.363 -0.396,-5.903 1.117,-0.54 3.924,4.896 6.408,3.672 2.52,-1.188 4.824,-6.624 4.824,-6.624 0,0 2.736,-2.376 4.031,-1.116 1.297,1.296 1.584,3.313 1.98,6.66 0.432,3.312 -1.404,4.032 -0.396,6.624 1.008,2.556 4.428,3.672 4.428,3.672 l 0,0 40.5,1.476 16.453,-0.359 0,0 c 41.039,0.252 48.527,-0.648 48.527,-0.648 0,0 2.305,2.845 5.4,3.204 3.133,0.324 7.381,-0.036 13.031,-1.151 -1.043,-83.16 -2.088,-166.319 -3.168,-249.517 -1.727,-0.863 -3.168,-1.547 -4.463,-2.051 -1.26,-0.469 -2.305,-0.756 -3.168,-0.865 -0.214,-1.261 -0.429,-2.521 -0.646,-3.78 l 0,0 z"
         style="fill:none;stroke:#000000;stroke-width:0.036;stroke-miterlimit:10"
         id="path15" />
      <path
         inkscape:connector-curvature="0"
         d="m 680.57,15.662 c 0.072,32.364 0.287,68.328 0.791,110.125 0.396,41.795 1.045,87.047 1.945,138.274 l 0,0 c -3.385,1.225 -6.445,1.908 -9.324,1.765 -2.881,-0.145 -5.473,-0.972 -7.775,-2.484 l 0,0 -10.262,-252.504 0,0 c 1.332,1.08 3.385,2.088 6.014,3.025 2.555,0.863 6.479,2.159 9.684,2.483 3.058,0.253 6.084,0.072 8.927,-0.684 l 0,0 z"
         style="fill:url(#linearGradient3209);fill-rule:evenodd;stroke:#000000;stroke-width:0.036;stroke-miterlimit:10"
         id="path30" />
      <path
         inkscape:connector-curvature="0"
         d="m 671.967,9.471 1.188,3.564 5.076,1.907 0,0 c -3.816,1.009 -7.309,1.188 -10.764,0.54 -3.457,-0.72 -6.732,-2.268 -9.828,-4.645 l 0,0 c 2.736,-1.295 5.363,-1.979 7.74,-2.195 2.447,-0.288 4.463,0.037 6.588,0.829 l 0,0 z"
         style="fill:#412318;fill-rule:evenodd;stroke:#000000;stroke-width:0.036;stroke-miterlimit:10"
         id="path32" />
      <path
         inkscape:connector-curvature="0"
         d="m 523.43,15.123 42.301,-0.108 0.971,5.616 0.254,6.516 -1.477,7.416 2.088,6.984 4.572,2.375 3.131,-2.051 3.781,-7.849 2.482,-2.196 2.125,1.116 1.439,2.052 1.801,3.637 2.051,3.636 4.645,4.248 1.621,1.512 0.898,-7.56 3.24,-7.236 3.637,-0.756 1.008,-1.296 0.324,-7.345 -0.469,-4.355 -0.252,-4.464 9.613,-0.324 14.939,-0.252 15.191,0.685 11.412,0.359 11.34,247.319 -27.756,-0.468 -22.859,0 -18.469,0.756 -28.477,-0.756 -11.23,-2.196 -0.396,-6.624 -0.828,-7.38 -1.188,-2.195 -5.221,1.439 -4.428,6.66 -5.615,-4.788 -1.98,2.196 0.396,10.691 0,0 c -41.148,0.973 -69.266,1.584 -86.148,1.836 -16.596,0.181 -9.359,-0.504 -13.428,-0.54 -4.285,-0.107 -8.857,0.217 -11.629,-0.287 -2.809,-0.685 -3.672,-2.16 -5.076,-3.313 -1.475,-1.224 -2.484,-3.384 -3.6,-3.563 -1.26,-0.217 -2.627,0.972 -3.564,2.195 -0.971,1.152 -1.619,2.664 -2.088,4.681 l 0,0 c -4.211,0.359 -7.668,0.684 -10.764,0.827 -3.096,0.072 -5.58,0.252 -7.451,0 -1.908,-0.252 -3.385,-0.899 -3.889,-1.655 -0.611,-1.009 0.18,-2.521 0.287,-3.564 -0.035,-1.152 0.613,-1.692 0,-2.736 -0.719,-1.151 -2.986,-3.312 -3.887,-3.563 -0.936,-0.252 -1.008,0.936 -1.477,1.908 -0.539,0.828 -0.863,1.979 -1.512,3.312 -0.684,1.26 -1.619,2.664 -2.664,4.356 l 0,0 c -3.203,0.18 -6.912,0.18 -11.125,0.288 -4.428,-0.036 -11.016,0.611 -14.326,0 -3.35,-0.828 -3.42,-2.809 -5.076,-3.853 -1.766,-1.08 -3.961,-2.088 -5.076,-1.908 -1.261,0.108 -1.117,2.089 -1.801,3.024 -0.648,0.792 -0.324,1.836 -2.088,2.448 -1.872,0.647 -4.752,1.296 -8.64,1.403 -3.996,-0.071 -11.34,-0.899 -14.652,-1.655 -3.348,-0.864 -3.888,-1.225 -5.076,-3.024 -1.188,-1.908 -1.512,-5.76 -2.088,-7.956 -0.648,-2.304 -1.476,-3.852 -2.088,-5.184 l 0,0 c 0.144,2.592 0,4.824 -0.288,6.84 -0.396,1.908 -1.224,3.276 -1.8,4.932 -0.684,1.692 -1.152,3.204 -1.8,4.933 l 0,0 c -5.868,0.288 -11.196,0.432 -16.128,0.288 -4.968,-0.181 -9.396,-0.505 -13.428,-1.116 l 0,0 c -1.188,-1.944 -2.124,-3.672 -2.664,-5.473 -0.648,-1.8 -0.9,-3.491 -0.9,-5.22 l 0,0 c -1.692,1.548 -2.736,3.061 -3.276,4.68 -0.576,1.62 -0.576,3.169 0,4.933 l 0,0 c -6.372,-0.36 -12.456,-0.468 -18.54,-0.288 -6.048,0.18 -13.104,0.9 -17.604,1.368 -4.428,0.468 -5.688,1.403 -8.964,1.368 -3.24,-0.036 -7.056,-1.188 -10.44,-1.62 -3.348,-0.468 -3.852,-1.008 -9.54,-1.116 -5.688,-0.072 3.96,0.54 -24.444,0.54 l 0,0 -20.052,-0.36 -24.084,-0.756 -1.584,-7.74 -3.636,-7.344 -1.98,7.344 -1.62,8.496 -20.88,1.08 -3.204,0 0,0 c -28.728,0 0.612,-0.899 -68.58,-1.26 l 0,0 -0.9,-240.696 23.364,1.045 38.916,-0.396 14.04,0 -0.396,5.184 2.376,5.509 -0.396,4.788 5.22,-3.313 2.016,-5.148 1.188,-2.951 5.616,-3.672 0,0 c 25.344,0.359 43.74,0.468 56.016,0.324 12.096,-0.217 10.548,-0.864 16.74,-1.369 6.192,-0.575 13.5,-1.403 20.268,-1.655 6.66,-0.323 14.256,-0.323 19.728,-0.288 5.292,-0.072 9.612,-0.576 12.528,0 2.808,0.504 3.564,1.512 4.788,3.023 1.152,1.332 1.44,3.529 2.376,5.473 0.828,1.908 2.052,4.284 2.7,6.3 0.504,2.017 0.432,4.681 0.9,5.509 0.504,0.647 1.656,0 2.088,-1.369 0.18,-1.547 -0.288,-5.039 0,-7.127 0.252,-2.088 0.9,-3.601 1.8,-5.221 0.828,-1.8 1.044,-3.672 3.564,-4.645 2.34,-0.936 6.12,-1.26 11.34,-1.115 5.184,-0.036 11.664,1.26 20.016,1.115 8.424,-0.252 20.592,-2.231 29.7,-2.483 8.856,-0.323 15.876,0.181 23.579,0.54 7.74,0.252 15.301,1.368 22.105,1.116 6.551,-0.396 12.887,-2.845 17.604,-3.024 4.607,-0.287 6.516,1.512 10.439,1.908 3.924,0.359 8.064,0.54 12.852,0.54 l 0,0 c 0.686,3.349 1.332,5.868 1.801,7.956 0.432,1.943 0.863,2.628 0.9,4.141 -0.107,1.512 -0.469,2.916 -1.225,4.644 l 0,0 c 2.557,-1.332 4.104,-2.664 4.789,-4.392 0.611,-1.765 -0.613,-3.637 -0.9,-5.761 -0.361,-2.124 -0.756,-4.356 -1.188,-6.84 l 0,0 c 4.535,-0.612 9.07,-0.937 14.039,-1.116 4.896,-0.252 0.252,-0.072 15.229,0 15.123,0.07 39.314,0.177 74.127,0.466 l 0,0 z"
         style="fill:url(#linearGradient3211);fill-rule:evenodd;stroke:#000000;stroke-width:0.036;stroke-miterlimit:10"
         id="path43" />
      <path
         inkscape:connector-curvature="0"
         d="m 33.218,12.207 c 0.072,69.66 0.18,124.344 0.324,166.967 0.216,42.408 0.36,70.416 0.576,85.824 l 0,0 c -2.664,-1.764 -5.256,-2.952 -8.064,-3.564 -2.7,-0.72 -5.436,-0.54 -8.352,-0.287 -2.844,0.144 -5.832,0.827 -8.964,1.655 l 0,0 4.5,-249.767 0,0 c 3.276,-1.693 6.012,-2.881 8.352,-3.564 2.34,-0.756 3.816,-1.045 5.688,-0.576 1.944,0.503 3.924,1.476 5.94,3.312 l 0,0 z"
         style="fill:url(#linearGradient3213);fill-rule:evenodd;stroke:#000000;stroke-width:0.036;stroke-miterlimit:10"
         id="path54" />
      <path
         inkscape:connector-curvature="0"
         d="m 34.73,264.71 c -2.736,-1.656 -5.868,-2.7 -9.252,-3.276 -3.384,-0.611 -8.172,-0.756 -11.052,-0.287 -2.736,0.323 -4.68,1.188 -5.688,2.447 l 0,0 c 1.512,0.54 3.312,1.008 5.4,1.404 2.196,0.288 4.68,0.684 7.452,0.792 l 0,0 3.564,2.196 0,0 c 2.196,0.323 4.14,0.288 5.688,-0.252 1.692,-0.54 2.844,-1.547 3.888,-3.024 l 0,0 z"
         style="fill:#412318;fill-rule:evenodd;stroke:#000000;stroke-width:0.036;stroke-miterlimit:10"
         id="path56" />
      <path
         inkscape:connector-curvature="0"
         d="m 672.578,8.643 c -2.268,-0.359 -4.752,-0.359 -7.633,0 -2.916,0.324 -6.947,1.188 -10.475,2.195 0,1.225 0,2.484 0,3.744 l 0,0 -19.477,-0.144 -11.016,-0.647 -11.016,0.324 -10.117,0.215 0,0 c 0,0 1.117,9.504 1.008,12.564 -0.324,11.7 -3.527,-1.764 -7.703,10.188 -2.16,6.192 -1.477,8.785 -1.477,8.785 0,0 -5.328,-2.341 -7.092,-6.769 -9.072,-22.824 -10.439,10.8 -19.008,1.764 -2.232,-2.34 -1.656,-3.888 -1.836,-8.1 -0.18,-4.212 1.225,-4.104 1.08,-8.748 -0.107,-4.644 -1.584,-9.792 -1.584,-9.792 0,0 -15.625,0.72 -33.877,0.576 -18.252,-0.18 -21.455,-0.324 -39.492,-0.684 -18.035,-0.361 -32.219,-0.217 -32.219,-0.217 -36.072,-0.072 -18.648,-0.107 -22.104,0 -3.529,0.072 -8.281,0.54 -11.557,0.792 -3.24,0.216 -5.76,0.72 -7.848,0.647 -0.289,0.504 -0.289,1.656 0,3.529 0.252,1.871 1.727,5.399 1.584,7.596 -0.18,2.16 -1.008,3.852 -2.557,5.256 0.684,-1.98 1.008,-3.6 0.973,-4.969 -0.072,-1.403 -0.828,-1.332 -1.297,-3.203 -0.432,-1.944 -0.828,-4.608 -1.26,-8.209 -3.096,-0.035 -6.553,-0.252 -10.512,-0.575 -3.924,-0.36 -7.309,-1.62 -13.031,-1.476 -5.725,0.18 -15.301,1.979 -20.988,2.34 -5.652,0.359 -9.828,0.252 -12.744,-0.289 -3.42,-0.828 -7.596,-1.295 -12.709,-1.439 -5.147,-0.145 -12.6,0.288 -17.819,0.576 -5.184,0.288 -7.164,0.828 -13.032,1.152 -5.904,0.359 -15.804,0.936 -21.96,0.899 l 0,0 c -6.12,-0.071 -9.936,-1.296 -14.652,-1.188 -4.68,0.109 -9.072,0.685 -13.356,1.765 -0.252,0.792 -0.684,1.728 -1.26,2.916 -0.576,1.188 -1.908,1.944 -2.232,4.104 -0.288,2.16 0.54,7.199 0.324,8.748 -0.216,1.512 -0.72,1.619 -1.584,0.287 0.504,-2.592 0.432,-4.896 -0.324,-6.984 -0.756,-2.123 -3.168,-3.959 -4.14,-5.58 -0.936,-1.619 0.288,-3.096 -1.584,-4.067 -1.872,-1.008 -3.96,-1.548 -9.54,-1.764 -5.652,-0.181 -17.46,0.396 -23.868,0.575 -6.372,0.217 -8.604,0.181 -14.22,0.576 -5.616,0.396 9.54,1.656 -19.44,1.765 -7.812,0.108 -15.624,0.252 -23.436,0.396 -8.568,-0.216 -17.136,-0.468 -25.704,-0.72 -5.328,0.108 -10.656,0.216 -16.02,0.36 -1.872,1.332 -3.744,2.699 -5.616,4.068 0,0 0.072,-0.613 -0.108,0.647 -0.216,1.296 -0.72,4.5 -0.72,4.5 -1.332,1.584 -2.664,3.168 -3.996,4.788 0,0 0.612,-1.584 0,-3.672 -0.612,-2.125 -1.908,-2.053 -2.412,-4.789 -0.504,-2.771 0.396,-6.264 0.396,-6.264 -8.424,-0.107 -16.848,-0.252 -25.272,-0.396 -6.264,-0.108 -12.564,-0.216 -18.864,-0.36 -29.34,0.108 41.94,1.152 -32.4,0.288 0.108,-1.728 0.216,-3.491 0.324,-5.256 C 31.091,8.963 27.851,7.883 24.215,8.028 l 0,0 c -3.636,0.18 -7.488,1.512 -11.772,4.104 -1.473,84.026 -2.949,168.05 -4.425,252.11 0.144,0.216 1.296,0.504 3.492,0.899 2.196,0.396 5.328,0.864 9.54,1.44 0.612,0.756 1.26,1.548 1.908,2.34 3.096,0.108 5.58,-0.072 7.632,-0.576 2.052,-0.504 3.492,-1.26 4.464,-2.34 -0.18,-2.304 -0.36,-4.644 -0.576,-6.983 8.136,0.107 16.308,0.216 24.48,0.359 12.564,0.36 25.128,0.72 37.692,1.116 10.44,-0.216 20.88,-0.468 31.32,-0.72 0,-1.477 0,-2.952 0,-4.429 0.936,-3.563 1.872,-7.128 2.808,-10.691 0.792,2.088 1.584,4.176 2.376,6.264 -0.108,2.7 -0.252,5.4 -0.396,8.101 34.164,-0.181 58.32,-0.072 73.836,0.359 15.336,0.433 11.772,2.196 17.928,2.232 6.156,0.036 13.572,-1.692 18.756,-2.017 5.184,-0.359 7.668,0.108 12.096,0 4.428,-0.18 9.144,-0.432 14.328,-0.899 0,-2.196 0.216,-4.032 0.612,-5.544 0.432,-1.513 1.08,-2.664 1.908,-3.492 -0.612,1.944 -0.72,3.78 -0.324,5.544 0.468,1.764 1.404,3.384 2.88,4.968 5.976,0.612 11.628,1.008 17.172,1.152 5.58,0.144 10.764,0.072 15.912,-0.288 -0.648,-1.656 -0.864,-3.204 -0.648,-4.68 0.252,-1.477 1.548,-2.124 1.908,-4.068 l 0,0 c 0.396,-1.98 0.504,-4.464 0.324,-7.596 0,0.611 0.108,1.476 0.324,2.628 0.216,1.116 0.756,2.664 0.972,4.067 0.18,1.44 -0.324,2.952 0.288,4.393 0.648,1.439 0.792,3.06 3.528,4.104 2.736,1.008 7.992,1.836 12.708,2.017 4.716,0.216 12.168,0.216 15.264,-0.864 3.096,-1.08 1.44,-5.472 3.204,-5.544 1.764,-0.036 3.779,4.392 7.309,5.256 3.527,0.828 8.855,-0.252 13.68,-0.288 4.825,-0.036 9.719,-0.036 14.939,0 0.936,-1.224 1.764,-2.592 2.557,-4.104 0.791,-1.513 1.223,-5.004 2.23,-4.969 1.01,0.072 3.602,4.068 3.816,5.257 0.217,1.188 -3.059,0.792 -2.555,1.764 0.539,0.972 1.332,3.6 5.723,4.104 4.465,0.469 11.232,0.108 20.701,-1.188 0.791,-4.104 1.943,-6.12 3.492,-6.12 1.547,0 3.168,4.968 5.723,6.12 2.484,1.116 -1.08,1.151 39.277,1.368 l 0,0 36.107,-0.721 40.896,-0.359 0,0 c 0,0 -0.686,-3.78 -0.396,-6.265 0.324,-2.483 -1.477,-5.363 -0.396,-5.903 1.117,-0.54 3.924,4.896 6.408,3.672 2.52,-1.188 4.824,-6.624 4.824,-6.624 0,0 2.736,-2.376 4.031,-1.116 1.297,1.296 1.584,3.313 1.98,6.66 0.432,3.312 -1.404,4.032 -0.396,6.624 1.008,2.556 4.428,3.672 4.428,3.672 l 0,0 40.5,1.476 16.453,-0.359 0,0 c 41.039,0.252 48.527,-0.648 48.527,-0.648 0,0 2.305,2.845 5.4,3.204 3.133,0.324 7.381,-0.036 13.031,-1.151 -1.043,-83.16 -2.088,-166.319 -3.168,-249.517 -1.727,-0.863 -3.168,-1.547 -4.463,-2.051 -1.26,-0.469 -2.305,-0.756 -3.168,-0.865 -0.214,-1.261 -0.429,-2.521 -0.646,-3.78 l 0,0 z m 7.02,7.271 c -3.24,0.648 -6.336,0.828 -9.539,0.612 -3.24,-0.252 -7.309,-1.224 -9.576,-2.052 -2.232,-0.828 -3.457,-1.801 -3.816,-2.916 0.18,7.416 0.684,21.096 1.619,41.76 0.9,20.771 2.305,46.368 3.816,81.504 1.477,35.279 3.168,77.184 5.076,127.979 2.053,1.116 4.32,1.692 6.984,1.729 2.699,0.071 5.615,-0.396 8.928,-1.44 -1.152,-82.368 -2.305,-164.772 -3.492,-247.176 l 0,0 z m -14.364,245.304 c -113.904,-0.576 -73.439,0.756 -90.684,0 0,0 -9.324,0.216 -13.248,-1.08 -3.889,-1.296 -1.512,-0.647 -2.412,-4.067 -0.9,-3.42 -0.072,-6.084 -1.189,-9.576 -1.115,-3.492 -3.203,-4.428 -3.203,-4.428 0,0 -4.932,1.476 -7.236,3.708 -2.303,2.195 -2.016,5.147 -2.016,5.147 0,0 -4.68,-5.436 -6.805,-4.788 -2.088,0.648 -1.115,3.96 -1.619,7.38 -0.469,3.385 -0.396,6.265 -0.396,6.265 -17.244,-0.756 -46.908,0 -46.908,0 -12.707,0.216 -25.416,0.468 -38.123,0.72 -39.996,-0.18 -22.896,1.08 -25.74,-0.036 -2.881,-1.152 -5.111,-5.688 -6.984,-6.731 -1.871,-1.009 -3.023,-0.576 -4.141,0.575 -1.115,1.188 -1.943,3.313 -2.555,6.444 -4.537,0.396 -8.389,0.576 -11.771,0.576 -3.35,0 -6.697,-0.036 -8.244,-0.576 -1.549,-0.54 -1.08,-1.908 -0.973,-2.628 0.107,-0.72 1.801,-0.756 1.584,-1.764 -0.217,-1.009 -1.729,-3.24 -2.844,-4.356 -1.152,-1.152 -2.736,-2.736 -3.816,-2.34 -1.08,0.396 -1.764,3.023 -2.557,4.644 -0.828,1.62 -1.547,3.276 -2.23,4.969 -6.084,-0.181 -11.197,-0.288 -15.59,-0.288 -4.391,0 -7.811,0.828 -10.512,0.288 -2.627,-0.54 -3.779,-2.412 -5.398,-3.492 -1.584,-1.08 -2.988,-2.809 -4.141,-2.916 l 0,0 c -1.116,-0.108 -1.908,1.26 -2.52,2.34 -0.648,1.08 1.115,3.204 -1.297,4.068 -2.412,0.899 -8.892,1.332 -13.032,1.188 -4.14,-0.18 -8.82,-1.116 -11.52,-2.052 -2.7,-0.937 -3.564,-1.368 -4.464,-3.492 -0.9,-2.16 -0.216,-6.984 -0.972,-9.36 -0.72,-2.34 -1.872,-3.888 -3.492,-4.68 0.54,3.061 0.648,5.652 0.324,7.884 -0.324,2.269 -1.62,3.744 -2.232,5.544 -0.576,1.836 -1.008,3.564 -1.26,5.292 -0.648,0.036 -3.276,0.036 -7.956,0 -4.716,-0.071 -11.268,-0.144 -20.052,-0.323 -1.44,-1.513 -2.484,-3.24 -3.168,-5.257 -0.684,-2.016 -1.008,-4.212 -0.972,-6.695 -1.332,1.08 -2.376,2.412 -3.168,4.067 -0.792,1.692 -1.332,3.601 -1.584,5.868 -12.024,-0.072 -21.6,0.108 -29.268,0.576 -7.632,0.432 -9.18,1.98 -14.796,1.944 -5.58,-0.072 6.048,-1.548 -25.272,-2.053 -7.164,-0.287 -14.328,-0.575 -21.492,-0.899 -9.468,0 -18.972,0 -28.476,0 -4.284,-0.108 -8.568,-0.252 -12.852,-0.396 -0.504,-2.556 -1.044,-5.147 -1.584,-7.739 -1.476,-2.305 -2.952,-4.645 -4.428,-6.984 0,0 -2.088,4.5 -3.204,8.1 -1.116,3.601 -1.188,7.021 -1.188,7.021 -7.488,0.468 -14.976,0.972 -22.464,1.476 -31.788,-0.504 14.652,-1.439 -68.364,-1.332 l 0,0 C 34.334,177.414 33.902,97.855 33.47,18.258 c 15.552,0.433 31.14,0.865 46.728,1.297 9.36,-0.217 18.72,-0.469 28.116,-0.721 0,0 -1.116,3.385 -0.828,5.904 0.324,2.484 1.512,1.26 2.016,4.032 0.504,2.772 -0.9,3.96 0,7.021 0.9,3.023 3.6,5.147 3.6,5.147 0,0 -1.584,-4.608 -0.396,-7.38 1.224,-2.771 3.6,-1.116 5.22,-3.672 1.62,-2.592 -0.792,-4.141 1.188,-6.625 2.016,-2.483 6.84,-3.311 6.84,-3.311 10.836,0 21.672,0 32.508,0 10.512,0.107 19.872,-0.037 28.512,-0.505 8.676,-0.504 16.812,-1.836 22.896,-2.34 6.084,-0.504 7.02,-0.504 13.284,-0.576 6.336,-0.108 19.08,-0.396 24.192,0 5.076,0.396 4.824,1.476 6.048,2.341 1.224,0.827 0.36,0.936 1.26,2.627 0.936,1.656 3.348,4.824 4.14,7.309 0.792,2.447 -0.144,5.832 0.648,7.271 0.828,1.44 3.42,2.16 4.14,1.188 0.684,-1.009 -0.216,-4.572 0,-7.021 0.216,-2.447 0.468,-5.615 1.26,-7.596 0.792,-1.943 1.944,-3.275 3.492,-4.104 4.752,-0.864 8.82,-1.332 12.42,-1.44 3.564,-0.108 3.492,0.756 8.892,0.864 5.508,0.107 15.696,0.144 23.544,-0.288 7.884,-0.433 17.424,-2.052 23.22,-2.341 l 0,0 c 5.76,-0.287 6.516,0.145 11.16,0.576 4.645,0.469 10.98,1.836 16.523,2.053 5.58,0.216 11.197,-0.324 16.561,-0.864 5.328,-0.54 11.447,-2.231 15.264,-2.34 3.779,-0.108 4.176,1.26 7.309,1.764 3.168,0.468 6.912,0.864 11.447,1.152 1.656,3.132 2.592,6.12 2.881,9.071 0.252,2.916 -0.145,5.725 -1.297,8.461 2.953,-2.881 4.932,-5.185 6.049,-7.021 1.115,-1.8 0.9,-1.979 0.648,-3.78 -0.252,-1.836 -1.01,-4.14 -2.232,-7.02 0.971,-0.504 3.492,-0.864 7.631,-1.152 4.141,-0.324 -3.527,-0.9 34.164,-0.9 l 0,0 27.072,-0.107 39.996,0.792 18.684,-0.323 16.885,-0.252 0,0 c 0,0 1.043,5.075 1.008,10.151 -0.072,5.04 -1.691,5.651 -1.225,10.116 0.434,4.428 0.252,5.615 3.061,7.632 12.779,9.071 8.279,-24.624 19.764,-2.124 2.701,5.292 8.676,9.107 8.676,9.107 0,0 -0.719,-4.428 1.225,-11.123 3.348,-11.34 7.848,-1.008 7.381,-12.205 -0.145,-2.987 -1.152,-11.195 -1.152,-11.195 0,0 5.688,-0.288 18.611,-0.792 12.924,-0.468 31.969,1.224 31.969,1.224 3.56,81.647 7.162,163.294 10.761,244.978 l 0,0 z m 6.084,-251.136 c 0.396,1.26 0.828,2.521 1.26,3.816 1.477,0.359 2.951,0.756 4.465,1.152 -3.42,0.18 -6.553,0 -9.541,-0.576 -2.988,-0.611 -5.688,-1.549 -8.279,-2.916 2.664,-0.936 4.967,-1.512 6.984,-1.764 2.051,-0.251 3.707,-0.144 5.111,0.288 l 0,0 z M 9.53,263.666 c 1.764,-0.828 3.96,-1.296 6.66,-1.44 2.736,-0.18 6.66,0.072 9.576,0.576 2.88,0.469 5.364,1.26 7.632,2.34 -1.296,0.9 -2.664,1.513 -4.14,1.729 -1.512,0.252 -3.06,0.144 -4.788,-0.288 -1.044,-0.684 -2.088,-1.368 -3.168,-2.052 -3.924,-0.289 -7.848,-0.577 -11.772,-0.865 l 0,0 z m 23.868,-0.864 C 32.966,238.79 32.642,206.642 32.426,164.63 32.21,122.475 32.102,72.615 32.102,12.422 31.346,10.515 29.474,9.651 26.378,9.795 23.282,9.939 19.106,11.09 13.67,13.287 12.302,95.942 10.934,178.634 9.53,261.326 c 4.176,-0.937 7.812,-1.404 11.124,-1.44 3.312,-0.071 6.444,0.648 8.604,1.152 2.124,0.504 3.492,1.08 4.14,1.764 l 0,0 z"
         style="fill-rule:evenodd;stroke:#000000;stroke-width:0.036;stroke-miterlimit:10"
         id="path58" />
    </g>
  </g>
</svg>
