<?xml version="1.0" encoding="UTF-8" standalone="no"?>
<!-- Created with Inkscape (http://www.inkscape.org/) -->
<svg
   xmlns:dc="http://purl.org/dc/elements/1.1/"
   xmlns:cc="http://web.resource.org/cc/"
   xmlns:rdf="http://www.w3.org/1999/02/22-rdf-syntax-ns#"
   xmlns:svg="http://www.w3.org/2000/svg"
   xmlns="http://www.w3.org/2000/svg"
   xmlns:sodipodi="http://sodipodi.sourceforge.net/DTD/sodipodi-0.dtd"
   xmlns:inkscape="http://www.inkscape.org/namespaces/inkscape"
   width="210mm"
   height="297mm"
   id="svg2443"
   sodipodi:version="0.32"
   inkscape:version="0.45.1"
   sodipodi:docbase="/home/gilles/HOME/abc/2009/com communication/images notes"
   sodipodi:docname="notes.svg"
   inkscape:output_extension="org.inkscape.output.svg.inkscape">
  <defs
     id="defs2445" />
  <sodipodi:namedview
     id="base"
     pagecolor="#ffffff"
     bordercolor="#666666"
     borderopacity="1.0"
     inkscape:pageopacity="0.0"
     inkscape:pageshadow="2"
     inkscape:zoom="0.65312309"
     inkscape:cx="581.23978"
     inkscape:cy="565.51832"
     inkscape:document-units="px"
     inkscape:current-layer="layer1"
     inkscape:window-width="1680"
     inkscape:window-height="975"
     inkscape:window-x="0"
     inkscape:window-y="25"
     showguides="true"
     inkscape:guide-bbox="true" />
  <metadata
     id="metadata2448">
    <rdf:RDF>
      <cc:Work
         rdf:about="">
        <dc:format>image/svg+xml</dc:format>
        <dc:type
           rdf:resource="http://purl.org/dc/dcmitype/StillImage" />
      </cc:Work>
    </rdf:RDF>
  </metadata>
  <g
     inkscape:label="Calque 1"
     inkscape:groupmode="layer"
     id="layer1">
    <g
       id="g3574"
       transform="matrix(1.0171631,0,0,1.0171631,-2.1809402,-14.066476)">
      <rect
         ry="2.798789"
         y="193.79076"
         x="128.57143"
         height="624.28571"
         width="512.85712"
         id="rect2451"
         style="opacity:1;fill:#faff65;fill-opacity:0.63949842;fill-rule:nonzero;stroke:#000000;stroke-width:3;stroke-linecap:round;stroke-linejoin:round;stroke-miterlimit:4;stroke-dasharray:none;stroke-dashoffset:0;stroke-opacity:1" />
      <path
         transform="translate(56.999994,6.4285623)"
         d="M 258.57144 234.50504 A 29.285715 29.285715 0 1 1  200.00001,234.50504 A 29.285715 29.285715 0 1 1  258.57144 234.50504 z"
         sodipodi:ry="29.285715"
         sodipodi:rx="29.285715"
         sodipodi:cy="234.50504"
         sodipodi:cx="229.28572"
         id="path3422"
         style="opacity:1;fill:#ffffff;fill-opacity:1;fill-rule:nonzero;stroke:#000000;stroke-width:3;stroke-linecap:round;stroke-linejoin:round;stroke-miterlimit:4;stroke-dasharray:none;stroke-dashoffset:0;stroke-opacity:1"
         sodipodi:type="arc" />
      <path
         transform="translate(-41.571432,6.4285623)"
         d="M 258.57144 234.50504 A 29.285715 29.285715 0 1 1  200.00001,234.50504 A 29.285715 29.285715 0 1 1  258.57144 234.50504 z"
         sodipodi:ry="29.285715"
         sodipodi:rx="29.285715"
         sodipodi:cy="234.50504"
         sodipodi:cx="229.28572"
         id="path3424"
         style="opacity:1;fill:#ffffff;fill-opacity:1;fill-rule:nonzero;stroke:#000000;stroke-width:3;stroke-linecap:round;stroke-linejoin:round;stroke-miterlimit:4;stroke-dasharray:none;stroke-dashoffset:0;stroke-opacity:1"
         sodipodi:type="arc" />
      <path
         transform="translate(352.71429,6.4285623)"
         d="M 258.57144 234.50504 A 29.285715 29.285715 0 1 1  200.00001,234.50504 A 29.285715 29.285715 0 1 1  258.57144 234.50504 z"
         sodipodi:ry="29.285715"
         sodipodi:rx="29.285715"
         sodipodi:cy="234.50504"
         sodipodi:cx="229.28572"
         id="path3426"
         style="opacity:1;fill:#fefefe;fill-opacity:1;fill-rule:nonzero;stroke:#000000;stroke-width:3;stroke-linecap:round;stroke-linejoin:round;stroke-miterlimit:4;stroke-dasharray:none;stroke-dashoffset:0;stroke-opacity:1"
         sodipodi:type="arc" />
      <path
         transform="translate(254.14288,6.4285623)"
         d="M 258.57144 234.50504 A 29.285715 29.285715 0 1 1  200.00001,234.50504 A 29.285715 29.285715 0 1 1  258.57144 234.50504 z"
         sodipodi:ry="29.285715"
         sodipodi:rx="29.285715"
         sodipodi:cy="234.50504"
         sodipodi:cx="229.28572"
         id="path3430"
         style="opacity:1;fill:#ffffff;fill-opacity:1;fill-rule:nonzero;stroke:#000000;stroke-width:3;stroke-linecap:round;stroke-linejoin:round;stroke-miterlimit:4;stroke-dasharray:none;stroke-dashoffset:0;stroke-opacity:1"
         sodipodi:type="arc" />
      <path
         id="path3452"
         d="M 162.28583,368.07651 L 605.14298,368.07651"
         style="fill:none;fill-rule:evenodd;stroke:#000000;stroke-width:2.99999928;stroke-linecap:butt;stroke-linejoin:miter;stroke-miterlimit:4;stroke-dasharray:none;stroke-opacity:1" />
      <path
         id="path3454"
         d="M 162.28583,448.36221 L 605.14298,448.36221"
         style="fill:none;fill-rule:evenodd;stroke:#000000;stroke-width:2.99999928;stroke-linecap:butt;stroke-linejoin:miter;stroke-miterlimit:4;stroke-dasharray:none;stroke-opacity:1" />
      <path
         id="path3456"
         d="M 162.28583,528.64792 L 605.14298,528.64792"
         style="fill:none;fill-rule:evenodd;stroke:#000000;stroke-width:2.99999928;stroke-linecap:butt;stroke-linejoin:miter;stroke-miterlimit:4;stroke-dasharray:none;stroke-opacity:1" />
      <path
         id="path3458"
         d="M 162.28583,608.93362 L 605.14298,608.93362"
         style="fill:none;fill-rule:evenodd;stroke:#000000;stroke-width:2.99999928;stroke-linecap:butt;stroke-linejoin:miter;stroke-miterlimit:4;stroke-dasharray:none;stroke-opacity:1" />
      <path
         id="path3460"
         d="M 162.28583,769.50504 L 605.14298,769.50504"
         style="fill:none;fill-rule:evenodd;stroke:#000000;stroke-width:2.99999928;stroke-linecap:butt;stroke-linejoin:miter;stroke-miterlimit:4;stroke-dasharray:none;stroke-opacity:1" />
      <path
         id="path3462"
         d="M 162.28583,689.21933 L 605.14298,689.21933"
         style="fill:none;fill-rule:evenodd;stroke:#000000;stroke-width:2.99999928;stroke-linecap:butt;stroke-linejoin:miter;stroke-miterlimit:4;stroke-dasharray:none;stroke-opacity:1" />
      <path
         sodipodi:nodetypes="cssssssssssssssssssssssc"
         id="path3506"
         d="M 173.76608,162.42003 C 173.76608,164.11699 173.76608,169.34967 173.76608,172.70525 C 173.76608,176.31958 174.61188,178.25378 175.39006,181.36648 C 176.25715,184.83484 173.92954,186.66722 173.22475,189.48639 C 172.57015,192.10479 173.58863,194.79886 174.03675,196.59132 C 174.62086,198.92778 173.42614,200.98313 174.10441,203.69624 C 174.77634,206.38395 175.67733,209.24606 175.25473,210.93649 C 174.42174,214.26843 173.76608,215.25006 173.76608,218.71807 C 173.76608,222.64496 173.44378,223.23878 177.01404,224.13134 C 178.2372,224.43713 179.13294,228.95688 180.26201,230.08595 C 183.03842,232.86236 183.05047,235.54013 186.21661,237.1232 C 188.86615,238.44797 191.44817,235.01973 192.71253,233.33391 C 194.29678,231.22158 194.09843,230.08595 198.12581,230.08595 C 198.83556,230.08595 203.08302,226.25402 204.08041,225.75533 C 206.28105,224.655 205.82645,220.25594 205.36607,217.50008 C 204.78332,214.01176 203.51945,211.44564 203.47141,208.97418 C 203.43037,206.8621 202.86242,202.54134 202.86242,200.58361 C 202.86242,196.65947 202.6334,197.68438 202.45643,194.35834 C 202.33307,192.03993 201.9739,188.16854 202.45643,186.23843 C 203.06891,183.7885 202.99775,181.1596 202.99775,178.11852 C 202.99775,174.42411 198.71875,169.70655 196.50183,166.75065 C 194.80861,164.49302 194.15463,163.41174 191.08855,161.8787 C 188.23108,160.44996 184.58227,160.79605 181.34466,160.79605 C 180.62289,160.79605 179.90112,160.79605 179.17935,160.79605"
         style="fill:#ffffff;fill-opacity:1;fill-rule:evenodd;stroke:none;stroke-width:1px;stroke-linecap:butt;stroke-linejoin:miter;stroke-opacity:1" />
      <path
         sodipodi:nodetypes="csssssssssssssssssssssssssssc"
         id="path3512"
         d="M 274.99429,151.05215 C 270.81878,151.05215 271.66959,156.31196 272.82898,158.63074 C 273.70041,160.3736 275.33645,162.56301 275.53562,162.96135 C 276.76345,165.41703 275.76902,164.89326 273.91164,166.75065 C 271.41946,169.24282 269.58102,170.26939 269.58102,174.32923 C 269.58102,177.78068 270.54238,179.76122 271.74633,181.36648 C 271.97669,181.67363 273.13024,187.2034 273.37031,188.40374 C 274.29349,193.01963 272.62469,190.29493 274.3853,194.49367 C 275.48748,197.12219 275.60329,199.76901 275.60329,202.47825 C 275.60329,205.76044 276.07695,204.50043 276.07695,208.43285 C 276.07695,211.37539 275.53562,213.61212 275.53562,216.55276 C 275.53562,219.90408 275.56501,221.4541 277.1596,223.04869 C 279.00139,224.89048 279.50175,226.56462 282.03155,228.46196 C 284.03644,229.96563 286.72453,229.54462 289.61013,229.54462 C 292.35301,229.54462 295.81017,229.48326 297.73004,229.00329 C 299.7398,228.50085 299.72445,226.29665 303.68464,226.29665 C 304.48266,226.29665 305.30862,220.36889 305.30862,219.2594 C 305.30862,216.32338 300.94816,213.42409 300.775,210.46283 C 300.54092,206.39193 301.39089,207.01875 301.181,202.68125 C 301.10982,201.23325 301.51933,197.09064 301.51933,195.441 C 301.51933,192.36915 302.39936,191.37955 303.14331,188.40374 C 303.8562,185.55219 303.56603,182.38225 304.22597,179.7425 C 304.92958,176.92806 304.77345,174.84595 305.30862,172.70525 C 305.93267,170.20904 304.7673,167.25745 304.7673,164.58534 C 304.7673,163.32224 304.7673,162.05914 304.7673,160.79605 C 304.7673,158.06546 298.5782,161.64421 296.64739,159.71339 C 294.30005,157.36606 290.27773,155.97461 287.44482,154.84144 C 285.31804,153.99073 283.88986,153.21746 280.94889,153.21746 C 279.03957,153.21746 276.77555,151.94278 274.99429,151.05215 z "
         style="fill:#ffffff;fill-opacity:1;fill-rule:evenodd;stroke:none;stroke-width:1px;stroke-linecap:butt;stroke-linejoin:miter;stroke-opacity:1" />
      <path
         transform="translate(155.57144,6.4285623)"
         d="M 258.57144 234.50504 A 29.285715 29.285715 0 1 1  200.00001,234.50504 A 29.285715 29.285715 0 1 1  258.57144 234.50504 z"
         sodipodi:ry="29.285715"
         sodipodi:rx="29.285715"
         sodipodi:cy="234.50504"
         sodipodi:cx="229.28572"
         id="path3428"
         style="opacity:1;fill:#fefffd;fill-opacity:1;fill-rule:nonzero;stroke:#000000;stroke-width:3;stroke-linecap:round;stroke-linejoin:round;stroke-miterlimit:4;stroke-dasharray:none;stroke-dashoffset:0;stroke-opacity:1"
         sodipodi:type="arc" />
      <path
         sodipodi:nodetypes="csssssssssssssssssssssc"
         id="path3518"
         d="M 375.13985,152.67613 C 375.13985,155.73581 376.94458,157.18843 377.84649,160.79605 C 379.17154,166.09627 375.29936,168.88372 372.43321,172.70525 C 370.13991,175.76299 372.49875,180.34937 374.59852,182.44914 C 376.63715,184.48777 376.68894,187.07934 376.2225,188.94507 C 375.28459,192.69673 374.19253,191.80758 374.19253,196.86198 C 374.19253,200.34361 374.56997,199.24984 374.59852,203.15491 C 374.61142,204.91865 374.71273,208.88968 375.13985,210.59816 C 375.84717,213.42743 376.2225,215.66471 376.2225,218.71807 C 376.2225,220.79706 380.21052,223.41872 381.63578,224.13134 C 385.23779,225.93235 387.66551,226.29665 391.921,226.29665 C 395.31185,226.29665 396.99062,223.86778 398.41693,221.96604 C 399.84094,220.06736 403.33139,221.94477 405.45418,220.88338 C 407.21362,220.00366 403.49187,214.18637 403.49187,212.56047 C 403.49187,209.59709 403.69487,207.80425 403.69487,204.91423 C 403.69487,201.75598 403.44066,200.21053 403.49187,196.79431 C 403.53279,194.06426 404.53192,190.88984 403.28887,188.40374 C 401.91648,185.65896 403.69601,181.63944 402.20622,178.65985 C 400.34269,174.93279 400.56784,172.42738 396.79294,170.53994 C 394.40723,169.34708 392.63571,166.55609 391.37967,164.04401 C 389.76705,160.81877 387.83908,158.87943 385.42507,156.46543 C 383.9475,154.98785 380.59357,154.32034 379.47047,153.75879 C 377.40412,152.72561 378.04496,152.67613 375.13985,152.67613 z "
         style="fill:#ffffff;fill-opacity:1;fill-rule:evenodd;stroke:none;stroke-width:1px;stroke-linecap:butt;stroke-linejoin:miter;stroke-opacity:1" />
      <path
         sodipodi:nodetypes="csssssssssssssssssc"
         id="path3520"
         d="M 469.33081,174.32923 C 465.60477,172.46621 468.24815,182.61392 468.24815,186.77976 C 468.24815,189.48639 468.24815,192.19303 468.24815,194.89967 C 468.24815,198.01461 467.87596,200.71906 467.1655,203.56091 C 466.45151,206.41686 467.90974,208.16251 467.1655,211.13949 C 466.54666,213.61486 466.62417,216.73408 466.62417,219.2594 C 466.62417,222.5608 467.8762,222.9557 470.41346,223.59002 C 473.47759,224.35605 476.58037,225.13174 479.0747,225.75533 C 481.40035,226.33674 486.96515,225.27136 489.35992,224.67267 C 493.15548,223.72378 493.93437,222.61468 494.77319,219.2594 C 495.96734,214.48281 489.32681,215.9569 490.84857,208.70352 C 491.63905,204.93572 491.68597,205.81072 493.48754,202.20759 C 494.78977,199.60313 498.56248,197.28004 498.56248,194.35834 C 498.56248,191.33505 499.10381,187.84294 499.10381,184.61445 C 499.10381,181.35012 498.59071,178.68808 496.9385,177.03587 C 495.39075,175.48811 490.5619,175.95321 488.27727,175.95321 C 488.26564,175.95321 479.37413,168.65488 476.90939,167.8333 C 472.40804,166.33285 466.08943,165.13325 471.49612,170.53994 C 471.95616,170.99998 472.57877,171.26171 473.1201,171.62259"
         style="fill:#ffffff;fill-opacity:1;fill-rule:evenodd;stroke:none;stroke-width:1px;stroke-linecap:butt;stroke-linejoin:miter;stroke-opacity:1" />
      <path
         sodipodi:nodetypes="cssssssssssssssssc"
         id="path3522"
         d="M 565.14575,174.87056 C 566.70324,176.42804 567.85239,182.63466 567.85239,186.77976 C 567.85239,189.57269 566.68086,191.83755 567.31106,194.35834 C 567.98064,197.03668 569.07037,199.59376 569.07037,202.47826 C 569.07037,204.18919 569.00797,208.50578 570.55902,210.05683 C 571.21869,210.7165 571.1844,217.26219 571.64168,218.17674 C 572.78096,220.45531 574.17874,222.87911 575.9723,224.67267 C 577.98127,226.68165 579.40981,226.83798 582.46822,226.83798 C 586.45196,226.83798 587.62623,224.47169 589.50548,221.96604 C 591.77265,218.94315 589.6554,211.38097 590.58813,209.51551 C 590.89497,208.90183 595.44215,205.47968 595.59542,204.91422 C 596.99575,199.7481 597.35473,197.32625 600.33203,195.441 C 603.46478,193.45731 601.41468,188.96796 601.41468,185.15578 C 601.41468,182.2687 601.41468,179.38162 601.41468,176.49454 C 601.41468,173.49791 594.09489,174.32923 591.67079,174.32923 C 588.15387,174.32923 584.49587,173.24657 580.84424,173.24657 C 577.81318,173.24657 574.37291,172.3054 571.64168,171.62259 C 571.0881,171.4842 570.55902,171.26171 570.01769,171.08126"
         style="fill:#ffffff;fill-opacity:1;fill-rule:evenodd;stroke:none;stroke-width:1px;stroke-linecap:butt;stroke-linejoin:miter;stroke-opacity:1" />
      <path
         sodipodi:nodetypes="cssc"
         id="path3528"
         d="M 172.56217,193.69576 C 174.73333,195.58713 173.57943,198.68898 173.57943,202.26679 C 173.57943,203.96133 174.63166,206.18152 174.63166,209.16309 C 174.63166,212.66915 174.08983,213.51854 173.10577,215.59137"
         style="fill:none;fill-rule:evenodd;stroke:#000000;stroke-width:2.89281034;stroke-linecap:round;stroke-linejoin:miter;stroke-miterlimit:4;stroke-dasharray:none;stroke-opacity:1" />
      <path
         sodipodi:nodetypes="cssssssssssssssssssssssc"
         id="path3530"
         d="M 202.59176,193.74934 C 203.00851,193.81416 202.05879,193.57978 202.18576,194.08768 C 202.29323,194.51755 202.12311,195.00996 202.05043,195.37333 C 201.91914,196.02981 201.81461,196.79834 201.98277,197.47097 C 202.02788,197.65141 202.07299,197.83186 202.1181,198.0123 C 202.30683,198.76722 202.59176,199.19089 202.59176,199.97461 C 202.59176,200.42818 202.20769,200.87998 202.1181,201.32793 C 202.01864,201.82521 202.45718,202.14143 202.65943,202.54592 C 202.8545,202.93607 202.83393,203.37927 202.93009,203.7639 C 203.04844,204.2373 203.37717,204.72089 203.67441,205.11722 C 203.94079,205.47239 204.01274,205.82014 204.01274,206.26754 C 204.01274,206.7412 204.01274,207.21486 204.01274,207.68853 C 204.01274,208.09587 203.97266,208.52552 203.87741,208.90651 C 203.77889,209.3006 203.87741,209.85559 203.87741,210.25983 C 203.87741,210.791 204.01551,211.48888 204.14808,212.01914 C 204.26297,212.47873 204.37924,212.87614 204.4864,213.3048 C 204.57819,213.67195 204.62174,213.86437 204.62174,214.25212 C 204.62174,214.70472 204.55407,215.10965 204.55407,215.53777 C 204.55407,215.92121 204.55407,216.30465 204.55407,216.68809 C 204.55407,216.96401 204.83307,217.23776 204.96007,217.36475 C 204.99573,217.40041 205.05029,217.40986 205.0954,217.43242 C 205.37107,217.57026 205.59779,217.59648 205.77206,217.77075 C 206.00429,218.00298 206.13896,218.13765 206.38105,218.37974 C 206.54345,218.54214 206.73639,218.59975 206.85471,218.71807"
         style="fill:none;fill-rule:evenodd;stroke:#000000;stroke-width:3;stroke-linecap:round;stroke-linejoin:miter;stroke-miterlimit:4;stroke-dasharray:none;stroke-opacity:1" />
      <path
         sodipodi:nodetypes="csssssssssssssssssssc"
         id="path3534"
         d="M 272.95425,193.73917 C 272.77456,194.08996 273.41298,193.8281 273.77238,194.00349 C 274.13062,194.17833 274.35222,194.56944 274.58869,194.80026 C 274.78287,194.98979 274.79417,195.6025 274.86079,195.86262 C 274.93495,196.15215 274.86079,196.55836 274.86079,196.85858 C 274.86079,197.25902 275.05325,197.33307 275.13289,197.72175 C 275.20361,198.06682 274.99684,198.46034 274.99684,198.8505 C 274.99684,199.18249 274.99684,199.51448 274.99684,199.84645 C 274.99684,200.27426 275.0122,200.70105 274.92882,201.10801 C 274.82299,201.62448 275.32252,202.82023 275.54105,203.03353 C 275.89257,203.37663 276.15329,203.03283 276.15329,203.7639 C 276.15329,204.2068 276.11543,204.55347 275.94921,204.95905 C 275.80075,205.32131 275.88119,205.82767 275.88119,206.2206 C 275.88119,206.70752 275.88119,207.19444 275.88119,207.68134 C 275.88119,208.07973 275.88119,208.47811 275.88119,208.8765 C 275.88119,209.25275 275.88119,209.629 275.88119,210.00525 C 275.88119,210.3815 275.88119,210.75776 275.88119,211.13401 C 275.88119,211.54616 275.95631,211.67904 276.08527,211.93077 C 276.24364,212.23993 276.34986,212.63184 276.4254,212.92674 C 276.51193,213.26457 276.05911,213.48344 275.94921,213.59071 C 275.82178,213.71509 275.26321,213.79959 275.13577,213.92397"
         style="fill:none;fill-rule:evenodd;stroke:#000000;stroke-width:2.97964787;stroke-linecap:round;stroke-linejoin:round;stroke-miterlimit:4;stroke-dasharray:none;stroke-opacity:1" />
      <path
         sodipodi:nodetypes="csssssssssssssssssssssssc"
         id="path3536"
         d="M 302.46666,193.81701 C 302.3452,193.77424 301.67418,193.96438 301.45167,194.02001 C 301.35452,194.0443 301.13918,194.39031 301.11334,194.49367 C 301.03227,194.81792 300.79058,195.10804 300.70734,195.44099 C 300.62891,195.75474 300.6604,196.10242 300.57201,196.45598 C 300.49239,196.77448 300.58303,197.24438 300.63967,197.47097 C 300.76007,197.95255 300.81294,198.40496 300.91034,198.89196 C 301.01845,199.43252 301.04567,199.94511 301.04567,200.51594 C 301.04567,201.01215 301.04567,201.50837 301.04567,202.00459 C 301.04567,202.5041 300.978,203.04368 300.978,203.5609 C 300.978,204.05361 300.80792,204.37473 300.63967,204.71122 C 300.46806,205.05445 300.50434,205.73807 300.50434,206.19987 C 300.50434,206.87653 300.50434,207.55319 300.50434,208.22985 C 300.50434,208.70542 300.51459,209.06233 300.70734,209.44784 C 300.92961,209.89237 301.07141,209.89576 300.57201,210.39516 C 300.31414,210.65303 300.43668,211.33448 300.43668,211.68081 C 300.43668,212.0816 300.63472,212.27989 300.77501,212.56047 C 300.99556,213.00158 301.11334,213.0336 301.11334,213.57546 C 301.11334,213.96609 301.29214,214.33907 301.45167,214.65811 C 301.62749,215.00975 301.76189,215.38752 301.92533,215.60544 C 302.15769,215.91526 302.24669,216.06214 302.53432,216.34976 C 302.75229,216.56773 302.92756,216.96611 303.27865,217.22942 C 303.59886,217.46958 303.87958,217.55969 304.09064,217.77075 C 304.30918,217.98929 304.58179,218.05453 304.83496,218.24441 C 305.11383,218.45356 305.47037,218.87321 305.71462,219.0564"
         style="fill:none;fill-rule:evenodd;stroke:#000000;stroke-width:3;stroke-linecap:round;stroke-linejoin:miter;stroke-miterlimit:4;stroke-dasharray:none;stroke-opacity:1" />
      <path
         sodipodi:nodetypes="cssssssssssssssssssc"
         id="path3538"
         d="M 374.53086,193.68168 C 375.24833,194.24718 373.7065,194.03837 373.8542,194.49367 C 373.98415,194.89429 374.82646,194.47589 375.00452,194.832 C 375.19742,195.2178 374.27122,196.00586 374.19253,196.32065 C 374.09831,196.69754 374.07823,197.04852 373.98953,197.40331 C 373.88054,197.83925 374.0572,198.31552 374.0572,198.75662 C 374.0572,199.21156 374.09323,199.5774 374.19253,199.97461 C 374.3031,200.41688 374.42445,200.69929 374.53086,201.12493 C 374.64826,201.59455 375.13985,201.76903 375.13985,202.27525 C 375.13985,202.67623 375.02911,202.98889 374.93685,203.35791 C 374.82545,203.80351 375.06196,204.08179 375.20752,204.3729 C 375.42203,204.80192 375.54585,205.02133 375.54585,205.52322 C 375.54585,205.936 375.34285,206.19572 375.34285,206.60587 C 375.34285,206.99032 375.3924,207.27772 375.47818,207.62086 C 375.55579,207.93129 375.92283,208.18146 376.01951,208.56818 C 376.09006,208.85041 375.886,209.37286 375.81651,209.65084 C 375.74274,209.9459 375.81651,210.35988 375.81651,210.66583 C 375.81651,211.03208 376.22251,211.21313 376.22251,211.61315 C 376.22251,211.94571 376.21331,212.32659 376.15484,212.56047 C 376.10778,212.74871 375.81838,213.03226 375.68118,213.16946"
         style="fill:none;fill-rule:evenodd;stroke:#000000;stroke-width:3;stroke-linecap:round;stroke-linejoin:miter;stroke-miterlimit:4;stroke-dasharray:none;stroke-opacity:1" />
      <path
         sodipodi:nodetypes="cssssssssssssssssssssssc"
         id="path3540"
         d="M 404.43919,193.68169 C 404.23025,193.68551 403.69421,193.953 403.49187,194.15534 C 403.31867,194.32855 403.4242,194.93698 403.4242,195.17033 C 403.4242,195.48787 403.15354,195.78324 403.15354,196.18532 C 403.15354,196.52365 403.15354,196.86198 403.15354,197.20031 C 403.15354,197.56119 403.15354,197.92208 403.15354,198.28296 C 403.15354,198.75489 403.28887,199.14943 403.28887,199.63628 C 403.28887,200.15784 403.20626,200.71106 403.08588,201.1926 C 402.98033,201.61477 402.91872,201.87328 403.08588,202.20759 C 403.32548,202.68679 403.49962,203.18589 403.6272,203.69624 C 403.77752,204.29751 403.62465,204.78911 403.49187,205.32022 C 403.34536,205.90626 403.08588,206.29026 403.08588,206.9442 C 403.08588,207.62187 403.10836,208.15073 403.35654,208.77118 C 403.49722,209.12289 403.4242,209.61224 403.4242,209.98917 C 403.4242,210.3929 403.18033,210.89701 403.08588,211.27482 C 403.01291,211.56666 403.10545,212.02979 403.15354,212.22214 C 403.26015,212.6486 403.16115,212.98168 403.35654,213.37246 C 403.49487,213.64913 403.55217,214.15497 403.6272,214.45512 C 403.71737,214.8158 403.81915,215.15525 403.89787,215.47011 C 403.97163,215.76517 403.89787,216.17915 403.89787,216.48509 C 403.89787,216.90193 404.20807,217.1846 404.30386,217.56775 C 404.37446,217.85013 404.73273,218.08715 404.84519,218.31207 C 404.94275,218.5072 404.87591,219.11163 404.91285,219.2594 C 404.96673,219.47488 405.18194,219.7299 405.31885,220.00372"
         style="fill:none;fill-rule:evenodd;stroke:#000000;stroke-width:3;stroke-linecap:round;stroke-linejoin:miter;stroke-miterlimit:4;stroke-dasharray:none;stroke-opacity:1" />
      <path
         sodipodi:nodetypes="cssssssssssssssssc"
         id="path3542"
         d="M 467.84216,193.68168 C 468.16612,193.7958 468.34686,194.28508 468.58648,194.76433 C 469.08517,195.76171 467.63273,197.35493 467.3685,198.14763 C 467.08987,198.98352 466.69184,199.70032 466.69184,200.5836 C 466.69184,201.34947 467.63916,201.74695 467.63916,202.54592 C 467.63916,203.00096 467.70683,203.49461 467.70683,203.9669 C 467.70683,204.05712 467.70683,204.14734 467.70683,204.23756 C 467.70683,204.66961 467.63916,205.14126 467.63916,205.59088 C 467.63916,206.06454 467.63916,206.5382 467.63916,207.01187 C 467.63916,207.53523 467.43616,208.07037 467.43616,208.63585 C 467.43616,209.14781 467.84216,209.32026 467.84216,209.85383 C 467.84216,210.14398 467.63916,210.48362 467.63916,210.86882 C 467.63916,211.30293 467.65016,211.65333 467.50383,212.01914 C 467.3726,212.34721 467.43616,212.86793 467.43616,213.23713 C 467.43616,213.62424 467.3685,213.92985 467.3685,214.31979 C 467.3685,214.68067 467.3685,215.04155 467.3685,215.40244 C 467.3685,215.82866 467.1186,216.0637 467.03017,216.41743 C 466.96784,216.66672 466.16434,217.39142 466.08284,217.50008"
         style="fill:none;fill-rule:evenodd;stroke:#000000;stroke-width:3;stroke-linecap:round;stroke-linejoin:miter;stroke-miterlimit:4;stroke-dasharray:none;stroke-opacity:1" />
      <path
         sodipodi:nodetypes="cssssssssssssssssssc"
         id="path3544"
         d="M 498.56248,193.68168 C 498.1272,193.85418 497.33356,194.17925 497.47983,194.76433 C 497.57131,195.13024 497.58638,195.28546 497.47983,195.71166 C 497.34888,196.23545 496.28145,196.40729 495.99118,196.79431 C 495.7888,197.06416 495.85585,197.54827 495.85585,197.87697 C 495.85585,198.24487 495.40443,198.65536 495.17919,198.82429 C 494.82978,199.08635 494.70553,199.34038 494.70553,199.77161 C 494.70553,200.27521 494.43797,200.64505 494.23187,201.05727 C 494.07524,201.37052 493.62584,201.59266 493.48754,201.86926 C 493.3322,202.17993 493.30236,202.60996 493.21688,202.95191 C 493.11813,203.3469 493.0415,203.72107 492.94621,204.10223 C 492.84061,204.52463 492.37556,205.07889 492.06656,205.38788 C 491.74302,205.71142 491.50719,205.94725 491.1869,206.26754 C 490.79494,206.6595 490.64557,206.95127 490.64557,207.48553 C 490.64557,207.91379 490.54431,208.16172 490.37491,208.50052 C 490.20529,208.83976 490.00004,209.05266 489.90125,209.44784 C 489.81765,209.78224 489.90125,210.24843 489.90125,210.59816 C 489.90125,211.00425 489.95454,211.2173 490.03658,211.54548 C 490.09435,211.77657 490.38905,212.16861 490.57791,212.35747 C 490.63301,212.41258 492.51816,213.08124 492.54021,213.16946"
         style="fill:none;fill-rule:evenodd;stroke:#000000;stroke-width:3;stroke-linecap:round;stroke-linejoin:miter;stroke-miterlimit:4;stroke-dasharray:none;stroke-opacity:1" />
      <path
         sodipodi:nodetypes="cssssssssssssssssc"
         id="path3546"
         d="M 567.10806,193.81701 C 567.54475,193.77073 568.61654,193.72134 568.86737,194.22301 C 569.07221,194.63267 568.79971,195.48701 568.79971,195.91466 C 568.79971,196.6171 568.76551,197.13116 568.93504,197.8093 C 568.9576,197.89952 568.98015,197.98974 569.00271,198.07996 C 569.04253,198.23927 569.09293,198.39574 569.13804,198.55363 C 569.47404,199.72965 568.72693,200.60405 568.46138,201.66626 C 568.31377,202.25671 568.27591,202.56929 568.66438,203.08724 C 568.76007,203.21483 568.88993,203.3128 569.00271,203.42557 C 569.31247,203.73534 569.58316,204.3264 569.67937,204.71122 C 569.77965,205.11237 569.74703,205.56815 569.74703,205.99688 C 569.74703,206.60485 569.88011,207.00284 570.0177,207.55319 C 570.11417,207.93909 570.19243,208.44398 570.35602,208.77118 C 570.53573,209.1306 570.3839,209.57126 570.55902,209.9215 C 570.70933,210.22212 570.62669,210.783 570.62669,211.13949 C 570.62669,211.4999 570.81931,212.03493 570.89735,212.42514 C 570.96902,212.7835 571.03268,213.07702 571.03268,213.44013 C 571.03268,213.47203 570.80713,213.89124 570.82969,213.91379"
         style="fill:none;fill-rule:evenodd;stroke:#000000;stroke-width:3;stroke-linecap:round;stroke-linejoin:miter;stroke-miterlimit:4;stroke-dasharray:none;stroke-opacity:1" />
      <path
         sodipodi:nodetypes="csssssssssc"
         id="path3548"
         d="M 590.38514,212.8988 C 590.38514,213.08166 589.0444,211.38499 590.04681,209.38017 C 591.24253,206.98873 593.84241,205.75532 595.86608,204.23756 C 596.12126,204.04618 596.31718,203.78646 596.54274,203.5609 C 597.12402,202.97962 596.25805,201.39313 596.13674,200.7866 C 595.97913,199.99857 595.99228,198.76575 596.54274,198.2153 C 596.85807,197.89996 597.13674,197.23779 597.28706,196.86198 C 597.49897,196.3322 597.43068,195.94434 598.03139,195.64399 C 598.47057,195.4244 598.80725,195.12073 599.24937,194.89967 C 599.61851,194.7151 599.67948,194.24245 599.7907,194.02001 C 599.83507,193.93127 601.843,193.77202 601.88835,193.74935"
         style="fill:none;fill-rule:evenodd;stroke:#000000;stroke-width:3;stroke-linecap:round;stroke-linejoin:miter;stroke-miterlimit:4;stroke-dasharray:none;stroke-opacity:1" />
    </g>
  </g>
</svg>
