<?xml version="1.0" encoding="utf-8"?>
<!-- Generator: Adobe Illustrator 13.0.1, SVG Export Plug-In . SVG Version: 6.00 Build 14948)  -->
<!DOCTYPE svg PUBLIC "-//W3C//DTD SVG 1.1//EN" "http://www.w3.org/Graphics/SVG/1.1/DTD/svg11.dtd">
<svg version="1.1"
	 id="svg3873" inkscape:output_extension="org.inkscape.output.svg.inkscape" xmlns:svg="http://www.w3.org/2000/svg" sodipodi:docbase="/warez/tmp" xmlns:rdf="http://www.w3.org/1999/02/22-rdf-syntax-ns#" xmlns:dc="http://purl.org/dc/elements/1.1/" sodipodi:docname="Roped label.svg" xmlns:sodipodi="http://sodipodi.sourceforge.net/DTD/sodipodi-0.dtd" sodipodi:version="0.32" inkscape:version="0.45.1" xmlns:cc="http://web.resource.org/cc/" xmlns:inkscape="http://www.inkscape.org/namespaces/inkscape"
	 xmlns="http://www.w3.org/2000/svg" xmlns:xlink="http://www.w3.org/1999/xlink" x="0px" y="0px" width="310.271px"
	 height="642.095px" viewBox="105.866 161.134 310.271 642.095" enable-background="new 105.866 161.134 310.271 642.095"
	 xml:space="preserve">
<sodipodi:namedview  id="base" objecttolerance="10" gridtolerance="10000" guidetolerance="10" inkscape:pageopacity="0.0" borderopacity="1.0" pagecolor="#ffffff" inkscape:zoom="0.35" inkscape:cx="375" inkscape:cy="520" inkscape:window-y="296" inkscape:window-x="369" inkscape:window-height="590" bordercolor="#666666" inkscape:window-width="792" inkscape:current-layer="layer1" inkscape:pageshadow="2" inkscape:document-units="px">
	</sodipodi:namedview>
<g id="layer1" inkscape:groupmode="layer" inkscape:label="Layer 1">
	<g id="g3721" transform="matrix(-0.9424436,-0.1793821,-0.1793597,0.9386772,630.18224,261.98036)">
		<path id="path3723" sodipodi:nodetypes="cssssssssss" fill="#985A11" stroke="#000000" stroke-width="0.8535" d="M358.796,185.459
			c13.201-13.289,8.415-38.86,1.417-57.634c-8.913-23.911-27.603-43.238-31.188-69.391c-2.92-21.284,5.656-42.199,19.478-57.949
			c9.176-10.456,26.395-34.682,15.559-37.891c-2.257-0.667-15.54,24.749-24.829,34.847c-15.475,16.825-20.572,45.101-18.831,63.605
			c1.879,19.986,18.387,40.045,27.369,57.295c5.876,11.28,9.156,23.702,10.174,36.234c0.551,6.805-2.072,13.481-5.194,19.533
			C350.632,178.22,355.069,189.211,358.796,185.459z"/>
		<path id="path3725" sodipodi:nodetypes="cc" fill="none" stroke="#000000" stroke-width="0.7711" d="M352.636,174.199
			c0.575,2.232,6.792,7.978,8.502,8.845"/>
		<path id="path3727" sodipodi:nodetypes="cc" fill="none" stroke="#000000" stroke-width="0.7711" d="M355.791,167.806
			c0.577,2.233,6.954,8.166,8.664,9.033"/>
		<path id="path3729" sodipodi:nodetypes="cc" fill="none" stroke="#000000" stroke-width="0.7711" d="M357.369,162.244
			c0.576,2.231,6.953,8.166,8.664,9.032"/>
		<path id="path3731" sodipodi:nodetypes="cc" fill="none" stroke="#000000" stroke-width="0.7711" d="M358.011,154.355
			c0.576,2.232,7.194,7.978,8.903,8.846"/>
		<path id="path3733" sodipodi:nodetypes="cc" fill="none" stroke="#000000" stroke-width="0.7711" d="M357.006,147.133
			c1.107,2.022,7.837,6.074,9.709,6.494"/>
		<path id="path3735" sodipodi:nodetypes="cc" fill="none" stroke="#000000" stroke-width="0.7711" d="M355.828,140.657
			c1.728,1.526,7.392,4.285,9.295,4.045"/>
		<path id="path3737" sodipodi:nodetypes="cc" fill="none" stroke="#000000" stroke-width="0.7711" d="M354.435,135.015
			c1.728,1.526,7.527,4.552,9.43,4.312"/>
		<path id="path3739" sodipodi:nodetypes="cc" fill="none" stroke="#000000" stroke-width="0.7711" d="M352.434,129.023
			c1.728,1.526,7.352,3.723,9.616,3.483"/>
		<path id="path3741" sodipodi:nodetypes="cc" fill="none" stroke="#000000" stroke-width="0.7711" d="M349.84,122.365
			c1.726,1.525,7.5,3.643,9.402,3.403"/>
		<path id="path3743" sodipodi:nodetypes="cc" fill="none" stroke="#000000" stroke-width="0.7711" d="M346.245,115.56
			c1.728,1.526,8.117,3.858,10.02,3.617"/>
		<path id="path3745" sodipodi:nodetypes="cc" fill="none" stroke="#000000" stroke-width="0.7711" d="M342.59,109.154
			c1.726,1.526,8.542,3.938,10.446,3.697"/>
		<path id="path3747" sodipodi:nodetypes="cc" fill="none" stroke="#000000" stroke-width="0.7711" d="M338.763,103.082
			c1.728,1.526,8.704,2.868,10.607,2.628"/>
		<path id="path3749" sodipodi:nodetypes="cc" fill="none" stroke="#000000" stroke-width="0.7711" d="M335.077,96.984
			c1.728,1.526,8.489,2.414,10.392,2.173"/>
		<path id="path3751" sodipodi:nodetypes="cc" fill="none" stroke="#000000" stroke-width="0.7711" d="M331.28,90.218
			c1.727,1.525,8.703,2.466,10.605,2.227"/>
		<path id="path3753" sodipodi:nodetypes="cc" fill="none" stroke="#000000" stroke-width="0.7711" d="M327.955,84.031
			c1.726,1.526,8.702,2.413,10.603,2.173"/>
		<path id="path3755" sodipodi:nodetypes="cc" fill="none" stroke="#000000" stroke-width="0.7711" d="M324.431,76.714
			c1.727,1.526,8.569,2.734,10.472,2.494"/>
		<path id="path3757" sodipodi:nodetypes="cc" fill="none" stroke="#000000" stroke-width="0.7711" d="M321.916,69.466
			c1.727,1.525,8.49,2.76,10.391,2.519"/>
		<path id="path3759" sodipodi:nodetypes="cc" fill="none" stroke="#000000" stroke-width="0.7711" d="M320.529,62.538
			c1.728,1.526,7.9,2.841,9.803,2.601"/>
		<path id="path3761" sodipodi:nodetypes="cc" fill="none" stroke="#000000" stroke-width="0.7711" d="M320.146,56.057
			c1.726,1.526,6.829,2.546,8.732,2.306"/>
		<path id="path3763" sodipodi:nodetypes="cc" fill="none" stroke="#000000" stroke-width="0.7711" d="M320.327,46.43
			c0.329,2.282,6.26,6.47,8.266,6.744"/>
		<path id="path3765" sodipodi:nodetypes="cc" fill="none" stroke="#000000" stroke-width="0.7711" d="M321.404,37.243
			c0.328,2.281,5.322,7.032,7.115,7.493"/>
		<path id="path3767" sodipodi:nodetypes="cc" fill="none" stroke="#000000" stroke-width="0.7711" d="M323.429,28.717
			c0.327,2.282,4.682,7.219,6.288,8.269"/>
		<path id="path3769" sodipodi:nodetypes="cc" fill="none" stroke="#000000" stroke-width="0.7711" d="M325.721,20.532
			c0.329,2.282,4.654,7.433,6.261,8.482"/>
		<path id="path3771" sodipodi:nodetypes="cc" fill="none" stroke="#000000" stroke-width="0.7711" d="M328.939,12.895
			c0.329,2.282,4.548,7.246,6.155,8.295"/>
		<path id="path3773" sodipodi:nodetypes="cc" fill="none" stroke="#000000" stroke-width="0.7711" d="M333.012,5.981
			c0.327,2.282,3.905,7.406,5.512,8.455"/>
		<path id="path3775" sodipodi:nodetypes="cc" fill="none" stroke="#000000" stroke-width="0.7711" d="M336.933,0.102
			c0.329,2.282,4.254,6.604,5.859,7.653"/>
		<path id="path3777" sodipodi:nodetypes="cc" fill="none" stroke="#000000" stroke-width="0.7711" d="M341.527-5.649
			c0.328,2.282,3.852,6.791,5.458,7.84"/>
		<path id="path3779" sodipodi:nodetypes="cc" fill="none" stroke="#000000" stroke-width="0.7711" d="M346.269-11.87
			c0.329,2.282,4.173,7.059,5.78,8.108"/>
		<path id="path3781" sodipodi:nodetypes="cc" fill="none" stroke="#000000" stroke-width="0.7711" d="M350.796-18.489
			c0.328,2.282,4.254,7.219,5.857,8.268"/>
		<path id="path3783" sodipodi:nodetypes="cc" fill="none" stroke="#000000" stroke-width="0.7711" d="M354.745-24.984
			c0.328,2.282,4.68,7.46,6.288,8.509"/>
		<path id="path3785" sodipodi:nodetypes="cc" fill="none" stroke="#000000" stroke-width="0.7711" d="M359.766-32.688
			c0.327,2.282,3.637,8.075,5.243,9.124"/>
	</g>
	
		<radialGradient id="path3787_1_" cx="317.7206" cy="371.8105" r="182.0398" gradientTransform="matrix(1.3286 0 0 2.1048 -161.1227 -218.4496)" gradientUnits="userSpaceOnUse">
		<stop  offset="0" style="stop-color:#F2F2EC"/>
		<stop  offset="1" style="stop-color:#FFCC66"/>
	</radialGradient>
	<linearGradient id="path3787_2_" gradientUnits="userSpaceOnUse" x1="313.3769" y1="447.8848" x2="459.9206" y2="266.3572">
		<stop  offset="0" style="stop-color:#3C3C3C"/>
		<stop  offset="1" style="stop-color:#CDCDCD"/>
	</linearGradient>
	<path id="path3787" fill="url(#path3787_1_)" stroke="url(#path3787_2_)" stroke-width="3.1241" d="M209.72,303.915
		L107.428,405.878l0.248,395.788l306.897-0.117l-0.152-395.787L312.05,303.876L209.72,303.915z M260.903,349.827
		c8.838-0.003,15.993,7.217,15.996,16.083c0.003,8.865-7.146,16.042-15.984,16.045c-8.836,0.004-16.04-7.168-16.043-16.033
		S252.066,349.831,260.903,349.827z"/>
	<linearGradient id="path3789_1_" gradientUnits="userSpaceOnUse" x1="483.8701" y1="319.73" x2="595.5597" y2="295.0364">
		<stop  offset="0" style="stop-color:#000000"/>
		<stop  offset="1" style="stop-color:#000000"/>
	</linearGradient>
	<path id="path3789" fill="#FFCC66" stroke="url(#path3789_1_)" stroke-width="1.9715" stroke-linecap="square" d="M261.009,335.894
		c-15.91,0.006-28.827,12.974-28.821,28.934c0.007,15.96,12.934,28.878,28.844,28.872s28.787-12.935,28.78-28.895
		C289.806,348.846,276.918,335.887,261.009,335.894z M261.014,350.955c7.61-0.003,13.782,6.224,13.785,13.856
		c0.003,7.634-6.164,13.824-13.773,13.828c-7.609,0.003-13.82-6.184-13.824-13.816C247.198,357.189,253.406,350.957,261.014,350.955
		z"/>
	<g id="g3801" transform="matrix(0.9462941,-0.1573836,0.1580039,0.9425791,122.59963,257.71395)">
		<path id="path3803" sodipodi:nodetypes="cssssssssss" fill="#985A11" stroke="#000000" stroke-width="0.8535" d="M124.576,143.133
			c13.199-13.289,8.415-38.862,1.416-57.634c-8.914-23.911-27.603-43.239-31.188-69.391c-2.919-21.284,5.656-42.199,19.477-57.95
			c9.175-10.456,26.397-34.681,15.56-37.89c-2.258-0.668-15.54,24.748-24.829,34.847C89.537-28.061,84.439,0.215,86.181,18.718
			c1.88,19.985,18.386,40.045,27.37,57.295c5.875,11.28,9.156,23.702,10.173,36.234c0.552,6.805-2.071,13.481-5.193,19.533
			C116.41,135.892,120.848,146.884,124.576,143.133z"/>
		<path id="path3805" sodipodi:nodetypes="cc" fill="none" stroke="#000000" stroke-width="0.7711" d="M118.415,131.872
			c0.576,2.23,6.794,7.979,8.501,8.845"/>
		<path id="path3807" sodipodi:nodetypes="cc" fill="none" stroke="#000000" stroke-width="0.7711" d="M121.57,125.48
			c0.577,2.232,6.952,8.166,8.664,9.033"/>
		<path id="path3809" sodipodi:nodetypes="cc" fill="none" stroke="#000000" stroke-width="0.7711" d="M123.149,119.917
			c0.576,2.231,6.951,8.165,8.664,9.033"/>
		<path id="path3811" sodipodi:nodetypes="cc" fill="none" stroke="#000000" stroke-width="0.7711" d="M123.789,112.027
			c0.578,2.233,7.193,7.978,8.906,8.846"/>
		<path id="path3813" sodipodi:nodetypes="cc" fill="none" stroke="#000000" stroke-width="0.7711" d="M122.787,104.805
			c1.107,2.022,7.836,6.074,9.708,6.495"/>
		<path id="path3815" sodipodi:nodetypes="cc" fill="none" stroke="#000000" stroke-width="0.7711" d="M121.607,98.331
			c1.728,1.526,7.393,4.285,9.296,4.045"/>
		<path id="path3817" sodipodi:nodetypes="cc" fill="none" stroke="#000000" stroke-width="0.7711" d="M120.216,92.687
			c1.728,1.526,7.527,4.552,9.429,4.312"/>
		<path id="path3819" sodipodi:nodetypes="cc" fill="none" stroke="#000000" stroke-width="0.7711" d="M118.213,86.697
			c1.728,1.526,7.352,3.724,9.615,3.484"/>
		<path id="path3821" sodipodi:nodetypes="cc" fill="none" stroke="#000000" stroke-width="0.7711" d="M115.618,80.036
			c1.729,1.526,7.5,3.643,9.403,3.403"/>
		<path id="path3823" sodipodi:nodetypes="cc" fill="none" stroke="#000000" stroke-width="0.7711" d="M112.024,73.233
			c1.729,1.526,8.115,3.857,10.018,3.617"/>
		<path id="path3825" sodipodi:nodetypes="cc" fill="none" stroke="#000000" stroke-width="0.7711" d="M108.368,66.827
			c1.727,1.526,8.542,3.937,10.445,3.697"/>
		<path id="path3827" sodipodi:nodetypes="cc" fill="none" stroke="#000000" stroke-width="0.7711" d="M104.543,60.755
			c1.727,1.525,8.703,2.867,10.607,2.627"/>
		<path id="path3829" sodipodi:nodetypes="cc" fill="none" stroke="#000000" stroke-width="0.7711" d="M100.857,54.657
			c1.728,1.526,8.489,2.414,10.391,2.173"/>
		<path id="path3831" sodipodi:nodetypes="cc" fill="none" stroke="#000000" stroke-width="0.7711" d="M97.06,47.892
			c1.727,1.526,8.703,2.466,10.604,2.227"/>
		<path id="path3833" sodipodi:nodetypes="cc" fill="none" stroke="#000000" stroke-width="0.7711" d="M93.733,41.704
			c1.728,1.526,8.702,2.412,10.605,2.172"/>
		<path id="path3835" sodipodi:nodetypes="cc" fill="none" stroke="#000000" stroke-width="0.7711" d="M90.209,34.386
			c1.728,1.526,8.569,2.734,10.472,2.494"/>
		<path id="path3837" sodipodi:nodetypes="cc" fill="none" stroke="#000000" stroke-width="0.7711" d="M87.694,27.138
			c1.729,1.526,8.489,2.761,10.392,2.521"/>
		<path id="path3839" sodipodi:nodetypes="cc" fill="none" stroke="#000000" stroke-width="0.7711" d="M86.308,20.212
			c1.727,1.525,7.9,2.841,9.803,2.6"/>
		<path id="path3841" sodipodi:nodetypes="cc" fill="none" stroke="#000000" stroke-width="0.7711" d="M85.924,13.729
			c1.728,1.526,6.831,2.546,8.734,2.306"/>
		<path id="path3843" sodipodi:nodetypes="cc" fill="none" stroke="#000000" stroke-width="0.7711" d="M86.108,4.103
			c0.328,2.281,6.259,6.47,8.266,6.744"/>
		<path id="path3845" sodipodi:nodetypes="cc" fill="none" stroke="#000000" stroke-width="0.7711" d="M87.185-5.084
			c0.329,2.281,5.323,7.032,7.116,7.493"/>
		<path id="path3847" sodipodi:nodetypes="cc" fill="none" stroke="#000000" stroke-width="0.7711" d="M89.208-13.609
			c0.329,2.282,4.681,7.219,6.286,8.268"/>
		<path id="path3849" sodipodi:nodetypes="cc" fill="none" stroke="#000000" stroke-width="0.7711" d="M91.5-21.796
			c0.329,2.281,4.655,7.433,6.26,8.482"/>
		<path id="path3851" sodipodi:nodetypes="cc" fill="none" stroke="#000000" stroke-width="0.7711" d="M94.719-29.432
			c0.328,2.282,4.548,7.246,6.153,8.295"/>
		<path id="path3853" sodipodi:nodetypes="cc" fill="none" stroke="#000000" stroke-width="0.7711" d="M98.791-36.347
			c0.329,2.282,3.907,7.406,5.512,8.456"/>
		<path id="path3855" sodipodi:nodetypes="cc" fill="none" stroke="#000000" stroke-width="0.7711" d="M102.713-42.226
			c0.329,2.281,4.253,6.604,5.858,7.653"/>
		<path id="path3857" sodipodi:nodetypes="cc" fill="none" stroke="#000000" stroke-width="0.7711" d="M107.306-47.978
			c0.329,2.281,3.852,6.791,5.458,7.84"/>
		<path id="path3859" sodipodi:nodetypes="cc" fill="none" stroke="#000000" stroke-width="0.7711" d="M112.049-54.197
			c0.328,2.281,4.173,7.059,5.779,8.106"/>
		<path id="path3861" sodipodi:nodetypes="cc" fill="none" stroke="#000000" stroke-width="0.7711" d="M116.575-60.818
			c0.328,2.282,4.254,7.22,5.859,8.268"/>
		<path id="path3863" sodipodi:nodetypes="cc" fill="none" stroke="#000000" stroke-width="0.7711" d="M120.524-67.311
			c0.328,2.281,4.681,7.46,6.286,8.509"/>
		<path id="path3865" sodipodi:nodetypes="cc" fill="none" stroke="#000000" stroke-width="0.7711" d="M125.545-75.016
			c0.328,2.282,3.638,8.075,5.244,9.124"/>
	</g>
</g>
</svg>
