<?xml version="1.0" encoding="UTF-8" standalone="no"?>
<!-- Created with Inkscape (http://www.inkscape.org/) -->
<svg xmlns:dc="http://purl.org/dc/elements/1.1/" xmlns:cc="http://creativecommons.org/ns#" xmlns:rdf="http://www.w3.org/1999/02/22-rdf-syntax-ns#" xmlns:svg="http://www.w3.org/2000/svg" xmlns="http://www.w3.org/2000/svg" xmlns:xlink="http://www.w3.org/1999/xlink" xmlns:sodipodi="http://sodipodi.sourceforge.net/DTD/sodipodi-0.dtd" xmlns:inkscape="http://www.inkscape.org/namespaces/inkscape" width="270" height="193.60295" id="svg8312" version="1.1" inkscape:version="0.48.2 r9819" sodipodi:docname="Neues Dokument 9">
  <defs id="defs8314">
    <radialGradient inkscape:collect="always" xlink:href="#linearGradient4468" id="radialGradient6718" gradientUnits="userSpaceOnUse" gradientTransform="matrix(0.62598651,0.05072899,-0.01740468,0.21477062,1199.2772,417.99157)" cx="-1735.2327" cy="-2.2434514" fx="-1735.2327" fy="-2.2434514" r="211.90729"/>
    <linearGradient inkscape:collect="always" id="linearGradient4468">
      <stop style="stop-color:#ffe8b1;stop-opacity:1;" offset="0" id="stop4470"/>
      <stop style="stop-color:#f5d79c;stop-opacity:1" offset="1" id="stop4472"/>
    </linearGradient>
    <radialGradient inkscape:collect="always" xlink:href="#linearGradient4460" id="radialGradient6720" gradientUnits="userSpaceOnUse" gradientTransform="matrix(0.55204758,0,0,0.09161038,1070.8057,325.74966)" cx="-1747.4291" cy="11.509779" fx="-1747.4291" fy="11.509779" r="157.49055"/>
    <linearGradient inkscape:collect="always" id="linearGradient4460">
      <stop style="stop-color:#e8b168;stop-opacity:1;" offset="0" id="stop4462"/>
      <stop style="stop-color:#f6c783;stop-opacity:1" offset="1" id="stop4464"/>
    </linearGradient>
    <radialGradient inkscape:collect="always" xlink:href="#linearGradient7745" id="radialGradient7751" cx="63.031555" cy="336.33469" fx="63.031555" fy="336.33469" r="56.476578" gradientTransform="matrix(1.2390482,0.00727408,-0.00233101,0.39705732,1.5836852,196.88178)" gradientUnits="userSpaceOnUse"/>
    <linearGradient inkscape:collect="always" id="linearGradient7745">
      <stop style="stop-color:black;stop-opacity:1;" offset="0" id="stop7747"/>
      <stop style="stop-color:black;stop-opacity:0;" offset="1" id="stop7749"/>
    </linearGradient>
    <filter color-interpolation-filters="sRGB" inkscape:collect="always" id="filter7421" x="-0.039699495" width="1.079399" y="-0.12278833" height="1.2455767">
      <feGaussianBlur inkscape:collect="always" stdDeviation="1.8361015" id="feGaussianBlur7423"/>
    </filter>
    <linearGradient inkscape:collect="always" xlink:href="#linearGradient7375" id="linearGradient7381" x1="108.06396" y1="326.39389" x2="54.278191" y2="355.38528" gradientUnits="userSpaceOnUse" gradientTransform="translate(3.7499998,0)"/>
    <linearGradient inkscape:collect="always" id="linearGradient7375">
      <stop style="stop-color:black;stop-opacity:1;" offset="0" id="stop7377"/>
      <stop style="stop-color:black;stop-opacity:0;" offset="1" id="stop7379"/>
    </linearGradient>
    <filter color-interpolation-filters="sRGB" inkscape:collect="always" id="filter7363">
      <feGaussianBlur inkscape:collect="always" stdDeviation="0.33468608" id="feGaussianBlur7365"/>
    </filter>
    <radialGradient inkscape:collect="always" xlink:href="#linearGradient7349" id="radialGradient7355" cx="109.06249" cy="326.43753" fx="109.06249" fy="326.43753" r="1.7812499" gradientTransform="matrix(0.99942595,0.03037414,-0.01754386,0.46400486,5.7895819,171.65625)" gradientUnits="userSpaceOnUse"/>
    <linearGradient inkscape:collect="always" id="linearGradient7349">
      <stop style="stop-color:#483737;stop-opacity:1" offset="0" id="stop7351"/>
      <stop style="stop-color:#d79348;stop-opacity:1" offset="1" id="stop7353"/>
    </linearGradient>
    <linearGradient inkscape:collect="always" xlink:href="#linearGradient5698" id="linearGradient7344" gradientUnits="userSpaceOnUse" gradientTransform="matrix(0.19731647,0.03946404,-0.05524967,0.27624307,122.37887,-27.356581)" x1="289.57047" y1="1208.3624" x2="302.81879" y2="1208.3624"/>
    <linearGradient id="linearGradient5698">
      <stop offset="0" style="stop-color:#dcddde;stop-opacity:1" id="stop5700"/>
      <stop offset="1" style="stop-color:#6c6d6f;stop-opacity:1" id="stop5702"/>
    </linearGradient>
    <linearGradient inkscape:collect="always" xlink:href="#linearGradient13724" id="linearGradient7333" gradientUnits="userSpaceOnUse" gradientTransform="matrix(0.28141599,0.01295419,-0.01295419,0.28141599,-99.048122,-67.111629)" x1="882.37604" y1="979.58319" x2="943.45636" y2="1098.6903"/>
    <linearGradient inkscape:collect="always" id="linearGradient13724">
      <stop style="stop-color:#ff7f2a;stop-opacity:1;" offset="0" id="stop13726"/>
      <stop style="stop-color:#ed6324;stop-opacity:1" offset="1" id="stop13728"/>
    </linearGradient>
    <filter color-interpolation-filters="sRGB" inkscape:collect="always" id="filter5706">
      <feGaussianBlur inkscape:collect="always" stdDeviation="0.30779701" id="feGaussianBlur5708"/>
    </filter>
    <linearGradient inkscape:collect="always" xlink:href="#linearGradient7861" id="linearGradient7916" gradientUnits="userSpaceOnUse" x1="77.315865" y1="414.42752" x2="78.597794" y2="416.37207"/>
    <linearGradient id="linearGradient7861">
      <stop style="stop-color:#333;stop-opacity:1" offset="0" id="stop7863"/>
      <stop style="stop-color:gray;stop-opacity:1;" offset="1" id="stop7865"/>
    </linearGradient>
    <radialGradient inkscape:collect="always" xlink:href="#linearGradient7803" id="radialGradient7918" gradientUnits="userSpaceOnUse" gradientTransform="matrix(1.2256113,-0.25519193,0.16569857,0.79580119,-85.302439,98.692783)" cx="70.583298" cy="418.70035" fx="70.583298" fy="418.70035" r="13.02356"/>
    <linearGradient inkscape:collect="always" id="linearGradient7803">
      <stop style="stop-color:#438bce;stop-opacity:1;" offset="0" id="stop7805"/>
      <stop style="stop-color:#acf;stop-opacity:1" offset="1" id="stop7807"/>
    </linearGradient>
    <linearGradient inkscape:collect="always" xlink:href="#linearGradient7827" id="linearGradient7920" gradientUnits="userSpaceOnUse" x1="32.404182" y1="420.91824" x2="36.045414" y2="421.44858"/>
    <linearGradient id="linearGradient7827">
      <stop style="stop-color:#999;stop-opacity:1;" offset="0" id="stop7829"/>
      <stop id="stop7835" offset="0.48347729" style="stop-color:#f9f9f9;stop-opacity:1"/>
      <stop style="stop-color:#999;stop-opacity:1;" offset="1" id="stop7831"/>
    </linearGradient>
    <linearGradient inkscape:collect="always" xlink:href="#linearGradient7841" id="linearGradient7922" gradientUnits="userSpaceOnUse" x1="36.285408" y1="420.82886" x2="37.060436" y2="420.98511"/>
    <linearGradient id="linearGradient7841">
      <stop style="stop-color:#999;stop-opacity:1" offset="0" id="stop7843"/>
      <stop style="stop-color:#ccc;stop-opacity:1;" offset="1" id="stop7845"/>
    </linearGradient>
    <radialGradient inkscape:collect="always" xlink:href="#linearGradient7819" id="radialGradient7924" gradientUnits="userSpaceOnUse" gradientTransform="matrix(-0.01287618,-1.4255521,1.3488881,-0.01218372,-503.98176,520.31714)" cx="67.018768" cy="423.95172" fx="67.018768" fy="423.95172" r="22.016228"/>
    <linearGradient id="linearGradient7819">
      <stop style="stop-color:#033b89;stop-opacity:1" offset="0" id="stop7821"/>
      <stop style="stop-color:#1c5c90;stop-opacity:1;" offset="1" id="stop7823"/>
    </linearGradient>
    <radialGradient inkscape:collect="always" xlink:href="#linearGradient7873" id="radialGradient7926" gradientUnits="userSpaceOnUse" gradientTransform="matrix(0.61654142,-0.78732248,1.9192333,1.5029252,-787.49856,-163.43557)" cx="59.660362" cy="419.75635" fx="59.660362" fy="419.75635" r="20.548561"/>
    <linearGradient inkscape:collect="always" id="linearGradient7873">
      <stop style="stop-color:#838989;stop-opacity:1;" offset="0" id="stop7875"/>
      <stop style="stop-color:#ccc;stop-opacity:1" offset="1" id="stop7877"/>
    </linearGradient>
    <linearGradient inkscape:collect="always" xlink:href="#linearGradient7811" id="linearGradient7928" gradientUnits="userSpaceOnUse" x1="30.283306" y1="384.74384" x2="64.016884" y2="386.36884"/>
    <linearGradient inkscape:collect="always" id="linearGradient7811">
      <stop style="stop-color:#578ec1;stop-opacity:1;" offset="0" id="stop7813"/>
      <stop style="stop-color:#0d56a5;stop-opacity:1" offset="1" id="stop7815"/>
    </linearGradient>
    <radialGradient inkscape:collect="always" xlink:href="#linearGradient7795" id="radialGradient7930" gradientUnits="userSpaceOnUse" gradientTransform="matrix(1.5286562,-0.36987857,0.6771444,2.7985426,-316.05115,-709.76166)" cx="69.667229" cy="412.35095" fx="69.667229" fy="412.35095" r="10.071779"/>
    <linearGradient id="linearGradient7795">
      <stop style="stop-color:#003380;stop-opacity:1" offset="0" id="stop7797"/>
      <stop style="stop-color:#1467b8;stop-opacity:1;" offset="1" id="stop7799"/>
    </linearGradient>
    <linearGradient inkscape:collect="always" xlink:href="#linearGradient7861" id="linearGradient7932" gradientUnits="userSpaceOnUse" x1="80.91124" y1="412.86133" x2="85.099014" y2="412.86133"/>
    <linearGradient id="linearGradient8136">
      <stop style="stop-color:#333;stop-opacity:1" offset="0" id="stop8138"/>
      <stop style="stop-color:gray;stop-opacity:1;" offset="1" id="stop8140"/>
    </linearGradient>
    <linearGradient inkscape:collect="always" xlink:href="#linearGradient7827" id="linearGradient7934" gradientUnits="userSpaceOnUse" x1="68.942909" y1="423.84204" x2="72.124886" y2="424.37238"/>
    <linearGradient id="linearGradient8143">
      <stop style="stop-color:#999;stop-opacity:1;" offset="0" id="stop8145"/>
      <stop id="stop8147" offset="0.48347729" style="stop-color:#f9f9f9;stop-opacity:1"/>
      <stop style="stop-color:#999;stop-opacity:1;" offset="1" id="stop8149"/>
    </linearGradient>
    <linearGradient inkscape:collect="always" xlink:href="#linearGradient7851" id="linearGradient7937" gradientUnits="userSpaceOnUse" x1="76.417519" y1="403.90356" x2="77.953484" y2="406.02487"/>
    <linearGradient id="linearGradient7851">
      <stop style="stop-color:gray;stop-opacity:1;" offset="0" id="stop7853"/>
      <stop id="stop7859" offset="0.46238017" style="stop-color:#ccc;stop-opacity:1"/>
      <stop style="stop-color:gray;stop-opacity:1;" offset="1" id="stop7855"/>
    </linearGradient>
    <linearGradient inkscape:collect="always" xlink:href="#linearGradient7841" id="linearGradient7940" gradientUnits="userSpaceOnUse" x1="76.285271" y1="421.71048" x2="89.232796" y2="412.2529"/>
    <linearGradient id="linearGradient8157">
      <stop style="stop-color:#999;stop-opacity:1" offset="0" id="stop8159"/>
      <stop style="stop-color:#ccc;stop-opacity:1;" offset="1" id="stop8161"/>
    </linearGradient>
    <linearGradient inkscape:collect="always" xlink:href="#linearGradient7887" id="linearGradient7943" gradientUnits="userSpaceOnUse" x1="35.945938" y1="398.40347" x2="74.25901" y2="437.36243"/>
    <linearGradient inkscape:collect="always" id="linearGradient7887">
      <stop style="stop-color:white;stop-opacity:1;" offset="0" id="stop7889"/>
      <stop style="stop-color:white;stop-opacity:0;" offset="1" id="stop7891"/>
    </linearGradient>
    <filter color-interpolation-filters="sRGB" inkscape:collect="always" id="filter7895">
      <feGaussianBlur inkscape:collect="always" stdDeviation="0.17976563" id="feGaussianBlur7897"/>
    </filter>
  </defs>
  <sodipodi:namedview id="base" pagecolor="#ffffff" bordercolor="#666666" borderopacity="1.0" inkscape:pageopacity="0.0" inkscape:pageshadow="2" inkscape:zoom="0.35" inkscape:cx="106.59373" inkscape:cy="125.76617" inkscape:document-units="px" inkscape:current-layer="layer1" showgrid="false" fit-margin-top="10" fit-margin-right="10" fit-margin-bottom="10" fit-margin-left="10" inkscape:window-width="1280" inkscape:window-height="965" inkscape:window-x="0" inkscape:window-y="27" inkscape:window-maximized="1"/>
  <g inkscape:label="Ebene 1" inkscape:groupmode="layer" id="layer1" transform="translate(-243.40627,-464.5254)">
    <g transform="matrix(1.2391028,0,0,1.2391028,234.10453,207.51716)" id="g23798" inkscape:export-filename="/home/gnokii/Downloads/travel/vacation.png" inkscape:export-xdpi="90" inkscape:export-ydpi="90">
      <g transform="matrix(0.90918867,0,0,0.97582188,7.8094027,6.5526743)" id="g6490">
        <path sodipodi:nodetypes="saasccaaas" inkscape:connector-curvature="0" id="path4359" d="m 9.0470466,344.57851 c 3.4568574,5.99972 31.3760814,3.53919 47.1020804,5.05716 29.455391,2.84325 58.840983,8.03124 88.493283,7.58573 17.08671,-0.25671 39.85504,-1.02423 50.76499,-5.90003 4.03544,-1.80354 -10.96885,-4.93508 -9.21575,-8.42857 26.00339,2.38471 44.26291,-5.06477 44.26291,-5.06477 0,0 -40.36735,-10.89636 -60.79181,-15.47057 -16.39705,-3.67224 -32.59367,-8.85146 -49.5313,-9.60305 -24.207893,-1.07414 -49.730653,-0.16381 -72.17404,7.38121 -15.104427,5.07785 -43.5400636,16.40756 -38.9103634,24.44289 z" style="fill:url(#radialGradient6718);fill-opacity:1;stroke:none"/>
        <path inkscape:connector-curvature="0" id="path4455" d="m 101.80864,312.38635 c -18.442889,0.15655 -37.018501,2.099 -53.850979,7.75777 -8.140352,2.73664 -20.136498,7.29797 -28.758238,12.17204 5.435784,3.23064 23.89769,1.72189 34.754258,2.81902 22.529023,2.27671 44.996292,6.43183 67.675719,6.0751 13.06878,-0.20556 30.48269,-0.81598 38.82708,-4.72022 3.08666,-1.44418 -8.37766,-3.95516 -7.03672,-6.75254 11.82856,1.13568 28.25933,-0.42533 39.66416,-1.87934 -8.58571,-2.09684 -16.86592,-4.06332 -23.4184,-5.50693 -16.38553,-3.61003 -32.59174,-8.84183 -49.52938,-9.5934 -6.05199,-0.26854 -12.17982,-0.42368 -18.3275,-0.3715 z" style="fill:url(#radialGradient6720);fill-opacity:1;stroke:none"/>
        <path transform="matrix(0.1227076,0.06744656,-0.03666707,0.06670953,163.0305,434.63059)" d="m -1192.182,-153.77579 c 0,3.90525 -1.5829,7.07107 -3.5355,7.07107 -1.9527,0 -3.5356,-3.16582 -3.5356,-7.07107 0,-3.90524 1.5829,-7.07106 3.5356,-7.07106 1.9526,0 3.5355,3.16582 3.5355,7.07106 z" sodipodi:ry="7.0710673" sodipodi:rx="3.5355337" sodipodi:cy="-153.77579" sodipodi:cx="-1195.7175" id="path4478" style="color:black;fill:#d79348;fill-opacity:1;fill-rule:nonzero;stroke:none;stroke-width:6;marker:none;visibility:visible;display:inline;overflow:visible;enable-background:accumulate" sodipodi:type="arc"/>
        <path transform="matrix(-0.13864415,0.01672607,-0.00909306,-0.07537338,-142.36238,352.52601)" d="m -1192.182,-153.77579 c 0,3.90525 -1.5829,7.07107 -3.5355,7.07107 -1.9527,0 -3.5356,-3.16582 -3.5356,-7.07107 0,-3.90524 1.5829,-7.07106 3.5356,-7.07106 1.9526,0 3.5355,3.16582 3.5355,7.07106 z" sodipodi:ry="7.0710673" sodipodi:rx="3.5355337" sodipodi:cy="-153.77579" sodipodi:cx="-1195.7175" id="path4480" style="color:black;fill:#d79348;fill-opacity:1;fill-rule:nonzero;stroke:none;stroke-width:6;marker:none;visibility:visible;display:inline;overflow:visible;enable-background:accumulate" sodipodi:type="arc"/>
        <path transform="matrix(-0.05022003,-0.18865728,0.10256283,-0.02730193,-14.77104,112.11037)" d="m -1192.182,-153.77579 c 0,3.90525 -1.5829,7.07107 -3.5355,7.07107 -1.9527,0 -3.5356,-3.16582 -3.5356,-7.07107 0,-3.90524 1.5829,-7.07106 3.5356,-7.07106 1.9526,0 3.5355,3.16582 3.5355,7.07106 z" sodipodi:ry="7.0710673" sodipodi:rx="3.5355337" sodipodi:cy="-153.77579" sodipodi:cx="-1195.7175" id="path4482" style="color:black;fill:#d79348;fill-opacity:1;fill-rule:nonzero;stroke:none;stroke-width:6;marker:none;visibility:visible;display:inline;overflow:visible;enable-background:accumulate" sodipodi:type="arc"/>
        <path transform="matrix(-0.07142921,-0.20704406,0.11255874,-0.03883223,-40.252239,83.388)" d="m -1192.182,-153.77579 c 0,3.90525 -1.5829,7.07107 -3.5355,7.07107 -1.9527,0 -3.5356,-3.16582 -3.5356,-7.07107 0,-3.90524 1.5829,-7.07106 3.5356,-7.07106 1.9526,0 3.5355,3.16582 3.5355,7.07106 z" sodipodi:ry="7.0710673" sodipodi:rx="3.5355337" sodipodi:cy="-153.77579" sodipodi:cx="-1195.7175" id="path4484" style="color:black;fill:#d79348;fill-opacity:1;fill-rule:nonzero;stroke:none;stroke-width:6;marker:none;visibility:visible;display:inline;overflow:visible;enable-background:accumulate" sodipodi:type="arc"/>
        <path transform="matrix(0.17821241,-0.04160489,0.02261834,0.09688451,255.16839,292.79579)" d="m -1192.182,-153.77579 c 0,3.90525 -1.5829,7.07107 -3.5355,7.07107 -1.9527,0 -3.5356,-3.16582 -3.5356,-7.07107 0,-3.90524 1.5829,-7.07106 3.5356,-7.07106 1.9526,0 3.5355,3.16582 3.5355,7.07106 z" sodipodi:ry="7.0710673" sodipodi:rx="3.5355337" sodipodi:cy="-153.77579" sodipodi:cx="-1195.7175" id="path4486" style="color:black;fill:#d79348;fill-opacity:1;fill-rule:nonzero;stroke:none;stroke-width:6;marker:none;visibility:visible;display:inline;overflow:visible;enable-background:accumulate" sodipodi:type="arc"/>
        <path transform="matrix(-0.12505858,0.06443,-0.03502713,-0.06798763,-104.87465,402.80074)" d="m -1192.182,-153.77579 c 0,3.90525 -1.5829,7.07107 -3.5355,7.07107 -1.9527,0 -3.5356,-3.16582 -3.5356,-7.07107 0,-3.90524 1.5829,-7.07106 3.5356,-7.07106 1.9526,0 3.5355,3.16582 3.5355,7.07106 z" sodipodi:ry="7.0710673" sodipodi:rx="3.5355337" sodipodi:cy="-153.77579" sodipodi:cx="-1195.7175" id="path4488" style="color:black;fill:#d79348;fill-opacity:1;fill-rule:nonzero;stroke:none;stroke-width:6;marker:none;visibility:visible;display:inline;overflow:visible;enable-background:accumulate" sodipodi:type="arc"/>
        <path transform="matrix(0.14613293,0.04937343,-0.02684168,0.07944462,239.17175,420.6889)" d="m -1192.182,-153.77579 c 0,3.90525 -1.5829,7.07107 -3.5355,7.07107 -1.9527,0 -3.5356,-3.16582 -3.5356,-7.07107 0,-3.90524 1.5829,-7.07106 3.5356,-7.07106 1.9526,0 3.5355,3.16582 3.5355,7.07106 z" sodipodi:ry="7.0710673" sodipodi:rx="3.5355337" sodipodi:cy="-153.77579" sodipodi:cx="-1195.7175" id="path4490" style="color:black;fill:#d79348;fill-opacity:1;fill-rule:nonzero;stroke:none;stroke-width:6;marker:none;visibility:visible;display:inline;overflow:visible;enable-background:accumulate" sodipodi:type="arc"/>
        <path transform="matrix(0.10128262,0.06907502,-0.03755238,0.05506192,199.50007,423.74222)" d="m -1192.182,-153.77579 c 0,3.90525 -1.5829,7.07107 -3.5355,7.07107 -1.9527,0 -3.5356,-3.16582 -3.5356,-7.07107 0,-3.90524 1.5829,-7.07106 3.5356,-7.07106 1.9526,0 3.5355,3.16582 3.5355,7.07106 z" sodipodi:ry="7.0710673" sodipodi:rx="3.5355337" sodipodi:cy="-153.77579" sodipodi:cx="-1195.7175" id="path4492" style="color:black;fill:#d79348;fill-opacity:1;fill-rule:nonzero;stroke:none;stroke-width:6;marker:none;visibility:visible;display:inline;overflow:visible;enable-background:accumulate" sodipodi:type="arc"/>
        <path transform="matrix(0.07485382,-0.17726098,0.09636727,0.040694,184.73919,132.77151)" d="m -1192.182,-153.77579 c 0,3.90525 -1.5829,7.07107 -3.5355,7.07107 -1.9527,0 -3.5356,-3.16582 -3.5356,-7.07107 0,-3.90524 1.5829,-7.07106 3.5356,-7.07106 1.9526,0 3.5355,3.16582 3.5355,7.07106 z" sodipodi:ry="7.0710673" sodipodi:rx="3.5355337" sodipodi:cy="-153.77579" sodipodi:cx="-1195.7175" id="path4494" style="color:black;fill:#d79348;fill-opacity:1;fill-rule:nonzero;stroke:none;stroke-width:6;marker:none;visibility:visible;display:inline;overflow:visible;enable-background:accumulate" sodipodi:type="arc"/>
        <path transform="matrix(0.11026643,-0.15337915,0.08338401,0.05994594,228.04107,176.03621)" d="m -1192.182,-153.77579 c 0,3.90525 -1.5829,7.07107 -3.5355,7.07107 -1.9527,0 -3.5356,-3.16582 -3.5356,-7.07107 0,-3.90524 1.5829,-7.07106 3.5356,-7.07106 1.9526,0 3.5355,3.16582 3.5355,7.07106 z" sodipodi:ry="7.0710673" sodipodi:rx="3.5355337" sodipodi:cy="-153.77579" sodipodi:cx="-1195.7175" id="path4496" style="color:black;fill:#d79348;fill-opacity:1;fill-rule:nonzero;stroke:none;stroke-width:6;marker:none;visibility:visible;display:inline;overflow:visible;enable-background:accumulate" sodipodi:type="arc"/>
        <path transform="matrix(0.13189042,0.11071496,-0.06018978,0.07170174,253.56237,477.96029)" d="m -1192.182,-153.77579 c 0,3.90525 -1.5829,7.07107 -3.5355,7.07107 -1.9527,0 -3.5356,-3.16582 -3.5356,-7.07107 0,-3.90524 1.5829,-7.07106 3.5356,-7.07106 1.9526,0 3.5355,3.16582 3.5355,7.07106 z" sodipodi:ry="7.0710673" sodipodi:rx="3.5355337" sodipodi:cy="-153.77579" sodipodi:cx="-1195.7175" id="path4498" style="color:black;fill:#d79348;fill-opacity:1;fill-rule:nonzero;stroke:none;stroke-width:6;marker:none;visibility:visible;display:inline;overflow:visible;enable-background:accumulate" sodipodi:type="arc"/>
        <path transform="matrix(0.14099742,-0.0447793,0.0243441,0.07665273,278.99644,289.84919)" d="m -1192.182,-153.77579 c 0,3.90525 -1.5829,7.07107 -3.5355,7.07107 -1.9527,0 -3.5356,-3.16582 -3.5356,-7.07107 0,-3.90524 1.5829,-7.07106 3.5356,-7.07106 1.9526,0 3.5355,3.16582 3.5355,7.07106 z" sodipodi:ry="7.0710673" sodipodi:rx="3.5355337" sodipodi:cy="-153.77579" sodipodi:cx="-1195.7175" id="path4500" style="color:black;fill:#d79348;fill-opacity:1;fill-rule:nonzero;stroke:none;stroke-width:6;marker:none;visibility:visible;display:inline;overflow:visible;enable-background:accumulate" sodipodi:type="arc"/>
        <path transform="matrix(0.03000362,-0.23063175,0.1253821,0.01631136,184.73886,66.648314)" d="m -1192.182,-153.77579 c 0,3.90525 -1.5829,7.07107 -3.5355,7.07107 -1.9527,0 -3.5356,-3.16582 -3.5356,-7.07107 0,-3.90524 1.5829,-7.07106 3.5356,-7.07106 1.9526,0 3.5355,3.16582 3.5355,7.07106 z" sodipodi:ry="7.0710673" sodipodi:rx="3.5355337" sodipodi:cy="-153.77579" sodipodi:cx="-1195.7175" id="path4502" style="color:black;fill:#d79348;fill-opacity:1;fill-rule:nonzero;stroke:none;stroke-width:6;marker:none;visibility:visible;display:inline;overflow:visible;enable-background:accumulate" sodipodi:type="arc"/>
        <path transform="matrix(-0.14290136,-0.01209326,0.00657446,-0.0776878,-18.61527,319.84262)" d="m -1192.182,-153.77579 c 0,3.90525 -1.5829,7.07107 -3.5355,7.07107 -1.9527,0 -3.5356,-3.16582 -3.5356,-7.07107 0,-3.90524 1.5829,-7.07106 3.5356,-7.07106 1.9526,0 3.5355,3.16582 3.5355,7.07106 z" sodipodi:ry="7.0710673" sodipodi:rx="3.5355337" sodipodi:cy="-153.77579" sodipodi:cx="-1195.7175" id="path4504" style="color:black;fill:#d79348;fill-opacity:1;fill-rule:nonzero;stroke:none;stroke-width:6;marker:none;visibility:visible;display:inline;overflow:visible;enable-background:accumulate" sodipodi:type="arc"/>
        <path transform="matrix(-7.8978425e-5,-0.1230115,0.06687474,-4.2936328e-5,190.83576,184.23204)" d="m -1192.182,-153.77579 c 0,3.90525 -1.5829,7.07107 -3.5355,7.07107 -1.9527,0 -3.5356,-3.16582 -3.5356,-7.07107 0,-3.90524 1.5829,-7.07106 3.5356,-7.07106 1.9526,0 3.5355,3.16582 3.5355,7.07106 z" sodipodi:ry="7.0710673" sodipodi:rx="3.5355337" sodipodi:cy="-153.77579" sodipodi:cx="-1195.7175" id="path4506" style="color:black;fill:#d79348;fill-opacity:1;fill-rule:nonzero;stroke:none;stroke-width:6;marker:none;visibility:visible;display:inline;overflow:visible;enable-background:accumulate" sodipodi:type="arc"/>
        <path transform="matrix(-0.18249199,-0.0980357,0.05329674,-0.09921109,5.9251915,207.8446)" d="m -1192.182,-153.77579 c 0,3.90525 -1.5829,7.07107 -3.5355,7.07107 -1.9527,0 -3.5356,-3.16582 -3.5356,-7.07107 0,-3.90524 1.5829,-7.07106 3.5356,-7.07106 1.9526,0 3.5355,3.16582 3.5355,7.07106 z" sodipodi:ry="7.0710673" sodipodi:rx="3.5355337" sodipodi:cy="-153.77579" sodipodi:cx="-1195.7175" id="path4512" style="color:black;fill:#d79348;fill-opacity:1;fill-rule:nonzero;stroke:none;stroke-width:6;marker:none;visibility:visible;display:inline;overflow:visible;enable-background:accumulate" sodipodi:type="arc"/>
        <path transform="matrix(-0.22244293,0.01470479,-0.0079942,-0.12093027,-69.667242,328.80666)" d="m -1192.182,-153.77579 c 0,3.90525 -1.5829,7.07107 -3.5355,7.07107 -1.9527,0 -3.5356,-3.16582 -3.5356,-7.07107 0,-3.90524 1.5829,-7.07106 3.5356,-7.07106 1.9526,0 3.5355,3.16582 3.5355,7.07106 z" sodipodi:ry="7.0710673" sodipodi:rx="3.5355337" sodipodi:cy="-153.77579" sodipodi:cx="-1195.7175" id="path4514" style="color:black;fill:#d79348;fill-opacity:1;fill-rule:nonzero;stroke:none;stroke-width:6;marker:none;visibility:visible;display:inline;overflow:visible;enable-background:accumulate" sodipodi:type="arc"/>
        <path transform="matrix(0.20124237,0.01568014,-0.00852445,0.10940467,427.65429,371.53894)" d="m -1192.182,-153.77579 c 0,3.90525 -1.5829,7.07107 -3.5355,7.07107 -1.9527,0 -3.5356,-3.16582 -3.5356,-7.07107 0,-3.90524 1.5829,-7.07106 3.5356,-7.07106 1.9526,0 3.5355,3.16582 3.5355,7.07106 z" sodipodi:ry="7.0710673" sodipodi:rx="3.5355337" sodipodi:cy="-153.77579" sodipodi:cx="-1195.7175" id="path4516" style="color:black;fill:#d79348;fill-opacity:1;fill-rule:nonzero;stroke:none;stroke-width:6;marker:none;visibility:visible;display:inline;overflow:visible;enable-background:accumulate" sodipodi:type="arc"/>
        <path transform="matrix(-0.08998493,0.05950126,-0.03234764,-0.04891997,75.174453,404.07103)" d="m -1192.182,-153.77579 c 0,3.90525 -1.5829,7.07107 -3.5355,7.07107 -1.9527,0 -3.5356,-3.16582 -3.5356,-7.07107 0,-3.90524 1.5829,-7.07106 3.5356,-7.07106 1.9526,0 3.5355,3.16582 3.5355,7.07106 z" sodipodi:ry="7.0710673" sodipodi:rx="3.5355337" sodipodi:cy="-153.77579" sodipodi:cx="-1195.7175" id="path4518" style="color:black;fill:#d79348;fill-opacity:1;fill-rule:nonzero;stroke:none;stroke-width:6;marker:none;visibility:visible;display:inline;overflow:visible;enable-background:accumulate" sodipodi:type="arc"/>
        <path transform="matrix(-0.01199294,0.16846089,-0.09158314,-0.00651992,149.66334,543.89219)" d="m -1192.182,-153.77579 c 0,3.90525 -1.5829,7.07107 -3.5355,7.07107 -1.9527,0 -3.5356,-3.16582 -3.5356,-7.07107 0,-3.90524 1.5829,-7.07106 3.5356,-7.07106 1.9526,0 3.5355,3.16582 3.5355,7.07106 z" sodipodi:ry="7.0710673" sodipodi:rx="3.5355337" sodipodi:cy="-153.77579" sodipodi:cx="-1195.7175" id="path4520" style="color:black;fill:#d79348;fill-opacity:1;fill-rule:nonzero;stroke:none;stroke-width:6;marker:none;visibility:visible;display:inline;overflow:visible;enable-background:accumulate" sodipodi:type="arc"/>
        <path transform="matrix(-0.12999545,0.02431478,-0.01321864,-0.07067155,-25.509461,369.07663)" d="m -1192.182,-153.77579 c 0,3.90525 -1.5829,7.07107 -3.5355,7.07107 -1.9527,0 -3.5356,-3.16582 -3.5356,-7.07107 0,-3.90524 1.5829,-7.07106 3.5356,-7.07106 1.9526,0 3.5355,3.16582 3.5355,7.07106 z" sodipodi:ry="7.0710673" sodipodi:rx="3.5355337" sodipodi:cy="-153.77579" sodipodi:cx="-1195.7175" id="path4524" style="color:black;fill:#d79348;fill-opacity:1;fill-rule:nonzero;stroke:none;stroke-width:6;marker:none;visibility:visible;display:inline;overflow:visible;enable-background:accumulate" sodipodi:type="arc"/>
        <path transform="matrix(0.06211958,0.20661304,-0.11232441,0.03377108,230.16093,585.62656)" d="m -1192.182,-153.77579 c 0,3.90525 -1.5829,7.07107 -3.5355,7.07107 -1.9527,0 -3.5356,-3.16582 -3.5356,-7.07107 0,-3.90524 1.5829,-7.07106 3.5356,-7.07106 1.9526,0 3.5355,3.16582 3.5355,7.07106 z" sodipodi:ry="7.0710673" sodipodi:rx="3.5355337" sodipodi:cy="-153.77579" sodipodi:cx="-1195.7175" id="path4526" style="color:black;fill:#d79348;fill-opacity:1;fill-rule:nonzero;stroke:none;stroke-width:6;marker:none;visibility:visible;display:inline;overflow:visible;enable-background:accumulate" sodipodi:type="arc"/>
        <path transform="matrix(0.13286921,0.03843476,-0.02089491,0.07223385,327.83004,390.01304)" d="m -1192.182,-153.77579 c 0,3.90525 -1.5829,7.07107 -3.5355,7.07107 -1.9527,0 -3.5356,-3.16582 -3.5356,-7.07107 0,-3.90524 1.5829,-7.07106 3.5356,-7.07106 1.9526,0 3.5355,3.16582 3.5355,7.07106 z" sodipodi:ry="7.0710673" sodipodi:rx="3.5355337" sodipodi:cy="-153.77579" sodipodi:cx="-1195.7175" id="path4528" style="color:black;fill:#d79348;fill-opacity:1;fill-rule:nonzero;stroke:none;stroke-width:6;marker:none;visibility:visible;display:inline;overflow:visible;enable-background:accumulate" sodipodi:type="arc"/>
        <path transform="matrix(-0.15415412,-0.11410807,0.06203443,-0.08380532,-0.48601994,187.7888)" d="m -1192.182,-153.77579 c 0,3.90525 -1.5829,7.07107 -3.5355,7.07107 -1.9527,0 -3.5356,-3.16582 -3.5356,-7.07107 0,-3.90524 1.5829,-7.07106 3.5356,-7.07106 1.9526,0 3.5355,3.16582 3.5355,7.07106 z" sodipodi:ry="7.0710673" sodipodi:rx="3.5355337" sodipodi:cy="-153.77579" sodipodi:cx="-1195.7175" id="path4530" style="color:black;fill:#d79348;fill-opacity:1;fill-rule:nonzero;stroke:none;stroke-width:6;marker:none;visibility:visible;display:inline;overflow:visible;enable-background:accumulate" sodipodi:type="arc"/>
        <path transform="matrix(0.03197518,-0.23295041,0.12664262,0.01738319,230.41594,53.606732)" d="m -1192.182,-153.77579 c 0,3.90525 -1.5829,7.07107 -3.5355,7.07107 -1.9527,0 -3.5356,-3.16582 -3.5356,-7.07107 0,-3.90524 1.5829,-7.07106 3.5356,-7.07106 1.9526,0 3.5355,3.16582 3.5355,7.07106 z" sodipodi:ry="7.0710673" sodipodi:rx="3.5355337" sodipodi:cy="-153.77579" sodipodi:cx="-1195.7175" id="path4532" style="color:black;fill:#d79348;fill-opacity:1;fill-rule:nonzero;stroke:none;stroke-width:6;marker:none;visibility:visible;display:inline;overflow:visible;enable-background:accumulate" sodipodi:type="arc"/>
        <path transform="matrix(-0.07089791,-0.11954636,0.06499093,-0.03854339,61.612981,177.3641)" d="m -1192.182,-153.77579 c 0,3.90525 -1.5829,7.07107 -3.5355,7.07107 -1.9527,0 -3.5356,-3.16582 -3.5356,-7.07107 0,-3.90524 1.5829,-7.07106 3.5356,-7.07106 1.9526,0 3.5355,3.16582 3.5355,7.07106 z" sodipodi:ry="7.0710673" sodipodi:rx="3.5355337" sodipodi:cy="-153.77579" sodipodi:cx="-1195.7175" id="path4534" style="color:black;fill:#d79348;fill-opacity:1;fill-rule:nonzero;stroke:none;stroke-width:6;marker:none;visibility:visible;display:inline;overflow:visible;enable-background:accumulate" sodipodi:type="arc"/>
        <path transform="matrix(-0.096916,0.13863191,-0.07536672,-0.05268802,-17.8877,479.92805)" d="m -1192.182,-153.77579 c 0,3.90525 -1.5829,7.07107 -3.5355,7.07107 -1.9527,0 -3.5356,-3.16582 -3.5356,-7.07107 0,-3.90524 1.5829,-7.07106 3.5356,-7.07106 1.9526,0 3.5355,3.16582 3.5355,7.07106 z" sodipodi:ry="7.0710673" sodipodi:rx="3.5355337" sodipodi:cy="-153.77579" sodipodi:cx="-1195.7175" id="path4536" style="color:black;fill:#d79348;fill-opacity:1;fill-rule:nonzero;stroke:none;stroke-width:6;marker:none;visibility:visible;display:inline;overflow:visible;enable-background:accumulate" sodipodi:type="arc"/>
        <path transform="matrix(0.08451526,0.07872759,-0.04279996,0.04594641,216.11921,427.18702)" d="m -1192.182,-153.77579 c 0,3.90525 -1.5829,7.07107 -3.5355,7.07107 -1.9527,0 -3.5356,-3.16582 -3.5356,-7.07107 0,-3.90524 1.5829,-7.07106 3.5356,-7.07106 1.9526,0 3.5355,3.16582 3.5355,7.07106 z" sodipodi:ry="7.0710673" sodipodi:rx="3.5355337" sodipodi:cy="-153.77579" sodipodi:cx="-1195.7175" id="path4538" style="color:black;fill:#d79348;fill-opacity:1;fill-rule:nonzero;stroke:none;stroke-width:6;marker:none;visibility:visible;display:inline;overflow:visible;enable-background:accumulate" sodipodi:type="arc"/>
        <path transform="matrix(0.13782206,-0.04699714,0.02554982,0.07492644,277.96521,278.37657)" d="m -1192.182,-153.77579 c 0,3.90525 -1.5829,7.07107 -3.5355,7.07107 -1.9527,0 -3.5356,-3.16582 -3.5356,-7.07107 0,-3.90524 1.5829,-7.07106 3.5356,-7.07106 1.9526,0 3.5355,3.16582 3.5355,7.07106 z" sodipodi:ry="7.0710673" sodipodi:rx="3.5355337" sodipodi:cy="-153.77579" sodipodi:cx="-1195.7175" id="path4540" style="color:black;fill:#d79348;fill-opacity:1;fill-rule:nonzero;stroke:none;stroke-width:6;marker:none;visibility:visible;display:inline;overflow:visible;enable-background:accumulate" sodipodi:type="arc"/>
        <path transform="matrix(-0.00575584,-0.16943962,0.09211522,-0.00312914,59.739801,120.56391)" d="m -1192.182,-153.77579 c 0,3.90525 -1.5829,7.07107 -3.5355,7.07107 -1.9527,0 -3.5356,-3.16582 -3.5356,-7.07107 0,-3.90524 1.5829,-7.07106 3.5356,-7.07106 1.9526,0 3.5355,3.16582 3.5355,7.07106 z" sodipodi:ry="7.0710673" sodipodi:rx="3.5355337" sodipodi:cy="-153.77579" sodipodi:cx="-1195.7175" id="path4542" style="color:black;fill:#d79348;fill-opacity:1;fill-rule:nonzero;stroke:none;stroke-width:6;marker:none;visibility:visible;display:inline;overflow:visible;enable-background:accumulate" sodipodi:type="arc"/>
        <path transform="matrix(0.17203398,0.15952975,-0.08672775,0.09352563,243.12155,542.12443)" d="m -1192.182,-153.77579 c 0,3.90525 -1.5829,7.07107 -3.5355,7.07107 -1.9527,0 -3.5356,-3.16582 -3.5356,-7.07107 0,-3.90524 1.5829,-7.07106 3.5356,-7.07106 1.9526,0 3.5355,3.16582 3.5355,7.07106 z" sodipodi:ry="7.0710673" sodipodi:rx="3.5355337" sodipodi:cy="-153.77579" sodipodi:cx="-1195.7175" id="path4544" style="color:black;fill:#d79348;fill-opacity:1;fill-rule:nonzero;stroke:none;stroke-width:6;marker:none;visibility:visible;display:inline;overflow:visible;enable-background:accumulate" sodipodi:type="arc"/>
        <path transform="matrix(-0.22683667,-0.011127,0.00604915,-0.12331891,-212.74134,288.61339)" d="m -1192.182,-153.77579 c 0,3.90525 -1.5829,7.07107 -3.5355,7.07107 -1.9527,0 -3.5356,-3.16582 -3.5356,-7.07107 0,-3.90524 1.5829,-7.07106 3.5356,-7.07106 1.9526,0 3.5355,3.16582 3.5355,7.07106 z" sodipodi:ry="7.0710673" sodipodi:rx="3.5355337" sodipodi:cy="-153.77579" sodipodi:cx="-1195.7175" id="path4546" style="color:black;fill:#d79348;fill-opacity:1;fill-rule:nonzero;stroke:none;stroke-width:6;marker:none;visibility:visible;display:inline;overflow:visible;enable-background:accumulate" sodipodi:type="arc"/>
        <path transform="matrix(-0.02626488,-0.10880228,0.05914995,-0.0142788,47.075913,192.05869)" d="m -1192.182,-153.77579 c 0,3.90525 -1.5829,7.07107 -3.5355,7.07107 -1.9527,0 -3.5356,-3.16582 -3.5356,-7.07107 0,-3.90524 1.5829,-7.07106 3.5356,-7.07106 1.9526,0 3.5355,3.16582 3.5355,7.07106 z" sodipodi:ry="7.0710673" sodipodi:rx="3.5355337" sodipodi:cy="-153.77579" sodipodi:cx="-1195.7175" id="path4548" style="color:black;fill:#d79348;fill-opacity:1;fill-rule:nonzero;stroke:none;stroke-width:6;marker:none;visibility:visible;display:inline;overflow:visible;enable-background:accumulate" sodipodi:type="arc"/>
        <path transform="matrix(-0.16208806,-0.04044864,0.02198975,-0.08811857,-114.70216,267.228)" d="m -1192.182,-153.77579 c 0,3.90525 -1.5829,7.07107 -3.5355,7.07107 -1.9527,0 -3.5356,-3.16582 -3.5356,-7.07107 0,-3.90524 1.5829,-7.07106 3.5356,-7.07106 1.9526,0 3.5355,3.16582 3.5355,7.07106 z" sodipodi:ry="7.0710673" sodipodi:rx="3.5355337" sodipodi:cy="-153.77579" sodipodi:cx="-1195.7175" id="path4550" style="color:black;fill:#d79348;fill-opacity:1;fill-rule:nonzero;stroke:none;stroke-width:6;marker:none;visibility:visible;display:inline;overflow:visible;enable-background:accumulate" sodipodi:type="arc"/>
        <path transform="matrix(0.21309086,-0.06615175,0.03596316,0.11584606,343.82938,266.91871)" d="m -1192.182,-153.77579 c 0,3.90525 -1.5829,7.07107 -3.5355,7.07107 -1.9527,0 -3.5356,-3.16582 -3.5356,-7.07107 0,-3.90524 1.5829,-7.07106 3.5356,-7.07106 1.9526,0 3.5355,3.16582 3.5355,7.07106 z" sodipodi:ry="7.0710673" sodipodi:rx="3.5355337" sodipodi:cy="-153.77579" sodipodi:cx="-1195.7175" id="path4552" style="color:black;fill:#d79348;fill-opacity:1;fill-rule:nonzero;stroke:none;stroke-width:6;marker:none;visibility:visible;display:inline;overflow:visible;enable-background:accumulate" sodipodi:type="arc"/>
        <path transform="matrix(0.12830841,0.11137546,-0.06054886,0.0697544,236.17152,458.3871)" d="m -1192.182,-153.77579 c 0,3.90525 -1.5829,7.07107 -3.5355,7.07107 -1.9527,0 -3.5356,-3.16582 -3.5356,-7.07107 0,-3.90524 1.5829,-7.07106 3.5356,-7.07106 1.9526,0 3.5355,3.16582 3.5355,7.07106 z" sodipodi:ry="7.0710673" sodipodi:rx="3.5355337" sodipodi:cy="-153.77579" sodipodi:cx="-1195.7175" id="path4554" style="color:black;fill:#d79348;fill-opacity:1;fill-rule:nonzero;stroke:none;stroke-width:6;marker:none;visibility:visible;display:inline;overflow:visible;enable-background:accumulate" sodipodi:type="arc"/>
        <path transform="matrix(-0.00951021,0.10592981,-0.05758835,-0.00517019,70.170284,446.63617)" d="m -1192.182,-153.77579 c 0,3.90525 -1.5829,7.07107 -3.5355,7.07107 -1.9527,0 -3.5356,-3.16582 -3.5356,-7.07107 0,-3.90524 1.5829,-7.07106 3.5356,-7.07106 1.9526,0 3.5355,3.16582 3.5355,7.07106 z" sodipodi:ry="7.0710673" sodipodi:rx="3.5355337" sodipodi:cy="-153.77579" sodipodi:cx="-1195.7175" id="path4556" style="color:black;fill:#d79348;fill-opacity:1;fill-rule:nonzero;stroke:none;stroke-width:6;marker:none;visibility:visible;display:inline;overflow:visible;enable-background:accumulate" sodipodi:type="arc"/>
        <path transform="matrix(0.08804549,-0.08461614,0.04600125,0.04786561,207.76661,234.79083)" d="m -1192.182,-153.77579 c 0,3.90525 -1.5829,7.07107 -3.5355,7.07107 -1.9527,0 -3.5356,-3.16582 -3.5356,-7.07107 0,-3.90524 1.5829,-7.07106 3.5356,-7.07106 1.9526,0 3.5355,3.16582 3.5355,7.07106 z" sodipodi:ry="7.0710673" sodipodi:rx="3.5355337" sodipodi:cy="-153.77579" sodipodi:cx="-1195.7175" id="path4558" style="color:black;fill:#d79348;fill-opacity:1;fill-rule:nonzero;stroke:none;stroke-width:6;marker:none;visibility:visible;display:inline;overflow:visible;enable-background:accumulate" sodipodi:type="arc"/>
        <path transform="matrix(0.16094125,0.07254596,-0.03943934,0.08749511,288.5004,425.11155)" d="m -1192.182,-153.77579 c 0,3.90525 -1.5829,7.07107 -3.5355,7.07107 -1.9527,0 -3.5356,-3.16582 -3.5356,-7.07107 0,-3.90524 1.5829,-7.07106 3.5356,-7.07106 1.9526,0 3.5355,3.16582 3.5355,7.07106 z" sodipodi:ry="7.0710673" sodipodi:rx="3.5355337" sodipodi:cy="-153.77579" sodipodi:cx="-1195.7175" id="path4560" style="color:black;fill:#d79348;fill-opacity:1;fill-rule:nonzero;stroke:none;stroke-width:6;marker:none;visibility:visible;display:inline;overflow:visible;enable-background:accumulate" sodipodi:type="arc"/>
        <path transform="matrix(-0.10000754,0.06350569,-0.03452463,-0.05436873,-5.1243508,384.74479)" d="m -1192.182,-153.77579 c 0,3.90525 -1.5829,7.07107 -3.5355,7.07107 -1.9527,0 -3.5356,-3.16582 -3.5356,-7.07107 0,-3.90524 1.5829,-7.07106 3.5356,-7.07106 1.9526,0 3.5355,3.16582 3.5355,7.07106 z" sodipodi:ry="7.0710673" sodipodi:rx="3.5355337" sodipodi:cy="-153.77579" sodipodi:cx="-1195.7175" id="path4562" style="color:black;fill:#d79348;fill-opacity:1;fill-rule:nonzero;stroke:none;stroke-width:6;marker:none;visibility:visible;display:inline;overflow:visible;enable-background:accumulate" sodipodi:type="arc"/>
        <path transform="matrix(-0.12105993,-0.16896376,0.09185651,-0.06581378,-20.272601,107.59543)" d="m -1192.182,-153.77579 c 0,3.90525 -1.5829,7.07107 -3.5355,7.07107 -1.9527,0 -3.5356,-3.16582 -3.5356,-7.07107 0,-3.90524 1.5829,-7.07106 3.5356,-7.07106 1.9526,0 3.5355,3.16582 3.5355,7.07106 z" sodipodi:ry="7.0710673" sodipodi:rx="3.5355337" sodipodi:cy="-153.77579" sodipodi:cx="-1195.7175" id="path4564" style="color:black;fill:#d79348;fill-opacity:1;fill-rule:nonzero;stroke:none;stroke-width:6;marker:none;visibility:visible;display:inline;overflow:visible;enable-background:accumulate" sodipodi:type="arc"/>
        <path transform="matrix(0.1794044,-0.13673626,0.07433616,0.09753254,340.45442,182.22815)" d="m -1192.182,-153.77579 c 0,3.90525 -1.5829,7.07107 -3.5355,7.07107 -1.9527,0 -3.5356,-3.16582 -3.5356,-7.07107 0,-3.90524 1.5829,-7.07106 3.5356,-7.07106 1.9526,0 3.5355,3.16582 3.5355,7.07106 z" sodipodi:ry="7.0710673" sodipodi:rx="3.5355337" sodipodi:cy="-153.77579" sodipodi:cx="-1195.7175" id="path4566" style="color:black;fill:#d79348;fill-opacity:1;fill-rule:nonzero;stroke:none;stroke-width:6;marker:none;visibility:visible;display:inline;overflow:visible;enable-background:accumulate" sodipodi:type="arc"/>
        <path transform="matrix(-0.07433176,-0.15325196,0.08331485,-0.04041018,48.155076,124.47107)" d="m -1192.182,-153.77579 c 0,3.90525 -1.5829,7.07107 -3.5355,7.07107 -1.9527,0 -3.5356,-3.16582 -3.5356,-7.07107 0,-3.90524 1.5829,-7.07106 3.5356,-7.07106 1.9526,0 3.5355,3.16582 3.5355,7.07106 z" sodipodi:ry="7.0710673" sodipodi:rx="3.5355337" sodipodi:cy="-153.77579" sodipodi:cx="-1195.7175" id="path4568" style="color:black;fill:#d79348;fill-opacity:1;fill-rule:nonzero;stroke:none;stroke-width:6;marker:none;visibility:visible;display:inline;overflow:visible;enable-background:accumulate" sodipodi:type="arc"/>
        <path transform="matrix(-0.05625899,0.09006087,-0.04896126,-0.03058499,72.832957,432.02434)" d="m -1192.182,-153.77579 c 0,3.90525 -1.5829,7.07107 -3.5355,7.07107 -1.9527,0 -3.5356,-3.16582 -3.5356,-7.07107 0,-3.90524 1.5829,-7.07106 3.5356,-7.07106 1.9526,0 3.5355,3.16582 3.5355,7.07106 z" sodipodi:ry="7.0710673" sodipodi:rx="3.5355337" sodipodi:cy="-153.77579" sodipodi:cx="-1195.7175" id="path4572" style="color:black;fill:#d79348;fill-opacity:1;fill-rule:nonzero;stroke:none;stroke-width:6;marker:none;visibility:visible;display:inline;overflow:visible;enable-background:accumulate" sodipodi:type="arc"/>
        <path transform="matrix(-0.07183245,-0.08146558,0.04428846,-0.03905144,54.253993,228.05579)" d="m -1192.182,-153.77579 c 0,3.90525 -1.5829,7.07107 -3.5355,7.07107 -1.9527,0 -3.5356,-3.16582 -3.5356,-7.07107 0,-3.90524 1.5829,-7.07106 3.5356,-7.07106 1.9526,0 3.5355,3.16582 3.5355,7.07106 z" sodipodi:ry="7.0710673" sodipodi:rx="3.5355337" sodipodi:cy="-153.77579" sodipodi:cx="-1195.7175" id="path4574" style="color:black;fill:#d79348;fill-opacity:1;fill-rule:nonzero;stroke:none;stroke-width:6;marker:none;visibility:visible;display:inline;overflow:visible;enable-background:accumulate" sodipodi:type="arc"/>
        <path transform="matrix(0.21084912,0.06653891,-0.03617363,0.11462734,385.69848,419.71716)" d="m -1192.182,-153.77579 c 0,3.90525 -1.5829,7.07107 -3.5355,7.07107 -1.9527,0 -3.5356,-3.16582 -3.5356,-7.07107 0,-3.90524 1.5829,-7.07106 3.5356,-7.07106 1.9526,0 3.5355,3.16582 3.5355,7.07106 z" sodipodi:ry="7.0710673" sodipodi:rx="3.5355337" sodipodi:cy="-153.77579" sodipodi:cx="-1195.7175" id="path4576" style="color:black;fill:#d79348;fill-opacity:1;fill-rule:nonzero;stroke:none;stroke-width:6;marker:none;visibility:visible;display:inline;overflow:visible;enable-background:accumulate" sodipodi:type="arc"/>
        <path transform="matrix(-0.10391142,0.19515218,-0.10609376,-0.05649106,-3.037081,552.01302)" d="m -1192.182,-153.77579 c 0,3.90525 -1.5829,7.07107 -3.5355,7.07107 -1.9527,0 -3.5356,-3.16582 -3.5356,-7.07107 0,-3.90524 1.5829,-7.07106 3.5356,-7.07106 1.9526,0 3.5355,3.16582 3.5355,7.07106 z" sodipodi:ry="7.0710673" sodipodi:rx="3.5355337" sodipodi:cy="-153.77579" sodipodi:cx="-1195.7175" id="path4578" style="color:black;fill:#d79348;fill-opacity:1;fill-rule:nonzero;stroke:none;stroke-width:6;marker:none;visibility:visible;display:inline;overflow:visible;enable-background:accumulate" sodipodi:type="arc"/>
        <path transform="matrix(-0.16703102,4.9768829e-4,-2.7056638e-4,-0.09080579,-53.890465,311.86955)" d="m -1192.182,-153.77579 c 0,3.90525 -1.5829,7.07107 -3.5355,7.07107 -1.9527,0 -3.5356,-3.16582 -3.5356,-7.07107 0,-3.90524 1.5829,-7.07106 3.5356,-7.07106 1.9526,0 3.5355,3.16582 3.5355,7.07106 z" sodipodi:ry="7.0710673" sodipodi:rx="3.5355337" sodipodi:cy="-153.77579" sodipodi:cx="-1195.7175" id="path4580" style="color:black;fill:#d79348;fill-opacity:1;fill-rule:nonzero;stroke:none;stroke-width:6;marker:none;visibility:visible;display:inline;overflow:visible;enable-background:accumulate" sodipodi:type="arc"/>
        <path transform="matrix(0.10361604,-0.19219488,0.10448604,0.05633048,293.528,104.54748)" d="m -1192.182,-153.77579 c 0,3.90525 -1.5829,7.07107 -3.5355,7.07107 -1.9527,0 -3.5356,-3.16582 -3.5356,-7.07107 0,-3.90524 1.5829,-7.07106 3.5356,-7.07106 1.9526,0 3.5355,3.16582 3.5355,7.07106 z" sodipodi:ry="7.0710673" sodipodi:rx="3.5355337" sodipodi:cy="-153.77579" sodipodi:cx="-1195.7175" id="path4582" style="color:black;fill:#d79348;fill-opacity:1;fill-rule:nonzero;stroke:none;stroke-width:6;marker:none;visibility:visible;display:inline;overflow:visible;enable-background:accumulate" sodipodi:type="arc"/>
        <path transform="matrix(0.08105304,0.14807458,-0.0805002,0.04406418,222.24428,535.00744)" d="m -1192.182,-153.77579 c 0,3.90525 -1.5829,7.07107 -3.5355,7.07107 -1.9527,0 -3.5356,-3.16582 -3.5356,-7.07107 0,-3.90524 1.5829,-7.07106 3.5356,-7.07106 1.9526,0 3.5355,3.16582 3.5355,7.07106 z" sodipodi:ry="7.0710673" sodipodi:rx="3.5355337" sodipodi:cy="-153.77579" sodipodi:cx="-1195.7175" id="path4584" style="color:black;fill:#d79348;fill-opacity:1;fill-rule:nonzero;stroke:none;stroke-width:6;marker:none;visibility:visible;display:inline;overflow:visible;enable-background:accumulate" sodipodi:type="arc"/>
        <path transform="matrix(0.05413093,-0.09439347,0.05131666,0.02942808,189.02384,238.05294)" d="m -1192.182,-153.77579 c 0,3.90525 -1.5829,7.07107 -3.5355,7.07107 -1.9527,0 -3.5356,-3.16582 -3.5356,-7.07107 0,-3.90524 1.5829,-7.07106 3.5356,-7.07106 1.9526,0 3.5355,3.16582 3.5355,7.07106 z" sodipodi:ry="7.0710673" sodipodi:rx="3.5355337" sodipodi:cy="-153.77579" sodipodi:cx="-1195.7175" id="path4586" style="color:black;fill:#d79348;fill-opacity:1;fill-rule:nonzero;stroke:none;stroke-width:6;marker:none;visibility:visible;display:inline;overflow:visible;enable-background:accumulate" sodipodi:type="arc"/>
        <path transform="matrix(0.16214043,0.07370868,-0.04007145,0.08814704,326.29063,453.40348)" d="m -1192.182,-153.77579 c 0,3.90525 -1.5829,7.07107 -3.5355,7.07107 -1.9527,0 -3.5356,-3.16582 -3.5356,-7.07107 0,-3.90524 1.5829,-7.07106 3.5356,-7.07106 1.9526,0 3.5355,3.16582 3.5355,7.07106 z" sodipodi:ry="7.0710673" sodipodi:rx="3.5355337" sodipodi:cy="-153.77579" sodipodi:cx="-1195.7175" id="path4588" style="color:black;fill:#d79348;fill-opacity:1;fill-rule:nonzero;stroke:none;stroke-width:6;marker:none;visibility:visible;display:inline;overflow:visible;enable-background:accumulate" sodipodi:type="arc"/>
        <path transform="matrix(-0.08705794,-0.13245295,0.07200755,-0.04732872,-9.3970952,183.39873)" d="m -1192.182,-153.77579 c 0,3.90525 -1.5829,7.07107 -3.5355,7.07107 -1.9527,0 -3.5356,-3.16582 -3.5356,-7.07107 0,-3.90524 1.5829,-7.07106 3.5356,-7.07106 1.9526,0 3.5355,3.16582 3.5355,7.07106 z" sodipodi:ry="7.0710673" sodipodi:rx="3.5355337" sodipodi:cy="-153.77579" sodipodi:cx="-1195.7175" id="path4590" style="color:black;fill:#d79348;fill-opacity:1;fill-rule:nonzero;stroke:none;stroke-width:6;marker:none;visibility:visible;display:inline;overflow:visible;enable-background:accumulate" sodipodi:type="arc"/>
        <path transform="matrix(0.04120261,-0.11406914,0.06201326,0.02239964,97.600663,206.33396)" d="m -1192.182,-153.77579 c 0,3.90525 -1.5829,7.07107 -3.5355,7.07107 -1.9527,0 -3.5356,-3.16582 -3.5356,-7.07107 0,-3.90524 1.5829,-7.07106 3.5356,-7.07106 1.9526,0 3.5355,3.16582 3.5355,7.07106 z" sodipodi:ry="7.0710673" sodipodi:rx="3.5355337" sodipodi:cy="-153.77579" sodipodi:cx="-1195.7175" id="path4592" style="color:black;fill:#d79348;fill-opacity:1;fill-rule:nonzero;stroke:none;stroke-width:6;marker:none;visibility:visible;display:inline;overflow:visible;enable-background:accumulate" sodipodi:type="arc"/>
        <path transform="matrix(-0.21212624,-0.09875598,0.05368832,-0.11532164,-223.29407,203.92004)" d="m -1192.182,-153.77579 c 0,3.90525 -1.5829,7.07107 -3.5355,7.07107 -1.9527,0 -3.5356,-3.16582 -3.5356,-7.07107 0,-3.90524 1.5829,-7.07106 3.5356,-7.07106 1.9526,0 3.5355,3.16582 3.5355,7.07106 z" sodipodi:ry="7.0710673" sodipodi:rx="3.5355337" sodipodi:cy="-153.77579" sodipodi:cx="-1195.7175" id="path4596" style="color:black;fill:#d79348;fill-opacity:1;fill-rule:nonzero;stroke:none;stroke-width:6;marker:none;visibility:visible;display:inline;overflow:visible;enable-background:accumulate" sodipodi:type="arc"/>
        <path transform="matrix(0.08945538,0.1363705,-0.07413731,0.04863208,107.41862,509.20811)" d="m -1192.182,-153.77579 c 0,3.90525 -1.5829,7.07107 -3.5355,7.07107 -1.9527,0 -3.5356,-3.16582 -3.5356,-7.07107 0,-3.90524 1.5829,-7.07106 3.5356,-7.07106 1.9526,0 3.5355,3.16582 3.5355,7.07106 z" sodipodi:ry="7.0710673" sodipodi:rx="3.5355337" sodipodi:cy="-153.77579" sodipodi:cx="-1195.7175" id="path4600" style="color:black;fill:#d79348;fill-opacity:1;fill-rule:nonzero;stroke:none;stroke-width:6;marker:none;visibility:visible;display:inline;overflow:visible;enable-background:accumulate" sodipodi:type="arc"/>
        <path transform="matrix(-0.07305472,-0.08918113,0.04848299,-0.03971593,-52.266567,221.83421)" d="m -1192.182,-153.77579 c 0,3.90525 -1.5829,7.07107 -3.5355,7.07107 -1.9527,0 -3.5356,-3.16582 -3.5356,-7.07107 0,-3.90524 1.5829,-7.07106 3.5356,-7.07106 1.9526,0 3.5355,3.16582 3.5355,7.07106 z" sodipodi:ry="7.0710673" sodipodi:rx="3.5355337" sodipodi:cy="-153.77579" sodipodi:cx="-1195.7175" id="path4602" style="color:black;fill:#d79348;fill-opacity:1;fill-rule:nonzero;stroke:none;stroke-width:6;marker:none;visibility:visible;display:inline;overflow:visible;enable-background:accumulate" sodipodi:type="arc"/>
        <path transform="matrix(-0.05277922,0.18970068,-0.10313007,-0.02869323,-59.327589,555.83153)" d="m -1192.182,-153.77579 c 0,3.90525 -1.5829,7.07107 -3.5355,7.07107 -1.9527,0 -3.5356,-3.16582 -3.5356,-7.07107 0,-3.90524 1.5829,-7.07106 3.5356,-7.07106 1.9526,0 3.5355,3.16582 3.5355,7.07106 z" sodipodi:ry="7.0710673" sodipodi:rx="3.5355337" sodipodi:cy="-153.77579" sodipodi:cx="-1195.7175" id="path4604" style="color:black;fill:#d79348;fill-opacity:1;fill-rule:nonzero;stroke:none;stroke-width:6;marker:none;visibility:visible;display:inline;overflow:visible;enable-background:accumulate" sodipodi:type="arc"/>
        <path transform="matrix(0.11832393,0.02773868,-0.01508003,0.06432637,295.03809,388.5284)" d="m -1192.182,-153.77579 c 0,3.90525 -1.5829,7.07107 -3.5355,7.07107 -1.9527,0 -3.5356,-3.16582 -3.5356,-7.07107 0,-3.90524 1.5829,-7.07106 3.5356,-7.07106 1.9526,0 3.5355,3.16582 3.5355,7.07106 z" sodipodi:ry="7.0710673" sodipodi:rx="3.5355337" sodipodi:cy="-153.77579" sodipodi:cx="-1195.7175" id="path4606" style="color:black;fill:#d79348;fill-opacity:1;fill-rule:nonzero;stroke:none;stroke-width:6;marker:none;visibility:visible;display:inline;overflow:visible;enable-background:accumulate" sodipodi:type="arc"/>
        <path transform="matrix(0.18138816,0.05680448,-0.03088155,0.098611,369.11361,415.8151)" d="m -1192.182,-153.77579 c 0,3.90525 -1.5829,7.07107 -3.5355,7.07107 -1.9527,0 -3.5356,-3.16582 -3.5356,-7.07107 0,-3.90524 1.5829,-7.07106 3.5356,-7.07106 1.9526,0 3.5355,3.16582 3.5355,7.07106 z" sodipodi:ry="7.0710673" sodipodi:rx="3.5355337" sodipodi:cy="-153.77579" sodipodi:cx="-1195.7175" id="path4608" style="color:black;fill:#d79348;fill-opacity:1;fill-rule:nonzero;stroke:none;stroke-width:6;marker:none;visibility:visible;display:inline;overflow:visible;enable-background:accumulate" sodipodi:type="arc"/>
        <path transform="matrix(0.07750387,0.19844617,-0.10788453,0.0421347,223.70242,583.50125)" d="m -1192.182,-153.77579 c 0,3.90525 -1.5829,7.07107 -3.5355,7.07107 -1.9527,0 -3.5356,-3.16582 -3.5356,-7.07107 0,-3.90524 1.5829,-7.07106 3.5356,-7.07106 1.9526,0 3.5355,3.16582 3.5355,7.07106 z" sodipodi:ry="7.0710673" sodipodi:rx="3.5355337" sodipodi:cy="-153.77579" sodipodi:cx="-1195.7175" id="path4610" style="color:black;fill:#d79348;fill-opacity:1;fill-rule:nonzero;stroke:none;stroke-width:6;marker:none;visibility:visible;display:inline;overflow:visible;enable-background:accumulate" sodipodi:type="arc"/>
        <path transform="matrix(-0.10256778,-0.02684472,0.01459403,-0.05576059,57.564297,316.60538)" d="m -1192.182,-153.77579 c 0,3.90525 -1.5829,7.07107 -3.5355,7.07107 -1.9527,0 -3.5356,-3.16582 -3.5356,-7.07107 0,-3.90524 1.5829,-7.07106 3.5356,-7.07106 1.9526,0 3.5355,3.16582 3.5355,7.07106 z" sodipodi:ry="7.0710673" sodipodi:rx="3.5355337" sodipodi:cy="-153.77579" sodipodi:cx="-1195.7175" id="path4612" style="color:black;fill:#d79348;fill-opacity:1;fill-rule:nonzero;stroke:none;stroke-width:6;marker:none;visibility:visible;display:inline;overflow:visible;enable-background:accumulate" sodipodi:type="arc"/>
        <path transform="matrix(-0.1490296,0.02344711,-0.01274693,-0.08101939,2.9803898,362.36717)" d="m -1192.182,-153.77579 c 0,3.90525 -1.5829,7.07107 -3.5355,7.07107 -1.9527,0 -3.5356,-3.16582 -3.5356,-7.07107 0,-3.90524 1.5829,-7.07106 3.5356,-7.07106 1.9526,0 3.5355,3.16582 3.5355,7.07106 z" sodipodi:ry="7.0710673" sodipodi:rx="3.5355337" sodipodi:cy="-153.77579" sodipodi:cx="-1195.7175" id="path4614" style="color:black;fill:#d79348;fill-opacity:1;fill-rule:nonzero;stroke:none;stroke-width:6;marker:none;visibility:visible;display:inline;overflow:visible;enable-background:accumulate" sodipodi:type="arc"/>
        <path transform="matrix(0.11197518,0.05346556,-0.02906635,0.06087489,298.11317,424.97482)" d="m -1192.182,-153.77579 c 0,3.90525 -1.5829,7.07107 -3.5355,7.07107 -1.9527,0 -3.5356,-3.16582 -3.5356,-7.07107 0,-3.90524 1.5829,-7.07106 3.5356,-7.07106 1.9526,0 3.5355,3.16582 3.5355,7.07106 z" sodipodi:ry="7.0710673" sodipodi:rx="3.5355337" sodipodi:cy="-153.77579" sodipodi:cx="-1195.7175" id="path4616" style="color:black;fill:#d79348;fill-opacity:1;fill-rule:nonzero;stroke:none;stroke-width:6;marker:none;visibility:visible;display:inline;overflow:visible;enable-background:accumulate" sodipodi:type="arc"/>
        <path transform="matrix(0.07296495,-0.13187401,0.07169282,0.03966712,243.20672,189.50712)" d="m -1192.182,-153.77579 c 0,3.90525 -1.5829,7.07107 -3.5355,7.07107 -1.9527,0 -3.5356,-3.16582 -3.5356,-7.07107 0,-3.90524 1.5829,-7.07106 3.5356,-7.07106 1.9526,0 3.5355,3.16582 3.5355,7.07106 z" sodipodi:ry="7.0710673" sodipodi:rx="3.5355337" sodipodi:cy="-153.77579" sodipodi:cx="-1195.7175" id="path4618" style="color:black;fill:#d79348;fill-opacity:1;fill-rule:nonzero;stroke:none;stroke-width:6;marker:none;visibility:visible;display:inline;overflow:visible;enable-background:accumulate" sodipodi:type="arc"/>
        <path transform="matrix(0.04431374,-0.09397447,0.05108887,0.024091,201.87634,239.28525)" d="m -1192.182,-153.77579 c 0,3.90525 -1.5829,7.07107 -3.5355,7.07107 -1.9527,0 -3.5356,-3.16582 -3.5356,-7.07107 0,-3.90524 1.5829,-7.07106 3.5356,-7.07106 1.9526,0 3.5355,3.16582 3.5355,7.07106 z" sodipodi:ry="7.0710673" sodipodi:rx="3.5355337" sodipodi:cy="-153.77579" sodipodi:cx="-1195.7175" id="path4620" style="color:black;fill:#d79348;fill-opacity:1;fill-rule:nonzero;stroke:none;stroke-width:6;marker:none;visibility:visible;display:inline;overflow:visible;enable-background:accumulate" sodipodi:type="arc"/>
        <path transform="matrix(0.11261506,0.19020606,-0.10340482,0.06122276,214.83794,577.9205)" d="m -1192.182,-153.77579 c 0,3.90525 -1.5829,7.07107 -3.5355,7.07107 -1.9527,0 -3.5356,-3.16582 -3.5356,-7.07107 0,-3.90524 1.5829,-7.07106 3.5356,-7.07106 1.9526,0 3.5355,3.16582 3.5355,7.07106 z" sodipodi:ry="7.0710673" sodipodi:rx="3.5355337" sodipodi:cy="-153.77579" sodipodi:cx="-1195.7175" id="path4622" style="color:black;fill:#d79348;fill-opacity:1;fill-rule:nonzero;stroke:none;stroke-width:6;marker:none;visibility:visible;display:inline;overflow:visible;enable-background:accumulate" sodipodi:type="arc"/>
        <path transform="matrix(0.14371072,0.09498334,-0.05163734,0.0781278,284.52722,479.10709)" d="m -1192.182,-153.77579 c 0,3.90525 -1.5829,7.07107 -3.5355,7.07107 -1.9527,0 -3.5356,-3.16582 -3.5356,-7.07107 0,-3.90524 1.5829,-7.07106 3.5356,-7.07106 1.9526,0 3.5355,3.16582 3.5355,7.07106 z" sodipodi:ry="7.0710673" sodipodi:rx="3.5355337" sodipodi:cy="-153.77579" sodipodi:cx="-1195.7175" id="path4624" style="color:black;fill:#d79348;fill-opacity:1;fill-rule:nonzero;stroke:none;stroke-width:6;marker:none;visibility:visible;display:inline;overflow:visible;enable-background:accumulate" sodipodi:type="arc"/>
        <path transform="matrix(0.00682158,0.22165405,-0.12050141,0.00370853,132.64426,610.73966)" d="m -1192.182,-153.77579 c 0,3.90525 -1.5829,7.07107 -3.5355,7.07107 -1.9527,0 -3.5356,-3.16582 -3.5356,-7.07107 0,-3.90524 1.5829,-7.07106 3.5356,-7.07106 1.9526,0 3.5355,3.16582 3.5355,7.07106 z" sodipodi:ry="7.0710673" sodipodi:rx="3.5355337" sodipodi:cy="-153.77579" sodipodi:cx="-1195.7175" id="path4626" style="color:black;fill:#d79348;fill-opacity:1;fill-rule:nonzero;stroke:none;stroke-width:6;marker:none;visibility:visible;display:inline;overflow:visible;enable-background:accumulate" sodipodi:type="arc"/>
        <path transform="matrix(-0.06296614,0.09967825,-0.05418971,-0.03423131,76.558956,464.11104)" d="m -1192.182,-153.77579 c 0,3.90525 -1.5829,7.07107 -3.5355,7.07107 -1.9527,0 -3.5356,-3.16582 -3.5356,-7.07107 0,-3.90524 1.5829,-7.07106 3.5356,-7.07106 1.9526,0 3.5355,3.16582 3.5355,7.07106 z" sodipodi:ry="7.0710673" sodipodi:rx="3.5355337" sodipodi:cy="-153.77579" sodipodi:cx="-1195.7175" id="path4628" style="color:black;fill:#d79348;fill-opacity:1;fill-rule:nonzero;stroke:none;stroke-width:6;marker:none;visibility:visible;display:inline;overflow:visible;enable-background:accumulate" sodipodi:type="arc"/>
        <path transform="matrix(0.05591714,-0.13611326,0.07399747,0.03039915,186.00546,184.21086)" d="m -1192.182,-153.77579 c 0,3.90525 -1.5829,7.07107 -3.5355,7.07107 -1.9527,0 -3.5356,-3.16582 -3.5356,-7.07107 0,-3.90524 1.5829,-7.07106 3.5356,-7.07106 1.9526,0 3.5355,3.16582 3.5355,7.07106 z" sodipodi:ry="7.0710673" sodipodi:rx="3.5355337" sodipodi:cy="-153.77579" sodipodi:cx="-1195.7175" id="path4636" style="color:black;fill:#d79348;fill-opacity:1;fill-rule:nonzero;stroke:none;stroke-width:6;marker:none;visibility:visible;display:inline;overflow:visible;enable-background:accumulate" sodipodi:type="arc"/>
        <path transform="matrix(-0.05521722,0.12757719,-0.06935686,-0.03001864,-12.762786,474.30751)" d="m -1192.182,-153.77579 c 0,3.90525 -1.5829,7.07107 -3.5355,7.07107 -1.9527,0 -3.5356,-3.16582 -3.5356,-7.07107 0,-3.90524 1.5829,-7.07106 3.5356,-7.07106 1.9526,0 3.5355,3.16582 3.5355,7.07106 z" sodipodi:ry="7.0710673" sodipodi:rx="3.5355337" sodipodi:cy="-153.77579" sodipodi:cx="-1195.7175" id="path4638" style="color:black;fill:#d79348;fill-opacity:1;fill-rule:nonzero;stroke:none;stroke-width:6;marker:none;visibility:visible;display:inline;overflow:visible;enable-background:accumulate" sodipodi:type="arc"/>
        <path transform="matrix(0.21806818,0.01677953,-0.00912212,0.11855196,335.76053,374.79358)" d="m -1192.182,-153.77579 c 0,3.90525 -1.5829,7.07107 -3.5355,7.07107 -1.9527,0 -3.5356,-3.16582 -3.5356,-7.07107 0,-3.90524 1.5829,-7.07106 3.5356,-7.07106 1.9526,0 3.5355,3.16582 3.5355,7.07106 z" sodipodi:ry="7.0710673" sodipodi:rx="3.5355337" sodipodi:cy="-153.77579" sodipodi:cx="-1195.7175" id="path4640" style="color:black;fill:#d79348;fill-opacity:1;fill-rule:nonzero;stroke:none;stroke-width:6;marker:none;visibility:visible;display:inline;overflow:visible;enable-background:accumulate" sodipodi:type="arc"/>
        <path transform="matrix(0.14995034,-0.13388638,0.07278684,0.08151995,264.88883,188.79702)" d="m -1192.182,-153.77579 c 0,3.90525 -1.5829,7.07107 -3.5355,7.07107 -1.9527,0 -3.5356,-3.16582 -3.5356,-7.07107 0,-3.90524 1.5829,-7.07106 3.5356,-7.07106 1.9526,0 3.5355,3.16582 3.5355,7.07106 z" sodipodi:ry="7.0710673" sodipodi:rx="3.5355337" sodipodi:cy="-153.77579" sodipodi:cx="-1195.7175" id="path4642" style="color:black;fill:#d79348;fill-opacity:1;fill-rule:nonzero;stroke:none;stroke-width:6;marker:none;visibility:visible;display:inline;overflow:visible;enable-background:accumulate" sodipodi:type="arc"/>
        <path transform="matrix(-0.14659842,-0.03392943,0.01844561,-0.07969769,-100.35723,279.24808)" d="m -1192.182,-153.77579 c 0,3.90525 -1.5829,7.07107 -3.5355,7.07107 -1.9527,0 -3.5356,-3.16582 -3.5356,-7.07107 0,-3.90524 1.5829,-7.07106 3.5356,-7.07106 1.9526,0 3.5355,3.16582 3.5355,7.07106 z" sodipodi:ry="7.0710673" sodipodi:rx="3.5355337" sodipodi:cy="-153.77579" sodipodi:cx="-1195.7175" id="path4644" style="color:black;fill:#d79348;fill-opacity:1;fill-rule:nonzero;stroke:none;stroke-width:6;marker:none;visibility:visible;display:inline;overflow:visible;enable-background:accumulate" sodipodi:type="arc"/>
        <path transform="matrix(-0.17396,0.0522506,-0.02840584,-0.0945727,-56.077029,376.75471)" d="m -1192.182,-153.77579 c 0,3.90525 -1.5829,7.07107 -3.5355,7.07107 -1.9527,0 -3.5356,-3.16582 -3.5356,-7.07107 0,-3.90524 1.5829,-7.07106 3.5356,-7.07106 1.9526,0 3.5355,3.16582 3.5355,7.07106 z" sodipodi:ry="7.0710673" sodipodi:rx="3.5355337" sodipodi:cy="-153.77579" sodipodi:cx="-1195.7175" id="path4646" style="color:black;fill:#d79348;fill-opacity:1;fill-rule:nonzero;stroke:none;stroke-width:6;marker:none;visibility:visible;display:inline;overflow:visible;enable-background:accumulate" sodipodi:type="arc"/>
        <path transform="matrix(-0.13949471,-0.13049102,0.07094096,-0.07583578,-12.525989,169.40362)" d="m -1192.182,-153.77579 c 0,3.90525 -1.5829,7.07107 -3.5355,7.07107 -1.9527,0 -3.5356,-3.16582 -3.5356,-7.07107 0,-3.90524 1.5829,-7.07106 3.5356,-7.07106 1.9526,0 3.5355,3.16582 3.5355,7.07106 z" sodipodi:ry="7.0710673" sodipodi:rx="3.5355337" sodipodi:cy="-153.77579" sodipodi:cx="-1195.7175" id="path4648" style="color:black;fill:#d79348;fill-opacity:1;fill-rule:nonzero;stroke:none;stroke-width:6;marker:none;visibility:visible;display:inline;overflow:visible;enable-background:accumulate" sodipodi:type="arc"/>
        <path transform="matrix(-0.10572741,0.15158389,-0.08240801,-0.05747832,14.141376,497.19008)" d="m -1192.182,-153.77579 c 0,3.90525 -1.5829,7.07107 -3.5355,7.07107 -1.9527,0 -3.5356,-3.16582 -3.5356,-7.07107 0,-3.90524 1.5829,-7.07106 3.5356,-7.07106 1.9526,0 3.5355,3.16582 3.5355,7.07106 z" sodipodi:ry="7.0710673" sodipodi:rx="3.5355337" sodipodi:cy="-153.77579" sodipodi:cx="-1195.7175" id="path4650" style="color:black;fill:#d79348;fill-opacity:1;fill-rule:nonzero;stroke:none;stroke-width:6;marker:none;visibility:visible;display:inline;overflow:visible;enable-background:accumulate" sodipodi:type="arc"/>
        <path transform="matrix(0.01232723,-0.19287299,0.10485468,0.00670165,244.26108,110.08291)" d="m -1192.182,-153.77579 c 0,3.90525 -1.5829,7.07107 -3.5355,7.07107 -1.9527,0 -3.5356,-3.16582 -3.5356,-7.07107 0,-3.90524 1.5829,-7.07106 3.5356,-7.07106 1.9526,0 3.5355,3.16582 3.5355,7.07106 z" sodipodi:ry="7.0710673" sodipodi:rx="3.5355337" sodipodi:cy="-153.77579" sodipodi:cx="-1195.7175" id="path4654" style="color:black;fill:#d79348;fill-opacity:1;fill-rule:nonzero;stroke:none;stroke-width:6;marker:none;visibility:visible;display:inline;overflow:visible;enable-background:accumulate" sodipodi:type="arc"/>
        <path transform="matrix(0.00238514,0.23606226,-0.12833437,0.00129667,194.35329,619.09076)" d="m -1192.182,-153.77579 c 0,3.90525 -1.5829,7.07107 -3.5355,7.07107 -1.9527,0 -3.5356,-3.16582 -3.5356,-7.07107 0,-3.90524 1.5829,-7.07106 3.5356,-7.07106 1.9526,0 3.5355,3.16582 3.5355,7.07106 z" sodipodi:ry="7.0710673" sodipodi:rx="3.5355337" sodipodi:cy="-153.77579" sodipodi:cx="-1195.7175" id="path4658" style="color:black;fill:#d79348;fill-opacity:1;fill-rule:nonzero;stroke:none;stroke-width:6;marker:none;visibility:visible;display:inline;overflow:visible;enable-background:accumulate" sodipodi:type="arc"/>
        <path transform="matrix(0.09528203,-0.03989311,0.02168774,0.05179972,170.09965,284.43483)" d="m -1192.182,-153.77579 c 0,3.90525 -1.5829,7.07107 -3.5355,7.07107 -1.9527,0 -3.5356,-3.16582 -3.5356,-7.07107 0,-3.90524 1.5829,-7.07106 3.5356,-7.07106 1.9526,0 3.5355,3.16582 3.5355,7.07106 z" sodipodi:ry="7.0710673" sodipodi:rx="3.5355337" sodipodi:cy="-153.77579" sodipodi:cx="-1195.7175" id="path4664" style="color:black;fill:#d79348;fill-opacity:1;fill-rule:nonzero;stroke:none;stroke-width:6;marker:none;visibility:visible;display:inline;overflow:visible;enable-background:accumulate" sodipodi:type="arc"/>
        <path transform="matrix(-0.03479148,0.23178378,-0.1260084,-0.01891426,31.181408,596.35815)" d="m -1192.182,-153.77579 c 0,3.90525 -1.5829,7.07107 -3.5355,7.07107 -1.9527,0 -3.5356,-3.16582 -3.5356,-7.07107 0,-3.90524 1.5829,-7.07106 3.5356,-7.07106 1.9526,0 3.5355,3.16582 3.5355,7.07106 z" sodipodi:ry="7.0710673" sodipodi:rx="3.5355337" sodipodi:cy="-153.77579" sodipodi:cx="-1195.7175" id="path4666" style="color:black;fill:#d79348;fill-opacity:1;fill-rule:nonzero;stroke:none;stroke-width:6;marker:none;visibility:visible;display:inline;overflow:visible;enable-background:accumulate" sodipodi:type="arc"/>
        <path transform="matrix(-0.14496197,0.01330286,-0.00723205,-0.07880804,-89.569289,330.54813)" d="m -1192.182,-153.77579 c 0,3.90525 -1.5829,7.07107 -3.5355,7.07107 -1.9527,0 -3.5356,-3.16582 -3.5356,-7.07107 0,-3.90524 1.5829,-7.07106 3.5356,-7.07106 1.9526,0 3.5355,3.16582 3.5355,7.07106 z" sodipodi:ry="7.0710673" sodipodi:rx="3.5355337" sodipodi:cy="-153.77579" sodipodi:cx="-1195.7175" id="path4668" style="color:black;fill:#d79348;fill-opacity:1;fill-rule:nonzero;stroke:none;stroke-width:6;marker:none;visibility:visible;display:inline;overflow:visible;enable-background:accumulate" sodipodi:type="arc"/>
        <path transform="matrix(0.03309572,0.09544254,-0.05188698,0.01799237,129.47665,434.42048)" d="m -1192.182,-153.77579 c 0,3.90525 -1.5829,7.07107 -3.5355,7.07107 -1.9527,0 -3.5356,-3.16582 -3.5356,-7.07107 0,-3.90524 1.5829,-7.07106 3.5356,-7.07106 1.9526,0 3.5355,3.16582 3.5355,7.07106 z" sodipodi:ry="7.0710673" sodipodi:rx="3.5355337" sodipodi:cy="-153.77579" sodipodi:cx="-1195.7175" id="path4670" style="color:black;fill:#d79348;fill-opacity:1;fill-rule:nonzero;stroke:none;stroke-width:6;marker:none;visibility:visible;display:inline;overflow:visible;enable-background:accumulate" sodipodi:type="arc"/>
        <path transform="matrix(0.02464155,0.14816634,-0.08055008,0.01339628,110.01837,492.39939)" d="m -1192.182,-153.77579 c 0,3.90525 -1.5829,7.07107 -3.5355,7.07107 -1.9527,0 -3.5356,-3.16582 -3.5356,-7.07107 0,-3.90524 1.5829,-7.07106 3.5356,-7.07106 1.9526,0 3.5355,3.16582 3.5355,7.07106 z" sodipodi:ry="7.0710673" sodipodi:rx="3.5355337" sodipodi:cy="-153.77579" sodipodi:cx="-1195.7175" id="path4674" style="color:black;fill:#d79348;fill-opacity:1;fill-rule:nonzero;stroke:none;stroke-width:6;marker:none;visibility:visible;display:inline;overflow:visible;enable-background:accumulate" sodipodi:type="arc"/>
        <path transform="matrix(0.149769,0.02907569,-0.01580689,0.08142136,281.22219,366.17078)" d="m -1192.182,-153.77579 c 0,3.90525 -1.5829,7.07107 -3.5355,7.07107 -1.9527,0 -3.5356,-3.16582 -3.5356,-7.07107 0,-3.90524 1.5829,-7.07106 3.5356,-7.07106 1.9526,0 3.5355,3.16582 3.5355,7.07106 z" sodipodi:ry="7.0710673" sodipodi:rx="3.5355337" sodipodi:cy="-153.77579" sodipodi:cx="-1195.7175" id="path4676" style="color:black;fill:#d79348;fill-opacity:1;fill-rule:nonzero;stroke:none;stroke-width:6;marker:none;visibility:visible;display:inline;overflow:visible;enable-background:accumulate" sodipodi:type="arc"/>
        <path transform="matrix(-0.1007004,0.19376542,-0.10533985,-0.0547454,-47.104618,540.01553)" d="m -1192.182,-153.77579 c 0,3.90525 -1.5829,7.07107 -3.5355,7.07107 -1.9527,0 -3.5356,-3.16582 -3.5356,-7.07107 0,-3.90524 1.5829,-7.07106 3.5356,-7.07106 1.9526,0 3.5355,3.16582 3.5355,7.07106 z" sodipodi:ry="7.0710673" sodipodi:rx="3.5355337" sodipodi:cy="-153.77579" sodipodi:cx="-1195.7175" id="path4678" style="color:black;fill:#d79348;fill-opacity:1;fill-rule:nonzero;stroke:none;stroke-width:6;marker:none;visibility:visible;display:inline;overflow:visible;enable-background:accumulate" sodipodi:type="arc"/>
        <path transform="matrix(0.10349254,-0.08347799,0.0453825,0.05626333,187.07583,236.65854)" d="m -1192.182,-153.77579 c 0,3.90525 -1.5829,7.07107 -3.5355,7.07107 -1.9527,0 -3.5356,-3.16582 -3.5356,-7.07107 0,-3.90524 1.5829,-7.07106 3.5356,-7.07106 1.9526,0 3.5355,3.16582 3.5355,7.07106 z" sodipodi:ry="7.0710673" sodipodi:rx="3.5355337" sodipodi:cy="-153.77579" sodipodi:cx="-1195.7175" id="path4680" style="color:black;fill:#d79348;fill-opacity:1;fill-rule:nonzero;stroke:none;stroke-width:6;marker:none;visibility:visible;display:inline;overflow:visible;enable-background:accumulate" sodipodi:type="arc"/>
        <path transform="matrix(-0.04147413,0.11744722,-0.06384974,-0.02254726,30.930785,452.29727)" d="m -1192.182,-153.77579 c 0,3.90525 -1.5829,7.07107 -3.5355,7.07107 -1.9527,0 -3.5356,-3.16582 -3.5356,-7.07107 0,-3.90524 1.5829,-7.07106 3.5356,-7.07106 1.9526,0 3.5355,3.16582 3.5355,7.07106 z" sodipodi:ry="7.0710673" sodipodi:rx="3.5355337" sodipodi:cy="-153.77579" sodipodi:cx="-1195.7175" id="path4686" style="color:black;fill:#d79348;fill-opacity:1;fill-rule:nonzero;stroke:none;stroke-width:6;marker:none;visibility:visible;display:inline;overflow:visible;enable-background:accumulate" sodipodi:type="arc"/>
        <path transform="matrix(-0.03555768,0.23661987,-0.12863751,-0.0193308,6.6886245,595.99336)" d="m -1192.182,-153.77579 c 0,3.90525 -1.5829,7.07107 -3.5355,7.07107 -1.9527,0 -3.5356,-3.16582 -3.5356,-7.07107 0,-3.90524 1.5829,-7.07106 3.5356,-7.07106 1.9526,0 3.5355,3.16582 3.5355,7.07106 z" sodipodi:ry="7.0710673" sodipodi:rx="3.5355337" sodipodi:cy="-153.77579" sodipodi:cx="-1195.7175" id="path4690" style="color:black;fill:#d79348;fill-opacity:1;fill-rule:nonzero;stroke:none;stroke-width:6;marker:none;visibility:visible;display:inline;overflow:visible;enable-background:accumulate" sodipodi:type="arc"/>
      </g>
      <path style="fill:#c6dad8;fill-opacity:1;stroke:none" d="m 98.633054,240.92973 0.933752,-2.89259 29.021254,1.46935 6.42032,2.56395 -0.97054,3.69149 -0.95046,0.35657 -2.3082,3.76338 -1.28419,1.80896 -10.86339,-1.70098 -17.48429,-2.80637 -2.317089,-1.84131 -0.307496,-2.01569 z" id="path4395" inkscape:connector-curvature="0"/>
      <path inkscape:connector-curvature="0" id="path7399" d="m 101.375,312.375 c -19.040052,0.16028 -38.337521,2.68237 -55.945776,10.25801 -2.806283,0.77727 -5.174127,1.87397 -2.281007,4.54568 3.680511,6.22035 11.091231,8.63681 17.682659,10.39274 15.082955,3.3417 30.589937,1.00261 45.869284,1.42841 8.82372,0.0627 18.00712,-1.75463 24.99559,-7.47978 5.1477,-3.94612 9.19315,-9.09298 13.273,-14.08281 -11.14421,-3.02579 -22.60999,-4.94533 -34.17991,-4.97421 -3.13707,-0.0808 -6.27606,-0.11451 -9.41384,-0.088 z" style="opacity:0.3;fill:url(#radialGradient7751);stroke:none;filter:url(#filter7421)"/>
      <path sodipodi:nodetypes="ccccc" inkscape:connector-curvature="0" id="path7357" d="m 114.69345,326.43272 -50.591533,7.16051 -1.795003,-0.16601 49.354526,-7.25967 z" style="opacity:0.3;fill:url(#linearGradient7381);stroke:none;filter:url(#filter7363)"/>
      <path transform="matrix(1.0824077,0,0,1.2073009,-5.7140022,-67.661254)" d="m 110.84374,326.43753 c 0,0.22437 -0.79749,0.40625 -1.78125,0.40625 -0.98375,0 -1.78125,-0.18188 -1.78125,-0.40625 0,-0.22437 0.7975,-0.40625 1.78125,-0.40625 0.98376,0 1.78125,0.18188 1.78125,0.40625 z" sodipodi:ry="0.40624997" sodipodi:rx="1.7812499" sodipodi:cy="326.43753" sodipodi:cx="109.06249" id="path7347" style="color:black;fill:url(#radialGradient7355);fill-opacity:1;fill-rule:nonzero;stroke:none;stroke-width:6;marker:none;visibility:visible;display:inline;overflow:visible;enable-background:accumulate" sodipodi:type="arc"/>
      <path style="color:black;fill:url(#linearGradient7344);fill-opacity:1;fill-rule:nonzero;stroke:none;stroke-width:1.89999998;marker:none;visibility:visible;display:inline;overflow:visible;enable-background:accumulate" d="m 133.14176,215.92114 -22.08223,110.4048 c 0,0 0.35297,0.37493 1.27014,0.41596 0.47273,0.0211 1.40725,-0.18696 1.40725,-0.18696 l 22.02449,-110.10782 c 0,0 -0.35754,-0.68399 -1.13845,-0.91139 -0.78086,-0.22738 -1.4812,0.38541 -1.4812,0.38541 z" id="path4397" inkscape:connector-curvature="0" sodipodi:nodetypes="ccsccsc"/>
      <path style="fill:#e24423;fill-opacity:1;stroke:none" d="m 71.234142,239.00134 4.345018,1.26748 4.99851,1.56444 5.023053,1.03185 1.73712,-0.0535 3.54611,1.23073 2.753299,1.06077 1.700342,0.74545 3.162293,-4.92499 c 0,0 1.599533,-2.86194 1.066919,-2.88645 -0.532601,-0.0245 -26.055136,-2.13341 -26.055136,-2.13341 z" id="path4399" inkscape:connector-curvature="0"/>
      <path style="fill:#ececec;stroke:none" d="m 134.51076,216.68159 -19.25933,0.24569 -17.086346,2.23277 -13.818129,5.02508 -2.740327,2.13834 -0.121355,2.6363 -0.926597,3.73146 -0.497978,2.61897 -1.61047,2.19034 3.337507,1.28589 3.818175,-0.95649 12.804876,0.58944 9.380684,1.18664 11.62301,1.66725 5.25528,0.61934 4.22944,-1.69237 5.52009,-13.33275 z" id="path4403" inkscape:connector-curvature="0"/>
      <path style="fill:#e24423;fill-opacity:1;stroke:none" d="m 134.83844,242.86323 -0.8006,2.8987 0.62285,0.96273 -0.52203,2.64468 -0.19446,1.3254 1.28864,0.99336 26.24786,3.74351 6.88722,1.11766 2.58506,-1.08192 1.12651,-1.28251 0.97056,-3.69151 z" id="path4405" inkscape:connector-curvature="0"/>
      <path style="fill:#c6dad8;fill-opacity:1;stroke:none" d="m 165.17871,255.81559 -0.0623,1.35317 0.5981,0.39737 -1.09329,5.004 10.60202,-0.005 2.74032,-0.61353 1.40414,-1.04486 -0.56821,-3.72443 -8.49787,-2.85671 z" id="path4407" inkscape:connector-curvature="0"/>
      <path style="fill:#f9f9f9;stroke:none" d="m 134.50927,216.67965 -19.25887,0.25034 -17.084973,2.22754 -13.821,5.03046 -2.742313,2.13869 -0.0089,0.19346 4.503213,0.57745 11.696167,0.15945 30.305296,1.58007 5.06557,0.80601 0.0959,0.0222 1.16009,-2.80198 0.0898,-10.18356 z" id="path4409" inkscape:connector-curvature="0"/>
      <path style="fill:#ed6324;fill-opacity:1;stroke:none" d="m 134.26559,216.62797 4.51494,0.4747 16.81071,5.84437 19.27761,10.22786 7.1869,6.20198 -0.93376,2.8926 1.29474,0.8602 -2.19513,7.10445 -2.47029,1.48753 -26.48354,-4.42155 -17.45365,-3.47214 -4.18121,-1.92713 -1.53656,-1.40507 0.58948,-4.10936 1.70986,-5.25872 1.13876,-1.54878 1.20007,-2.88034 -0.0228,-2.40288 0.64906,-2.50539 0.41953,-3.31657 z" id="path4411" inkscape:connector-curvature="0"/>
      <path style="fill:#ececec;fill-opacity:1;stroke:none" d="m 173.31158,246.015 4.81074,2.61476 3.00325,2.16795 1.03628,2.05001 -2.86803,8.74388 -4.10328,-1.91474 -1.7109,-0.32531 -1.98601,-3.16714 z" id="path4413" inkscape:connector-curvature="0" sodipodi:nodetypes="ccccccccc"/>
      <path style="fill:url(#linearGradient7333);stroke:none" d="m 134.26506,216.62435 -0.48155,1.84617 -0.42607,3.32046 -0.64424,2.50844 0.0219,2.3981 -1.12007,2.69806 1.5485,0.24754 27.87187,5.24001 15.89259,3.19034 5.04615,1.22816 -7.10322,-6.12586 -19.27882,-10.22909 -16.81046,-5.84123 -4.5165,-0.4811 z" id="path4415" inkscape:connector-curvature="0"/>
      <g transform="translate(2.4748736,-46.845822)" id="g6878">
        <g id="g6211" transform="translate(-6.7001969,5.6291278)">
          <path transform="matrix(0.58202685,0,0,0.58202685,761.20103,523.45366)" inkscape:connector-curvature="0" id="path4909" d="m -1055.2089,-253.6777 c -0.2652,0.007 -0.5197,0.0265 -0.7813,0.0625 -0.9901,0.13624 -1.8806,0.62491 -2.8124,1 -0.3112,0.1251 -0.6454,0.23229 -0.9688,0.3125 -0.4107,0.0987 -0.8436,0.1409 -1.2812,0.15625 -0.4484,0.016 -0.9275,0.0217 -1.375,0.0312 -0.6605,0.0142 -1.327,0.058 -1.9063,0.28125 -0.1961,0.0755 -0.3829,0.16164 -0.5625,0.28125 l 0,0.0312 c -0.3318,0.22313 -0.583,0.63367 -0.625,1.03125 -0.052,0.48841 0.1596,0.99336 0.4688,1.375 0.5236,0.6464 2.2522,0.42139 2.1562,1.28125 -0.078,0.70425 -2.6474,1.99171 -3.625,3.3125 -0.083,0.11179 -0.1788,0.25105 -0.2812,0.375 -0.034,0.0293 -0.2813,0.21875 -0.2813,0.21875 -0.075,0.15961 -0.1553,0.31817 -0.1875,0.46875 0,0.008 0,0.0228 0,0.0312 -0.011,0.0641 -0.01,0.12673 0,0.1875 0.01,0.062 2e-4,0.12733 0.031,0.1875 0.01,0.0126 0.024,0.0194 0.031,0.0312 0.033,0.054 0.08,0.11673 0.125,0.15625 0.01,0.005 0.025,-0.005 0.031,0 0.05,0.0406 0.095,0.0985 0.1562,0.125 0.1476,0.0647 0.3495,0.0834 0.5312,0.0937 0.3332,0.0189 0.6908,-0.0448 1,-0.0625 0.01,-5.2e-4 0.021,6e-4 0.031,0 0.6079,-0.0313 1.1727,-0.22748 1.75,-0.4375 0.01,-0.003 0.022,0.003 0.031,0 0.5864,-0.21421 1.1765,-0.4329 1.7812,-0.5625 1.266,-0.27131 2.5495,-0.52802 3.8438,-0.5625 0.3751,-0.01 0.7472,-0.0256 1.125,0 0.1888,0.0128 0.3772,0.0308 0.5624,0.0625 0.1853,0.0317 0.3839,0.0989 0.5626,0.15625 0.2574,0.0859 0.5131,0.18119 0.75,0.3125 0.099,0.0541 0.1841,0.12806 0.2812,0.1875 0.1474,0.0913 0.2932,0.18298 0.4375,0.28125 0.01,0.005 0.024,-0.005 0.031,0 0.2307,0.1575 0.455,0.31389 0.6874,0.46875 0.012,0.008 0.019,0.0233 0.031,0.0312 0.2397,0.15945 0.4649,0.30673 0.7187,0.4375 0.7899,0.40683 1.5749,0.98333 2.4063,1.28125 0.1127,0.0404 0.2284,0.0651 0.3437,0.0937 0.031,0.007 0.062,0.0248 0.094,0.0312 0.1547,0.0334 0.3083,0.0559 0.4688,0.0625 0.528,0.0216 1.1927,-0.0738 1.5624,-0.4375 0.059,-0.0579 0.1151,-0.0829 0.1563,-0.15625 0.1272,-0.22645 0.066,-0.48687 -0.031,-0.75 -0.051,-0.14522 -0.093,-0.29399 -0.1562,-0.4375 -0.041,-0.0933 -0.095,-0.19237 -0.125,-0.28125 0,-0.009 0,-0.0222 0,-0.0312 -0.031,-0.0929 -0.076,-0.19052 -0.125,-0.28125 -0.01,-0.0117 -0.024,-0.0195 -0.031,-0.0312 -0.1736,-0.30846 -0.4115,-0.57803 -0.625,-0.875 -0.08,-0.111 -0.1569,-0.20124 -0.2188,-0.3125 -0.057,-0.0992 -0.091,-0.1812 -0.125,-0.28125 -0.069,-0.20028 -0.079,-0.38576 0,-0.59375 0,-0.008 0,-0.0237 0,-0.0312 0.017,-0.0458 0.058,-0.0633 0.094,-0.0937 0.042,-0.0322 0.1013,-0.0747 0.1562,-0.0937 0,-0.008 0,-0.0237 0,-0.0312 0.1213,-0.0377 0.2602,-0.0414 0.375,-0.0625 2.2184,-0.40752 4.5448,0.63638 6.7812,0.34375 0.7224,-0.0945 1.4955,-0.23033 2.0626,-0.6875 0.289,-0.23309 0.7942,-0.64732 0.5624,-0.9375 -1.5751,-1.97208 -4.2987,-2.35216 -6.6562,-3.15625 -0.3172,-0.15284 -0.6228,-0.31706 -0.9375,-0.46875 -0.4057,-0.19555 -0.8379,-0.379 -1.25,-0.5625 -0.02,-0.0133 -0.043,-0.0177 -0.062,-0.0312 -0.012,-0.006 -0.019,-0.0257 -0.031,-0.0312 -0.1381,-0.0979 -0.2469,-0.20183 -0.375,-0.3125 -0.288,-0.24836 0.086,-0.89806 -0.2188,-1.125 -0.4936,-0.36761 -1.2351,0.31055 -1.8438,0.21875 -0.61,-0.0921 -1.1317,-0.49799 -1.6874,-0.78125 -0.021,-0.0104 -0.042,-0.0211 -0.063,-0.0312 -0.1928,-0.095 -0.3866,-0.16867 -0.5937,-0.21875 -0.3791,-0.0917 -0.7654,-0.14116 -1.1563,-0.1875 -0.3923,-0.0465 -0.794,-0.0713 -1.1874,-0.0625 l -0.031,0 z" style="opacity:0.5;fill:black;fill-opacity:1;stroke:none;filter:url(#filter5706)"/>
          <path sodipodi:nodetypes="asaaaaaaaassaaaaaaaaaaaaaa" inkscape:connector-curvature="0" id="path4692" d="m 140.24491,380.9341 c 0.56898,-0.76874 2.07473,-1.52299 2.12045,-1.93288 0.0558,-0.50047 -0.9472,-0.36038 -1.25201,-0.73661 -0.17996,-0.22212 -0.30239,-0.52905 -0.2721,-0.81332 0.0247,-0.2314 0.1629,-0.47068 0.35601,-0.60055 0.83661,-0.56262 2.01281,-0.20441 2.99136,-0.44712 0.75285,-0.18674 1.42699,-0.66564 2.19541,-0.77137 0.60868,-0.0837 1.24221,-0.0258 1.8394,0.11868 0.48215,0.11659 0.87423,0.51935 1.36472,0.59335 0.3542,0.0534 0.78076,-0.33263 1.06804,-0.11867 0.17735,0.13208 -0.0487,0.50813 0.11867,0.65269 1.46745,1.26764 4.12494,1.01226 5.4271,2.64254 0.1349,0.16889 -0.15596,0.42591 -0.32424,0.56158 -0.33005,0.26609 -0.79092,0.33279 -1.21129,0.38779 -1.30169,0.17032 -2.64233,-0.43257 -3.93352,-0.19538 -0.13365,0.0245 -0.32526,0.0365 -0.37339,0.16361 -0.18343,0.48423 0.4895,0.91823 0.65269,1.40965 0.0907,0.27321 0.31903,0.59413 0.178,0.8451 -0.17467,0.31085 -0.65244,0.37059 -1.0087,0.35601 -0.69927,-0.0286 -1.29396,-0.53777 -1.91612,-0.85826 -0.59105,-0.30446 -1.08765,-0.8056 -1.72073,-1.0087 -0.41604,-0.13347 -0.86861,-0.13031 -1.30538,-0.11867 -0.75332,0.0201 -1.50052,0.16633 -2.23737,0.32424 -0.70397,0.15086 -1.35775,0.55634 -2.07675,0.59335 -0.36696,0.0189 -0.91694,0.13414 -1.08542,-0.1924 -0.14456,-0.28019 0.21761,-0.60125 0.40517,-0.85466 z" style="fill:#d38d5f;fill-opacity:1;stroke:none"/>
          <path inkscape:connector-curvature="0" id="path4696" d="m 147.3486,376.15489 c -1.37507,-0.0718 -7.42107,5.12395 -7.42107,5.12395 l -0.005,0.005 c -0.0872,0.1858 -0.16914,0.36773 -0.0682,0.51921 0.2038,0.30576 0.71867,0.2077 1.08563,0.18881 0.719,-0.037 1.37288,-0.44178 2.07685,-0.59264 0.73685,-0.15791 1.48088,-0.3051 2.23419,-0.32516 0.43677,-0.0116 0.88986,-0.0128 1.3059,0.12062 0.63308,0.2031 1.12916,0.7025 1.72022,1.00696 0.62215,0.32049 1.22025,0.83149 1.91951,0.86011 0.35626,0.0146 0.83229,-0.0458 1.00696,-0.35663 0.14103,-0.25097 -0.0876,-0.57117 -0.17832,-0.84438 -0.16318,-0.49142 -0.839,-0.92655 -0.65557,-1.41079 0.0223,-0.0589 0.0777,-0.0932 0.14161,-0.11538 -1.10545,-1.84918 -2.44385,-3.91376 -3.0471,-4.1537 -0.0343,-0.0136 -0.071,-0.0239 -0.11538,-0.0262 z" style="fill:#deaa87;fill-opacity:1;stroke:none"/>
          <path sodipodi:nodetypes="saaacaaaas" inkscape:connector-curvature="0" id="path4701" d="m 147.41581,376.20038 c 1.02115,0.74659 2.20314,0.97752 3.27261,1.53141 0.71473,0.37017 1.35526,0.8852 2.09783,1.19576 0.21445,0.0897 0.44141,0.15449 0.67131,0.18881 0.3113,0.0465 0.94402,0.021 0.94402,0.021 0,0 -0.16039,-0.25774 -0.27272,-0.35663 -0.67964,-0.59839 -1.53386,-0.9704 -2.34956,-1.36359 -1.0212,-0.49225 -2.07767,-0.92638 -3.16773,-1.23772 -0.29408,-0.084 -0.60193,-0.2267 -0.90206,-0.16783 -0.11421,0.0224 -0.38765,0.12012 -0.2937,0.18881 z" style="fill:#deaa87;fill-opacity:1;stroke:none"/>
          <path id="path4703" d="m 146.84415,375.59725 c -0.15432,0.004 -0.30936,0.0158 -0.46153,0.0367 -0.76842,0.10572 -1.43938,0.58422 -2.19223,0.77095 -0.97621,0.24214 -2.15317,-0.11636 -2.9894,0.44055 l 0.005,0.0262 c 0,0 0.11144,0.5678 0.33565,0.69228 0.81153,0.45058 1.877,-0.0374 2.76914,-0.29369 0.30659,-0.0881 0.56803,-0.29131 0.86011,-0.41957 0.35074,-0.15402 0.69349,-0.3484 1.06989,-0.41956 0.17178,-0.0325 0.34964,0 0.52446,0 l 1.55239,0 0.27796,-0.53495 c -0.12074,-0.0611 -0.2422,-0.11537 -0.37236,-0.14685 -0.4479,-0.10831 -0.91636,-0.16434 -1.37932,-0.15209 z" style="fill:#deaa87;fill-opacity:1;stroke:none" inkscape:connector-curvature="0"/>
        </g>
        <path sodipodi:type="arc" style="color:black;fill:#ffe6d5;fill-opacity:1;fill-rule:nonzero;stroke:none;stroke-width:6;marker:none;visibility:visible;display:inline;overflow:visible;enable-background:accumulate" id="path6854" sodipodi:cx="126.88146" sodipodi:cy="389.23801" sodipodi:rx="0.17677669" sodipodi:ry="0.17677669" d="m 127.05824,389.23801 c 0,0.0976 -0.0791,0.17677 -0.17678,0.17677 -0.0976,0 -0.17677,-0.0791 -0.17677,-0.17677 0,-0.0976 0.0791,-0.17678 0.17677,-0.17678 0.0976,0 0.17678,0.0791 0.17678,0.17678 z" transform="translate(7.1594558,-2.9610095)"/>
        <path transform="translate(8.1538247,-3.7786017)" d="m 127.05824,389.23801 c 0,0.0976 -0.0791,0.17677 -0.17678,0.17677 -0.0976,0 -0.17677,-0.0791 -0.17677,-0.17677 0,-0.0976 0.0791,-0.17678 0.17677,-0.17678 0.0976,0 0.17678,0.0791 0.17678,0.17678 z" sodipodi:ry="0.17677669" sodipodi:rx="0.17677669" sodipodi:cy="389.23801" sodipodi:cx="126.88146" id="path6856" style="color:black;fill:#ffe6d5;fill-opacity:1;fill-rule:nonzero;stroke:none;stroke-width:6;marker:none;visibility:visible;display:inline;overflow:visible;enable-background:accumulate" sodipodi:type="arc"/>
        <path sodipodi:type="arc" style="color:black;fill:#ffe6d5;fill-opacity:1;fill-rule:nonzero;stroke:none;stroke-width:6;marker:none;visibility:visible;display:inline;overflow:visible;enable-background:accumulate" id="path6858" sodipodi:cx="126.88146" sodipodi:cy="389.23801" sodipodi:rx="0.17677669" sodipodi:ry="0.17677669" d="m 127.05824,389.23801 c 0,0.0976 -0.0791,0.17677 -0.17678,0.17677 -0.0976,0 -0.17677,-0.0791 -0.17677,-0.17677 0,-0.0976 0.0791,-0.17678 0.17677,-0.17678 0.0976,0 0.17678,0.0791 0.17678,0.17678 z" transform="translate(9.1481936,-4.5961939)"/>
        <path transform="translate(10.054174,-5.3033006)" d="m 127.05824,389.23801 c 0,0.0976 -0.0791,0.17677 -0.17678,0.17677 -0.0976,0 -0.17677,-0.0791 -0.17677,-0.17677 0,-0.0976 0.0791,-0.17678 0.17677,-0.17678 0.0976,0 0.17678,0.0791 0.17678,0.17678 z" sodipodi:ry="0.17677669" sodipodi:rx="0.17677669" sodipodi:cy="389.23801" sodipodi:cx="126.88146" id="path6860" style="color:black;fill:#ffe6d5;fill-opacity:1;fill-rule:nonzero;stroke:none;stroke-width:6;marker:none;visibility:visible;display:inline;overflow:visible;enable-background:accumulate" sodipodi:type="arc"/>
        <path sodipodi:type="arc" style="color:black;fill:#ffe6d5;fill-opacity:1;fill-rule:nonzero;stroke:none;stroke-width:6;marker:none;visibility:visible;display:inline;overflow:visible;enable-background:accumulate" id="path6862" sodipodi:cx="126.88146" sodipodi:cy="389.23801" sodipodi:rx="0.17677669" sodipodi:ry="0.17677669" d="m 127.05824,389.23801 c 0,0.0976 -0.0791,0.17677 -0.17678,0.17677 -0.0976,0 -0.17677,-0.0791 -0.17677,-0.17677 0,-0.0976 0.0791,-0.17678 0.17677,-0.17678 0.0976,0 0.17678,0.0791 0.17678,0.17678 z" transform="translate(11.092737,-6.0325044)"/>
        <path transform="translate(12.197591,-6.7396111)" d="m 127.05824,389.23801 c 0,0.0976 -0.0791,0.17677 -0.17678,0.17677 -0.0976,0 -0.17677,-0.0791 -0.17677,-0.17677 0,-0.0976 0.0791,-0.17678 0.17677,-0.17678 0.0976,0 0.17678,0.0791 0.17678,0.17678 z" sodipodi:ry="0.17677669" sodipodi:rx="0.17677669" sodipodi:cy="389.23801" sodipodi:cx="126.88146" id="path6864" style="color:black;fill:#ffe6d5;fill-opacity:1;fill-rule:nonzero;stroke:none;stroke-width:6;marker:none;visibility:visible;display:inline;overflow:visible;enable-background:accumulate" sodipodi:type="arc"/>
        <path sodipodi:type="arc" style="color:black;fill:#ffe6d5;fill-opacity:1;fill-rule:nonzero;stroke:none;stroke-width:6;marker:none;visibility:visible;display:inline;overflow:visible;enable-background:accumulate" id="path6866" sodipodi:cx="126.88146" sodipodi:cy="389.23801" sodipodi:rx="0.17677669" sodipodi:ry="0.17677669" d="m 127.05824,389.23801 c 0,0.0976 -0.0791,0.17677 -0.17678,0.17677 -0.0976,0 -0.17677,-0.0791 -0.17677,-0.17677 0,-0.0976 0.0791,-0.17678 0.17677,-0.17678 0.0976,0 0.17678,0.0791 0.17678,0.17678 z" transform="translate(14.120037,-6.7396111)"/>
        <path transform="translate(14.716658,-5.6568539)" d="m 127.05824,389.23801 c 0,0.0976 -0.0791,0.17677 -0.17678,0.17677 -0.0976,0 -0.17677,-0.0791 -0.17677,-0.17677 0,-0.0976 0.0791,-0.17678 0.17677,-0.17678 0.0976,0 0.17678,0.0791 0.17678,0.17678 z" sodipodi:ry="0.17677669" sodipodi:rx="0.17677669" sodipodi:cy="389.23801" sodipodi:cx="126.88146" id="path6868" style="color:black;fill:#ffe6d5;fill-opacity:1;fill-rule:nonzero;stroke:none;stroke-width:6;marker:none;visibility:visible;display:inline;overflow:visible;enable-background:accumulate" sodipodi:type="arc"/>
        <path sodipodi:type="arc" style="color:black;fill:#ffe6d5;fill-opacity:1;fill-rule:nonzero;stroke:none;stroke-width:6;marker:none;visibility:visible;display:inline;overflow:visible;enable-background:accumulate" id="path6870" sodipodi:cx="126.88146" sodipodi:cy="389.23801" sodipodi:rx="0.17677669" sodipodi:ry="0.17677669" d="m 127.05824,389.23801 c 0,0.0976 -0.0791,0.17677 -0.17678,0.17677 -0.0976,0 -0.17677,-0.0791 -0.17677,-0.17677 0,-0.0976 0.0791,-0.17678 0.17677,-0.17678 0.0976,0 0.17678,0.0791 0.17678,0.17678 z" transform="translate(15.269085,-4.5740967)"/>
        <path transform="translate(15.799415,-3.7123104)" d="m 127.05824,389.23801 c 0,0.0976 -0.0791,0.17677 -0.17678,0.17677 -0.0976,0 -0.17677,-0.0791 -0.17677,-0.17677 0,-0.0976 0.0791,-0.17678 0.17677,-0.17678 0.0976,0 0.17678,0.0791 0.17678,0.17678 z" sodipodi:ry="0.17677669" sodipodi:rx="0.17677669" sodipodi:cy="389.23801" sodipodi:cx="126.88146" id="path6872" style="color:black;fill:#ffe6d5;fill-opacity:1;fill-rule:nonzero;stroke:none;stroke-width:6;marker:none;visibility:visible;display:inline;overflow:visible;enable-background:accumulate" sodipodi:type="arc"/>
        <path sodipodi:type="arc" style="color:black;fill:#ffe6d5;fill-opacity:1;fill-rule:nonzero;stroke:none;stroke-width:6;marker:none;visibility:visible;display:inline;overflow:visible;enable-background:accumulate" id="path6874" sodipodi:cx="126.88146" sodipodi:cy="389.23801" sodipodi:rx="0.17677669" sodipodi:ry="0.17677669" d="m 127.05824,389.23801 c 0,0.0976 -0.0791,0.17677 -0.17678,0.17677 -0.0976,0 -0.17677,-0.0791 -0.17677,-0.17677 0,-0.0976 0.0791,-0.17678 0.17677,-0.17678 0.0976,0 0.17678,0.0791 0.17678,0.17678 z" transform="translate(16.21926,-2.7400386)"/>
        <path transform="translate(16.74959,-1.7014756)" d="m 127.05824,389.23801 c 0,0.0976 -0.0791,0.17677 -0.17678,0.17677 -0.0976,0 -0.17677,-0.0791 -0.17677,-0.17677 0,-0.0976 0.0791,-0.17678 0.17677,-0.17678 0.0976,0 0.17678,0.0791 0.17678,0.17678 z" sodipodi:ry="0.17677669" sodipodi:rx="0.17677669" sodipodi:cy="389.23801" sodipodi:cx="126.88146" id="path6876" style="color:black;fill:#ffe6d5;fill-opacity:1;fill-rule:nonzero;stroke:none;stroke-width:6;marker:none;visibility:visible;display:inline;overflow:visible;enable-background:accumulate" sodipodi:type="arc"/>
      </g>
      <g transform="translate(19.499999,-102.99999)" id="g7899">
        <path inkscape:connector-curvature="0" id="path4419" d="m 70.088772,421.77841 12.398106,-9.24461 -0.218884,-2.27515 -12.818695,9.00953 z" style="fill:url(#linearGradient7916);fill-opacity:1;stroke:none"/>
        <path sodipodi:nodetypes="cccc" inkscape:connector-curvature="0" id="path4421" d="m 82.356859,406.83265 -26.04712,-1.19901 14.089443,10.24817 z" style="fill:url(#radialGradient7918);fill-opacity:1;stroke:none"/>
        <path style="fill:gray;fill-opacity:1;stroke:none" d="m 48.702384,420.34339 -1.364873,-0.0628 -2.822898,-17.9109 1.074223,-0.34126 z" id="path4425" inkscape:connector-curvature="0" sodipodi:nodetypes="ccccc"/>
        <path style="fill:url(#linearGradient7920);stroke:none" d="m 33.347908,436.96162 -3.153432,-0.16367 5.080135,-31.21596 2.892121,0.13313 z" id="path4427" inkscape:connector-curvature="0" sodipodi:nodetypes="ccccc"/>
        <path style="fill:gray;stroke:none" d="m 37.977661,405.71613 8.440554,-5.08253 -2.729747,-0.12566 -8.440555,5.08253 z" id="path4429" inkscape:connector-curvature="0" sodipodi:nodetypes="ccccc"/>
        <path style="fill:url(#linearGradient7922);stroke:none" d="m 33.347908,436.96162 1.40676,-0.84709 4.304326,-29.90072 6.589214,-3.96775 3.054176,18.09733 0.951801,-0.86803 -3.23597,-18.84176 -8.403712,5.07452 z" id="path4431" inkscape:connector-curvature="0" sodipodi:nodetypes="ccccccccc"/>
        <path sodipodi:nodetypes="ccccc" inkscape:connector-curvature="0" id="path4433" d="m 38.659683,418.84307 -13.469638,-33.08611 37.138254,1.60169 7.42453,33.14717 z" style="fill:url(#radialGradient7924);fill-opacity:1;stroke:none"/>
        <path sodipodi:nodetypes="ccccccccccccccccccccccccccccccccccccccccc" inkscape:connector-curvature="0" id="path4435" d="m 58.100263,390.15798 c -7.439074,-0.22045 -15.340759,-0.88726 -25.603102,-1.02353 l -0.214572,0.0186 -0.190062,0.10523 c -1.869073,1.03548 -3.034373,3.60814 -3.175763,5.64002 l -0.0079,0.1706 0.04901,0.17323 c 2.901405,8.93934 8.360338,24.20677 8.360338,24.20677 l 0.201955,0.56495 0.597132,0.0275 30.724168,2.02694 1.16452,0.0821 -0.21712,-1.16404 c 0,0 -3.353905,-17.56651 -5.558599,-25.64502 l -0.0232,-0.11506 -0.08007,-0.11766 c -1.318756,-2.12624 -3.339817,-3.96627 -5.730842,-4.88001 l -0.139558,-0.0634 z m -0.25438,1.81198 c 1.864882,0.7427 3.567856,2.26352 4.67406,4.00501 0.122382,0.45136 0.259052,0.99861 0.386894,1.49955 l -31.86109,-1.78008 c -0.08623,-0.2629 -0.193417,-0.5563 -0.276134,-0.81057 0.140712,-1.32334 1.022068,-3.25638 2.070954,-3.92417 9.695407,0.30983 17.620773,0.59326 25.005316,1.01026 z m -26.501457,4.66432 31.790656,1.7626 c 0.496391,2.00492 1.009546,4.26626 1.52009,6.59535 l -31.079786,-1.72987 c -0.788751,-2.30145 -1.538492,-4.53451 -2.23096,-6.62808 z m 2.558728,7.55502 30.966046,1.72463 c 0.574407,2.64911 1.061986,5.05217 1.528055,7.35084 l -29.914611,-1.66198 c -0.851832,-2.42575 -1.539724,-4.38936 -2.57949,-7.41349 z m 2.907259,8.34041 29.772435,1.65545 c 0.58413,2.90016 1.067998,5.33657 1.192141,5.98186 l -28.948953,-1.90249 c -0.107861,-0.30201 -1.165946,-3.32138 -2.015623,-5.73482 z" style="font-size:medium;font-style:normal;font-variant:normal;font-weight:normal;font-stretch:normal;text-indent:0;text-align:start;text-decoration:none;line-height:normal;letter-spacing:normal;word-spacing:normal;text-transform:none;direction:ltr;block-progression:tb;writing-mode:lr-tb;text-anchor:start;baseline-shift:baseline;color:black;fill:url(#radialGradient7926);fill-opacity:1;stroke:none;stroke-width:4;marker:none;visibility:visible;display:inline;overflow:visible;enable-background:accumulate;font-family:Sans;-inkscape-font-specification:Sans"/>
        <path sodipodi:nodetypes="ccccc" inkscape:connector-curvature="0" id="path4437" d="m 25.220807,385.78266 2.064774,-0.52053 36.7313,1.25579 -1.901982,0.95763 z" style="fill:url(#linearGradient7928);fill-opacity:1;stroke:none"/>
        <path sodipodi:nodetypes="cccccccc" inkscape:connector-curvature="0" id="path4439" d="m 64.106368,386.44603 -1.885915,0.82006 7.386363,32.94111 12.757194,-9.65638 -0.879436,-4.49343 0.153308,1.02248 -11.11164,8.38806 z" style="fill:url(#radialGradient7930);fill-opacity:1;stroke:none"/>
        <path sodipodi:nodetypes="ccccc" inkscape:connector-curvature="0" id="path4443" d="m 85.099014,422.0188 -1.364873,-0.0628 -2.822898,-17.9109 1.074223,-0.34126 z" style="fill:url(#linearGradient7932);fill-opacity:1;stroke:none"/>
        <path sodipodi:nodetypes="ccccc" inkscape:connector-curvature="0" id="path4445" d="m 69.744538,438.63703 -3.153432,-0.16367 5.080135,-31.21596 2.892121,0.13313 z" style="fill:url(#linearGradient7934);fill-opacity:1;stroke:none"/>
        <path sodipodi:nodetypes="ccccc" inkscape:connector-curvature="0" id="path4447" d="m 74.374291,407.39154 8.440554,-5.08253 -2.729747,-0.12566 -8.440555,5.08253 z" style="fill:url(#linearGradient7937);stroke:none"/>
        <path sodipodi:nodetypes="ccccccccc" inkscape:connector-curvature="0" id="path4449" d="m 69.744538,438.63703 1.40676,-0.84709 4.304326,-29.90072 6.589214,-3.96775 3.054176,18.09733 0.951801,-0.86803 -3.23597,-18.84176 -8.403712,5.07452 z" style="fill:url(#linearGradient7940);stroke:none"/>
        <path style="font-size:medium;font-style:normal;font-variant:normal;font-weight:normal;font-stretch:normal;text-indent:0;text-align:start;text-decoration:none;line-height:normal;letter-spacing:normal;word-spacing:normal;text-transform:none;direction:ltr;block-progression:tb;writing-mode:lr-tb;text-anchor:start;baseline-shift:baseline;opacity:0.5;color:black;fill:url(#linearGradient7943);fill-opacity:1;stroke:none;stroke-width:0.80000001;marker:none;visibility:visible;display:inline;overflow:visible;filter:url(#filter7895);enable-background:accumulate;font-family:Sans;-inkscape-font-specification:Sans" d="m 32.8125,389.53125 -0.125,0.0937 -2,1.625 -0.09375,0.0625 -0.03125,0.125 -1.125,3 -0.0625,0.125 0.0625,0.125 8.4375,24.5625 0.09375,0.25 0.25,0.0312 30.5625,1.9375 0.53125,0.0312 -0.09375,-0.53125 c -1.786973,-8.61576 -3.493497,-17.06421 -5.59375,-25.625 l 0,-0.0625 -0.0625,-0.0625 -1.625,-2.3125 -0.03125,-0.0625 -0.0625,-0.0625 -2.875,-1.9375 -0.09375,-0.0625 -0.09375,0 -25.8125,-1.25 -0.15625,0 z m 0.25,0.8125 25.5625,1.25 2.78125,1.875 1.46875,2.0625 0,0.0625 c 2.044301,8.34008 3.664032,16.61727 5.40625,25.03125 l -29.75,-1.875 -8.3125,-24.1875 1.0625,-2.75 1.78125,-1.46875 z" id="path7881" inkscape:connector-curvature="0"/>
      </g>
      <path style="fill:#ed6324;fill-opacity:1;stroke:none" d="m 82.880008,225.46194 -7.851223,3.57297 -2.853082,4.00516 -1.195636,5.68271 4.557866,-0.45739 3.053874,-0.87164 2.261683,-1.55238 1.685341,-4.7261 0.298657,-3.58898 z" id="path4401" inkscape:connector-curvature="0" sodipodi:nodetypes="cccccccccc"/>
    </g>
  </g>
  <metadata>
    <rdf:RDF>
      <cc:Work>
        <dc:format>image/svg+xml</dc:format>
        <dc:type rdf:resource="http://purl.org/dc/dcmitype/StillImage"/>
        <cc:license rdf:resource="http://creativecommons.org/licenses/publicdomain/"/>
        <dc:publisher>
          <cc:Agent rdf:about="http://openclipart.org/">
            <dc:title>Open Clip Art Library</dc:title>
          </cc:Agent>
        </dc:publisher>
        <dc:title>Beach Scene</dc:title>
        <dc:date>2012-07-01T08:38:37</dc:date>
        <dc:description/>
        <dc:source>http://openclipart.org/detail/170985/beach-scene-by-gnokii-170985</dc:source>
        <dc:creator>
          <cc:Agent>
            <dc:title>gnokii</dc:title>
          </cc:Agent>
        </dc:creator>
        <dc:subject>
          <rdf:Bag>
            <rdf:li>bathing</rdf:li>
            <rdf:li>beach</rdf:li>
            <rdf:li>clip art</rdf:li>
            <rdf:li>clipart</rdf:li>
            <rdf:li>ocean</rdf:li>
            <rdf:li>sun</rdf:li>
            <rdf:li>sunny</rdf:li>
            <rdf:li>travel</rdf:li>
            <rdf:li>umbrella</rdf:li>
            <rdf:li>vacation</rdf:li>
            <rdf:li>vacations</rdf:li>
          </rdf:Bag>
        </dc:subject>
      </cc:Work>
      <cc:License rdf:about="http://creativecommons.org/licenses/publicdomain/">
        <cc:permits rdf:resource="http://creativecommons.org/ns#Reproduction"/>
        <cc:permits rdf:resource="http://creativecommons.org/ns#Distribution"/>
        <cc:permits rdf:resource="http://creativecommons.org/ns#DerivativeWorks"/>
      </cc:License>
    </rdf:RDF>
  </metadata>
</svg>
