<?xml version="1.0" encoding="UTF-8" standalone="no"?>
<!-- Created with Inkscape (http://www.inkscape.org/) -->

<svg
   xmlns:dc="http://purl.org/dc/elements/1.1/"
   xmlns:cc="http://creativecommons.org/ns#"
   xmlns:rdf="http://www.w3.org/1999/02/22-rdf-syntax-ns#"
   xmlns:svg="http://www.w3.org/2000/svg"
   xmlns="http://www.w3.org/2000/svg"
   xmlns:sodipodi="http://sodipodi.sourceforge.net/DTD/sodipodi-0.dtd"
   xmlns:inkscape="http://www.inkscape.org/namespaces/inkscape"
   width="114.48403"
   height="298.0625"
   id="svg3346"
   version="1.1"
   inkscape:version="0.48.4 r9939"
   sodipodi:docname="Nouveau document 2">
  <defs
     id="defs3348">
    <linearGradient
       id="SVGID_1_"
       gradientUnits="userSpaceOnUse"
       x1="0.96920002"
       y1="46.639198"
       x2="113.5581"
       y2="46.639198">
      <stop
         offset="0"
         style="stop-color:#9D231B"
         id="stop251" />
      <stop
         offset="0.0302"
         style="stop-color:#92241D"
         id="stop253" />
      <stop
         offset="0.1555"
         style="stop-color:#6F2521"
         id="stop255" />
      <stop
         offset="0.2837"
         style="stop-color:#532120"
         id="stop257" />
      <stop
         offset="0.4133"
         style="stop-color:#3F1C1E"
         id="stop259" />
      <stop
         offset="0.5452"
         style="stop-color:#30181B"
         id="stop261" />
      <stop
         offset="0.6803"
         style="stop-color:#291419"
         id="stop263" />
      <stop
         offset="0.8242"
         style="stop-color:#261318"
         id="stop265" />
    </linearGradient>
    <radialGradient
       gradientTransform="translate(342.76597,150.9817)"
       id="SVGID_2_"
       cx="81.695801"
       cy="74.743698"
       r="77.0345"
       gradientUnits="userSpaceOnUse">
      <stop
         offset="0"
         style="stop-color:#9D231B"
         id="stop270" />
      <stop
         offset="0.8297"
         style="stop-color:#261318"
         id="stop272" />
      <stop
         offset="1"
         style="stop-color:#9D231B"
         id="stop274" />
    </radialGradient>
    <linearGradient
       gradientTransform="translate(342.76597,150.9817)"
       id="SVGID_3_"
       gradientUnits="userSpaceOnUse"
       x1="62.453602"
       y1="280.439"
       x2="100.5962"
       y2="280.439">
      <stop
         offset="0"
         style="stop-color:#4D4D4D"
         id="stop293" />
      <stop
         offset="1"
         style="stop-color:#261318"
         id="stop295" />
    </linearGradient>
    <linearGradient
       gradientTransform="translate(342.76597,150.9817)"
       id="SVGID_4_"
       gradientUnits="userSpaceOnUse"
       x1="58.186001"
       y1="208.70171"
       x2="58.809502"
       y2="182.5173">
      <stop
         offset="0"
         style="stop-color:#4D4D4D"
         id="stop308" />
      <stop
         offset="1"
         style="stop-color:#1A1A1A"
         id="stop310" />
    </linearGradient>
  </defs>
  <sodipodi:namedview
     id="base"
     pagecolor="#ffffff"
     bordercolor="#666666"
     borderopacity="1.0"
     inkscape:pageopacity="0.0"
     inkscape:pageshadow="2"
     inkscape:zoom="0.6"
     inkscape:cx="57.23403"
     inkscape:cy="149.03125"
     inkscape:current-layer="layer1"
     inkscape:document-units="px"
     showgrid="false"
     fit-margin-top="0"
     fit-margin-left="0"
     fit-margin-right="0"
     fit-margin-bottom="0"
     inkscape:window-width="564"
     inkscape:window-height="418"
     inkscape:window-x="457"
     inkscape:window-y="229"
     inkscape:window-maximized="0" />
  <metadata
     id="metadata3351">
    <rdf:RDF>
      <cc:Work
         rdf:about="">
        <dc:format>image/svg+xml</dc:format>
        <dc:type
           rdf:resource="http://purl.org/dc/dcmitype/StillImage" />
        <dc:title></dc:title>
      </cc:Work>
    </rdf:RDF>
  </metadata>
  <g
     id="layer1"
     inkscape:label="Layer 1"
     inkscape:groupmode="layer"
     transform="translate(-342.76597,-150.96875)">
    <path
       style="opacity:0.7;fill:#cccccc;stroke:#ffffff;stroke-width:1.24919999"
       inkscape:connector-curvature="0"
       d="m 403.69697,418.7757 v -114.498 c 29.197,-3.611 52.37001,-50.005 52.91201,-107.102 l -0.285,0.444 c 0,4.367 -25.20401,7.907 -56.29501,7.907 -31.09,0 -56.294,-3.54 -56.294,-7.907 l -0.285,-0.415 c 0.55,57.084 23.721,103.464 52.913,107.072 v 114.498 c -35.819,20.38 -52.074,14.876 -52.074,20.009 0,5.309 24.956,9.609 55.741,9.609 30.785,0 55.74101,-4.301 55.74101,-9.609 0,-5.132 -16.25501,0.372 -52.07401,-20.008 z"
       id="path236" />
    <ellipse
       transform="translate(342.76597,150.9817)"
       style="fill:none;stroke:#999999;stroke-width:0.50730002"
       sodipodi:ry="6.4070001"
       sodipodi:rx="52.097"
       sodipodi:cy="8.5129995"
       sodipodi:cx="57.264999"
       cx="57.264999"
       cy="8.5129995"
       rx="52.097"
       ry="6.4070001"
       id="ellipse238"
       d="M 109.362,8.5129995 C 109.362,12.051488 86.037378,14.92 57.264999,14.92 28.492621,14.92 5.1679993,12.051488 5.1679993,8.5129995 c 0,-3.5384884 23.3246217,-6.407 52.0969997,-6.407 28.772379,0 52.097001,2.8685116 52.097001,6.407 z" />
    <ellipse
       transform="translate(342.76597,150.9817)"
       style="fill:none;stroke:#999999;stroke-width:1.24510002"
       sodipodi:ry="7.9070001"
       sodipodi:rx="56.293999"
       sodipodi:cy="46.639"
       sodipodi:cx="56.917"
       cx="56.917"
       cy="46.639"
       rx="56.293999"
       ry="7.9070001"
       id="ellipse240"
       d="m 113.211,46.639 c 0,4.366915 -25.203683,7.907 -56.294,7.907 -31.090317,0 -56.2939989,-3.540085 -56.2939989,-7.907 0,-4.366916 25.2036819,-7.907 56.2939989,-7.907 31.090317,0 56.294,3.540084 56.294,7.907 z" />
    <ellipse
       transform="translate(342.76597,150.9817)"
       style="fill:none;stroke:#999999;stroke-width:1.09930003"
       sodipodi:ry="7.9060001"
       sodipodi:rx="43.886002"
       sodipodi:cy="113.411"
       sodipodi:cx="57.362999"
       cx="57.362999"
       cy="113.411"
       rx="43.886002"
       ry="7.9060001"
       id="ellipse242"
       d="m 101.249,113.411 c 0,4.36637 -19.648432,7.906 -43.886001,7.906 -24.237569,0 -43.886002,-3.53963 -43.886002,-7.906 0,-4.36636 19.648433,-7.906 43.886002,-7.906 24.237569,0 43.886001,3.53964 43.886001,7.906 z" />
    <ellipse
       transform="translate(342.76597,150.9817)"
       style="fill:none;stroke:#999999;stroke-width:0.88959998"
       sodipodi:ry="6.3979998"
       sodipodi:rx="35.514"
       sodipodi:cy="130.077"
       sodipodi:cx="57.362999"
       cx="57.362999"
       cy="130.077"
       rx="35.514"
       ry="6.3979998"
       id="ellipse244"
       d="m 92.876999,130.077 c 0,3.53351 -15.900159,6.398 -35.514,6.398 -19.613841,0 -35.514,-2.86449 -35.514,-6.398 0,-3.53352 15.900159,-6.398 35.514,-6.398 19.613841,0 35.514,2.86448 35.514,6.398 z" />
    <ellipse
       transform="translate(342.76597,150.9817)"
       style="fill:none;stroke:#999999;stroke-width:1.23339999"
       sodipodi:ry="7.9070001"
       sodipodi:rx="55.243999"
       sodipodi:cy="67.078003"
       sodipodi:cx="57.363998"
       cx="57.363998"
       cy="67.078003"
       rx="55.243999"
       ry="7.9070001"
       id="ellipse246"
       d="m 112.608,67.078003 c 0,4.366915 -24.733583,7.907 -55.244002,7.907 -30.510418,0 -55.2439991,-3.540085 -55.2439991,-7.907 0,-4.366916 24.7335811,-7.907 55.2439991,-7.907 30.510419,0 55.244002,3.540084 55.244002,7.907 z" />
    <ellipse
       transform="translate(342.76597,150.9817)"
       style="opacity:0.51000001;fill:#cccccc"
       sodipodi:ry="7.9070001"
       sodipodi:rx="53.52"
       sodipodi:cy="8.5129995"
       sodipodi:cx="57.264"
       cx="57.264"
       cy="8.5129995"
       rx="53.52"
       ry="7.9070001"
       id="ellipse248"
       d="M 110.784,8.5129995 C 110.784,12.879915 86.82228,16.42 57.264,16.42 27.70572,16.42 3.7439995,12.879915 3.7439995,8.5129995 3.7439995,4.146084 27.70572,0.60599947 57.264,0.60599947 c 29.55828,0 53.52,3.54008453 53.52,7.90700003 z" />
    <ellipse
       transform="translate(342.76597,150.9817)"
       style="fill:url(#SVGID_1_)"
       sodipodi:ry="7.9070001"
       sodipodi:rx="56.293999"
       sodipodi:cy="46.639"
       sodipodi:cx="57.264"
       cx="57.264"
       cy="46.639"
       rx="56.293999"
       ry="7.9070001"
       id="ellipse267"
       d="m 113.558,46.639 c 0,4.366915 -25.203683,7.907 -56.294,7.907 -31.090317,0 -56.29399878,-3.540085 -56.29399878,-7.907 0,-4.366916 25.20368178,-7.907 56.29399878,-7.907 31.090317,0 56.294,3.540084 56.294,7.907 z" />
    <path
       style="fill:url(#SVGID_2_)"
       inkscape:connector-curvature="0"
       d="m 403.71697,304.2747 c 0.445,-0.056 0.889,-0.12 1.33,-0.195 0.01,-0.002 0.021,-0.004 0.031,-0.006 0.446,-0.076 0.893,-0.162 1.336,-0.259 0.002,0 0.004,0 0.005,-0.001 25.199,-5.474 45.39001,-42.924 49.45301,-90.87 10e-4,-0.01 0.002,-0.021 0.003,-0.031 0.07,-0.836 0.136,-1.675 0.197,-2.518 0.002,-0.031 0.004,-0.061 0.006,-0.092 0.061,-0.83 0.115,-1.664 0.165,-2.5 0.002,-0.039 0.004,-0.077 0.007,-0.116 0.049,-0.835 0.094,-1.673 0.133,-2.513 0.002,-0.034 0.004,-0.068 0.005,-0.102 0.04,-0.847 0.074,-1.696 0.104,-2.548 10e-4,-0.025 0.002,-0.05 0.003,-0.075 0.06,-1.747 0.099,-3.504 0.115,-5.273 l -0.285,0.444 c 0,4.367 -25.20501,7.907 -56.29501,7.907 -31.09,0 -56.295,-3.54 -56.295,-7.907 l -0.285,-0.415 c 0.008,0.869 0.022,1.736 0.041,2.6 10e-4,0.033 0.002,0.065 0.002,0.098 0.019,0.841 0.043,1.68 0.071,2.516 0.002,0.055 0.004,0.109 0.006,0.164 0.028,0.826 0.062,1.65 0.101,2.471 0.003,0.06 0.005,0.119 0.008,0.178 0.039,0.815 0.082,1.628 0.13,2.438 0.004,0.065 0.008,0.132 0.012,0.197 0.049,0.81 0.103,1.617 0.159,2.421 0.005,0.059 0.009,0.118 0.014,0.176 0.059,0.812 0.122,1.623 0.19,2.43 0.003,0.044 0.007,0.089 0.011,0.134 0.07,0.823 0.145,1.644 0.225,2.46 0.002,0.02 0.004,0.038 0.006,0.057 1.325,13.568 3.947,26.251 7.606,37.549 0.004,0.011 0.008,0.022 0.011,0.034 0.226,0.694 0.455,1.384 0.688,2.068 0.005,0.014 0.01,0.028 0.015,0.042 0.233,0.684 0.47,1.361 0.711,2.034 0.004,0.012 0.009,0.023 0.013,0.036 0.242,0.678 0.489,1.35 0.739,2.016 10e-4,0.002 10e-4,0.003 0.002,0.004 4.3,11.446 9.72,21.218 15.949,28.715 0,0 0.001,0 0.001,10e-4 0.365,0.438 0.732,0.87 1.104,1.294 0.003,0.003 0.006,0.006 0.008,0.01 7.065,8.072 15.118,13.262 23.725,14.729 0.003,0 0.007,10e-4 0.01,0.002 0.448,0.076 0.898,0.142 1.35,0.197 1.215,0.151 2.44,0.236 3.676,0.236 1.234,10e-4 2.464,-0.085 3.683,-0.237 z"
       id="path276" />
    <path
       style="opacity:0.7;fill:#cccccc"
       inkscape:connector-curvature="0"
       d="m 400.02897,205.5277 c 31.091,0 56.29501,-3.54 56.29501,-7.907 l 0.285,-0.444 c 0.007,-0.681 0.014,-1.361 0.014,-2.045 0,-12.477 -1.083,-24.463 -3.074,-35.633 -0.013,4.366 -23.97001,7.903 -53.52001,7.903 -29.548,0 -53.506,-3.538 -53.519,-7.903 -1.99,11.17 -3.074,23.156 -3.074,35.633 0,0.693 0.007,1.384 0.014,2.074 l 0.285,0.415 c 0,4.367 25.204,7.907 56.294,7.907 z"
       id="path278" />
    <path
       style="fill:none;stroke:#999999;stroke-width:1.21399999"
       inkscape:connector-curvature="0"
       d="m 456.60898,197.1767 c 0.007,-0.681 0.014,-1.361 0.014,-2.045 0,-12.476 -1.083,-24.462 -3.074,-35.632 0,-10e-4 0.001,-0.003 0.001,-0.004 0,-4.367 -23.96201,-7.906 -53.52101,-7.906 -29.557,0 -53.52,3.54 -53.52,7.906 0,0.001 0.001,0.003 0.001,0.004 -1.99,11.17 -3.074,23.156 -3.074,35.632 0,0.693 0.007,1.384 0.014,2.074 0.55,57.084 23.721,103.464 52.913,107.072 v 114.498 c -35.819,20.381 -52.074,14.877 -52.074,20.01 0,5.309 24.956,9.609 55.741,9.609 30.785,0 55.74101,-4.301 55.74101,-9.609 0,-5.133 -16.25501,0.371 -52.07401,-20.01 v -114.498 c 29.197,-3.611 52.37001,-50.004 52.91201,-107.101 z"
       id="path280" />
    <path
       style="fill:none;stroke:#999999;stroke-width:1.24919999"
       inkscape:connector-curvature="0"
       d="M 435.64297,280.1287"
       id="path282" />
    <path
       style="fill:none;stroke:#999999;stroke-width:1.24919999"
       inkscape:connector-curvature="0"
       d="m 403.69697,304.2777 c 0,0 -2.235,0 -3.193,0"
       id="path284" />
    <path
       style="opacity:0.7;fill:#ffffff"
       inkscape:connector-curvature="0"
       d="m 452.85598,188.8117 c -0.059,-1.736 -0.145,-3.393 -0.253,-4.965 -0.593,-8.599 -1.826,-14.607 -2.433,-16.371 -8.32501,1.772 -13.35301,2.403 -13.35301,2.403 0.328,0.595 1.654,4.955 2.952,11.591 0.555,2.829 1.104,6.069 1.568,9.612 0.506,3.845 0.91,8.043 1.117,12.447 0.136,2.901 0.184,5.89 0.117,8.927 3.94601,-0.571 7.14201,-1.248 9.35201,-1.999 0.193,-1.601 0.356,-3.18 0.489,-4.733 0.527,-6.123 0.611,-11.845 0.444,-16.912 z"
       id="path286" />
    <path
       style="opacity:0.47000002;fill:#ffffff"
       inkscape:connector-curvature="0"
       d="m 376.18697,287.0267 c -1.534,-1.824 -3.087,-3.979 -4.604,-6.613 -1.006,-1.749 -1.997,-3.713 -2.956,-5.932 -1.5,-0.303 -2.831,-0.635 -3.974,-0.987 1.207,2.776 2.549,5.405 4.034,7.849 1.057,1.738 2.188,3.378 3.397,4.904 3.902,4.926 8.621,8.669 14.336,10.626 -2.731,-2.81 -6.423,-5.315 -10.233,-9.847 z"
       id="path288" />
    <path
       style="fill:none;stroke:#858585;stroke-width:1.24919999"
       inkscape:connector-curvature="0"
       d="m 362.29897,442.8307 c 7.222,1.242 18.477,2.229 36.83,2.229 41.333,0 52.33301,-6.667 52.33301,-6.667"
       id="path290" />
    <path
       style="fill:url(#SVGID_3_)"
       inkscape:connector-curvature="0"
       d="m 423.02797,432.6047 c -6.48,-2.93 -15.809,-7.889 -17.809,-11.175 0,0 20.671,9.494 33.242,13.963 7.49901,2.666 6.26601,3.733 -2.834,5.833 -4.951,1.142 -0.433,-3.121 -12.599,-8.621 z"
       id="path297" />
    <path
       style="fill:none;stroke:#858585;stroke-width:1.24919999"
       inkscape:connector-curvature="0"
       d="m 369.87497,434.4567 c -1.179,0.481 -2.201,0.881 -3.015,1.179 -8.611,3.156 -11.295,4.161 -11.295,8.001"
       id="path299" />
    <path
       style="fill:none;stroke:#858585;stroke-width:1.24919999"
       inkscape:connector-curvature="0"
       d="m 383.68497,428.1597 c -5.04,2.531 -10.169,4.809 -13.811,6.297"
       id="path301" />
    <path
       style="fill:none;stroke:#858585;stroke-width:1.24919999"
       inkscape:connector-curvature="0"
       d="m 398.90197,306.7127 c 0,0 0.226,104.763 0.226,111.763 -2.921,4.037 -9.111,6.504 -15.442,9.685"
       id="path303" />
    <path
       style="opacity:0.7;fill:#ffffff"
       inkscape:connector-curvature="0"
       d="m 358.74597,444.6557 c 0,-3.84 2.684,-4.845 11.295,-8.001 0.813,-0.298 1.836,-0.697 3.015,-1.179 l 13.811,-6.297 c 6.331,-3.181 12.521,-5.647 15.442,-9.685 0,0 -5.365,10.146 -14.615,13.646 -9.25,3.5 -18.75,8.25 -18.75,13 l -10.198,-1.484 z"
       id="path305" />
    <path
       style="fill:url(#SVGID_4_)"
       inkscape:connector-curvature="0"
       d="m 402.77297,373.6737 c 0,0.994 -0.63,1.802 -1.405,1.802 l 0,0 c -0.776,0 -1.406,-0.808 -1.406,-1.802 v -62.896 c 0,-0.994 0.63,-1.802 1.406,-1.802 l 0,0 c 0.775,0 1.405,0.808 1.405,1.802 v 62.896 z"
       id="path312" />
  </g>
</svg>
