<?xml version="1.0" encoding="UTF-8" standalone="no"?>
<!-- Created with Inkscape (http://www.inkscape.org/) -->
<svg id="svg6599" xmlns:rdf="http://www.w3.org/1999/02/22-rdf-syntax-ns#" xmlns="http://www.w3.org/2000/svg" height="151" width="169" version="1.1" xmlns:cc="http://creativecommons.org/ns#" xmlns:xlink="http://www.w3.org/1999/xlink" xmlns:dc="http://purl.org/dc/elements/1.1/">
 <defs id="defs6601">
  <filter id="filter10006" color-interpolation-filters="sRGB">
   <feGaussianBlur id="feGaussianBlur10008" stdDeviation="1.2652113"/>
  </filter>
  <filter id="filter5184" color-interpolation-filters="sRGB">
   <feGaussianBlur id="feGaussianBlur5186" stdDeviation="2.3536243"/>
  </filter>
  <filter id="filter10101" color-interpolation-filters="sRGB">
   <feGaussianBlur id="feGaussianBlur10103" stdDeviation="4.9801895"/>
  </filter>
  <linearGradient id="linearGradient4077" y2="998.24" gradientUnits="userSpaceOnUse" x2="829.44" gradientTransform="matrix(-1.018011,0,0,1.018011,919.48662,-899.0573)" y1="998.24" x1="819.89">
   <stop id="stop10073" stop-color="#cbcbcb" offset="0"/>
   <stop id="stop10075" stop-color="#868686" offset="1"/>
  </linearGradient>
  <linearGradient id="linearGradient4079" y2="374.97" gradientUnits="userSpaceOnUse" x2="1257.6" gradientTransform="matrix(1.018011,0,0,1.018011,-1252.0906,-294.10351)" y1="384.49" x1="1257.6">
   <stop id="stop10016" stop-color="#a0a0a0" offset="0"/>
   <stop id="stop10027" stop-color="#c4c4c4" offset="0.15578"/>
   <stop id="stop10022" stop-color="#b8b8b8" offset="0.31156"/>
   <stop id="stop10025" stop-color="#ebebeb" offset="0.94505"/>
   <stop id="stop10018" stop-color="#b6b6b6" offset="1"/>
  </linearGradient>
  <radialGradient id="radialGradient4081" gradientUnits="userSpaceOnUse" cy="357.89" cx="286.07" gradientTransform="matrix(0.26644599,-0.15383266,-0.15383266,-0.26644599,133.13665,169.14824)" r="60">
   <stop id="stop4812" stop-color="#f9f9f9" stop-opacity="0.67253521" offset="0"/>
   <stop id="stop4814" stop-color="#f9f9f9" stop-opacity="0" offset="1"/>
  </radialGradient>
  <radialGradient id="radialGradient4083" gradientUnits="userSpaceOnUse" cy="435.8" cx="300.68" gradientTransform="matrix(0.26644599,-0.15383266,-0.15383266,-0.26644599,133.13665,169.14824)" r="60">
   <stop id="stop4824-7" stop-color="#4d4d4d" offset="0"/>
   <stop id="stop4826-8" stop-color="#4d4d4d" stop-opacity="0" offset="1"/>
  </radialGradient>
  <linearGradient id="linearGradient4085" y2="455.22" spreadMethod="reflect" gradientUnits="userSpaceOnUse" x2="314.83" gradientTransform="matrix(0.21624602,-0.12484969,-0.12484969,-0.21624602,120.97655,154.40544)" y1="379.72" x1="314.83">
   <stop id="stop4056" stop-color="#6d674f" offset="0"/>
   <stop id="stop4062" stop-color="#BBB" offset="0.69708"/>
   <stop id="stop4058" stop-color="#6d674f" offset="1"/>
  </linearGradient>
  <linearGradient id="linearGradient4087" y2="360.72" spreadMethod="reflect" gradientUnits="userSpaceOnUse" x2="318.99" gradientTransform="matrix(0.21624602,-0.12484969,-0.12484969,-0.21624602,129.90059,148.38814)" y1="465.22" x1="322.99">
   <stop id="stop4900" stop-color="#6d674f" offset="0"/>
   <stop id="stop4902-0" stop-color="#BBB" offset="0.57397"/>
   <stop id="stop4904-7" stop-color="#6d674f" offset="1"/>
  </linearGradient>
  <linearGradient id="linearGradient4089" y2="964.73" gradientUnits="userSpaceOnUse" x2="837.84" gradientTransform="matrix(-1.018011,0,0,1.018011,919.74112,-899.0573)" y1="947.4" x1="807.75">
   <stop id="stop10081" stop-color="#5a5a5a" offset="0"/>
   <stop id="stop10083" stop-color="#1e1e1e" offset="1"/>
  </linearGradient>
  <linearGradient id="linearGradient4091" y2="415.05" gradientUnits="userSpaceOnUse" x2="155.72" gradientTransform="matrix(1,0,0,-1,-18,678.02678)" y1="373.08" x1="154.67">
   <stop id="stop9974" stop-color="#FFF" stop-opacity="0.08235294" offset="0"/>
   <stop id="stop9976" stop-color="#FFF" stop-opacity="0.88627452" offset="0.48605"/>
   <stop id="stop9978" stop-color="#FFF" stop-opacity="0.08235294" offset="1"/>
  </linearGradient>
 </defs>
 <metadata id="metadata6604">
  <rdf:RDF>
   <cc:Work rdf:about="">
    <dc:format>image/svg+xml</dc:format>
    <dc:type rdf:resource="http://purl.org/dc/dcmitype/StillImage"/>
    <dc:title/>
   </cc:Work>
  </rdf:RDF>
 </metadata>
 <g id="g4059" transform="translate(-0.40346473,1.6999245e-4)">
  <path id="path6338" d="m84.826,83.149,0,78.385-9.0161,0.3599-0.19275-79.465" stroke="#575757" stroke-miterlimit="4" stroke-dasharray="none" stroke-width="0.50900549" fill="url(#linearGradient4077)"/>
  <path id="path6340" style="direction:ltr;baseline-shift:baseline;block-progression:tb;text-indent:0;color:#000000;enable-background:accumulate;text-transform:none;text-align:start;" d="m16.156,96.809,1.8133,3.3085s-1.4472,0.78902-2.9586,1.9406-2.856,2.8276-2.9586,3.3404c-0.2579,1.2896-2.3447,13.429-4.2947,24.973s-3.8175,22.682-3.8175,22.682l-3.6903-0.6045s1.8671-11.168,3.8175-22.714c1.9505-11.547,3.9286-23.27,4.2947-25.1,0.52152-2.6076,2.5934-4.2225,4.3584-5.5672s3.4358-2.2587,3.4358-2.2587z" stroke="#000" stroke-miterlimit="4" stroke-dasharray="none" stroke-width="0.50900549" fill="#2f2f2f"/>
  <rect id="rect6342" stroke-linejoin="round" ry="2.4226" stroke-dasharray="none" transform="matrix(-0.85599768,0.51697966,0.51697966,0.85599768,0,0)" height="9.2359" width="28.442" stroke="#b6b6b6" stroke-linecap="square" stroke-miterlimit="4" y="87.779" x="10.873" stroke-width="0.62404" fill="url(#linearGradient4079)"/>
  <path id="path6344" d="m166.93,9.2329c-5.0976-8.8292-16.388-11.854-25.217-6.7568-8.8292,5.0976-11.854,16.387-6.7568,25.217,5.0976,8.8292,16.388,11.854,25.217,6.7568,8.8292-5.0976,11.854-16.387,6.7568-25.217z" fill-rule="nonzero" fill="#aea694"/>
  <path id="path6346" d="m166.93,9.2329c-5.0976-8.8292-16.388-11.854-25.217-6.7568-8.8292,5.0976-11.854,16.387-6.7568,25.217,5.0976,8.8292,16.388,11.854,25.217,6.7568,8.8292-5.0976,11.854-16.387,6.7568-25.217z" fill-rule="nonzero" fill="url(#radialGradient4081)"/>
  <path id="path6348" d="m166.93,9.2329c-5.0976-8.8292-16.388-11.854-25.217-6.7568-8.8292,5.0976-11.854,16.387-6.7568,25.217,5.0976,8.8292,16.388,11.854,25.217,6.7568,8.8292-5.0976,11.854-16.387,6.7568-25.217z" fill-rule="nonzero" fill="url(#radialGradient4083)"/>
  <path id="path6350" opacity="0.6302817" d="m161.26,32.949zm-0.86819,0.21293zm3.3673-2.3766zm-1.1234,0.50441c-1.2738,0.51717,0.2252-0.94614,0.19454-0.17821l-0.19454,0.17821zm-7.6546,4.3924zm6.0584-3.7862c-1.5292,0.8806,1.0703-1.4563,0.27891-0.17046l-0.27892,0.17047,0.00001-0.00001zm-5.668,3.0111c-1.1615,0.41447-0.56429-1.2803,0.29116-0.24884l-0.0744,0.10694-0.21676,0.1419h0.00001zm-2.0468,1.1367c-0.63313-0.0381-2.1075-1.484-0.46557-0.90421,0.84011-0.18139,1.4544-0.0838,0.3573,0.4982-0.54874,0.091,0.0707,0.22432,0.10827,0.40601zm10.711-6.184c0.17647-0.89663-1.1903,0.49574-0.68741-0.67796,0.49886-0.57379,1.2105,0.17068,0.68741,0.67796zm-12.556,7.1862zm7.9158-4.6423c-1.0798,0.27941-2.5371-2.626-0.51246-1.8396,0.88784,0.44159-1.1487,0.41693,0.30075,0.75496-0.0762,0.29622-0.63737,1.1754,0.29989,0.45703,0.72356-0.80456,0.44715,0.50328-0.0882,0.62757zm3.0173-1.8592zm-10.11,5.7738zm13.056-7.6007c-1.2207,0.33772-0.0174-0.62036-0.00001,0h0.00001zm0.98578-0.75836zm-5.6422,3.1494zm1.0731-0.9349c-1.1909-0.33534,1.3253-1.3784,0.24795-0.17919l-0.24795,0.17919zm-8.3323,4.5764c-2.0221-0.28131,1.3328-1.5348,0.9163-0.65776-0.30744,0.21645-0.59235,0.46525-0.9163,0.65776zm-3.7042,2.1206c-0.11627,0.004,0.24126-0.80512-0.56735-0.30155-0.91482-1.2562,0.65408-0.23118,1.056-0.47426-0.83445-1.0546-0.45375-1.8039,0.69619-1.3136-0.7412-0.86898,1.5355-0.9158-0.1611-1.0525-1.3954,0.12426,0.93271-1.0034,0.11106-1.2272-0.544,0.63902-2.5375,1.6692-2.4574,0.23823,0.50181-0.34617,3.1009-1.8506,1.165-1.1631-0.87465,0.40422-2.3914,1.0215-1.4866,1.7718-0.59849,0.68597-3.1367,1.4032-2.827-0.10276,1.4157-0.97443-0.57554,0.41169-0.59985-0.7893-0.46101,2.0304-2.0515-1.2403-2.025-0.76285-0.30313,0.70395-0.47205,2.1846,0.58672,1.7274-0.69559-1.2063,2.3612,0.42297,0.53849,0.83311-0.93047,0.20192,0.3366,2.1328-0.87276,0.91255-1.3893-1.4356-2.5706-3.0554-3.6478-4.7312,0.90754-0.82856-1.8298-0.65658-1.6116-2.084-0.72548-0.85644,0.53831,2.5784-0.0873,2.387-1.7092-2.9605-3.4185-5.921-5.1278-8.8815,0.65531,0.70882,1.3205,0.97858,0.7324-0.16534-0.3333-1.1921-1.1707-2.6434-0.99294-3.7703,1.1162,0.76458-0.12208-1.7988,0.067-2.3788-0.37256-0.79568,0.28368-2.8078,1.0908-2.0564,0.24863-0.97539,0.65797-1.0777,0.43043-2.0155,0.30832-0.6858,1.4027,0.97189,0.81943-0.42498-0.31308-1.4892,1.6717-0.26014,0.96909-1.5243,0.49578-0.79357,1.3033-1.1927,1.8686-1.9564,0.49192,0.64919,1.4483,1.038,1.909,0.0163,0.79999,0.79202,1.4838,2.7916-0.19622,2.9665,1.5285,0.3288,1.5199-1.5456,2.8397-1.9639,0.87167-0.76412,1.8064-1.0889,1.9536,0.37443,1.6071,3.9429,3.7595,7.6414,5.9182,11.303,0.30441,0.86544,0.40572-0.64257,0.31801-0.70045-1.0173-0.30449-1.3474-1.6968-1.9597-2.5423-0.20658-0.50524-1.0844-1.2734-0.0738-1.3018,0.77886-0.27875,1.7722-0.66247,1.4281,0.52636,1.544-1.3747-1.2174-1.4766-2.0438-0.80745-0.91861-1.2622-1.2828-2.5521-2.2152-3.8573-0.16665-0.51732-0.9378-1.2992,0.0449-1.3134,1.3645-0.4181,0.0312-0.55711-0.55819-0.28487-0.75323-0.55013-0.49393-2.4969-0.66129-2.4303-0.97499,0.38453-0.19064-1.805,0.63565-0.65622,0.80055,0.0465-1.1063-1.1554,0.33064-0.67115,0.20778-1.4001-2.246,1.5198-2.0115-0.5665-0.11131-1.0213-0.92621-2.959,0.75843-2.6595-0.53435,1.3011,1.7738-1.3297,1.6788-0.17784-1.6823,0.69191,1.3504,0.13152,0.66598-0.47595,0.41015-0.28749,1.2941-1.0281,0.98162-0.14425,1.0899,0.23761,2.525-0.43981,3.3358,0.0402-1.6254,0.28105,1.7986,0.35342,0.63962,1.3872,1.4835-0.41384,2.7455,1.7835,1.5459,2.1671,0.75483-0.10526,1.7432-0.83895,2.1901-0.46085-1.1707-0.37155-2.0693-1.3268-2.7509-2.1844,0.97745,0.2622,1.3911,0.044,0.23309-0.32441-1.3373,0.86119-2.1915-2.1132-0.49213-0.74978-0.0181,0.72167,1.9933-0.67568,1.4934,0.50342-1.6866-0.31579,2.4938,0.99559,0.61377,1.7738,0.41399,0.0242,1.5138-0.67014,2.0312-0.28973-1.2386-0.43212-2.7179-1.8191-3.1676-2.5682,0.97977,0.12006,1.36-0.40176,0.19944-0.34913-0.56069,0.20851-1.3474,1.0841-1.6059,0.0683,1.1282-0.38989,3.1497-0.63068,2.7322,0.87595,1.3478,0.18775,0.31914,1.8152,1.6562,0.79021,1.2713,0.4711,0.31923-0.50814-0.33719-0.51774,0.40211-0.8746,2.893-0.38251,1.0466-0.39658,0.50391,0.68248,0.1984,0.90577,1.087,1.4211,0.20227,1.6266-1.2685-0.10215-2.106-0.11925,0.99127,0.17974,2.2616,2.0924,0.69534,2.0621-0.51657-0.7808-2.091-1.3467-0.6108-0.22601,1.3416,1.6172-1.1735,2.1744-1.7158,0.69146,0.84825,0.90078,0.64403,3.175-0.94499,2.7774-0.71822-1.1391-0.37153-2.0445,0.92852-1.4794-1.1331-0.25559-1.9722-1.1046-2.3467-2.198-0.77513-0.85486,1.5362-0.25274,0.13506-0.65539-0.88358-0.38178-2.3508,1.0704-0.74595,0.85138,2.223,0.75967,0.0386,4.1248-1.0441,1.6505,0.003,0.56057,0.85937,2.2986,0.0662,2.9735,0.77152,0.38126,2.7864-1.2226,0.83188-1.0078-0.32704-1.3948,2.6677-1.3851,1.8169,0.44777,0.93376-0.0461,2.7523-0.79654,2.3095,1.1968,1.2096-0.38067,2.2202-0.14938,1.9572,1.3665,0.96339,0.14402,2.2077,0.17537,1.7378,1.6308,0.63688-0.27014,0.10645-1.752,1.1049-1.914-0.89169-0.80647-2.9927,0.97159-2.5675-1.1382-0.0732-0.91451,1.4337-0.34932,0.0951-0.91885-0.1982-2.0873,2.4784,0.20279,1.4421,0.84992-0.54356,0.35654,1.3843,0.0325,1.9377-0.0397,1.0465,0.40062,1.1808-0.36457,0.14555-0.6368-0.14327-1.0482,1.7394-0.9524,1.9979-0.70625-0.76252-0.48504-0.77009-1.6932,0.10502-0.67039,0.87247,0.53111,0.6371,2.992-0.39875,1.8278,0.0241-0.59336-0.69407-1.8522-0.6284-0.67044,0.70635,0.88119,0.33433,1.528-0.002,2.2293-0.89929,0.94609-1.394-2.3488-1.2272-0.47607-0.33583,1.0289-0.13785,1.9673,0.86825,1.195,1.0771-0.005,1.0052,1.8489,0.27894,1.9195,0.4551,0.68513,0.71052,0.14316,1.5021,0.2198,0.38472,1.0011,0.0748,2.153,1.2201,2.4897,0.0233,1.5825,0.55853,0.67563,0.36604-0.37974-0.0412-1.2408,0.83922,1.3139,0.62863-0.10568-0.74416-0.56429-2.082-0.21602-1.7116-1.6762-0.23082-1.2716,1.1847-2.385,1.9864-1.3747,0.0125-0.6039-0.76546-1.1216-0.14126-1.7787-0.25651-0.66773-1.4521-2.1155-0.67605-0.57459,0.20777,0.61673-0.74732,0.80434,0.15588,0.95349-0.74909,2.4385-1.7964-1.7135-1.1524-1.2111,1.513,0.68919-1.0476-0.89833,0.18244-0.97933,0.62407-0.19204,2.0538,0.53314,0.99081-0.49996-0.97334-1.7968,2.4695,1.8707,0.62735,0.43915,0.20876,1.243,0.39279,2.3684,1.4106,2.9775,0.3522,0.88134-0.55499,1.733-0.64169,0.33929-0.0486-0.72049-0.9467-1.7817-0.48613-0.41606,0.59528,0.80926-0.44234,2.4796,1.0595,1.5545,0.79723-1.6684,1.894,1.0414,1.4055,1.2481-1.103,0.15841,0.0576,2.5484,0.27045,2.7001-1.1165,0.31215,0.9946,1.4328-0.0464,1.3242-1.0661,0.31407-0.23189-2.4465-1.4862-1.5923-0.79755-0.0175,0.69673-0.61142-0.60421-0.54579-0.17834-0.52102-0.771-3.1154,0.14291-1.3955,0.64318-0.57539-0.64551-1.4966-1.1566-0.87445-0.11056-0.6709-0.71974-3.1695-0.55557-1.1937,0.54043,0.99515-0.93187,1.2336,0.22644,1.6372,1.3534,0.2365,1.1411,3.412-0.76976,3.1925-0.41805,0.0157-0.39636-0.68402-0.30007,0.34283,1.5571-0.70472,1.2462,2.6723-0.10979,2.9202-1.1827,0.21302-0.27742-2.7227,0.23001-1.4138,0.89771-1.4077-2.5604-0.29689-1.4163-2.102-0.0373-0.65401,1.8395-0.36902,0.51479-1-1.0452,0.0693-2.0767-0.0936-1.4508-1.4599-0.0549-1.3157,1.0875,0.67565,0.56055-0.52145-1.137,0.10079-2.911-0.71337-1.449-1.801,0.66132-1.004-1.8276-0.24785-2.4977,0.0905,1.268-0.31723,1.9826,0.54967,1.505,1.7022,0.44843-0.91676-0.0671,1.1101,1.0793,0.3632,0.69599,0.62685-0.022,2.0046,1.3526,2.2712-0.91873,1.3944,1.6154,2.2199,0.55226,3.2983,0.11573,0.32277-1.0826,2.0233-2.2671,1.7128,0.0214-0.77481-0.50372-1.0118-0.35912-0.31257-0.88082,0.24221-2.1087,2.0086-0.45695,0.83918,0.7087-0.52084,2.8641,0.32053,2.4612,1.1658-1.3486,0.60421-0.89341,2.2824-2.5249,2.6588-1.225,0.47022-2.4517,2.4424-3.6231,2.0796,0.32205-1.2182-0.25724-0.94164-1.054-1.329-0.29178-0.58576,0.68448,0.10314,0.94882-0.35171,1.1158,0.8655,1.8591-0.1282,2.7059-0.79191,0.80229,0.26676,1.4519-0.008,0.41117-0.56742,0.46702-0.60156,2.1712-1.2182,1.8924-1.9645-1.5556,0.74148-2.4683,2.2694-3.8204,3.1751-1.007-0.38629-1.9741-0.28609-2.964-0.50065-0.18416-0.95985,3.2841-1.3962,1.2571-1.5454-0.30359-0.20127,0.74413-1.0222-0.25916-0.76023-0.33819,0.41149-0.94992,2.2001-1.4537,1.4374,0.14435-0.54781,0.36927-1.4466-0.67819-1.0676-0.53111-0.67003,0.65737-1.8429-0.76947-1.465-0.7416-0.67029-0.33355-0.62486-0.0942-1.3473-0.95684,0.30143-1.4325-0.12364-2.2751-0.56962-0.53861,0.0194-0.55112,1.0658-1.2083,0.77871-0.42094,1.2187-1.6869,0.16751-1.3557,1.7916-0.42347,0.78495,1.3172,1.0311,0.7173,2.1888,0.92962-0.82821,1.4292,1.101,0.0394,0.83454-0.70812,0.19476,0.34812-0.85457-0.53658-0.0866-0.4309,0.57146-1.6173,1.4962-0.0951,0.86274,1.1266-0.8466,3.0011-0.26049,2.506,1.1629,1.2842-0.73566,0.4806,0.71642-0.45479,0.76764-0.66396,1.1973,2.7997-1.4694,1.837,0.80828-1.5465,1.4702,1.3907-0.78207,1.1572,1.0311,0.22921,1.3752-1.4282,2.6528-2.3105,3.5292,1.6411-0.55277-0.4331,1.0967-0.66766,1.3406zm16.391-9.6258c-0.85266,0.54436,0.43253-1.0936-0.57129-1.3101-0.61166-1.3202,1.4923-0.50624,0.30503-1.3203-0.41492-0.47791-0.98992,2.1711-1.082,0.66974-0.55929-1.0703,0.7375-1.6273,1.5096-0.79412,0.60437-0.10917,0.26619-2.256,0.61973-0.71458,0.17241,1.9206,0.46018-1.9596,0.57887,0.006,0.65149,0.57241,1.0099-1.6112,0.76618-0.018-0.36741,0.50274-1.6833,2.4994-1.4326,0.81934-0.13502,0.49416-1.6051,1.475-0.46295,1.223,0.63146,0.23417-0.0983,1.0912-0.23064,1.4396zm-0.90371,0.49475c-1.9196,0.9012-0.44774-2.7831,0.0852-0.73635,0.0671,0.23135,0.22199,0.60164-0.0852,0.73635zm-1.5081,0.61841c-1.1937,0.71421-2.7459-0.87615-0.80901-1.2274,0.89198-0.17707-0.25968,2.0921,0.57998,0.63073,0.31308-0.0361,0.65605,0.44443,0.22903,0.59663zm1.1922-0.69733c0.82462-0.97957-0.40245-0.4271-0.00001,0h0.00001zm-4.824,2.5689c-0.99617-0.2566-1.8978-0.81316-2.7706,0.22233-0.87905-0.3938,1.0592-1.1987,1.37-1.5772,0.79775,0.51942,1.0578,0.003,0.53519-0.57606,1.1288-1.6644,3.4704,1.2818,1.5578,0.92034,1.2303-2.0304-2.5668,1.0935-0.4579,0.40091,0.23439,0.18119-0.054,0.51143-0.23449,0.60968zm-6.0391,3.3515c-0.79054,0.50481-1.8838-0.32612-0.47166-0.28633,0.0123,0.0311,0.74964,0.0939,0.47166,0.28633zm13.425-7.976c-0.40245-0.42709,0.82463-0.97957-0.00001,0h0.00001zm-19.467,10.915c-0.70261,0.41609-1.8451,0.89525-1.2266-0.13927-0.83812-1.4086,0.37353-0.61444,0.76538,0.0271,0.12098-0.20878,1.1057-0.22902,0.46121,0.11216zm5.7018-3.6704zm-5.1658,2.7572c-0.59936,0.76323-1.7055,0.18867-0.7474-0.39432,0.41268,0.14081,1.8473-0.12393,0.7474,0.39432zm15.246-8.9103c-0.67463-0.25384,0.74531-2.3307,0.66485-0.66426-0.10571,0.3074-0.3869,0.52071-0.66485,0.66426zm-12.069,6.5626c0.14013-0.64996,0.77292-1.9722-0.21258-1.0008-0.18779,0.30581-0.51901,1.1777,0.21258,1.0008zm-2.7463,1.4234c-1.2976,1.2774-2.6086-0.8705-0.65344-0.4607,0.71688,0.64659,0.0165-0.99981,1.2812-0.49642,0.99532,0.0164-0.51409,0.80164-0.62774,0.95712zm12.406-7.1807c-1.4842,0.0899,1.3866-1.9889,0.66695-0.51101-0.19213,0.20493-0.41541,0.38424-0.66695,0.51101zm-16.167,9.2348c-0.80883-0.062-0.81757-0.93539-1.3327-0.77292,0.50949-0.7029,0.64084-0.78649,0.10871-1.0974,0.13931-1.2538,1.225,0.33793,1.981,0.388-0.13959-0.30699-1.3097-1.2367-0.66945-1.0724,1.1217-0.0155,1.881,0.92051,0.44757,1.4528-0.65949,0.28508-0.635,0.61177-0.53516,1.1019zm18.005-10.467c-2.0944,0.33865,0.16514-2.6618,0.5039-0.95762-0.0422,0.36128-0.15633,0.76809-0.5039,0.95762zm4.8723-3.4528zm-22.474,12.777zm20.646-12.244c-1.0138,0.30258-0.30468-2.766,0.24881-1.5042,0.47356-1.1562-1.9616-0.71129-0.93366-2.101,0.15284-1.034,0.31715-0.42064,0.75029-0.4303-0.50172-1.0045-0.0187-1.8508,0.95563-0.96908,1.0093,0.52592-0.1637,0.90491,0.43892,1.7942-0.79423,1.1069,1.1703,1.2184,0.62371,0.35841,1.2514,0.22375-1.301,2.7539-1.2228,1.8773-0.26597-0.61268,1.8631-1.0777,0.73534-0.88961-1.2718,0.23341,0.17002-1.631-0.83154-1.9147,0.0966-1.1024-0.48671-1.5839-0.36513-0.11556,0.18007,1.3862-0.78227-0.45824-0.3941,0.78273,1.2231-0.0718,0.55243,2.5104,0.1814,2.265,0.27592,0.24784,0.10825,0.70316-0.1869,0.84675zm-2.1033,1.0701c-1.0408-0.0687,0.43079-2.2666-0.5938-0.57917-0.9526,1.701-1.973-2.1282,0.002-1.3166,1.0851,0.16356,1.7133,1.2037,0.59169,1.8957zm-14.205,8.1382zm15.278-8.9646c-0.54198-0.61949-0.75639-2.5749,0.30539-1.8989,0.007,0.64568-0.18459,1.2701-0.30539,1.8989zm-18.912,9.91c-0.0676-0.9328,1.6332-0.25756,0.34412-0.98875-1.1205-0.96077,2.0355-2.132,1.4604-0.86839,0.74365-0.75911,0.44155-1.6525-0.48295-0.8791-1.8543-0.45437-1.3998,2.1561-1.7016,2.768l0.11188,0.0329,0.26814-0.0646zm11.138-7.0521c1.2664-1.384-1.1733-0.86412-0.45432,0.11577l0.3423-0.0601,0.11202-0.0557zm-1.3623,0.54323zm3.4966-2.0277c0.38344-0.997-2.1505-0.37048-1.4178,0.49855,0.34305-0.66411,0.9092-0.29325,1.4178-0.49855zm5.1031-3.8022zm-20.229,11.094c0.0441-0.73655,0.76272-0.74695,1.0711-0.74659-1.7984-0.50264,0.53315-2.1734,0.95461-1.3016-0.49555,1.0884,0.95533-0.85752,1.1015-0.53361-1.0587-0.5909-3.7577-0.0765-3.2856,1.574-0.00089,0.23653-0.31552,1.0517,0.15838,1.0078zm4.6094-2.9406c1.002-0.37396,1.0025-1.2912-0.1213-0.50661-1.0232,0.55181-1.2295,1.3203,0.1213,0.50661zm7.4332-4.3546c0.70127-0.1581,1.7427-1.874,0.41905-0.85716-0.11553,0.0335-1.1299,1.1822-0.41905,0.85716zm-14.643,8.4092zm20.087-11.606c0.16818-0.51633-0.23249-1.3095,0.45928-1.842-0.5933,0.50314-2.2897,1.2441-1.4112,1.9471,0.34005-0.0345,0.5454-0.3231,0.95196-0.10518zm-2.8693,1.179c0.54886-0.51649-1.4711-0.73904-1.3649-0.25718,0.12045,0.61246,0.96757,0.42324,1.3649,0.25718zm-10.044,5.5286zm18.863-10.917c-0.38923-0.84011,0.008-2.5141-0.95903-2.7965,0.45455,0.669-0.12664,1.8119,0.0656,1.8888,0.63643-0.10643,0.46717,0.70521,0.89351,0.90775zm-24.271,14.004zm12.082-7.1647c0.78418-0.89067-1.2029,0.31459-0.18985-0.71929,0.57592-0.37298,2.2165-2.1761,0.59313-1.2637-0.32722,0.69045-2.6954,1.7627-1.7014,2.3299,0.44439-0.0589,0.88373-0.17588,1.2982-0.34687zm12.988-7.5617zm-10.04,5.427c0.42505-0.47142,2.8565-1.8309,0.99794-1.2968-0.35698-0.0391-1.8058,1.2214-0.99794,1.2968zm-16.851,9.4227zm0.82743-0.89219c0.98727-0.75966,0.30197-2.4367,2.1222-2.3413,0.42801-0.98203-2.2655,0.12048-1.9396,1.1906,0.11969,0.34023-0.97021,1.2586-0.18263,1.1506zm-1.8459,1.0477c1.1033-0.7926-0.0465-2.5803-0.90911-1.9594,1.5698,0.22782,0.29157,1.2251,0.90911,1.9594zm4.3324-2.5464c1.0297-0.97567,0.51309-2.4316,2.3231-2.6077,1.4196-0.90372-1.1464,0.002-0.43412-1.0561-0.77902,1.007-1.8051,2.34-1.889,3.6638zm14.985-8.7688zm1.1726-0.96534zm-2.7879,1.4294c0.44746-0.43253-1.7682-0.41021-1.3679-0.28608-0.44041,0.79113,0.93973,0.36727,1.3679,0.28608zm1.8453-1.4078c0.65299-0.3636,1.5995-2.5878,0.43133-1.0375-0.51976,0.80495-2.1149-0.20712-0.73132,0.99191l0.15286,0.0685,0.14713-0.023zm-5.3947,3.0786c1.4451-0.74243-0.44643-0.67445-0.00001,0h0.00001zm13.131-7.6262c0.48949-0.97126-1.3436-1.2916-0.38568-0.0726,0.10048,0.096,0.25844,0.1248,0.38568,0.0726zm-14.194,8.0326zm4.0472-2.6971c0.73941-0.42222,1.6563-2.0296,0.16615-0.91073-0.23269,0.0864-0.80817,1.2009-0.16615,0.91073zm-3.4517,1.6685c0.58443-0.338,2.4906-2.0136,0.71499-1.1714-1.0872,0.51484-0.1385-1.0066-1.1534-0.10856-0.739,0.31775-1.8577,0.70683-0.44593,0.43511,1.1236-0.26241,1.5549,0.057,0.65189,0.81683l0.0893,0.0571,0.1431-0.0291zm-13.078,7.0007zm3.5477-2.2825c-0.0659-0.605,0.47733-2.1985-0.45935-0.77999-0.39022,0.458-0.19712,1.0079,0.45935,0.77999zm-2.8879,1.5682c0.002-0.6435,0.55106-2.1367-0.37587-0.72907-0.35161,0.41695-0.38589,1.0333,0.37587,0.72907zm16.777-9.8482c0.34989-1.0163,1.0898-1.298,1.7243-1.1298-0.72005-1.0615-2.4716-0.49947-1.6792,0.83347l-0.0451,0.29638zm-19.365,11.108c0.55231-0.49084,1.0111-2.4318,0.0349-1.0261-0.0631,0.20223-0.49955,1.051-0.0349,1.0261zm18.035-10.431c0.44634-0.57132-1.5921-0.33568-0.23676-1.1195,0.58884-1.6655-1.7712,1.4011-0.92444,1.3298,0.39373-0.003,0.80271-0.0282,1.1612-0.2103zm-13.896,7.6896zm3.094-1.8043c0.20426-1.005-2.5972,0.43165-0.52765,0.1926l0.20116-0.048,0.32648-0.14457h0.00001zm17.822-10.488zm3.1023-1.8992c-0.95707-0.27203-1.4017-2.1149-0.67734-1.9623-0.26122,0.84019,0.70772,1.2683,0.67734,1.9623zm-14.178,7.7799c0.48262-0.32142,2.5687-2.0443,0.86735-1.3239-0.35854,0.23431-1.0245,0.98137-0.86735,1.3239zm-2.3674,1.0965c1.0856-1.1115-1.5092-0.53875-0.28918,0.11277l0.28918-0.11277zm6.958-4.1164zm-10.894,5.9293zm-8.2478,4.6447c-0.44303-0.76835-0.0776-1.5951,0.44123-2.201-0.14433-0.23918-1.5442,1.2692-1.484,2.1944,0.79779-0.95606,0.48673-0.29466,1.0428,0.006zm5.0524-3.0161c0.13888-0.47926,1.0118-2.149-0.0664-1.0564-0.24286,0.30203-0.80466,1.1798,0.0664,1.0564zm-3.8828,2.2327c0.69758-0.34161,2.1411-3.3636,0.77395-1.7196-0.23988,0.49896-0.84408,1.2832-0.77395,1.7196zm23.317-13.642c-1.2224,1.1352-1.5447-2.7141-0.3134-1.2607,0.30174-0.43363-1.486-1.2229-0.0726-1.3737,1.2812,0.50616,0.24822,1.897,0.6047,2.4844l-0.21872,0.15001zm-5.8475,3.34c0.52101-0.75293,0.45296-1.8273,1.656-1.6021-0.58084-0.91866-2.2645-0.0814-1.6848,1.0061,0.0381,0.0885-0.22086,0.60745,0.0288,0.59608zm-1.0513,0.59799c-0.85034-0.45117-0.27026-2.449-1.2212-0.86967,0.0644,0.5485,0.77084,0.77522,1.2212,0.86967zm-3.3386,1.8645zm-7.2817,4.0239c-0.27997-1.0771-2.1693,0.50434-0.33436,0.13464l0.33435-0.13464h0.00001zm-3.0668,1.6174c0.067-1.0183-2.0235,0.00035-0.34234,0.0625l0.34234-0.0625zm12.054-6.9952zm-2.4805,0.90052c0.60708-0.65687,2.0103-2.1444,0.29676-1.1117-0.2508,0.053-0.81545,1.2618-0.29676,1.1117zm4.328-3.3187zm-19.263,11.113zm5.7175-3.4091c0.51697-0.55246,1.449-2.3572,0.12195-1.0089-0.15235,0.22994-1.1568,1.3468-0.12195,1.0089zm8.7865-5.163zm1.1703-0.82887c0.25432-0.86591,1.1317-1.4457,1.6328-1.7446-0.92099-0.57428-1.6081,0.98393-1.6328,1.7446zm-2.7538,1.4728zm-5.0384,2.8999c0.43963-1.1368-2.1031,0.0786-0.54041,0.14081l0.32476-0.0634,0.21565-0.0774zm-4.8424,2.7868c-0.55056-0.25132,0.95151-2.1193-0.26555-1.0532-0.64311,0.5584-1.23,1.5637,0.26555,1.0532zm15.736-9.3558c0.32184-0.82488,0.49012-1.829,1.2738-1.7496-1.6389-1.279-1.4581,0.92156-1.2738,1.7496zm-19.782,11.322zm5.6967-3.289zm8.8415-5.6452c1.0483-0.53951,0.3404-1.9478-0.1596-0.50705-0.0492,0.0514-0.12312,0.64584,0.1596,0.50705zm13.143-7.8402c-0.59328-1.6349-2.4057-2.1705-3.0508-3.7134-0.0543-0.66653,0.77394,0.87812,0.56658-0.31988-1.7625-0.47768,0.19674,1.6463-0.13916,1.9708-0.14271-0.0352,0.49753,1.3773-0.57082,0.79437-0.42764-0.71147-1.5545-1.5861-0.65908-0.20729-0.0492,0.79135,0.93889,2.0752-0.38364,1.5006-1.3788,0.51754-1.0813-2.6814-2.779-1.5804-0.19617-0.73066-1.266-1.4511-0.48423-0.26873,0.34429,1.093-0.18096,2.2986-1.4023,2.1166,0.0186-0.73275-0.83013-2.5174,0.0224-1.5812,1.6356,0.0307-1.5361-0.79366,0.20175-1.3257,0.68411-0.48378,2.8599-0.11247,1.1067-0.96367-0.18897-1.1575,1.7432,0.0511,1.6337,0.9869-0.0331,0.97984,2.2639,1.4429,0.65958,0.76126-0.66422-0.58242,1.4816-0.82051,0.87054-1.248,0.75723-0.6795,1.5409-1.3479,0.206-2.4087,0.36989-1.4212,0.95528,0.92676,1.7971,0.96866,0.41342,1.2066,1.0015,2.2287,1.9313,3.0632,0.28948-0.49011-1.3936-1.783-0.46854-1.4256,0.68367-0.0165,2.0854,1.2738,2.3075,1.6687-0.85243,0.33764-2.0744-1.6488-1.2158-0.0192,0.13825,0.40107,0.17886,0.90472-0.14975,1.2306zm-26.722,15.392c1.0672-0.52469,0.65711-1.6812-0.0755-0.44295-0.24232,0.16974-0.40303,0.81721,0.0755,0.44295zm14.722-8.725zm-10.378,5.6676c0.95833-0.40183,1.3121-1.3055,2.1052-1.8712-1.0496-0.23187-1.6867,1.0635-2.1052,1.8712zm13.372-7.9728zm-5.9777,3.4422zm-4.2612,2.4512c0.52889-0.78204-1.8934,0.0288-0.22056,0.0671l0.22056-0.0671zm5.5077-3.3511c1.5986-1.1122-0.95378-0.36391-0.71495,0.27087,0.2495-0.0534,0.50004-0.12821,0.71495-0.27087zm-14.752,8.3458c-1.1591-0.84527-0.5119-1.9348-0.0192-2.6238-1.1369,1.2882-1.6103-0.43179-1.6064-1.1762-1.1094,0.57595,0.62114,2.8219,1.2022,3.6618,0.10276,0.0997,0.27131,0.22563,0.42343,0.13828zm4.2425-2.5305c-0.26154-0.38311,1.248-2.081-0.0249-1.0842-0.56453,0.53864-1.5535,1.3083,0.0249,1.0842zm1.6413-1.1368zm10.344-6.0081c0.34839-0.6215,1.1489-1.0202,1.1326-1.0503,2.1272-0.27229-2.6-0.86486-1.1326,1.0503zm2.7108-1.7813c0.0438-0.97588,0.67409-1.8744,1.4068-1.7637-1.0386-0.52026-2.3312,0.0232-1.466,1.3023l0.0295,0.35027,0.0296,0.11114zm-17.469,9.7255c0.0764-0.60599,1.037-1.9601-0.20624-1.0834-0.44041,0.55136-1.3352,2.1068-0.11684,0.88705,0.16392-0.0591,0.2099,0.13729,0.32308,0.19638zm-1.5487,0.4076zm7.0776-4.2214c0.73374-0.48477,1.7661-1.5727,0.1862-0.82864-0.61193,0.20404-1.9186,1.6332-0.1862,0.82864zm7.3369-4.6775c0.80797-0.67989,1.0708-2.847-0.009-1.6076,0.32623,0.47332-0.34642,1.3024,0.009,1.6076zm3.1594-2.1124c0.5544-0.60842-1.0689-0.0865-0.00001,0h0.00001zm-0.98824,0.42639c-0.21826-0.80667-1.8497-0.56071-0.37279-0.037l0.37279,0.037zm-12.618,7.2668c-0.18678-0.47742,1.8656-1.6976,0.093-1.0361-0.66123,0.29759-1.6181,1.2847-0.093,1.0361zm8.2744-5.1917c1.0192-0.44467,0.0938-1.6655-0.0906-0.34416-0.1111-0.11093-0.0851,0.53197,0.0906,0.34416zm15.029-8.6771c-1.1013-0.17886-0.24178-1.6759,0.0794-0.21522l-0.0152,0.13262-0.0642,0.0826zm-25.824,14.856c-1.1322-0.71312,1.59-2.0384-0.0724-1.579-1.5195,0.77868-0.7152,0.81367,0.0724,1.579zm15.745-9.3248c-0.20625-0.96334,0.80422-1.6117,1.2984-1.7775-1.019-0.39635-2.43,0.0715-1.4776,1.249,0.0417,0.17123-0.18913,0.75716,0.17922,0.52856zm-10.04,5.6612c1.598-1.2466-1.3371-0.60758-1.0188,0.27766,0.35985,0.0287,0.70529-0.11865,1.0188-0.27766zm6.2656-3.7706zm11.621-6.7455zm-25.525,14.485zm3.291-1.9zm9.1028-5.4267zm1.0881-1.0337c-0.3968-1.0446,1.3198-1.4609,1.28-1.8563-0.7108,0.24813-2.5092-0.0853-1.5406,1.2699,0.0653,0.16545-0.035,0.6745,0.26065,0.58634zm2.6245-1.8216c0.33437-0.96287-1.0977-1.543-0.37335-0.16287l0.22213,0.1407,0.15121,0.0222h0.00001zm11.011-6.4292zm-3.1135,1.7706c-1.0119-0.0613-2.8739-2.6003-0.70031-2.4383,0.49868-0.39028,1.5588,0.75576,0.51466-0.28192-0.89632,0.0368-2.3595-2.4748-0.84323-1.1999,0.86738,0.49846,2.5034,1.5764,1.8782,2.6137-0.57947-0.2161-2.1232-1.3699-0.92108-0.21853,0.38999,0.38191,0.61224,1.1702,0.0718,1.525zm-24.214,13.791zm5.4524-3.166zm-1.3566,0.52191zm-1.9831,1.0909c-0.30946-0.87221,0.14282-1.1991,0.82047-1.7382-0.80087-0.25777-2.5159,0.90975-1.0288,1.4711l0.20831,0.26717,0.00001-0.00001zm10.118-6.04c0.30952-0.5275-1.6175-0.40247-0.29182-0.004l0.29182,0.004zm-4.8658,2.7462zm4.4242-3.4643c-0.3086-0.74993,1.2197-2.227-0.42702-1.4254-0.28929,0.35917,0.29985,1.024,0.42702,1.4254zm11.707-6.7681c-0.052-0.87612-1.6462-0.55698-0.18607-0.0151l0.18607,0.0151zm-23.372,13.485zm5.0345-2.9067c-0.30076-0.79405,2.3416-1.7081,0.48682-1.092-0.60085,0.32421-1.5911-0.35096-1.3377,0.83864,0.24238,0.16933,0.55923,0.24154,0.85085,0.25334zm8.9478-5.6796zm-15.287,8.5737c0.26481-0.59321,0.61813-1.196-0.16702-0.33608-0.17832,0.0726,0.001,0.50479,0.16702,0.33608zm14.14-8.15zm-11.714,6.7091zm1.365-1.0223c-0.49631-0.90742,2.0312-1.9358,0.0135-1.5599-0.94963,0.0965-0.65596,1.3694-0.0135,1.5599zm-2.4676,1.4066zm13.606-7.9903c-0.55885-0.94712,0.40288-1.5688,0.83826-1.9346-0.61239,0.0804-3.2416,0.71758-1.4382,1.0456,0.31754,0.18141,0.25224,0.80018,0.59999,0.88899zm-8.1912,4.3057zm-4.1254,2.0935zm5.2562-3.1157c0.46267-1.2387-3.393,0.90787-1.0124,0.24946,0.33132-0.10843,0.67473-0.16715,1.0124-0.24946zm-6.219,3.3833zm11.686-7.071c-0.19788-0.1696-1.7338-1.6051-0.83686-0.13855,0.15639,0.32932,0.57023,0.29431,0.83686,0.13855zm11.487-6.713zm-20.495,11.554zm-4.2543,2.276zm1.826-1.3786zm12.338-7.1416c0.46846-0.92271-1.4117-1.9038,0.1257-2.4786-0.62421-0.0142-2.3474,0.36905-1.6758,0.82364,0.77681-0.0222,1.4605,0.93577,1.5502,1.6549zm-8.1984,4.6523zm10.402-6.3752c1.3091-0.83199-1.0288-0.15037-1.1553-1.1982-1.9552-0.61744,1.0167,0.43435-0.004,1.5536,0.21756,0.27551,0.89642-0.31981,1.1596-0.35541zm-16.973,9.7271zm5.7711-3.3319c0.44057-1.0493-2.595,0.65154-0.37039,0.16121l0.1912-0.0717,0.17918-0.0896h0.00001zm-2.7237,1.2752c0.57598-0.47614,0.34959-1.5965-0.0116-0.4258,0.0218-0.18126-0.23138,0.55946,0.0116,0.4258zm10.169-6.0151c1.2257-1.2756-1.3323,0.0204-1.1861,0.46446,0.40041-0.14082,0.81703-0.24763,1.1861-0.46446zm-7.1612,3.702zm15.939-9.4728c-0.90936,0.0695-1.0023-1.3448,0.095-0.53556,0.67165-0.58471,0.24977,0.36442-0.095,0.53556zm-21.387,12.195c-0.33273-0.8685-2.1231,0.24679-0.57344,0.11482l0.36692-0.0642,0.20652-0.0506zm1.7008-1.018c0.37103-0.74172,2.6415-1.4098,0.72773-0.99025-0.18737,0.21314-2.19,1.4777-0.72773,0.99025zm2.2357-1.543zm-3.9819,2.1548c0.27301-0.58062,1.4585-1.61,0.16039-0.78595-0.13167,0.23832-0.15964,0.51902-0.16039,0.78595zm16.612-10.087c-0.45-0.7683-2.24-0.4184-0.62-0.0501l0.35809,0.0702,0.19382-0.0194zm-14.118,8.07c-0.11188-0.65635,1.8844-1.5711,0.30844-1.3041-0.2095,0.1552-0.69396,1.2674-0.30844,1.3041zm-1.0452,0.46826zm13.85-8.2218c-0.56952-0.32528-2.3632-0.45506-2.9781-0.11712,1.195-0.44881,1.2175,1.5248,2.3177,0.2466,0.20432-0.10817,0.43788-0.10612,0.66043-0.12948zm-2.6655,1.3136c-0.27188-1.0116-2.0831,0.18715-0.45998-0.1962l0.27564,0.0954,0.18434,0.10078zm-8.0185,4.6205zm11.968-7.1439c-1.2428-0.10903-2.4785-0.50771-3.7153-0.45376-0.26559,0.70675,1.8772,0.51041,1.9232,0.7676,0.51423-0.40992,1.1817-0.33894,1.7921-0.31384zm-14.453,7.6776c0.77383-0.29535,1.4153-1.6285,0.28085-0.49665-0.19276,0.16003-1.0804,1.0109-0.28085,0.49665zm8.9219-5.4124c1.4654-1.2268-1.1166-0.34776-1.1712-0.4624,0.33267,0.19212,0.73986,0.67713,1.1712,0.4624zm-7.2043,4.0332c-0.31675-0.85163-1.7978,0.31874-0.20875,0.0572l0.15-0.0562zm13.008-7.5279c-0.76519-0.12146-2.4972,0.36234-2.6852-0.16735,0.93178-0.29936,1.0078-0.37252,1.591-0.18297,0.25399-0.2232,1.4565-0.15043,1.0943,0.35032zm-5.3167,2.3398zm-6.5132,3.6072c-1.6789,0.28744-0.51355-1.2289,0.37574-1.404,0.34904-1.5004,0.48127,1.5916-0.37574,1.404zm0.0531-0.45417zm1.0723-2.6374z" fill="#000"/>
  <path id="path6352" opacity="0.5070422" d="m160.95,32.729zm-0.86819,0.21292zm3.3673-2.3766zm-1.1234,0.50442c-1.3424,0.48197,0.57417-0.99527,0.0466-0.0427l-0.0466,0.0427zm-7.6546,4.3924zm6.0584-3.7862c-1.2423,0.28869,1.4389-1.2208,0.0221-0.0136l-0.0221,0.0136zm-5.668,3.0111zm-2.0468,1.1367c-1.529-0.30241-0.58405-1.3796,0.52735-0.91949-0.0517,0.53436-1.4118,0.41533-0.52735,0.91949zm10.711-6.184c0.0905-0.6028-1.4772,0.13475-0.49598-0.80428,0.55431-0.22291,0.91962,0.37397,0.49598,0.80428zm-12.556,7.1862zm7.797-4.5827c-1.3522-0.38273,0.25154-0.71772,0.58126-0.79347-0.16618,0.28363-0.39247,0.52552-0.58126,0.79347zm3.136-1.9187zm-10.11,5.7738zm13.056-7.6007zm0.98578-0.75836zm-5.4852,2.9687zm0.91612-0.75417c0.463-1.0892-0.31125-0.15119-0.25344-0.45569,0.89173-0.67143,0.99438,0.0231,0.25344,0.45569zm-2.7499,1.4795zm-5.5824,3.0969c-2.0097-0.46847,1.9458-1.4563,0.58352-0.5166,0.0298,0.31664-0.43452,0.31867-0.58352,0.5166zm-3.7042,2.1206c0.26208-0.70928-1.231-0.33442-0.25007-0.74159,1.0748,0.2989,0.51999-0.76652,0.73781-1.0975-1.0947-0.11631,0.26593-0.36894,0.58341-0.27021-0.15034-0.96683,0.84574-0.53871,0.47952-1.4036,1.3,0.0542,0.34582-3.4084,1.4589-1.4552,0.0451,1.078-0.78616,1.5111-1.1515,2.5097-0.50026,0.57967-1.4254,0.9497-0.85246,1.4412-0.28829,0.38417-0.74204,0.61234-1.0056,1.0173zm2.3935-1.535zm13.998-8.0908c-0.76527,0.0634-0.0287-2.5288,0.46654-1.051-0.0769,0.37835-0.24981,0.73387-0.46654,1.051zm-0.90371,0.49474c-1.3043,0.59025-0.75794-1.1048-0.32449-1.312,0.30294,0.22374,0.77852,1.031,0.32449,1.312zm-6.8237,3.8496c-0.39271-0.22707,0.56992-1.1799-0.50491-1.015,1.1244-0.56892,1.1412,0.59652,0.99811,0.56361,0.0157,0.24463-0.35348,0.3084-0.4932,0.45137zm5.3156-3.2312c-0.5591,0.6749-2.6759-0.64077-0.95697-0.35763,1.2819-0.86026-0.99063-0.18759-0.19567-0.62234,1.0435-1.0956,0.50703,1.8549,0.75917,0.50594,0.34413-0.30098,0.85595,0.17967,0.39347,0.47403zm1.1922-0.69732zm-13.864,7.824zm9.1304-5.3165c-1.0208-0.43315-2.0465-0.34749-3.1266-0.0505,0.63246-1.1727,1.6931-0.27698,2.517-0.51148,0.392-0.70215-1.2767-0.19647-0.0166-0.6504-0.65823-1.1139,1.8154-0.97385,0.42719,0.0854-1.1471,1.4304,1.1732-0.0309,0.19904,1.1269zm-6.1298,3.4129c-0.37788,0.061-0.5089-0.47678-1.1839-0.19679,0.23289-0.0483,1.3303-0.28375,1.1839,0.19679zm-5.0972,2.7356zm12.643-7.3172c-0.93262,0.20032-0.66638,0.17967-0.62505-0.58863-0.98881-1.2695,0.99828,0.2415,0.62505,0.58863zm5.8792-3.3944zm-3.2604,1.5941zm-16.207,9.3211c-0.5929,0.92155-2.2067,0.15178-0.77209-0.2296,0.15935,0.22982,1.4775-0.21091,0.77209,0.2296zm18.897-11.154c0.46595-2.0175-1.3601,1.3615-1.0611-0.37863,0.61653,0.25213,0.54014-0.84115,1.3871-0.79448-0.27134-0.96956,1.0166-0.008,1.0828-0.89772,0.0448,0.79144-0.90237,1.5161-1.4089,2.0708zm-13.209,7.4911zm-4.882,2.5934c-0.5049-0.0148-1.8306,0.97053-1.162-0.15314,0.13551-0.0925,1.7155-0.18515,1.162,0.15314zm15.63-9.3843c-0.77033-0.0983-0.95559,0.43939-0.46223-0.62778,0.2962-0.44997,0.57389,0.42452,0.46223,0.62778zm0.46811-0.29728zm0.39005-0.43243zm0.85433-0.50225zm-19.332,11.134zm2.1497-1.2862c-0.44725,0.57799-2.6353-0.0529-0.98478-0.31176,0.79868-0.0846,0.62822,0.0584,0.90479-0.5962,1.0771-0.35731,1.0271,0.57777,0.0855,0.55921-0.0266,0.11411,0.18184,0.27965-0.005,0.34875zm12.231-7.1247c-1.0714-0.71656,2.1034-1.5264,0.32984-0.51889-0.16163,0.085-0.53271,0.28761-0.32984,0.51889zm-15.992,9.1788c-1.3311,0.009-0.59669-1.9654,0.41868-1.1788-1.5665,0.006,0.47462-1.1088,0.055,0.12109-0.30442,0.26604-0.85399,0.58472-0.47371,1.0577zm5.6299-3.2955zm12.375-7.1718c-1.7668,0.31554,0.48579-2.1416,0.32371-1.2645-0.94513-0.10507-0.60925,1.9095-0.0347,0.96075-0.0623,0.13414-0.17392,0.21775-0.28895,0.30375zm2.3032-1.5821c-0.6035-0.24222-1.1252,0.56911-0.58708-0.55795,0.23757-0.11897,0.73464,0.29744,0.58708,0.55795zm-14.5,8.1104c0.002-0.41517-1.009-0.25934-0.17758-1.0221,0.93534-0.99971,0.29499,0.79435,0.17758,1.0221zm16.239-9.4209zm-8.9752,5.1638c-0.63779-0.36155-2.5671,1.9136-1.679,0.25673,1.0806-1.1742,2.9466-1.4106,3.5895-2.5544,0.74221-0.53474,0.9936-2.4046,2.1175-2.0578-1.0694,1.3238-1.5885,2.9677-3.2571,3.3979-0.73296,0.0452-0.36636,0.75001-0.77088,0.95755zm9.8051-5.7241zm-18.341,10.571c-0.99567,0.1095-1.7958-0.39048-0.5217-0.67156,0.76049-0.43964,1.6114-0.9693,0.56562,0.17367-0.56441,0.32673,0.28011,0.39017-0.0439,0.49789zm17.156-9.9864zm-20.641,11.863zm19.998-11.915c-0.023-1.3116-0.73746,0.71786-0.46598-0.80359-0.0802-0.53394,0.72447-1.1408,0.79365-0.28937,0.51412-1.113,0.30321,0.74325-0.32398,0.0454,0.42874,0.21632,0.36003,0.81366-0.004,1.0475zm0.96922-0.56857c0.18034-0.94848,0.045-0.77057,0.91769-1.3704-1.3747,0.17615-0.0467-0.25246,0.32014-0.67864,0.30852-0.62556,0.29426,1.017-0.4621,1.2091-0.26252,0.27459-0.5822,0.50629-0.77573,0.83988zm-23.265,13.342-0.0592-0.0559,0.0592,0.0559zm20.037-11.677c-0.93753-0.90092,0.84377-2.4396,0.60421-0.91324-0.3513,0.16974-0.90676,0.41345-0.60421,0.91324zm1.2283-0.85331c-0.86489-0.63977-0.0912-3.0695-0.13202-1.0798,0.13056,0.34323,0.34456,0.71448,0.13202,1.0798zm-17.339,9.9659c-0.9167,0.005-2.074,1.1757-2.7756,0.0617,1.1383,0.37281,2.499-0.70733,2.127-1.4565,0.42964-0.86409,3.5098-1.6536,1.5749-0.63939-1.2454,0.441-0.96211,1.3282-0.92637,2.0342zm-2.975,1.5734zm18.249-10.779c-1.3483-0.25143,0.78552-2.6686-0.11731-0.64354,0.15087,0.38142,0.82688,0.18261,0.11731,0.64354zm-19.683,11.229,0.0685-0.13163-0.0685,0.13163zm8.1986-4.8236c-1.0027,0.12704-1.6223,0.61635-0.76737-0.52545,0.34656-0.78285,0.9384,0.007,0.76737,0.52545zm3.8843-2.3237zm1.2975-0.7491c-0.38607-0.77642-2.7416,0.0979-2.1828-0.84458,1.4633,0.46149,2.8753,0.38415,3.6245-1.1177,0.58045-0.61334,3.2272-2.335,1.6474-0.74709-1.2682,0.92732-1.7824,1.7427-3.0891,2.7094zm-13.667,7.7738c-1.6322-0.60186,0.88277-3.3163,1.0029-1.6342-1.5663,0.0834-0.44266,0.95537-1.0029,1.6342zm1.4079-0.948zm4.5591-2.7313zm18.194-10.577zm-0.41382,0.0948c-1.1757,0.3162-0.50446-2.0582-0.33874-0.3061,0.12202,0.0982,0.49288,0.0402,0.33874,0.3061zm0.69074-0.72318c-0.38118-0.30922-1.0976-2.3178-0.26422-2.0151,0.41913,0.29552,0.13729,1.3406,0.26422,2.0151zm-22.014,12.466zm23.1-13.37c-1.2373-0.64529-0.51409-2.3301-1.0532-3.4759,1.0437,1.0105,0.56654,2.3277,1.1759,3.1889-0.0408,0.0957-0.0817,0.19136-0.12261,0.28704zm-22.975,13.174c-1.0555,0.56056-0.14038-1.4198-0.17622-1.8986,0.50993-0.95978,0.94474-0.16066,1.6897-0.81441,1.6216,0.66768-2.4902,0.31709-1.5045,1.9979,0.71467,0.78351-0.29678-0.0925-0.009,0.71503zm5.032-3.2386c-0.60286-0.21516-2.8326,0.98805-1.328-0.10274,0.24533-0.13963,1.7046-0.5896,1.328,0.10274zm13.206-7.6517c-1.2062-0.59091,1.1772-1.8531,0.6022-2.9105,0.25856,0.1319,0.22278,1.4834,0.35694,1.974-0.42746,0.33134-0.28612-0.79109-0.78573,0.21397-0.16948,0.18594-0.28705,0.47758-0.17341,0.72253zm1.7819-1.0648zm-9.0722,5.1207c-1.4262,0.39722,0.87468-1.9951,0.20762-0.18918-0.0692,0.063-0.13841,0.12612-0.20762,0.18918zm-12.326,7.0535c-0.86909,0.10618-1.3489-0.47726-0.58517-0.80311,0.1807-0.22372,1.0037,0.60005,0.58517,0.80311zm17.231-10.029c-1.9787,0.31518,0.43297-1.221,0.7538-1.891,0.93877-1.0281-1.7678-2.6903-0.26882-3.3086-0.36217,1.2904,1.1161,2.4286,0.85254,3.6042,0.60813,0.80652-1.9623,0.46197-1.3375,1.5954zm-14.289,8.1956zm8.0221-4.6766zm11.137-6.4298c-0.45143-0.37509-1.3219-0.27027-0.6273-0.71827,0.22916-0.33967,1.1793,0.0531,0.6273,0.71827zm-7.6671,4.4176c-0.63033-0.2413-2.029,1.008-1.2273-0.35931,0.2369-0.22202,1.8692-0.26975,1.2273,0.35931zm-14.132,8.1233zm5.531-3.779c-0.81095-0.0436-1.2332-1.7377-0.21537-0.58812,0.0951,0.14924,0.39344,0.37834,0.21537,0.58812zm13.732-8.1622zm-3.5855,2.0611c-0.84482,0.29404-2.876,1.2054-1.169-0.044,0.96883-1.1824,0.22318-0.91782,1.169,0.044zm-4.8349,2.7374zm-5.9034,3.3993,0.0598-0.0525-0.0598,0.0525zm-7.3228,4.1557c-1.4844,0.16606-0.0885-3.3654,0.093-0.90186,0.0531,0.30278-0.006,0.61159-0.093,0.90186zm12.43-7.3115c-1.4008,1.0515-0.48017-1.6401,0.36026-0.99378-0.92434,0.23781,0.80178,0.75866-0.36026,0.99378zm11.548-6.7481zm-22.56,12.8c-0.70268-0.003,0.75504-0.91549-0.24477-0.40831-0.85309-1.9186,2.6724-3.1075,3.1825-2.0359-1.1908-0.0265-2.9544,0.68206-2.5638,1.7039-0.35207,0.0793,0.014,0.65885-0.37393,0.74027zm4.6094-2.9406c-2.0347,1.0412,0.6552-1.4857,0.70577-0.6828-1.0136,0.17198,0.39722,0.17993-0.70577,0.6828zm7.4332-4.3546c-0.54006-0.4887,1.9679-1.8567,0.65078-0.47893-0.2005,0.18037-0.41698,0.34392-0.65078,0.47893zm-14.643,8.4092zm26.124-15.101c-0.49441,0.10849-0.0855-0.73467-0.52526-0.66117,0.3182-0.1017,0.53372,0.41432,0.52526,0.66117zm-21.413,12.336zm17.957-10.503zm4.8655-2.8091zm-7.5645,4.2052c-0.31242,0.39559-1.4378,0.40071-0.70464-0.22393-1.0624,0.16044,2.1541-2.3223,0.83678-0.43407-0.0446,0.20699-0.23289,0.43444-0.13214,0.658zm-2.752,1.4447c-0.52962,0.24277-1.8973-0.15263-1.099-0.45351,0.27488,0.21093,1.548-0.28169,1.099,0.45351zm7.1476-4.1627c-0.81821,0.47726-3.2771,0.13323-1.1545-0.36486,1.814,0.20393,0.52514-2.4689,1.1706-2.3422,0.13304,0.77544,1.0352,1.9775-0.14414,2.1311l-0.003,0.19737,0.1312,0.37853zm2.0611-1.19zm-14.366,8.0779zm-4.8868,2.8034zm18.863-10.917zm-24.271,14.004zm6.1018-3.8202c-1.1598,0.4525-0.75413-0.48631-1.5182,0.28415-0.61609,0.48514-1.9533,0.42687-0.6877-0.32217,0.78066-1.1709,0.35598,0.23915,1.3283-0.42454,0.69443-0.51064,1.3285-0.59138,0.87763,0.46256zm17.417-10.128zm-12.181,7.0238c-2.1454-0.0505,1.3363-1.829,1.4718-2.4295,1.4213-0.0366-1.6998,1.7311-1.4718,2.4295zm13.735-8.1554c-0.84961-0.61601-0.29038-1.2045,0.0846-1.2666-0.43346-0.52814-0.55264-1.7364,0.10541-0.55517,0.98135,1.2063-0.10353,0.96902-0.19005,1.8217zm-10.043,5.7803c-0.70986-1.0428,3.1353-2.0626,1.0596-0.79561-0.34603,0.26505-0.78656,0.44859-1.0596,0.79561zm8.8478-5.3065zm-25.679,14.718zm0.80715-0.88049c-0.46005-1.0836,1.1092-3.3721,2.2925-2.4478-1.8139-0.007-1.3757,1.6191-2.2925,2.4478zm-1.7947,1.0272c-0.97196-0.84769,0.8422-1.9685,0.21149-0.342l-0.086,0.18166-0.12548,0.16034zm4.2812-2.5258zm19.582-11.387zm-4.5973,2.6182zm7.4622-4.5696zm-14.256,8.2216zm-7.7854,4.3688c-0.13084-0.93691,1.0704-3.3896,1.9878-2.2236-0.53759,0.63598-1.7066,0.76527-1.7482,1.9704l-0.23957,0.25318zm3.4945-2.0626c-1.3122,0.66566-0.8251-2.1454-0.0799-0.43674l0.0964,0.23777-0.0165,0.19897zm9.4694-5.4941c-0.89069,0.5898-2.2833-0.63511-0.68893-0.27572,0.2067,0.0436,0.81561-0.1115,0.68893,0.27572zm5.3788-3.1686c-1.0162,0.40622-1.9465-0.80563-0.39349-0.37673,0.16974,0.0465,0.3876,0.17266,0.39349,0.37673zm-2.7624,1.5048zm5.7396-3.4489,0.056-0.1672-0.056,0.1672zm-6.5108,3.705c-0.82663-0.0841-1.1028-1.1922-0.0106-0.67791,0.71191-0.67263,1.3536-1.3508,0.71603,0.0269-0.0109,0.49844-1.3052,0.13972-0.70548,0.651zm-5.3947,3.0786zm13.131-7.6262zm-2.6038,1.4673c-0.40246-0.33204-1.1209,0.025-0.88818-0.48733,0.32397,0.006,0.76856,0.15369,0.88818,0.48733zm-11.59,6.5654zm-12.671,7.2525zm6.3974-3.7296zm18.832-11.08zm-8.5111,4.8598c-0.96413-0.65669,2.1489-1.9646,0.50129-0.46682-0.14787,0.17427-0.30914,0.34066-0.50129,0.46682zm4.2773-2.5326c-1.4003,0.0106-0.34807-2.6778-0.27077-0.59012,0.11123,0.18581,0.21634,0.3787,0.27077,0.59012zm2.027-1.2334c-1.3983,0.2281-0.49253-3.1276-0.41931-0.89355,0.0727,0.38814,0.76915,0.34278,0.41931,0.89355zm-25.9,14.77c-0.51745-0.56053-1.3031-3.052-0.70905-3.0101,0.48055,0.90685,0.93685,1.9651,0.70905,3.0101zm16.126-9.3372c-0.56746-0.54466,1.2011-0.43385-0.00001,0h0.00001zm11.218-6.585c-1.1042,0.18859-0.7413-0.60717-0.60368-0.88244-0.18976-2.2806,0.58386,0.47435,0.60368,0.88244zm1.9971-1.2071zm-12.396,7.1206c-0.19038-0.91897-3.8346,0.59516-1.6479-0.40809,0.65224-0.27798,1.9806-0.19285,2.2696-0.13892-0.18926,0.20227-0.40411,0.37681-0.62175,0.54701zm-7.1957,4.0013c-1.148-0.34925-0.45618-2.3766,0.39677-2.1534,0.70668-0.64611,0.9497-0.98417,1.6896-1.3113,1.4744,0.41405-0.83834,1.4131-1.284,1.8742-1.0828,0.0761-0.47951,0.97455-0.80241,1.5905zm3.8719-2.2985zm-11.991,6.8691zm-0.44914,0.20525zm1.8669-1.1049zm25.259-14.601c-1.0388,0.009,0.13896-1.3526-0.52182-1.8592,0.0908,0.10048,1.168,1.7054,0.52182,1.8592zm0.60868-0.45954c-0.0217-1.665-1.8679-2.467-1.1754-4.2174-1.1297-1.7041,1.7856,1.5095,0.30344,0.4972-0.2248,1.3779,1.0514,2.2527,1.3791,3.1637-0.1045,0.23217-0.2726,0.4421-0.50716,0.55652zm-22.32,12.778c-1.7116,0.27042,0.90268-2.5094-0.0336-0.51762-0.13172,0.18997,0.26909,0.36363,0.0336,0.51762zm-2.8879,1.5682c-1.5582,0.22786,0.92528-2.5521,0.0801-0.3149l0.0293,0.17103-0.1094,0.14387zm26.268-15.211c-1.2844-0.13198-0.98761-3.1893-0.5698-1.1552,0.20056,0.3753,0.58146,0.69516,0.5698,1.1552zm-9.4912,5.3626c-0.54725-1.179,0.6039-2.3824,1.5831-1.2908-0.89956,0.11915-1.3985,0.40281-1.5831,1.2908zm-19.365,11.108c-0.93828-0.72284,1.4366-2.3474,0.34222-0.66354-0.0792,0.23393-0.12529,0.50736-0.34222,0.66354zm18.062-10.446zm-0.45228,0.15299c-1.802,0.84911-0.17728-2.0404,0.35572-1.6708-0.41322,0.62349-0.74181,0.86644-0.1548,1.4213l-0.20092,0.24948zm-13.471,7.5522zm3.094-1.8043c-0.92457,0.79679-1.8474-0.49784-0.33964-0.32982,0.16097-0.0465,0.69686,0.11779,0.33964,0.32982zm16-9.31c-0.76459,0.0729-2.1769-0.66355-0.63607-0.44994,0.26424,0.038,0.55138,0.17363,0.63607,0.44994zm1.824-1.1792zm1.1843-1.1793-0.16743-0.002,0.16743,0.002zm-12.259,7.06c-0.0241-0.8274,2.4705-2.2785,1.0636-0.86287-0.34811,0.29534-0.73539,0.54449-1.0636,0.86287zm-2.3674,1.0965zm13.002-7.5066zm-3.0826,1.7617zm2.7735-1.6103c-1.0556,0.0575-0.0886-1.4282,0.0437-1.6283-0.25548-0.873-0.21336-1.6252,0.27081-0.36691,0.41058,0.69591-0.0492,1.357-0.3145,1.9952zm-5.7347,3.2388zm2.6622-1.6001c-0.70537,0.40839-0.20191-1.3136-0.70164-0.35695-0.31654-0.81824,0.74551-1.7317,0.59845-0.43044,0.47595,0.0304,0.005,0.54421,0.10319,0.78739zm4.6067-2.6957c-0.78684-0.22588-0.44081-1.337-0.38959-1.646,0.54503-0.49907-0.73786-1.5688,0.33278-0.48283,0.56477,0.75696-0.14063,1.409,0.24363,2.0358l-0.18682,0.0931zm-0.18064,0.0773zm-2.8918,1.5615c-0.6474-0.40565,0.0379-1.6037,0.12176-1.825,0.2605,1.2649,1.353,0.7691-0.12176,1.825zm-15.09,8.5864c-1.2126,0.64998,0.15348-1.1878,0-0.00001v0.00001zm-3.1954,1.6286c-1.5374-0.26982,1.5087-2.3229,0.10221-0.63687-0.10048,0.20709,0.0638,0.45068-0.10221,0.63687zm-3.8828,2.2327c-0.2316-0.84438,2.0272-3.2896,1.0071-1.3004-0.2959,0.46143-0.59622,0.93086-1.0071,1.3004zm-1.3994,0.6818c-0.13222-0.86969-1.4121,0.71508-0.55868-0.7921,0.34098-0.82974,1.8302-1.9557,0.60813-0.47948-0.14312,0.41877,0.18122,0.8655-0.0495,1.2716zm18.869-10.984c-0.78289-0.98461,0.73858-2.8161,1.6398-1.5883-1.1758-0.28015-1.1506,0.9162-1.6398,1.5883zm-4.3899,2.4624zm-0.22147,0.0378zm-7.0603,3.9862c-1.002,0.81879-1.4964-0.78014-0.14079-0.29993,0.0809,0.045,0.30785,0.19439,0.14079,0.29993zm10.19-6.0094c-1.5699-0.005,0.14406-2.4331-0.1364-0.57771l0.0992,0.28645,0.0373,0.29126zm-13.236,7.6151zm12.033-6.9835zm-4.7388,2.5917c-2.3557-3.5867-4.2975-7.433-6.1209-11.306-0.16993-2.1829,0.74109,0.70452,0.96538,1.4469,0.52667,1.5358,1.5896,2.8128,2.2172,4.3097,0.82845,1.709,1.7677,3.3642,2.889,4.9024-0.11042,0.20718,0.0148,0.44432,0.0494,0.64728zm2.1974-1.6561c-0.96094-0.97204,2.3204-2.061,0.70654-0.86744-0.59533-0.43264-0.37943,0.76282-0.70654,0.86744zm8.9346-5.3747c-0.62077,0.71237-2.5313-0.13694-0.89555-0.42797,0.25321-0.0832,1.2737-0.0867,0.89555,0.42797zm-10.912,6.21zm6.3664-4.1892zm-19.263,11.113zm5.7175-3.4091c-1.4405-0.20851,1.8673-2.4037,0.45562-0.79288-0.1977,0.24061-0.16168,0.62188-0.45562,0.79288zm8.7865-5.163c-0.6647-0.49404,1.1659-0.91632,0.0308-0.0305l-0.0308,0.0305zm10.554-6.1116c-1.8188,0.32606,0.66513-1.8558-0.65649-2.6664,0.90148,0.22918,1.1273,1.525,0.71399,2.2158,0.34976,0.25008,0.0683,0.32931-0.0575,0.45062zm-9.3841,5.2828c-0.42717-1.0341,1.8426-2.4134,1.2989-1.5062-0.72836,0.15367-0.97679,0.938-1.2989,1.5062zm6.1378-3.5707c-0.94117,0.39826-0.32698-0.5356-0.00001-0.00001l0.00001,0.00001zm-8.8916,5.0434zm-5.0384,2.8999c-1.624,0.84124-0.45076-1.3917,0.0971-0.0793l-0.0971,0.0793zm15.453-8.9577c-0.69335-0.63006-0.20513-3.1261,0.3824-1.1369,0.094,0.39343,0.0721,0.96826-0.3824,1.1369zm-20.412,11.776c-2.1822,0.57263,1.2771-2.5613-0.007-0.63034-0.34398,0.25431,0.40411,0.44228,0.007,0.63034zm15.853-9.3873c-0.60362-0.86476,0.26536-2.9984,1.2954-1.6579-1.1518-0.35858-0.7812,1.1473-1.2954,1.6579zm7.639-4.4194c-1.4208,0.15124,0.0851-1.6642-0.81288-2.4252,1.1295,0.73164,0.85192,1.6581,0.81288,2.4252zm-27.421,15.742zm5.6107-3.2664zm22.962-13.383c-1.2281,0.15408-0.68763-2.8597-0.0975-1.0429-0.47997,0.36262,0.53789,0.62872,0.0975,1.0429zm-6.2732,3.5858zm7.5826-4.486c-0.56844,0.33273-1.9943-0.72497-0.71658-0.50845-0.62232-0.20835-1.7428-1.6316-0.52116-0.54294,0.36866,0.39885,0.80566,0.72569,1.2377,1.0514zm-15.344,8.6156c-0.4838-0.6118,1.331-1.2119,0.1832-0.16303-0.0576,0.0573-0.12304,0.10795-0.1832,0.16303zm-13.579,7.5518c-1.0388-0.14355,1.6422-1.8083,0.33901-0.29518-0.0975,0.1143-0.22765,0.19524-0.33901,0.29518zm14.722-8.725zm-0.54563,0.0538zm-9.8327,5.6138zm0.49902-0.30613c-0.86057-1.1168,2.669-2.1244,0.83779-0.93508-0.10098,0.43126-0.45496,0.74719-0.83779,0.93508zm17.345-10.05c-0.74249,0.61493-2.598-0.073-0.92283-0.44104,0.25938-0.0122,1.2736-0.0925,0.92283,0.44104zm-4.4716,2.3834zm-6.0182,3.4656zm-4.2207,2.4278zm16.524-9.6303c-0.8614,0.0909-2.4809-0.48934-0.86845-0.54421,0.03-0.85976-0.89953-3.1041,0.3286-1.3055,0.11347,0.77218-0.29769,1.3132,0.53985,1.8497zm-11.243,6.4012zm0.44782-0.28557zm10.857-6.3675-0.0994-0.14083,0.0994,0.14083zm-25.83,14.877c-1.2719-0.5253-2.1893-3.0228-1.6915-3.7161,0.39379,1.2949,0.84151,2.5883,1.6915,3.7161zm4.2425-2.5305c-2.3096,0.45235,1.7063-2.6157,0.0132-0.53194-0.10449,0.15996-0.0838,0.36519-0.0132,0.53194zm1.6413-1.1368zm10.344-6.0081c-1.5841-1.3382,2.8832-1.671,0.95925-0.9489-0.15476,0.48196-0.8559,0.31594-0.95925,0.9489zm5.6434-3.3033c-1.3274,0.34163-0.32112-2.4233-0.26609-0.54562,0.27549,0.0479,0.35306,0.30649,0.26609,0.54562zm-2.9326,1.522c-0.94168-1.1584,0.2732-2.6624,1.2795-1.6838-1.038-0.12994-1.0358,0.89468-1.2795,1.6838zm9.0784-5.2504c-0.76486-0.47482-1.9613-2.7296-1.4447-2.6164,0.57342,0.81934,0.90852,1.7749,1.4447,2.6164zm-13.981,8.0268zm12.46-7.2748zm1.9509-1.1624zm-1.7271,0.98816c-1.668,0.11283-0.24447-1.3862-1.1797-2.2467,1.1755,0.47458,0.8037,1.526,1.1797,2.2467zm-2.8271,1.5331c-0.7308,0.36643-1.143-0.046-0.73354-0.42209-0.48716-1.45,0.32923-0.49847,0.68303,0.20168l0.0505,0.22041zm-22.423,12.865c-0.86658-0.093-1.1577,0.46804-0.5465-0.70482,1.4072-1.3462,0.91271-0.22297,0.5465,0.70482zm12.933-7.7192c-0.44575-0.20076-2.837,0.5458-1.6878-0.17896,0.27386,0.61962,1.3075-1.1877,1.6878,0.17896zm12.881-7.5448zm-20.285,11.45c-2.2403,0.73933,1.6293-2.0962,0.78501-0.71586-0.296,0.20076-0.50785,0.4934-0.78501,0.71586zm-7.1312,3.91-0.18135-0.003,0.18135,0.003zm14.468-8.5874c-0.48628-0.76365,0.41146-2.8256,0.75443-1.6059-0.3006,0.51247-0.31589,1.1715-0.75443,1.6059zm13.595-7.8673zm-28.47,16.203zm18.034-10.448zm4.7176-2.7688-0.0684-0.14966,0.0684,0.14966zm-18.324,10.462c-2.2563,0.26228,1.82-2.2014,0.45271-0.6862-0.22434,0.1467-0.70683,0.35488-0.45271,0.6862zm12.663-7.3289zm4.393-2.6444c-1.5948-0.24019,0.86846-1.1,0.0129-2.1215-0.28399-1.8128,1.1137,0.69768,0.68148,1.346,0.53754,0.22368-0.5517,0.64808-0.69436,0.77554zm-8.7814,4.7816zm-10.795,6.1785c-1.8124-0.25211,0.17439-2.368,0.41462-1.4872-0.34256,0.42316-1.0847,0.94667-0.41462,1.4872zm22.48-13.02zm-0.17522-0.007c-1.1842-0.0149-1.9319-3.3849-0.67316-1.2405,0.0997,0.49624,0.11994,1.0093,0.67316,1.2405zm-3.7913,2.1259c-1.2682,0.57541-0.32882-2.0095-0.25167-0.32158l0.26606,0.0215-0.0143,0.30005zm-2.7649,1.5783c-1.6347-1.176,1.1383-2.7212,0.99071-1.5911-1.3171,0.20575-0.70253,0.82895-0.99071,1.5911zm-10.04,5.6612c-1.7444,1.0362-0.57801-1.2153,0.45568-0.69256,0.14555,0.30849-0.23219,0.57351-0.45568,0.69256zm15.85-9.2053zm-10.284,5.8927zm0.69967-0.45801zm11.621-6.7455zm-27.204,15.508zm1.6795-1.0237zm3.291-1.9001zm24.525-14.25zm-1.3006,0.69685zm-14.122,8.1262zm12.265-7.2526c-1.0312,0.45402-0.41155-2.2672-0.63321-1.9869,0.68407,0.49955,0.96046,1.4936,0.63321,1.9869zm-11.177,6.219c-1.4769-1.228,0.63637-2.2053,1.2472-1.6912-0.95202,0.34803-1.1674,0.82834-1.2472,1.6912zm2.6245-1.8216c-1.1057-0.13877-0.12896-1.89,0.0242-0.39384,0.0138,0.10501,0.13258,0.31744-0.0242,0.39384zm9.4548-5.5038c-1.2278-0.20546-0.29687-1.182-0.97343-2.0131,0.66423,0.61365,1.142,1.108,0.97343,2.0131zm-25.771,14.636zm5.4524-3.166zm15.513-9.0102zm5.6535-3.4262zm-22.523,12.958zm15.475-8.9346c-2.0894,0.0978,1.0816-1.3976-0.20404-2.4081,0.0182-0.9242,1.2907,1.4778,0.57913,1.8854,0.0418,0.23932-0.075,0.55387-0.37509,0.52269zm-17.458,10.025c-0.5148-0.32319-1.2722-1.5689-0.16702-1.1787,0.17767-1.0092,1.481-0.69613,0.37082,0.0337-0.3602,0.27911-0.54452,0.76019-0.2038,1.145zm10.118-6.04zm-4.8658,2.7462zm10.854-6.4198c-1.056,0.25578-0.26964-2.1203-0.081-0.56934,0.44522-0.092,0.47451,0.50223,0.081,0.56934zm4.2196-2.6794zm-0.58409,0.11196c-0.83864,0.34338-2.0331,0.3927-0.85517-0.36774,0.15212-0.8501-0.95703-2.2948,0.23448-0.94837,0.29156,0.38556,0.57631,0.82168,0.62069,1.3161zm-10.065,5.5229c-1.0238-0.48371-0.0313-2.377,0.31965-1.3504-0.29371,0.38152-0.37225,0.88228-0.31965,1.3504zm-11.665,6.7167zm23.253-13.488zm-18.369,10.57c-1.4853-0.3221-0.10369-1.4159,0.66161-1.1187,1.9771-0.44455-1.1762,0.44738-0.66161,1.1187zm10.798-6.2521c-1.6187,0.23987,0.55412-2.0925-0.81476-2.566,1.048,0.15912,1.0453,1.6033,1.0661,2.3612l-0.11024,0.13977-0.14108,0.065zm6.7631-3.9858c-1.2483,0.28726-0.67701-3.0361-0.0271-0.89305,0.107,0.26811,0.25587,0.64047,0.0271,0.89305zm-5.7212,3.231zm-2.7408,1.3392zm10.316-6.0099zm-1.6089,0.80275zm-23.994,13.781c-0.62672-0.51878,0.92393-1.1437,0.13634-0.20729l-0.0312,0.11701-0.1052,0.0903zm14.178-8.1855zm-11.714,6.7092zm17.716-10.328zm-16.351,9.3053c-1.8135-0.46561,0.99971-2.5295,0.66938-1.2984-0.48147,0.26402-0.85993,0.71557-0.66938,1.2984zm-2.4676,1.4066c-1.4673,0.74234,1.1304-1.447,0.19165-0.1197-0.0639,0.0399-0.12777,0.0798-0.19165,0.1197zm23.334-13.535c-1.374,0.83007-0.57194-2.0333-0.005-0.28294-0.009,0.085,0.0393,0.21189,0.005,0.28294zm-6.0221,3.4589c-0.75944-0.16014-1.7417,0.27456-0.60407-0.54928,0.50657-0.62013-0.66883-2.3785,0.47977-1.0291,0.49979,0.36016,0.39809,1.1111,0.1243,1.5784zm-3.7063,2.0858zm-8.1912,4.3057zm18.783-10.961zm-0.44943,0.14234zm-22.459,12.913zm18.63-10.81zm-13.376,7.6863c-0.5904,0.35757-2.5396,0.46465-1.2736-0.0783,0.28534,0.0744,1.8188-0.80377,1.2736,0.0783zm15.57-9.0347zm-21.789,12.418zm13.112-7.6426c-1.6016,0.3838-0.84652-1.0443,0.30889-0.59323,0.82625-0.77103,0.85991-0.0396-0.0831,0.22699l-0.19045,0.18507-0.0353,0.18117zm-1.3904,0.54142zm-1.173,0.66822zm0.89383-0.54306zm7.1457-4.1346c-0.85454,0.48912-1.8294,0.54411-0.68816-0.27946-0.84741-1.4952,0.31829-0.56315,0.68816,0.27946zm2.0416-1.2238zm1.4552-0.97531c-1.2944-0.0223-0.10048-1.6223,0.5515-0.70114-1.0464-0.40424-0.52435,0.0664-0.5515,0.70114zm-19.409,11.079zm16.943-9.8093zm-21.198,12.085zm20.377-12.071c-0.56834-0.24431,0.92465-0.81174,0.0387-1.1035,1.0146,0.28011,0.75036,0.78323-0.0387,1.1035zm-20.189,11.647zm1.6382-0.95482zm14.106-8.1532zm-1.7676,1.0116c-0.17405-0.59439-0.84016-1.7142,0.10627-0.61604,0.0788,0.19718,0.098,0.4788-0.10627,0.61604zm-8.2119,4.6601zm16.056-9.2701zm0.68405-0.48505zm-10.505,5.822zm4.3054-2.5308zm-0.55,0.248c-1.3354,1.2396-0.51454-2.1014-0.0312-0.26986-0.003,0.0801,0.0615,0.20352,0.0312,0.26986zm-16.637,9.5601zm5.7711-3.3319c-1.5595,0.8766-1.0152-0.84238,0.16905-0.21304l-0.0335,0.0926-0.13556,0.12041zm16.327-9.4716zm0.5946-0.57756c-1.2696,0.15333-0.0303-1.3334-0.19488-0.44142-0.91374,0.42928,0.71686,0.056,0.19488,0.44142zm-19.646,11.324zm16.905-9.8139zm-6.7359,3.7989c-1.2068,0.828-1.2885,0.0726-0.2582-0.51269,0.69852-0.25806,1.0304,0.18337,0.2582,0.51269zm4.5723-2.802c-2.2799-0.19067,1.6496-1.4262,0.77087-0.75195-0.52416-0.1129-0.29402,0.68013-0.77087,0.75195zm5.3039-3.2514-0.0648,0.0284,0.0648-0.0284zm-17.037,9.7555zm14.92-8.632c-1.2582,0.25142-0.98559-1.0275-0.15239-0.23851,0.023,0.026,0.2608,0.14461,0.15239,0.23851zm-17.576,9.9311zm16.624-9.6607c-1.1643,0.28886-1.6898-0.81859-0.29532-0.22846l0.29532,0.22846zm-3.7981,2.1298zm5.2554-3.0702zm-20.873,12.024zm1.7008-1.018zm0.46906-0.5141c-0.72333-0.66551,1.8772-0.65041,0.20487-0.13131-0.0683,0.0438-0.13658,0.0875-0.20487,0.13131zm16.039-9.1432zm-11.658,6.7128c-0.87258,0.34859-1.3149-0.0266-0.25101-0.28353,0.17445-0.62527-0.49802-2.9192,0.47077-1.3214,0.25689,0.53248,0.0776,1.1322-0.21976,1.6049zm6.6581-3.8711c-1.7943-0.22774,0.3499-1.2051,1.009-0.83241-0.34274,0.26628-0.80561,0.41662-1.009,0.83241zm-9.8538,5.6711,0.0164-0.0184-0.0164,0.0184zm0.58088-0.39845zm-3.9819,2.1548zm19.83-11.74zm0.82389-0.6018zm-19.878,11.468zm3.4106-2.0051zm12.434-7.2418zm-14.118,8.07c-0.66059-0.83488,1.9998-1.6394,0.22262-0.70339-0.15142,0.22286,0.19238,0.62042-0.22262,0.70339zm-0.0358-0.65508c0.074-0.77627,1.3355-1.1426,0.27234-0.24637l-0.27234,0.24637zm-1.0093,1.1234zm17.805-10.361c-1.3393,0.39532-0.346-1.2196-0.15639-0.28315,0.14153-0.0545,0.35826,0.20303,0.15639,0.28315zm-8.4583,4.7483c-1.7382,0.16508,0.69864-1.8021,0.54671-0.57153-0.89172-0.48399-0.29419,0.23474-0.54671,0.57153zm9.2783-5.3568zm-4.7748,2.7478c-0.77422,0.63086-3.7335-0.40815-1.4182-0.2765,0.47129,0.0327,1.0101-0.005,1.4182,0.2765zm3.0573-1.7742zm-5.7228,3.0878zm-8.0185,4.6205zm12.88-7.4364zm-3.6328,2.0884zm2.7204-1.7959c-0.8968-0.0534-3.4394,0.31044-3.0837-0.31882,1.0379-0.2227,2.0509,0.30135,3.0837,0.31882zm0.4846-0.72129c-0.63432-0.39675-3.3368,0.0913-1.2693-0.39035,0.55918,0.0625,1.4463-0.39433,1.2693,0.39035zm-5.1829,2.8212zm-9.7545,5.5777zm12.422-7.1991zm-12.023,6.9234zm8.5726-5.1746c-1.0195,0.072-1.6953-0.77168-0.21326-0.52365,0.81054-0.30144,0.66772,0.0614,0.21326,0.52365zm-7.2544,4.0712zm2.1014-1.2763c0.47215-1.3921-1.9722,0.92048-0.56307-0.65056,0.61924-0.55255,1.1777-1.6785,0.97038-0.0814-0.0499,0.2329-0.0717,0.71365-0.40731,0.73203zm-1.4848,0.19051zm7.0743-4.1023zm-4.6888,0.97713z" fill="#f0edec"/>
  <path id="path6354" d="m145.88,36.619-3.3399,0.0361c-2.2423-2.8489-4.453-6.1053-6.5133-9.6739-2.1831-3.7812-3.971-7.5326-5.3494-11.076l1.6093-2.8933c1.5617,3.511,4.1653,8.4785,6.3116,12.196,2.1089,3.6528,5.0621,8.3424,7.2817,11.411z" fill-rule="nonzero" fill="url(#linearGradient4085)"/>
  <path id="path6356" d="m160.87,34.229-3.4187,2.0185c-7.841-5.4744-15.602-22.185-19.348-32.126l3.9006-2.2794c1.7738,9.0239,13.335,28.079,18.867,32.387z" fill-rule="nonzero" fill="url(#linearGradient4087)"/>
  <path id="path6358" fill="url(#linearGradient4089)" d="m97.446,58.889c-3.5949,3.7361-8.0838,7.1434-9.6772,12.287-1.2946,4.63-1.1581,15.784-3.289,20.157-1.8408,2.4896-5.3194,1.8289-7.6623,0.52942-3.1794-1.8972-3.2988-12.172-5.2731-14.977-1.4503-2.0272-3.9083-2.8812-6.208-3.4657-3.8671-2.1156-6.1779-6.0355-8.9631-9.2741-0.74493-1.2044,1.0515-1.5586,1.7301-2.1698,12.714-8.0596,25.428-16.119,38.141-24.179,0.40047,7.031,0.80094,14.062,1.2014,21.093z"/>
  <path id="path6360" d="m809.87,940.42s7.034,6.1106,7.8866,8.8151c0.8526,2.7047,1.9184,10.819,2.6644,11.42,0.74603,0.6009,1.1723,1.5025,1.9184,1.803,0.74603,0.3006,5.1161-0.3928,6.3219-2.0928,1.2058-1.6999,2.6978-7.9332,6.3303-7.9332,3.6324,0,9.6461-2.4998,9.6461-2.4998l-33.762-20.116z" fill-opacity="0.39215686" transform="matrix(-1.018011,0,0,1.018011,919.74112,-899.0573)" filter="url(#filter10006)" fill="#000"/>
  <path id="path6362" fill="#1e1e1e" d="m97.446,58.889-32.11,14.53s-6.1779-6.0355-8.9631-9.2741c-0.74493-1.2044,1.0515-1.5586,1.7301-2.1698,12.714-8.0596,25.428-16.119,38.141-24.179,0.40047,7.031,1.2014,21.093,1.2014,21.093z"/>
  <path id="path6364" d="m131.03,16.569c-18.886,12.905-82.955,53.041-101.77,65.97-1.1885,0.68621-0.65465,3.8288,1.183,7.0118,1.8376,3.1829,4.2884,5.2098,5.477,4.5236,20.606-9.954,86.125-47.431,106.72-57.426-2.2876-2.7656-4.5411-5.9926-6.6086-9.5737-2.0659-3.5782-3.7426-7.1448-4.9936-10.506z" fill-rule="nonzero" fill="#3c3c3c"/>
  <path id="path6366" opacity="0.33000004" d="m295.86,315.93-273.72-24.639,0-0.15625c-0.16963,0.0231-211.19-5.7634-211.36-5.7634-5.4963,0-9.9375-11.969-9.9375-26.688l490.1,1.6694c-2.396,14.172,1.1998-12.404,1.1998,4.1565,0,16.547,1.3265,37.257,3.7188,51.42z" fill-rule="nonzero" transform="matrix(0.21624602,-0.12484969,-0.11275121,-0.19529083,102.7995,114.93159)" filter="url(#filter5184)" fill="url(#linearGradient4091)"/>
  <path id="path6368" opacity="0.33000004" stroke-linejoin="miter" d="M-182.33,98.307,307.1,85.891" stroke-opacity="0.97647059" transform="matrix(0.21624602,-0.12484969,-0.12484969,-0.21624602,85.66855,91.75211)" filter="url(#filter10101)" stroke="#FFF" stroke-linecap="butt" stroke-miterlimit="4" stroke-dasharray="none" stroke-width="4" fill="none"/>
 </g>
</svg>
