/* XPM */
static char * logo_xpm[] = {
"32 32 640 2",
"  	c None",
". 	c #C0C0C0",
"+ 	c #BFBFBF",
"@ 	c #BEBEBE",
"# 	c #C1C1C1",
"$ 	c #C3C3C3",
"% 	c #C4C4C4",
"& 	c #BCBCBC",
"* 	c #BBBBBB",
"= 	c #476E94",
"- 	c #245283",
"; 	c #295670",
"> 	c #2A576D",
", 	c #275585",
"' 	c #285591",
") 	c #2C5A96",
"! 	c #2D5B94",
"~ 	c #3465A1",
"{ 	c #3668A6",
"] 	c #33619E",
"^ 	c #3863A3",
"/ 	c #3864A2",
"( 	c #3865A0",
"_ 	c #385D8E",
": 	c #3A5679",
"< 	c #2F4258",
"[ 	c #253040",
"} 	c #1F2934",
"| 	c #181D21",
"1 	c #16181B",
"2 	c #0E0F11",
"3 	c #797B7F",
"4 	c #AEBCCE",
"5 	c #34619C",
"6 	c #35639D",
"7 	c #37629C",
"8 	c #37639C",
"9 	c #456EA2",
"0 	c #416B9D",
"a 	c #205495",
"b 	c #2D5B32",
"c 	c #30581F",
"d 	c #2F5D42",
"e 	c #38665B",
"f 	c #2D608B",
"g 	c #285DAB",
"h 	c #285FAB",
"i 	c #2A62AC",
"j 	c #78A0CE",
"k 	c #6B747F",
"l 	c #0E1115",
"m 	c #131416",
"n 	c #111112",
"o 	c #0F0F0F",
"p 	c #0E0E0E",
"q 	c #050505",
"r 	c #515053",
"s 	c #E9E9F0",
"t 	c #36619A",
"u 	c #2E61A3",
"v 	c #2F62A7",
"w 	c #3263A9",
"x 	c #3E6BAC",
"y 	c #466FA7",
"z 	c #285C80",
"A 	c #325C39",
"B 	c #2B4B1B",
"C 	c #223711",
"D 	c #2F4915",
"E 	c #284B2A",
"F 	c #2F628C",
"G 	c #3066AC",
"H 	c #2E60AD",
"I 	c #E4EDF4",
"J 	c #818181",
"K 	c #080808",
"L 	c #101010",
"M 	c #0D0D0D",
"N 	c #000000",
"O 	c #29292A",
"P 	c #F3F0F8",
"Q 	c #406490",
"R 	c #2E5C9B",
"S 	c #315EA0",
"T 	c #3361A5",
"U 	c #416DA9",
"V 	c #4870B0",
"W 	c #2F615C",
"X 	c #3A602A",
"Y 	c #2E563A",
"Z 	c #212E18",
"` 	c #1B2A16",
" .	c #172511",
"..	c #172416",
"+.	c #385851",
"@.	c #3563B0",
"#.	c #D1DCEA",
"$.	c #A2A1A3",
"%.	c #0B0B0B",
"&.	c #010101",
"*.	c #1B1B1B",
"=.	c #EAE9EE",
"-.	c #435E82",
";.	c #2D5590",
">.	c #325B9A",
",.	c #3661A2",
"'.	c #456DAC",
").	c #BABABA",
"!.	c #4A70B1",
"~.	c #2B5A83",
"{.	c #254B45",
"].	c #284839",
"^.	c #253D1B",
"/.	c #283E1E",
"(.	c #131E11",
"_.	c #151E1B",
":.	c #253829",
"<.	c #386185",
"[.	c #B2C7E1",
"}.	c #B6B5B9",
"|.	c #0F0E0E",
"1.	c #101011",
"2.	c #020202",
"3.	c #000001",
"4.	c #E5E4EA",
"5.	c #475D79",
"6.	c #2D5085",
"7.	c #335894",
"8.	c #385F9E",
"9.	c #486BA8",
"0.	c #4D71AE",
"a.	c #2A57AC",
"b.	c #2C5BAE",
"c.	c #2A5592",
"d.	c #1F382C",
"e.	c #2F4721",
"f.	c #182914",
"g.	c #2A3F3D",
"h.	c #3C5551",
"i.	c #345780",
"j.	c #9DB3D4",
"k.	c #C3C0C5",
"l.	c #111111",
"m.	c #0E0D0C",
"n.	c #101318",
"o.	c #0F1011",
"p.	c #10161E",
"q.	c #040506",
"r.	c #00050C",
"s.	c #000002",
"t.	c #080707",
"u.	c #D8D9DC",
"v.	c #68768B",
"w.	c #304E80",
"x.	c #375791",
"y.	c #3D609E",
"z.	c #4C6FAB",
"A.	c #B9B9B9",
"B.	c #4F73AE",
"C.	c #2F5BA8",
"D.	c #2F5CA9",
"E.	c #3761B1",
"F.	c #3B5876",
"G.	c #274030",
"H.	c #2A4C48",
"I.	c #2F3E2E",
"J.	c #2F4551",
"K.	c #3E62A3",
"L.	c #8CA5CA",
"M.	c #CCC9CE",
"N.	c #141414",
"O.	c #101012",
"P.	c #0F1010",
"Q.	c #111010",
"R.	c #060607",
"S.	c #BEBFC0",
"T.	c #848B9A",
"U.	c #324D7D",
"V.	c #39588F",
"W.	c #40649E",
"X.	c #5073A8",
"Y.	c #5676B1",
"Z.	c #375DA9",
"`.	c #375EAC",
" +	c #3F6097",
".+	c #3B577B",
"++	c #2B4248",
"@+	c #213329",
"#+	c #192621",
"$+	c #122016",
"%+	c #355170",
"&+	c #8A9CC5",
"*+	c #DDDCE1",
"=+	c #1E1E1F",
"-+	c #0C0C0C",
";+	c #0F0F0E",
">+	c #919294",
",+	c #B0B5BB",
"'+	c #34507B",
")+	c #3B5C8C",
"!+	c #45689E",
"~+	c #5678AB",
"{+	c #B6B6B6",
"]+	c #5E77B1",
"^+	c #3D5FA9",
"/+	c #4161AC",
"(+	c #4564B2",
"_+	c #496472",
":+	c #526537",
"<+	c #303F24",
"[+	c #3A4849",
"}+	c #4E5A40",
"|+	c #3C4F4F",
"1+	c #778BB6",
"2+	c #E6E5EC",
"3+	c #2D2D2E",
"4+	c #0A0A0A",
"5+	c #020201",
"6+	c #656666",
"7+	c #CCD0D1",
"8+	c #3B557C",
"9+	c #4C6691",
"0+	c #4E6DA2",
"a+	c #5776AB",
"b+	c #6479B5",
"c+	c #4964AD",
"d+	c #4B65B2",
"e+	c #5068B7",
"f+	c #5E7292",
"g+	c #50604D",
"h+	c #505C45",
"i+	c #3E493A",
"j+	c #526474",
"k+	c #3E4A4B",
"l+	c #768471",
"m+	c #F4F3F9",
"n+	c #4B4B4B",
"o+	c #070706",
"p+	c #000102",
"q+	c #000103",
"r+	c #484948",
"s+	c #DADDDD",
"t+	c #616D8A",
"u+	c #64769A",
"v+	c #788BB2",
"w+	c #8297BB",
"x+	c #8895C3",
"y+	c #546CB7",
"z+	c #566CAB",
"A+	c #627187",
"B+	c #5C72C1",
"C+	c #6079BB",
"D+	c #5F6752",
"E+	c #5C604C",
"F+	c #8B9AB9",
"G+	c #ABB9DD",
"H+	c #6F775B",
"I+	c #EEEDF4",
"J+	c #69686B",
"K+	c #080706",
"L+	c #0E0C0B",
"M+	c #010A18",
"N+	c #000C21",
"O+	c #010C1E",
"P+	c #010C20",
"Q+	c #000E27",
"R+	c #000C22",
"S+	c #363736",
"T+	c #DDE0DE",
"U+	c #6F778E",
"V+	c #7C88A1",
"W+	c #A1A7BC",
"X+	c #9AA2BE",
"Y+	c #B5B5B5",
"Z+	c #A1A9C8",
"`+	c #5F78C0",
" @	c #5B719E",
".@	c #454C2F",
"+@	c #5A6E9A",
"@@	c #7D92D2",
"#@	c #697680",
"$@	c #474D2F",
"%@	c #8C9298",
"&@	c #AEB5C3",
"*@	c #353A2A",
"=@	c #DADCDA",
"-@	c #80817F",
";@	c #09192C",
">@	c #080E16",
",@	c #000C24",
"'@	c #001332",
")@	c #010E25",
"!@	c #000D22",
"~@	c #000A1B",
"{@	c #000A1C",
"]@	c #000D24",
"^@	c #001134",
"/@	c #28405E",
"(@	c #DDDAD5",
"_@	c #656D87",
":@	c #787D9B",
"<@	c #7C87AC",
"[@	c #8891B5",
"}@	c #B3B3B3",
"|@	c #8B9CBF",
"1@	c #6981BE",
"2@	c #798CC3",
"3@	c #60654A",
"4@	c #424938",
"5@	c #949ECA",
"6@	c #A0A2B9",
"7@	c #707156",
"8@	c #323C35",
"9@	c #353B2F",
"0@	c #353A35",
"a@	c #D8DCDE",
"b@	c #9A9EA1",
"c@	c #0A1E39",
"d@	c #021838",
"e@	c #001334",
"f@	c #000510",
"g@	c #000209",
"h@	c #00040B",
"i@	c #000308",
"j@	c #24292D",
"k@	c #787988",
"l@	c #767A96",
"m@	c #7983A8",
"n@	c #9198B6",
"o@	c #B1B1B1",
"p@	c #8C90A6",
"q@	c #6B74A2",
"r@	c #6573AB",
"s@	c #72799B",
"t@	c #535434",
"u@	c #656651",
"v@	c #979B89",
"w@	c #555A40",
"x@	c #1D2116",
"y@	c #282E1B",
"z@	c #60645D",
"A@	c #D8DADC",
"B@	c #C9CCCC",
"C@	c #111213",
"D@	c #020302",
"E@	c #414040",
"F@	c #646576",
"G@	c #5A5D7C",
"H@	c #63688E",
"I@	c #7F809E",
"J@	c #AEAEAE",
"K@	c #838392",
"L@	c #60668F",
"M@	c #6B7096",
"N@	c #817A96",
"O@	c #817982",
"P@	c #656134",
"Q@	c #A9A687",
"R@	c #5A5B3B",
"S@	c #1A1F12",
"T@	c #504A40",
"U@	c #83707D",
"V@	c #A2A3AE",
"W@	c #E4E6E5",
"X@	c #3E3F3E",
"Y@	c #292A2A",
"Z@	c #929292",
"`@	c #9D6763",
" #	c #B5A3A2",
".#	c #A0A1A1",
"+#	c #2E2E2E",
"@#	c #9D9DA1",
"##	c #C5C7CA",
"$#	c #6B6773",
"%#	c #625671",
"&#	c #736683",
"*#	c #877790",
"=#	c #ACACAC",
"-#	c #858585",
";#	c #5F6569",
">#	c #5B6477",
",#	c #82838C",
"'#	c #8F878B",
")#	c #B0A8A0",
"!#	c #D0CCB0",
"~#	c #505132",
"{#	c #202516",
"]#	c #63554D",
"^#	c #A98881",
"/#	c #89858F",
"(#	c #D6D9D8",
"_#	c #C3C5C4",
":#	c #1E1E1E",
"<#	c #6C6C6C",
"[#	c #F9F9FB",
"}#	c #F3F0F0",
"|#	c #984540",
"1#	c #CCB7B5",
"2#	c #FFFFFF",
"3#	c #EDEDED",
"4#	c #B0B0B1",
"5#	c #BBBBC1",
"6#	c #B3B5BA",
"7#	c #6F6B72",
"8#	c #695869",
"9#	c #716279",
"0#	c #80718A",
"a#	c #6F7054",
"b#	c #3A4227",
"c#	c #1E291E",
"d#	c #4A513A",
"e#	c #777754",
"f#	c #C7BFA6",
"g#	c #9C9C7D",
"h#	c #2E3018",
"i#	c #1D2419",
"j#	c #6B5E38",
"k#	c #85713F",
"l#	c #8E8363",
"m#	c #D0D2D1",
"n#	c #D2D5D5",
"o#	c #C9C9CC",
"p#	c #D2D2D4",
"q#	c #D1D1D2",
"r#	c #CCCDCD",
"s#	c #BCC7C8",
"t#	c #C1C4C4",
"u#	c #CCCCCD",
"v#	c #DDDDDE",
"w#	c #C7C7CA",
"x#	c #B2B3B9",
"y#	c #706D72",
"z#	c #675E68",
"A#	c #6B5D73",
"B#	c #897985",
"C#	c #ABABAB",
"D#	c #4C5243",
"E#	c #2A3120",
"F#	c #353925",
"G#	c #474D37",
"H#	c #50553C",
"I#	c #5E6140",
"J#	c #54573B",
"K#	c #58583F",
"L#	c #717052",
"M#	c #786E43",
"N#	c #58522A",
"O#	c #696449",
"P#	c #C5C7C8",
"Q#	c #BFC0C3",
"R#	c #BCBCBF",
"S#	c #B9BABC",
"T#	c #B3B5B7",
"U#	c #B0B0B2",
"V#	c #B7B7B9",
"W#	c #B7B7B7",
"X#	c #AEAEB1",
"Y#	c #B2B3B6",
"Z#	c #9A9A9B",
"`#	c #A2A2A5",
" $	c #BBBCC0",
".$	c #767679",
"+$	c #6C6364",
"@$	c #666170",
"#$	c #827A87",
"$$	c #A9A9A9",
"%$	c #A09D88",
"&$	c #919173",
"*$	c #888761",
"=$	c #858057",
"-$	c #787450",
";$	c #8B8565",
">$	c #C0B58B",
",$	c #CAB987",
"'$	c #D1BB88",
")$	c #BEA871",
"!$	c #AC985E",
"~$	c #A39768",
"{$	c #B9BABF",
"]$	c #B0B1B5",
"^$	c #97989B",
"/$	c #838385",
"($	c #949597",
"_$	c #D8D8D9",
":$	c #D9D9D9",
"<$	c #97989A",
"[$	c #8C8C8F",
"}$	c #A2A3A6",
"|$	c #B3B3B7",
"1$	c #838488",
"2$	c #58565F",
"3$	c #65636D",
"4$	c #787680",
"5$	c #A8A8A8",
"6$	c #D8CEAD",
"7$	c #F0E9CA",
"8$	c #DCD4B6",
"9$	c #B7AC80",
"0$	c #C4B584",
"a$	c #D4BF8B",
"b$	c #C8B582",
"c$	c #BEAC7A",
"d$	c #BBA777",
"e$	c #A99A65",
"f$	c #A59665",
"g$	c #978F69",
"h$	c #A0A1A5",
"i$	c #989A9C",
"j$	c #8F9092",
"k$	c #A1A2A5",
"l$	c #A3A5A7",
"m$	c #A3A3A6",
"n$	c #9EA0A2",
"o$	c #ACADB0",
"p$	c #A6A7A9",
"q$	c #95969A",
"r$	c #484654",
"s$	c #4D4D62",
"t$	c #666574",
"u$	c #A6A6A6",
"v$	c #E9E6DA",
"w$	c #EEECCC",
"x$	c #F0EDDD",
"y$	c #E5DEC8",
"z$	c #E9E4D0",
"A$	c #E0DAC0",
"B$	c #BCAE81",
"C$	c #B6A16D",
"D$	c #B2A273",
"E$	c #B6A677",
"F$	c #A69262",
"G$	c #958860",
"H$	c #B2B2B6",
"I$	c #A6A7AB",
"J$	c #A7A8AB",
"K$	c #9C9DA0",
"L$	c #A5A6A8",
"M$	c #929295",
"N$	c #909092",
"O$	c #A5A5A8",
"P$	c #3F3F4F",
"Q$	c #51505C",
"R$	c #6C6C6D",
"S$	c #A7A7A7",
"T$	c #D2CDB5",
"U$	c #BEB289",
"V$	c #DEDAC1",
"W$	c #E8E4D1",
"X$	c #E6E6E1",
"Y$	c #F5F5F5",
"Z$	c #E0DDCE",
"`$	c #D2C8AD",
" %	c #CEC1A0",
".%	c #B6AB8C",
"+%	c #7A7246",
"@%	c #5D5225",
"#%	c #ADADAB",
"$%	c #ADAEB2",
"%%	c #9A9B9D",
"&%	c #8B8B8F",
"*%	c #BABBBE",
"=%	c #96989B",
"-%	c #838485",
";%	c #747476",
">%	c #3F4047",
",%	c #5C5656",
"'%	c #6E6865",
")%	c #A3A3A3",
"!%	c #BFBFAB",
"~%	c #A3A68F",
"{%	c #BFBCAC",
"]%	c #BEBCAB",
"^%	c #B2B5AC",
"/%	c #C5C5BB",
"(%	c #C8C5B6",
"_%	c #DDDAD8",
":%	c #CAC5BC",
"<%	c #B5B6A7",
"[%	c #566041",
"}%	c #333D21",
"|%	c #94958E",
"1%	c #B3B5BB",
"2%	c #A8A9AD",
"3%	c #707071",
"4%	c #929496",
"5%	c #A1A1A3",
"6%	c #ABABAD",
"7%	c #CDCED1",
"8%	c #828284",
"9%	c #32373F",
"0%	c #43454A",
"a%	c #57565B",
"b%	c #A5A5A5",
"c%	c #D5D5D5",
"d%	c #D2D2D2",
"e%	c #D1D1D1",
"f%	c #CECECE",
"g%	c #CDCDCD",
"h%	c #C9C9C9",
"i%	c #C8C8C8",
"j%	c #B5B5B7",
"k%	c #BBBCC1",
"l%	c #B1B2B5",
"m%	c #B5B6B9",
"n%	c #9A9A9C",
"o%	c #A2A3A5",
"p%	c #C7C8CC",
"q%	c #D6D8D9",
"r%	c #646566",
"s%	c #5E5E5E",
"t%	c #6F6F6F",
"u%	c #8A8A8A",
"v%	c #B1B2B3",
"w%	c #C5C7C9",
"x%	c #C7C8CA",
"y%	c #A5A5A7",
"z%	c #ABACB0",
"A%	c #D1D2D4",
"B%	c #DDE0E0",
"C%	c #A2A2A3",
"D%	c #A5A6A7",
"E%	c #D2D4D6",
"F%	c #CED0D4",
"G%	c #D2D5D6",
"H%	c #D5D8D8",
"I%	c #D9DCDA",
"J%	c #B0B2B1",
"K%	c #7A7A7A",
"L%	c #D1D4D2",
"M%	c #D2D6D4",
"N%	c #919292",
"O%	c #161516",
"P%	c #212120",
"Q%	c #272626",
"R%	c #575757",
"S%	c #606160",
"T%	c #626363",
"U%	c #616261",
"V%	c #5F605F",
"W%	c #464747",
"  . + + + + + + . @ @ + . . # # # $ $ % # & & * * * * * * * *   ",
"  = - ; > , ' ) ! ~ { ] ^ / ( _ : < [ } | 1 2 3 4 5 6 7 8 9 *   ",
"  0 a b c d e f g h i j k l m n o p p p p o q r s t u v w x *   ",
"  y z A B C D E F G H I J K p p p o o o L M N O P Q R S T U &   ",
"  V W X Y Z `  ...+.@.#.$.%.p o o o o L p &.N *.=.-.;.>.,.'.).  ",
"  !.~.{.].^./.(._.:.<.[.}.p p |.o o 1.o 2.3.N 1.4.5.6.7.8.9.).  ",
"  0.a.b.c.d.e.f.g.h.i.j.k.l.m.n.o.|.p.q.N r.s.t.u.v.w.x.y.z.A.  ",
"  B.C.D.E.F.G.H.I.J.K.L.M.N.M O.P.Q.R.N N N N &.S.T.U.V.W.X.A.  ",
"  Y.Z.`. +.+++@+#+$+%+&+*+=+-+;+L %.N N N N N N >+,+'+)+!+~+{+  ",
"  ]+^+/+(+_+:+<+[+}+|+1+2+3+4+o L 5+N N N N N N 6+7+8+9+0+a+{+  ",
"  b+c+d+e+f+g+h+i+j+k+l+m+n+K L o+N N N p+q+N N r+s+t+u+v+w+{+  ",
"  x+y+z+A+B+C+D+E+F+G+H+I+J+K+L+M+N+O+P+Q+R+N N S+T+U+V+W+X+Y+  ",
"  Z+`+ @.@+@@@#@$@%@&@*@=@-@;@>@,@'@)@!@~@{@]@^@/@(@_@:@<@[@}@  ",
"  |@1@2@3@4@5@6@7@8@9@0@a@b@c@d@e@!@~@f@g@h@h@i@j@=@k@l@m@n@o@  ",
"  p@q@r@s@t@u@v@w@x@y@z@A@B@C@N N N N D@5+N N N E@A@F@G@H@I@J@  ",
"  K@L@M@N@O@P@Q@R@S@T@U@V@W@X@N N Y@Z@`@ #.#+#q @###$#%#&#*#=#  ",
"  -#;#>#,#'#)#!#~#{#]#^#/#(#_#:#<#[#}#|#1#2#3#4#5#6#7#8#9#0#=#  ",
"  a#b#c#d#e#f#g#h#i#j#k#l#m#n#o#p#q#r#s#t#u#o#v#w#x#y#z#A#B#C#  ",
"  D#E#F#G#H#I#J#K#L#M#N#O#P#Q#R#S#T#U#V#W#X#Y#Z#`# $.$+$@$#$$$  ",
"  %$&$*$=$-$;$>$,$'$)$!$~${$]$^$/$($T#_$:$V#<$[$}$|$1$2$3$4$5$  ",
"  6$7$8$9$0$a$b$c$d$e$f$g$6#h$i$($j$k$l$m$n$k$o$p$o$q$r$s$t$u$  ",
"  v$w$x$y$z$A$B$C$D$E$F$G$H$I$}$J$p$K$L$L$K$j$M$N$p$O$P$Q$R$S$  ",
"  T$U$V$W$X$Y$Z$`$ %.%+%@%#%$%}$%%&%^$Y#*%n$=%-%;%*%I$>%,%'%)%  ",
"  !%~%{%]%^%/%(%_%:%<%[%}%|%1%2%3%i$p$p$4%5%2%l$6%7%8%9%0%a%b%  ",
"  c%c%d%d%e%f%g%h%i%% $ ).j%k% $l%l%m$m%n%o%N$m$p%q%r%s%t%-#u%  ",
"                            v%w%x%Q#y%%%z%o%Y#A%B%C%            ",
"                              D%E%F%G%A%7%H%I%T+J%*.            ",
"                                K%P#m#m#L%M%L%N%O%              ",
"                                          P%Q%                  ",
"                                      R%S%T%U%V%W%              ",
"                                                                ",
"                                                                "};
